<svg xmlns="http://www.w3.org/2000/svg" width="841" height="910"><path fill="#15181f" d="M0 0h841v910H0z"/><path fill="#171215" d="M0 0h841v910H0zm55.563 55.957c-4.93 8.03-4.85 15.936-4.82 25.068l-.01 4.01c-.01 3.678-.007 7.356-.002 11.034.003 4-.005 8-.012 11.999q-.014 10.517-.011 21.035c.003 10.427-.006 20.854-.016 31.281-.02 19.706-.025 39.411-.026 59.117a127465 127465 0 0 1-.017 58.784l-.001 3.298q-.02 45.93-.02 91.86v3.499l.001 17.558v10.575q.002 54.863-.04 109.725a155424 155424 0 0 0-.046 139.648c0 17.362-.013 34.724-.03 52.085a30334 30334 0 0 0-.006 52.34q.012 15.55-.016 31.1-.018 10.388.005 20.775c.008 3.946.01 7.891-.007 11.836q-.02 5.392.008 10.782c.005 1.892-.01 3.784-.025 5.675C50.565 850.235 52.997 860.784 61 869c10.433 9.443 19.795 11.153 33.562 11.134l3.566.007q4.91.008 9.82.006 5.338.002 10.677.011 10.59.014 21.183.016 12.686.005 25.37.02 30.66.03 61.319.04l29.004.015a314232 314232 0 0 0 105.504.042h3.122l15.657.004h3.14q50.386.015 100.774.065a122050 122050 0 0 0 121.134.059c15.45.002 30.899.018 46.348.038q23.289.03 46.577.017 13.837-.01 27.674.022 9.245.02 18.488 0c3.511-.007 7.022-.008 10.533.01 3.786.014 7.571.005 11.357-.011l3.286.031c11.265-.102 20.823-3.523 28.905-11.526 6.406-7.794 9.465-15.755 9.388-25.767l.016-2.58c.015-2.85.008-5.7.001-8.55q.01-3.102.023-6.205c.02-5.691.021-11.381.02-17.072 0-6.15.02-12.3.036-18.451q.039-16.07.049-32.14.012-17.086.043-34.176l.004-2.168.016-8.725c.052-27.428.087-54.857.115-82.285q.036-35.673.102-71.346l.017-8.973.004-2.24.012-6.718.004-2.237a92621 92621 0 0 0 .147-233.866c-.02-36.724-.064-73.448-.166-110.171l-.006-2.076-.006-2.07-.006-2.066-.011-4.112q-.041-15.165-.058-30.332-.02-16.97-.088-33.941a4279 4279 0 0 1-.04-17.182q-.002-7.838-.053-15.676a756 756 0 0 1-.005-5.652C807.589 68.888 806.51 58.217 797 48c-6.569-5.935-15.148-9.12-23.965-9.13l-3.054-.01-3.356.003-3.58-.008q-4.941-.008-9.882-.008-5.367-.003-10.734-.014-10.656-.016-21.312-.02-12.759-.01-25.518-.027c-20.562-.026-41.124-.041-61.686-.054l-20.43-.013a306181 306181 0 0 0-133.77-.07h-3.159q-50.688-.02-101.376-.085a96399 96399 0 0 0-118.92-.077h-2.926c-15.54-.004-31.08-.025-46.621-.051q-23.43-.04-46.86-.023-13.92.01-27.84-.03-9.301-.025-18.603 0c-3.532.008-7.064.009-10.596-.013-3.81-.02-7.62-.007-11.43.012l-3.3-.039c-14.276.16-24.222 6.318-32.52 17.614"/><path fill="#1f2326" d="m89.487 635.62 3.323-.026c1.798.01 1.798.01 3.634.018l3.873-.016c3.546-.014 7.091-.01 10.637-.003 3.825.005 7.65-.008 11.475-.018 7.492-.017 14.985-.018 22.477-.013q9.135.006 18.268-.002l2.625-.003 5.28-.004c16.506-.014 33.013-.009 49.52.003 15.105.01 30.21-.003 45.314-.027q23.259-.037 46.519-.027 13.06.007 26.12-.017 11.118-.022 22.236.002c3.782.009 7.564.011 11.346-.004 4.098-.017 8.197-.002 12.295.016l3.628-.03c6.28.057 10.194.257 14.943 4.531 4.154 4.615 3.429 10.252 3.404 16.12l.02 3.402c.02 3.71.015 7.42.01 11.13l.015 7.738q.013 8.109-.003 16.218c-.011 6.241.003 12.482.03 18.723.024 6.014.027 12.027.02 18.041q0 3.833.019 7.664c.014 3.571.004 7.142-.013 10.714l.029 3.198c-.059 5.825-.414 9.568-4.531 14.052-3.617 2.566-6.07 3.376-10.487 3.38l-3.323.026-3.634-.018-3.873.016c-3.546.014-7.091.01-10.637.003-3.825-.005-7.65.008-11.475.018-7.492.017-14.985.018-22.477.013q-9.135-.006-18.268.002l-2.625.003-5.28.004c-16.506.014-33.013.009-49.52-.003-15.105-.01-30.21.003-45.314.027q-23.259.037-46.519.027-13.06-.006-26.12.017-11.118.022-22.236-.002c-3.782-.009-7.564-.011-11.346.004-4.098.017-8.197.002-12.295-.016l-3.628.03c-6.28-.057-10.195-.256-14.943-4.531-4.13-4.603-3.43-10.165-3.404-16.013l-.02-3.367c-.02-3.673-.015-7.346-.01-11.018l-.015-7.664q-.014-8.032.003-16.064c.011-6.179-.003-12.357-.03-18.535a3398 3398 0 0 1-.02-17.869q0-3.793-.019-7.585c-.015-3.538-.004-7.075.013-10.613l-.029-3.159c.063-6.234.701-10.105 4.531-15.113 3.594-2.598 6.077-3.376 10.487-3.38"/><path fill="#25242c" d="m89.487 525.62 3.323-.026c1.798.01 1.798.01 3.634.018l3.873-.016c3.546-.014 7.091-.01 10.637-.003 3.825.005 7.65-.008 11.475-.018 7.492-.017 14.985-.018 22.477-.013q9.135.006 18.268-.002l2.625-.003 5.28-.004c16.506-.014 33.013-.009 49.52.003 15.105.01 30.21-.003 45.314-.027q23.259-.037 46.519-.027 13.06.007 26.12-.017 11.118-.022 22.236.002c3.782.009 7.564.011 11.346-.004 4.098-.017 8.197-.002 12.295.016l3.628-.03c6.273.057 10.211.242 14.943 4.531 3.216 3.992 3.383 7.219 3.404 12.265l.02 2.16c.02 2.347.015 4.693.01 7.04l.015 4.913q.013 5.142-.003 10.286c-.011 4.386.009 8.771.038 13.157.018 3.381.018 6.762.012 10.143q0 2.425.019 4.85c.015 2.264.004 4.527-.013 6.791v3.898c-.6 4.186-1.8 6.268-4.502 9.497-3.6 2.576-6.063 3.376-10.468 3.38l-3.31.026-3.62-.018-3.86.016c-3.532.014-7.065.01-10.597.003-3.81-.005-7.621.008-11.432.018-7.465.017-14.93.018-22.394.013q-9.1-.006-18.202.002l-2.615.003-5.261.004c-16.45.014-32.899.009-49.348-.003-15.049-.01-30.098.003-45.147.027q-23.176.037-46.352.027-13.013-.007-26.026.017-11.077.022-22.156-.002c-3.768-.009-7.536-.011-11.304.004-4.085.017-8.17.002-12.255-.016l-3.607.03c-6.57-.06-10.726-.559-16.046-4.531-3.276-3.934-3.383-7.239-3.404-12.265l-.02-2.16a690 690 0 0 1-.01-7.04l-.015-4.913q-.014-5.142.003-10.286c.011-4.386-.009-8.771-.038-13.157a1424 1424 0 0 1-.012-10.143q0-2.425-.019-4.85c-.015-2.264-.004-4.527.013-6.791v-3.898c.6-4.186 1.8-6.268 4.502-9.497 3.606-2.582 6.073-3.376 10.487-3.38"/><path fill="#1e222a" d="m466.086 416.866 3.284-.014h3.637l3.84-.01q5.295-.014 10.59-.017 5.704-.007 11.407-.022c9.19-.02 18.378-.03 27.567-.039l12.974-.015a63405 63405 0 0 1 54.31-.044l2.81-.002c15.027-.008 30.055-.033 45.082-.066q23.13-.049 46.26-.054a9785 9785 0 0 0 25.984-.036q11.062-.034 22.126-.02c3.764.004 7.527.002 11.29-.017 4.08-.021 8.159-.011 12.238.002l3.61-.033c6.273.05 10.16.257 14.905 4.521 4.215 4.642 3.45 10.513 3.434 16.434l.015 3.365q.01 3.519-.003 7.038c-.008 3.584.02 7.167.052 10.75q.003 3.424-.002 6.847l.034 3.239c-.055 5.91-.33 9.79-4.53 14.327-3.608 2.556-6.051 3.375-10.455 3.38l-3.302.026-3.61-.018-3.85.016c-3.522.014-7.045.01-10.568.003-3.8-.005-7.6.008-11.401.018-7.445.017-14.889.018-22.333.013q-9.075-.006-18.15.002l-2.609.003-5.245.004c-16.401.014-32.802.009-49.203-.003-15.008-.01-30.016.003-45.023.027q-23.11.037-46.22.027c-8.652-.003-17.303 0-25.954.017q-11.046.022-22.092-.002c-3.758-.009-7.516-.011-11.273.004-4.073.017-8.145.002-12.217-.016l-3.604.03c-6.267-.057-10.149-.275-14.891-4.531-4.245-4.655-3.432-10.597-3.398-16.54l-.01-3.386q-.002-3.538.017-7.076c.016-3.617 0-7.233-.02-10.85q.004-3.437.013-6.875l-.019-3.286.029-3.044.007-2.68c.458-2.72 1.19-3.632 3.381-5.263h2l2-2v-3c2.525-1.262 4.26-1.129 7.086-1.134"/><path fill="#1b2229" d="m466.086 340.866 3.284-.014h3.637l3.84-.01q5.295-.014 10.59-.017 5.704-.007 11.407-.022c9.19-.02 18.378-.03 27.567-.039l12.974-.015a63405 63405 0 0 1 54.31-.044l2.81-.002c15.027-.008 30.055-.033 45.082-.066q23.13-.049 46.26-.054a9785 9785 0 0 0 25.984-.036q11.062-.034 22.126-.02c3.764.004 7.527.002 11.29-.017 4.08-.021 8.159-.011 12.238.002l3.61-.033c6.273.05 10.16.257 14.905 4.521 4.215 4.642 3.45 10.513 3.434 16.434l.015 3.365q.01 3.519-.003 7.038c-.008 3.584.02 7.167.052 10.75q.003 3.424-.002 6.847l.034 3.239c-.055 5.91-.33 9.79-4.53 14.327-3.608 2.556-6.051 3.375-10.455 3.38l-3.302.026-3.61-.018-3.85.016c-3.522.014-7.045.01-10.568.003-3.8-.005-7.6.008-11.401.018-7.445.017-14.889.018-22.333.013q-9.075-.006-18.15.002l-2.609.003-5.245.004c-16.401.014-32.802.009-49.203-.003-15.008-.01-30.016.003-45.023.027q-23.11.037-46.22.027c-8.652-.003-17.303 0-25.954.017q-11.046.022-22.092-.002c-3.758-.009-7.516-.011-11.273.004-4.073.017-8.145.002-12.217-.016l-3.604.03c-6.267-.057-10.149-.275-14.891-4.531-4.245-4.655-3.432-10.597-3.398-16.54l-.01-3.386q-.002-3.538.017-7.076c.016-3.617 0-7.233-.02-10.85q.004-3.437.013-6.875l-.019-3.286.029-3.044.007-2.68c.458-2.72 1.19-3.632 3.381-5.263h2l2-2v-3c2.525-1.262 4.26-1.129 7.086-1.134"/><path fill="#18222a" d="m466.086 264.866 3.284-.014h3.637l3.84-.01q5.295-.014 10.59-.017 5.704-.007 11.407-.022c9.19-.02 18.378-.03 27.567-.039l12.974-.015a63405 63405 0 0 1 54.31-.044l2.81-.002c15.027-.008 30.055-.033 45.082-.066q23.13-.049 46.26-.054a9785 9785 0 0 0 25.984-.036q11.062-.034 22.126-.02c3.764.004 7.527.002 11.29-.017 4.08-.021 8.159-.011 12.238.002l3.61-.033c6.273.05 10.16.257 14.905 4.521 4.215 4.642 3.45 10.513 3.434 16.434l.015 3.365q.01 3.519-.003 7.038c-.008 3.584.02 7.167.052 10.75q.003 3.424-.002 6.847l.034 3.239c-.055 5.91-.33 9.79-4.53 14.327-3.608 2.556-6.051 3.375-10.455 3.38l-3.302.026-3.61-.018-3.85.016c-3.522.014-7.045.01-10.568.003-3.8-.005-7.6.008-11.401.018-7.445.017-14.889.018-22.333.013q-9.075-.006-18.15.002l-2.609.003-5.245.004c-16.401.014-32.802.009-49.203-.003-15.008-.01-30.016.003-45.023.027q-23.11.037-46.22.027c-8.652-.003-17.303 0-25.954.017q-11.046.022-22.092-.002c-3.758-.009-7.516-.011-11.273.004-4.073.017-8.145.002-12.217-.016l-3.604.03c-6.267-.057-10.149-.275-14.891-4.531-4.245-4.655-3.432-10.597-3.398-16.54l-.01-3.386q-.002-3.538.017-7.076c.016-3.617 0-7.233-.02-10.85q.004-3.437.013-6.875l-.019-3.286.029-3.044.007-2.68c.458-2.72 1.19-3.632 3.381-5.263h2l2-2v-3c2.525-1.262 4.26-1.129 7.086-1.134"/><path fill="#172229" d="m466.086 188.866 3.284-.014h3.637l3.84-.01q5.295-.014 10.59-.017 5.704-.007 11.407-.022c9.19-.02 18.378-.03 27.567-.039l12.974-.015a63405 63405 0 0 1 54.31-.044l2.81-.002c15.027-.008 30.055-.033 45.082-.066q23.13-.049 46.26-.054a9785 9785 0 0 0 25.984-.036q11.062-.034 22.126-.02c3.764.004 7.527.002 11.29-.017 4.08-.021 8.159-.011 12.238.002l3.61-.033c6.273.05 10.16.257 14.905 4.521 4.215 4.642 3.45 10.513 3.434 16.434l.015 3.365q.01 3.519-.003 7.038c-.008 3.584.02 7.167.052 10.75q.003 3.424-.002 6.847l.034 3.239c-.055 5.91-.33 9.79-4.53 14.327-3.608 2.556-6.051 3.375-10.455 3.38l-3.302.026-3.61-.018-3.85.016c-3.522.014-7.045.01-10.568.003-3.8-.005-7.6.008-11.401.018-7.445.017-14.889.018-22.333.013q-9.075-.006-18.15.002l-2.609.003-5.245.004c-16.401.014-32.802.009-49.203-.003-15.008-.01-30.016.003-45.023.027q-23.11.037-46.22.027c-8.652-.003-17.303 0-25.954.017q-11.046.022-22.092-.002c-3.758-.009-7.516-.011-11.273.004-4.073.017-8.145.002-12.217-.016l-3.604.03c-6.267-.057-10.149-.275-14.891-4.531-4.245-4.655-3.432-10.597-3.398-16.54l-.01-3.386q-.002-3.538.017-7.076c.016-3.617 0-7.233-.02-10.85q.004-3.437.013-6.875l-.019-3.286.029-3.044.007-2.68c.458-2.72 1.19-3.632 3.381-5.263h2l2-2v-3c2.525-1.262 4.26-1.129 7.086-1.134"/><path fill="#0e1921" d="m93.27 224.866 3.253-.014h3.573l3.796-.01q5.22-.014 10.439-.017 5.628-.007 11.256-.022c9.06-.02 18.12-.03 27.181-.039l12.798-.015a61762 61762 0 0 1 56.341-.046c14.82-.008 29.64-.033 44.46-.066q22.82-.049 45.638-.054c8.543-.002 17.085-.011 25.628-.036q10.909-.034 21.818-.02c3.711.004 7.422.002 11.133-.017 4.023-.021 8.044-.011 12.066.002l3.559-.033c6.243.05 10.074.279 14.791 4.521 5.414 6.145 5.24 10.296 5.312 18.25l.088 3.145c.052 6.218-.21 9.896-4.4 14.605-4.2 3.7-6.487 5.124-12.04 5.131l-3.252.012-3.601-.003-3.804.01q-5.242.011-10.486.01-5.65.005-11.297.016-12.36.02-24.72.024l-15.428.012q-21.35.019-42.7.026h-2.762l-8.323.002h-2.783q-22.323.009-44.645.046-22.908.035-45.814.037-12.865-.001-25.731.025-10.956.023-21.912.012-5.592-.008-11.182.011c-4.04.015-8.08.007-12.12-.004l-3.574.025c-6.488-.04-11.495-.282-16.47-4.927-4.65-6.08-4.568-9.721-4.606-17.215l-.063-3c-.033-6.334.389-10.967 4.778-15.895 4.747-3.764 7.862-4.478 13.805-4.49"/><path fill="#233833" d="m99.777 722.863 3.074-.015 3.403-.002 3.596-.013q4.955-.016 9.91-.022 5.34-.01 10.678-.029 12.9-.034 25.8-.052l7.284-.011a53233 53233 0 0 1 55.683-.07l2.63-.001c14.064-.013 28.128-.046 42.193-.088q21.647-.063 43.294-.071a6688 6688 0 0 0 24.318-.048q10.354-.044 20.707-.028c3.523.005 7.045.002 10.568-.022 3.817-.027 7.633-.015 11.45.001l3.383-.042c7.48.077 7.48.077 11.439 3.014 2.111 3.07 2.456 4.717 2.477 8.417l.02 3.301c-.02 1.128-.04 2.256-.059 3.418l.059 3.418-.02 3.3-.017 2.999c-.943 4.055-2.288 5.29-5.647 7.783-3.878.755-7.713.674-11.653.635l-3.616.024c-3.308.016-6.616.01-9.925-.005-3.569-.012-7.138.006-10.707.02-6.991.022-13.982.017-20.973.002a5787 5787 0 0 0-17.043-.007l-2.45.002-4.925.005c-15.4.015-30.8-.002-46.2-.029q-19.825-.031-39.65.005a16775 16775 0 0 1-50.941.017l-2.44-.002c-5.674-.005-11.35.003-17.024.014q-10.373.022-20.745-.016c-3.528-.013-7.057-.018-10.586-.002-3.823.018-7.646-.003-11.469-.028l-3.388.034c-7.494-.096-7.494-.096-11.454-3.04-2.075-3.012-2.443-4.564-2.44-8.191l-.006-3.165.073-3.273-.034-3.273c.073-7.854.073-7.854 2.506-11.914 3.12-2.707 4.82-2.94 8.867-2.95"/><path fill="#0c996d" d="m94.153 810.853 3.904-.022 4.293-.008 4.514-.02c4.945-.02 9.89-.031 14.835-.041l5.11-.013q12.006-.029 24.011-.041 13.85-.015 27.699-.077 10.71-.044 21.42-.048c4.262-.002 8.524-.011 12.787-.036q6.019-.034 12.038-.018 2.204 0 4.407-.02c16.01-.14 16.01-.14 22.372 5.974 5.225 5.917 4.765 11.648 4.894 19.142l.14 3.2c.106 7.496-1.273 12.677-6.577 18.175-3.375 1.562-3.375 1.562-6 2v2q-30.133.106-60.266.155c-9.327.016-18.655.037-27.983.071q-12.195.046-24.392.056-6.458.004-12.914.035-6.08.03-12.161.022-2.228.001-4.456.019c-15.78.116-15.78.116-21.535-4.823-5.274-7.025-5.684-11.625-5.73-20.285l-.1-3.21c-.048-6.996.93-11.663 5.537-17.04 4.64-4.308 7.926-5.123 14.153-5.147"/><path fill="#3b88ba" d="m90.63 38.746 3.589-.01q4.94-.009 9.881 0c3.581.005 7.163-.002 10.744-.008q9.417-.013 18.836-.007c9.336.006 18.673 0 28.01-.009q26.466-.02 52.932-.014a90806 90806 0 0 0 55.583-.01q41.118-.013 82.236-.008h3.133l15.72.003h3.153l6.314.002q49.122.007 98.245-.021a164105 164105 0 0 1 125.024-.026q21.875 0 43.75-.016 24.874-.019 49.748-.002 13.924.011 27.85-.008 9.297-.012 18.596.006c3.534.006 7.067.008 10.6-.004 3.806-.01 7.612-.002 11.419.011l3.321-.022c6.886.05 14.553.264 19.686 5.397H70c5.959-5.959 12.682-5.286 20.63-5.254"/><path fill="#0f494e" d="M110 64c5.667 4.404 9.35 9.255 10.348 16.535.388 7.078-1.023 12.778-5.348 18.465-6.321 5.447-11.874 7.39-20.152 7.27-7.418-.703-11.708-4.68-16.403-10.172C74.507 90.38 74.26 84.744 75 78c2.076-7.555 7.858-12.493 14.375-16.437C96.445 60.047 103.668 60.282 110 64"/><path fill="#39232d" d="m749.5 433.375 3.418-.059c4.76.029 8.12.154 12.328 2.473 2.717 4.974 2.44 9.637 2.317 15.211l.033 3.273c-.073 7.854-.073 7.854-2.506 11.914-4.655 4.038-9.996 3.15-15.903 3.25l-3.314.14c-5.02.07-7.921.095-12.096-2.85-2.996-4.72-2.5-10.402-2.402-15.79l-.059-3.26c.029-4.612.204-7.802 2.442-11.884 5.108-2.825 10.004-2.516 15.742-2.418"/><path fill="#2d1f2b" d="m749.813 357.625 3.314-.113c4.704-.052 7.932-.03 12.1 2.261 2.737 4.982 2.459 9.638 2.336 15.227l.033 3.273c-.073 7.854-.073 7.854-2.506 11.914-4.655 4.038-9.996 3.15-15.903 3.25l-3.314.14c-5.042.07-7.922.103-12.1-2.882-2.918-4.595-2.458-10.008-2.336-15.257l-.033-3.116c.045-4.59.093-7.492 2.506-11.474 4.633-4.096 9.985-3.147 15.903-3.223m0-76.062 3.314-.14c5.043-.07 7.92-.105 12.096 2.886 2.908 4.581 2.501 9.952 2.402 15.191l.059 3.09c-.029 4.324-.077 8.345-2.442 12.082-5.015 3.601-9.72 3.202-15.742 3.078l-3.418.07c-5.094-.036-8.122-.133-12.328-3.144-2.903-4.584-2.438-10.006-2.317-15.238l-.033-3.116c.045-4.59.093-7.492 2.506-11.474 4.628-4.092 9.989-3.185 15.903-3.286"/><path fill="#32a968" d="M492.25 358.625c4.758 2.669 8 6.126 9.75 11.375.784 6.516-.213 11.596-4 17-5.18 4.92-9.426 6.472-16.465 6.316-5.104-.637-8.315-3.03-11.848-6.753C466.13 381.16 465.12 376.41 466 370c1.896-5.41 5.442-8.703 10-12 5.525-1.842 10.91-1.817 16.25.625"/><path fill="#33aa81" d="M492.25 206.625c4.758 2.669 8 6.126 9.75 11.375.784 6.516-.213 11.596-4 17-5.116 4.86-9.425 6.533-16.398 6.379-5.822-.848-9.506-3.974-13.04-8.504-2.719-5.003-3.224-9.28-2.562-14.875 1.878-5.408 5.451-8.71 10-12 5.525-1.842 10.91-1.817 16.25.625m0 228c4.758 2.669 8 6.126 9.75 11.375.784 6.516-.213 11.596-4 17-5.116 4.86-9.425 6.533-16.398 6.379-5.822-.848-9.506-3.974-13.04-8.504-2.702-4.972-3.364-9.306-2.562-14.875 2.161-5.111 5.35-8.941 10-12 5.525-1.842 10.91-1.817 16.25.625"/><path fill="#31a94c" d="M490.207 281.734c5.814 2.632 9.236 6.415 11.793 12.266 1.036 6.411-.292 11.707-4 17-5.116 4.86-9.425 6.533-16.398 6.379-5.822-.848-9.506-3.974-13.04-8.504-2.71-4.987-3.34-9.292-2.562-14.875 2.104-5.515 5.697-9.307 10.828-12.152 4.587-1.79 8.737-1.658 13.379-.114"/><path fill="#222932" d="m69 43 2 2-2.625 1.563C60.465 51.898 56.095 59.813 54 69h-2v780h-1c-.069-74.303-.132-148.606-.17-222.909l-.001-3.331a947335 947335 0 0 1-.049-106.835l-.001-3.533q-.027-56.704-.084-113.41a152900 152900 0 0 1-.075-132.984v-3.271c-.005-17.386-.024-34.772-.047-52.158q-.036-26.21-.027-52.42.006-15.576-.03-31.153-.021-10.404-.003-20.808c.006-3.953.005-7.905-.013-11.858q-.022-5.399.003-10.798c.005-1.897-.01-3.794-.027-5.69.078-9.908 1.84-18.96 8.962-26.28l2.246-2.37c2.34-2.214 4.77-4.22 7.316-6.192"/><path fill="#272d38" d="m69 43 2 2-2.625 1.563C60.465 51.898 56.095 59.813 54 69h-2v358h-1a126082 126082 0 0 1-.22-152.777l-.003-3.245c-.017-17.332-.049-34.665-.086-51.997q-.056-26.682-.067-53.363-.008-16.461-.056-32.922-.03-11.292-.022-22.582c.003-4.342-.001-8.683-.023-13.025q-.028-5.97-.007-11.939.003-2.153-.016-4.305c-.09-10.972.96-21.084 8.938-29.282.74-.783 1.482-1.565 2.246-2.372 2.34-2.213 4.77-4.22 7.316-6.191"/><path fill="#33ce96" d="m379.727 562.863 2.273.012 2.273-.012c5.6.01 5.6.01 6.727 1.137.1 2.677.139 5.323.125 8l.012 2.273c-.01 5.6-.01 5.6-1.137 6.727-2.677.1-5.323.139-8 .125l-2.273.012c-5.6-.01-5.6-.01-6.727-1.137-.1-2.677-.139-5.323-.125-8l-.012-2.273c.012-6.65.214-6.852 6.864-6.864"/><path fill="#cdd6dd" d="M241 65h3v2h3v-2h2v2l3.465-.035 4.472-.028 2.288-.025c1.925-.009 3.85.036 5.775.088 1 1 1 1 1.098 3.066l-.036 2.496-.027 2.504L266 77h-3l-1-7h-1l-1 7q-2.97.039-5.937.063l-3.34.035C248 77 248 77 247 76q-.061-3.5 0-7h-3v6h2v2l-5-1-1-3-3 1h2l-1 3c-2.875.125-2.875.125-6 0-2-2-2-2-2.25-5 .25-3 .25-3 2.25-5 2.164-.195 2.164-.195 4.625-.125l2.477.055L241 67z"/><path fill="#e1f3ed" d="M95 828c12.26-.49 12.26-.49 15.406 1.594 3.067 4.63 1.809 10.041 1.594 15.406H95z"/><path fill="#25443c" d="M176 731h12l1 3 2.563 1c2.437 2 2.437 2 2.8 4.602.011 2.833-.042 5.582-.363 8.398-1.737 1.737-4.01 1.294-6.375 1.375-3.023-.012-3.023-.012-5.625-.375-2-2.437-2-2.437-3-5l-3-1z"/><path fill="#a3a9b1" d="M514 356c3.313-.187 3.313-.187 7 0l3 3c3.625.25 3.625.25 7 0l1-3 1.938.563L536 357l1-1a100 100 0 0 1 5 0c.625 2.313.625 2.313 1 5l-2 3 2 1v2l-6.055-.293L535 367l-2 3h-3v-2l-2.117-.113-2.758-.2-2.742-.175C520 367 520 367 518 364l-1 3h-3z"/><path fill="#2ea8aa" d="m89.175 38.76 3.096-.006c3.423-.003 6.845.008 10.268.019h7.362q7.923-.002 15.847.016c7.638.016 15.275.021 22.913.024q18.588.007 37.176.036 18.054.028 36.108.041l2.25.002 11.17.007q46.317.032 92.635.101v1l-3.822.007a78475 78475 0 0 0-100.896.255l-2.224.007q-17.82.051-35.642.081-18.288.033-36.575.099-11.284.04-22.567.05c-5.77.006-11.538.028-17.307.055q-3.549.014-7.098.011c-3.23-.002-6.459.015-9.688.036l-2.839-.014c-5.587.06-9.326.966-14.342 3.413-2.938.187-2.938.187-5 0 4.83-5.904 12.222-5.283 19.175-5.24"/><path fill="#c9d0d7" d="M636 827h7l1 3h4q-.211 3.72-.437 7.438l-.12 2.142c-.33 5.307-.33 5.307-1.443 6.42-2.165.099-4.333.13-6.5.125l-3.594.008C633 846 633 846 632 845a200 200 0 0 1-.562-7.562l-.131-2.155q-.159-2.64-.307-5.283h4z"/><path fill="#989ea5" d="M152 544h8l4.176-.035 5.137-.028 2.591-.025c4.166-.016 8.034.024 12.096 1.088v2h2v-2h2l-1 6-4 1-1-2-2 2c-2.5.25-2.5.25-5 0l-2-2v-4h-2v6h-8v3h-3l-1-4-4 1 2-1v-5l-2 1c-.465 1.895-.465 1.895-.625 4.063L154 555h-2z"/><path fill="#88c8b5" d="M216.625 831.875 220 832l1 2 2-2c2.5.375 2.5.375 5 1 2.728 0 5.317-.533 8-1l1 3-4-1v2l5 1-1 4h-6v-2l2-1-10-1v2h6l-1 2c-2 .043-4 .04-6 0l-1-1-.625 1.938C219 844 219 844 215.875 844.75L213 845l-2-3 2-1-2-2c-.25-2.5-.25-2.5 0-5 2-2 2-2 5.625-2.125"/><path fill="#929ba2" d="M193 67h3v8h3v-8c2.125-.054 4.25-.093 6.375-.125l3.586-.07C212 67 212 67 214 69c.25 3 .25 3 0 6-2 2-2 2-4.625 2.125L207 77v4h-4v-4l-1.934.035-2.504.028-2.496.035C194 77 194 77 193 76a75 75 0 0 1-.062-4.562l.027-2.504z"/><path fill="#33a884" d="m179 829 2 2 1-2h4v3l5 1v8h-3v-7l-2 1c-.658 3.03-.658 3.03-1 6l-1.937-.562L181 840l-1 1c-3.437.25-3.437.25-7 0-2.313-3.47-2.425-4.922-2-9 2.102-3.32 4.232-3.483 8-3"/><path fill="#262f3a" d="m69 43 2 2-2.625 1.563C60.465 51.898 56.095 59.813 54 69h-2v119h-1q-.142-23.184-.207-46.368c-.02-7.178-.049-14.355-.095-21.533q-.06-9.39-.074-18.78-.008-4.967-.047-9.932c-.03-3.708-.033-7.415-.031-11.123l-.044-3.28c.052-9.556 2.1-18.396 8.935-25.421l2.247-2.372c2.34-2.213 4.77-4.22 7.316-6.191"/><path fill="#858f96" d="M185 242h6v3l5 1v8h-2v-7h-3v7q-2.719.039-5.437.063l-3.06.035C180 254 180 254 179 253c-.187-2.937-.187-2.937 0-6l2-2h4z"/><path fill="#6b7a8c" d="M550 458h2v3q3.49.57 7 1l1-1a100 100 0 0 1 5 0h7l-2 2a90 90 0 0 0-1 6h-19z"/><path fill="#302d36" d="M313.375 564.875 316 565c2.209 0 4.419-.02 6.625-.125C325 565 325 565 327 567c.25 2.5.25 2.5 0 5-2 2-2 2-4.5 2.188C320 574 320 574 318 573l-3.5.563-3.5.437c-2-2-2-2-2.25-4.5.34-3.4 1.164-4.443 4.625-4.625"/><path fill="#252932" d="M260.5 564.75c2.5.25 2.5.25 4.5 2.25l2-2c2.563-.187 2.563-.187 5 0 1 1 1 1 1.098 2.848L273 574h-10l-2.562.125C258 574 258 574 256 572c-.25-2.5-.25-2.5 0-5 2-2 2-2 4.5-2.25"/><path fill="#c9d1d9" d="M251 67q3.468-.04 6.938-.062l3.902-.036C265 67 265 67 266 68c.072 1.52.084 3.042.063 4.563l-.028 2.503L266 77h-3l-1-7h-1l-1 7h-9c-1.37-2.74-1.126-4.97-1-8z"/><path fill="#79787f" d="M634 832h11v12h-11z"/><path fill="#25423b" d="M211 736c2.706.92 5.342 1.946 8 3 .043 1.666.04 3.334 0 5-1 1-1 1-3.375 1.063L213 745a99 99 0 0 0-6.062.188L204 745c-2-3-2-3-1.75-6.125L203 736c2.96-1.48 4.787-.714 8 0"/><path fill="#b8c0c8" d="M176 67c2.291-.054 4.583-.093 6.875-.125l3.867-.07C190 67 190 67 192 69c.25 3 .25 3 0 6-2 2-2 2-5 2.25-3-.25-3-.25-5-2.25-.125-2.625-.125-2.625 0-5h-3v7h-3z"/><path fill="#34303a" d="M307.375 589.875 310 590h9l1 2-5-1c1.255 2.51 2.5 2.871 5 4l-1 4q-3.437.079-6.875.125l-3.867.07C305 599 305 599 303 597c-.25-2.5-.25-2.5 0-5 2-2 2-2 4.375-2.125"/><path fill="#e03a73" d="M269 241h7l-1 5-3 1-.312 2.813c-.688 3.187-.688 3.187-2 5.125C268 256 268 256 266 255.875c-2.333-1.02-3.515-1.796-5-3.875-.187-2.687-.187-2.687 0-5l2.313-.437c2.769-.526 2.769-.526 5.687-1.563z"/><path fill="#2a2e37" d="m276 590 6.152.879L284 591l1-1c2.5-.125 2.5-.125 5 0 1 1 1 1 1.098 2.848L291 599h-15l-1-2 5 1c-1.255-2.51-2.5-2.871-5-4z"/><path fill="#eef8f0" d="M485 293c7.357-.362 7.357-.362 10 1.125 1.479 2.773 1.386 4.787 1 7.875-1 1.875-1 1.875-3 3-2.719.241-5.26.135-8 0z"/><path fill="#7c8fa3" d="M173 156c7.357-.362 7.357-.362 10 1.125 1.479 2.773 1.386 4.787 1 7.875-1 1.875-1 1.875-3 3-2.719.241-5.26.135-8 0z"/><path fill="#505b69" d="M260.438 589.813C263 590 263 590 265 592l3-2c2.688.375 2.688.375 5 1l-4 2 4 2v4h-9l-3.125.063C258 599 258 599 257 598c-.125-3.5-.125-3.5 0-7 1-1 1-1 3.438-1.187"/><path fill="#525f6e" d="M457 156c1.875.375 1.875.375 4 1h4c.625 1.813.625 1.813 1 4l-2 3 3 1 1 5h-2l-1-3-1 3h-2v-4c-3.432.264-3.432.264-7 1l-2 3c.75-4.75.75-4.75 3-7l-.5-2.5-.5-2.5z"/><path fill="#c8d0d8" d="M270.945 66.805 277 67q.079 2.937.125 5.875l.07 3.305C277 79 277 79 275 81c-3.125.125-3.125.125-6 0l-1-3 6 1-1-2a106 106 0 0 0-5-1c-1-1-1-1-1.187-3.937.205-3.364.551-4.899 4.132-5.258"/><path fill="#7c91a4" d="M130.938 155.688c3.062.312 3.062.312 4.937 1.437 1.654 2.756 1.519 4.726 1.125 7.875-1.125 1.875-1.125 1.875-3 3-3.062.313-3.062.313-6 0-2-2-2-2-2.266-3.875l.016-2.125-.016-2.125c.485-3.419 1.963-3.843 5.204-4.187"/><path fill="#70767d" d="m112.625 543.938 2.477.027L117 544v6h2v-6h2v8h-6l-1 3h-3v-3l-5-1v-6c2.405-1.203 3.95-1.1 6.625-1.062"/><path fill="#748799" d="M92 562c3.13-.4 5.13-.521 7.875 1.125 1.654 2.756 1.519 4.726 1.125 7.875-1.125 1.875-1.125 1.875-3 3-3.062.375-3.062.375-6 0-2.313-3.47-2.34-4.925-2-9z"/><path fill="#738698" d="M550 382h2v3q3.49.57 7 1l1-1a100 100 0 0 1 5 0l1 5h-5v2l5-1-1 2h-15z"/><path fill="#6b7e8f" d="M476 156h4l2 5c1.938-2.773 1.938-2.773 3-5h4v12h-3l-1-3-1 3-4-1-1-5-1 6h-2z"/><path fill="#6d8091" d="M505 156h4l2 5c2.224-1.925 2.224-1.925 3-5h4v12h-2l-1-5-2 5h-3l-1-3-1 3h-3z"/><path fill="#9ea8af" d="m146 243 2 2c-.033 2.729-.564 5.297-1 8-3.023.687-5.289 1.192-8.312.375C137 252 137 252 136.188 249.563 136 247 136 247 137 244c3.194-2.281 5.32-2.162 9-1"/><path fill="#c3c9d0" d="M667 829c6 0 6 0 8.375 1.125C677 832 677 832 677.438 835c-.438 3-.438 3-1.5 4.875-2.94 1.707-5.617 1.313-8.938 1.125z"/><path fill="#15222a" d="M605 203h2v3h3l2 5 2-4h2l-3 10c-5 1-5 1-8 0-1.244-2.488-1.133-4.227-1.125-7l-.008-2.687C604 205 604 205 605 203"/><path fill="#e2f3ed" d="m146.625 831.938 2.477.027L151 832l1 5h2l1-5h2l-2 9h-4l-2-4-1 4h-8l1-5h4v-2l-5 1v-2c2.405-1.203 3.95-1.1 6.625-1.062"/><path fill="#c0c9d0" d="M110 244c.625 2.813.625 2.813 1 6-2 3-2 3-4.937 3.75C103 254 103 254 100 253c-1.125-5.625-1.125-5.625 0-9 3.605-2.804 6.012-1.632 10 0"/><path fill="#718496" d="M81.125 441.875 84 442v2h-6l1 10 2.688-3c2.913-2.948 2.913-2.948 6.187-3.375L90 448q.061 3.5 0 7c-1 1-1 1-3.687 1.133L83 456.125l-3.312.008C77 456 77 456 76 455a87 87 0 0 1-.187-5.437l-.043-2.997c.356-3.974 1.444-4.535 5.355-4.691"/><path fill="#dceee9" d="M223 832c2.5.375 2.5.375 5 1 2.728 0 5.317-.533 8-1l1 3-4-1v2l5 1-1 4h-6v-2l2-1-10-1v2h6l-1 2c-2 .043-4 .04-6 0-1-1-1-1-1.187-3.937C221 834 221 834 223 832"/><path fill="#243c37" d="M185.066 736.902 192 737v10h-10c-.098-6.934-.098-6.934 0-9 1-1 1-1 3.066-1.098"/><path fill="#aab1b8" d="M152 544h8l3-.187 3 .187 2 3-1 3-4-4v5l3 1h-3v3h-3l-1-4-4 1 2-1v-5l-2 1c-.465 1.895-.465 1.895-.625 4.063L154 555h-2z"/><path fill="#bee5d0" d="M473 369c6.055-.195 6.055-.195 8 0l2 2a225 225 0 0 1-1 6c.358 2.277.358 2.277 1 4-3.27-.564-4.826-1.5-7-4v4h-3z"/><path fill="#31cb94" d="M95.063 72.125C98 73 98 73 100 76c-.324 3.322-.608 4.608-3 7-3 .25-3 .25-6 0-2-2-2-2-2.312-4.937C89 75 89 75 90.125 73.063 92 72 92 72 95.063 72.125"/><path fill="#d1a123" d="M532 228c3.625.375 3.625.375 7 1 1.25 6.625 1.25 6.625-1 10-3 .313-3 .313-6 0-2-2-2-2-2.25-5.5.25-3.5.25-3.5 2.25-5.5"/><path fill="#30af82" d="M119 654h4c1.75 2.5 1.75 2.5 3 5l1-5h3v12c-4-1-4-1-5.75-3.562L123 660l-1 6h-3z"/><path fill="#e0f3e9" d="M487 369h5a345 345 0 0 1 1.5 3.75l.844 2.11C495 377 495 377 495 381l-3.25-.562c-3.154-.368-4.848-.483-7.75.562.508-4.318 1.197-8.033 3-12"/><path fill="#444c56" d="m223 342 1-1a100 100 0 0 1 5 0v2h-2v7q-2.47.039-4.937.063l-2.778.035C217 350 217 350 216 349q-.061-3.5 0-7c2.665-1.332 4.148-.585 7 0"/><path fill="#697c8d" d="M366.5 92.75C369 93 369 93 371 95l1-2h5l-2 2c-.4 2.323-.74 4.657-1 7l-3-1-3.562.563L364 102c-2-2-2-2-2.25-4.5.35-3.494 1.256-4.4 4.75-4.75"/><path fill="#25a88c" d="M86.382 38.773h2.16c2.338 0 4.675.016 7.013.032l4.884.008c4.271.008 8.542.028 12.813.05 4.364.02 8.728.03 13.092.04q12.828.032 25.656.097v1l-2.61.018q-12.204.087-24.408.218c-4.182.044-8.364.084-12.547.11q-6.06.041-12.118.117-2.306.025-4.613.035c-2.162.01-4.322.037-6.484.07l-3.72.033c-4.082.465-6.784 1.692-10.5 3.399-2.938.187-2.938.187-5 0 4.2-5.134 10.162-5.249 16.382-5.227"/><path fill="#abafb6" d="M701 830h3c1.108 3.325.845 5.622 0 9h2l-.125-2.375C706 834 706 834 708 832c3.125.375 3.125.375 6 1v4h-6v2h6l-1 2h-11c-2.429-7.429-2.429-7.429-1-11"/><path fill="#6e8193" d="M82 156h3v5l6 1-1 3-1.937.375L86 166c-1.297 2.49-1.297 2.49-2 5h-2l-1-6h-5v-3l5-1z"/><path fill="#5d6a79" d="M209 565h2l1 7h3v-7l3 1a100 100 0 0 0 6-1l1 2-4 1 4 2v4h-8c-1.763.03-1.763.03-3.562.063C210 574 210 574 209 573c-.141-2.67-.042-5.324 0-8"/><path fill="#d4dde4" d="m173 64 2 4-3.437-.562L168 67c-1.296 1.066-1.296 1.066-1.062 3.563L167 73l4 1 1-2h-3v-2h6c.125 2.375.125 2.375 0 5-2 2-2 2-5.437 2.313C166 77 166 77 164.063 75.937 162.386 72.88 162.635 70.41 163 67c2.233-4.072 5.788-3.238 10-3"/><path fill="#2e946f" d="M228 737h2l2 3 1-2h2a260 260 0 0 1-1.312 4.438l-.739 2.496L232 747l-3 1v-5l-2 2h-4v3h-2v-10c1.454.03 1.454.03 2.938.063 2.937.293 2.937.293 4.062-1.063"/><path fill="#e9f6ec" d="M476 293h4a563 563 0 0 1 2 4.313l1.125 2.425C484 302 484 302 484 305h-4v-3h-4v3h-4q.713-2.72 1.438-5.437l.808-3.06C475 294 475 294 476 293"/><path fill="#859aaf" d="M547 156c3.375-.125 3.375-.125 7 0l2 2a225 225 0 0 1-1 6c.358 2.277.358 2.277 1 4h-3l-1-4h-2v4h-3zm-434 0c3.375-.125 3.375-.125 7 0l2 2a225 225 0 0 1-1 6c.358 2.277.358 2.277 1 4h-3l-1-4h-2v4h-3z"/><path fill="#252f39" d="M305 90h3v3l5 1v8h-1l-1-7h-2l-1 7h-7v-8l-2-1h2l1-2v2h3z"/><path fill="#878890" d="M756 832c6.75-.125 6.75-.125 9 1q.062 3.5 0 7c-1 1-1 1-3.562 1.063L759 841v4h-3z"/><path fill="#43444b" d="m532 356 1.938.563L536 357l1-1a100 100 0 0 1 5 0c.625 2.313.625 2.313 1 5l-2 3 2 1v2h-8c-1.478-2.957-1.06-5.742-1-9h-2z"/><path fill="#b0bac1" d="M160 242c3.375-.125 3.375-.125 7 0l2 2a225 225 0 0 1-1 6c.358 2.277.358 2.277 1 4l-4-2v-2h-2v4h-3z"/><path fill="#c4cdd4" d="M223.438 63.875C227 64 227 64 229 65v3h-3v-2h-4c2.128 2.34 4.116 3.707 7 5v5c-2.957 1.478-5.742 1.06-9 1l-1-4h3v2h4v-3l-2.937-.437C220 71 220 71 219 70c-.125-2.5-.125-2.5 0-5 1-1 1-1 4.438-1.125"/><path fill="#78899c" d="M297.563 589.938 301 590q.079 2.687.125 5.375l.07 3.023C301 601 301 601 299 603c-2.562-.25-2.562-.25-5-1l-1-2 6 1v-2l-2.437-.437C294 598 294 598 293 597c-.125-3-.125-3 0-6 1-1 1-1 4.563-1.062"/><path fill="#6a747c" d="M236 242h3v12c-3.375.125-3.375.125-7 0-2-2-2-2-2.25-4.5.25-2.5.25-2.5 2.25-4.5h4z"/><path fill="#9ca1a9" d="M239 542h3v10l-4-1-1 1c-2.5.125-2.5.125-5 0-1-1-1-1-1.187-3.437C231 546 231 546 233 544c2.625.375 2.625.375 5 1z"/><path fill="#718192" d="m514 458 4 1 1 6h2l.438-2.375C522 460 522 460 523 458h3v11h-2l-1-4-2 4h-2l-2-5-1 5h-2z"/><path fill="#708395" d="M75 298c5.382-.359 5.382-.359 7.938 1.125C84 301 84 301 83.812 304.125L83 307c-2.709 1.354-5.01 1.065-8 1z"/><path fill="#1caa7d" d="m97 830 2 3c1.964.577 1.964.577 4.125.688L107 834v-2h-7v-2c6.055-.195 6.055-.195 8 0 2 2 2 2 2.195 4.602l-.07 3.023-.055 3.04L110 843h-1v-6H98v6h-1z"/><path fill="#c4cdd4" d="M563 432c3.125.375 3.125.375 6 1q.039 2.219.063 4.438l.035 2.496C569 442 569 442 568 443c-2.437.188-2.437.188-5 0-2-2-2-2-2.25-5.5.25-3.5.25-3.5 2.25-5.5"/><path fill="#708193" d="m514 382 4 1 1 6h2l2-7h3v11h-2l-1-4-2 4h-2l-2-5-1 5h-2z"/><path fill="#6f8193" d="m514 306 4 1 1 6h2l2-7h3v11h-2l-1-4-2 4h-2l-2-5-1 5h-2z"/><path fill="#ced7de" d="M582 204c3.125.375 3.125.375 6 1q.039 2.219.063 4.438l.035 2.496C588 214 588 214 587 215c-2.437.188-2.437.188-5 0-2-2-2-2-2.25-5.5.25-3.5.25-3.5 2.25-5.5"/><path fill="#748698" d="M150 565q3.5-.062 7 0c1 1 1 1 1.125 4.5C158 573 158 573 157 574c-1.666.04-3.334.043-5 0v4h-2z"/><path fill="#7e8691" d="M145.125 340.875 148 341q.039 2.718.063 5.438l.035 3.058C148 352 148 352 147 353c-2 .04-4 .043-6 0v-2l5 1v-2l-2.437-.437C141 349 141 349 140 348c-.187-2.437-.187-2.437 0-5 2-2 2-2 5.125-2.125"/><path fill="#818b92" d="M212 242h6c2 2 2 2 2.063 5.438L220 251l1 3h-3l-1-4h-3v4h-2z"/><path fill="#bbc2c9" d="m729 830 1 3h-7v5l4 1v-2h-2v-2h5c-.875 4.875-.875 4.875-2 6-5.24.456-5.24.456-7.875-1.125-1.672-2.786-1.589-4.695-1.125-7.875 3.073-3.664 5.61-3.097 10-2"/><path fill="#767e89" d="M195 338h2v12q-3.5.062-7 0c-1-1-1-1-1.062-4.562L189 342l5-1z"/><path fill="#6c7e90" d="M214 156h4a345 345 0 0 1 1.5 3.75l.844 2.11C221 164 221 164 221 168h-3v-3h-5v3h-3q.716-2.438 1.438-4.875l.808-2.742C213 158 213 158 214 156"/><path fill="#7a8d9f" d="M193 587h2v12q-3.5.062-7 0c-1-1-1-1-1.125-4.5C187 591 187 591 188 590a100 100 0 0 1 5 0z"/><path fill="#7b8ea1" d="M200 562h2v12q-3.5.062-7 0c-1-1-1-1-1.125-4.5C194 566 194 566 195 565a100 100 0 0 1 5 0z"/><path fill="#798c9f" d="M188 90h2v3l2.438-.062C195 93 195 93 196 94c.125 3.5.125 3.5 0 7-1 1-1 1-4.562 1.063L188 102z"/><path fill="#5d6f80" d="m754 76 8 4 1.875-2C766 76 766 76 768 76l-4 8 2 1.875C768 88 768 88 768 90l-8-4-1.875 2C756 90 756 90 754 90l4-8-2-1.875C754 78 754 78 754 76"/><path fill="#eaf7f2" d="M476 445c4 1 4 1 5.25 3.063L482 450l2-5h3q-.464 2.438-.937 4.875l-.528 2.742C485 455 485 455 484 457l-5-1z"/><path fill="#c69a23" d="m519 229 2.375 1c2.468 1.119 2.468 1.119 4.625 1l-2 7h-9l-1-7 4 1z"/><path fill="#eaf7f2" d="M476 217c4 1 4 1 5.25 3.063L482 222l2-5h3q-.464 2.438-.937 4.875l-.528 2.742C485 227 485 227 484 229l-5-1z"/><path fill="#27272f" d="m726.16 831.902 3.903.035 3.91.028L737 832v2l-2 1c-.658 3.03-.658 3.03-1 6h-3l-1-6h-5v2h2v2l-5-1a100 100 0 0 1 0-5c1-1 1-1 4.16-1.098"/><path fill="#546372" d="M155 156c3.375-.125 3.375-.125 7 0l2 2c-.556 4.556-.556 4.556-2 6-1.666.04-3.334.043-5 0v4h-2z"/><path fill="#2e9771" d="M240 735h3v2l2.938-.062C249 737 249 737 250 738q.061 3.5 0 7h-2v-6h-2v6h-6z"/><path fill="#31c58f" d="M201 654c4 1 4 1 5.75 3.563L208 660l1-6h2v12h-3l-4-7-1 7h-2z"/><path fill="#7c848f" d="M112 482h6c2 2 2 2 2.188 5.063C120 490 120 490 119 491c-1.666.04-3.334.043-5 0v3h-2z"/><path fill="#7d8591" d="M109 338h2v12h-6c-2-2-2-2-2.25-4.5.25-2.5.25-2.5 2.25-4.5h4z"/><path fill="#7d8590" d="M235 341h6c2 2 2 2 2.25 4.5C243 348 243 348 241 350h-4v3h-2zm-60 0h6c2 2 2 2 2.25 4.5C183 348 183 348 181 350h-4v3h-2z"/><path fill="#7f8792" d="M119 338h2v12h-7c-.625-3.375-.625-3.375-1-7l2-2h3z"/><path fill="#b4bdc4" d="M533 283h12v8h-2v-6h-2v6h-3v-6h-2v6h-3z"/><path fill="#718496" d="M591 156h4c.195 1.624.38 3.25.563 4.875l.316 2.742C596 166 596 166 595 168h-3v-2h-5c.562-3.934 1.556-6.832 4-10"/><path fill="#2b936f" d="M286 735h3v2l2.938-.062C295 737 295 737 296 738q.062 3.5 0 7h-2v-6h-2v6h-6z"/><path fill="#2fb887" d="M215 654h3l1 3 3-3 3 1-1.562 1.25c-1.68 1.625-1.68 1.625-1.25 3.688A57 57 0 0 0 225 666l-4-1-1-4h-2v5h-3z"/><path fill="#dce5ec" d="M234.5 66.75C237 67 237 67 239 69v4l-5 1h5l-1 3c-2.875.125-2.875.125-6 0-2-2-2-2-2.25-5 .314-3.767.913-4.866 4.75-5.25"/><path fill="#d8f0e8" d="M134.563 828.938 137 829l2 4h-3v-2h-3v3l5 1a88 88 0 0 1 1 5c-1 1-1 1-4.562 1.063L131 841l-1-4 6 2c-1.392-2.784-3.156-2.979-6-4 1.073-5.977 1.073-5.977 4.563-6.062"/><path fill="#76899b" d="M247.063 155.938 250 156l1 3-6-1c1.507 3.013 4.032 3.61 7 5-.875 3.875-.875 3.875-2 5-5.53.235-5.53.235-8-1v-3h3v2h4c-1.507-3.013-4.032-3.61-7-5 1.125-4.982 1.125-4.982 5.063-5.062"/><path fill="#728497" d="M250.5 92.75C253 93 253 93 255 95c.25 2.5.25 2.5 0 5-2 2-2 2-4.5 2.25C248 102 248 102 246 100c-.25-2.5-.25-2.5 0-5 2-2 2-2 4.5-2.25"/><path fill="#31b887" d="m133 654 4 1c1.25 2.563 1.25 2.563 2 5l3-6h2q-.464 2.438-.937 4.875l-.528 2.742C142 664 142 664 141 666l-5-1z"/><path fill="#8497ab" d="m129 587 2 3c2.527.656 2.527.656 5 1 1 1 1 1 1.188 3.438C137 597 137 597 135 599h-6z"/><path fill="#7e91a4" d="M140 565h6c2 2 2 2 2.25 4.5C148 572 148 572 146 574h-4l-2 3z"/><path fill="#8397ab" d="m290 562 2 3c2.527.656 2.527.656 5 1 1 1 1 1 1.188 3.438C298 572 298 572 296 574h-6z"/><path fill="#cbd4db" d="M517 280c1.89.184 1.89.184 4 1 1.047 2.285 1.047 2.285 1.75 5.063l.734 2.785L524 291l-3.312-.562c-3.624-.696-3.624-.696-6.688.562.468-4.056.88-7.466 3-11"/><path fill="#b58e23" d="M541 231c4 0 4 0 6 .563 2.34.667 2.34.667 6-.563l-2 8-4-1-4 1z"/><path fill="#31bb89" d="M181 736q2.969-.04 5.938-.062l3.34-.036C193 736 193 736 194 737c.099 1.831.13 3.666.125 5.5l.008 3.031C194 748 194 748 193 749c-1.831.099-3.666.13-5.5.125l-3.031.008C182 749 182 749 181 748a130 130 0 0 1-.062-6.062l.027-3.348zm1 2a75 75 0 0 0-.062 4.563L182 747h10v-10c-5.29-.577-5.29-.577-10 1"/><path fill="#778799" d="M322.438 564.813C325 565 325 565 327 567c.25 2.5.25 2.5 0 5-2 2-2 2-4.5 2.313L320 574c-2-3-2-3-1.687-5.625.96-3.32.96-3.32 4.125-3.562"/><path fill="#758699" d="M169.438 564.813C172 565 172 565 174 567c.25 2.5.25 2.5 0 5-2 2-2 2-4.5 2.313L167 574c-2-3-2-3-1.687-5.625.96-3.32.96-3.32 4.125-3.562"/><path fill="#454e58" d="m245 339 1 2h6v9h-7a491 491 0 0 1-.562-4.375l-.317-2.46C244 341 244 341 245 339"/><path fill="#7f94a7" d="M104.125 155.875 107 156l2 4-7-1v7l4-1-2-1v-2h5c-.875 4.875-.875 4.875-2 6-2.937.188-2.937.188-6 0-2-2-2-2-2.266-3.875L98.75 162l-.016-2.125c.506-3.569 2.01-3.865 5.391-4"/><path fill="#74879a" d="M141 156h2l1 9h3l1-9h3c.054 1.437.093 2.875.125 4.313l.07 2.425C151 165 151 165 149 168c-3.562.25-3.562.25-7 0-1-1-1-1-1.098-3.504l.036-3.059.027-3.066z"/><path fill="#718496" d="M333.438 92.813C336 93 336 93 338 95c.25 2.5.25 2.5 0 5-2 2-2 2-4.5 2.313L331 102c-2-3-2-3-1.687-5.625.96-3.32.96-3.32 4.125-3.562"/><path fill="#238264" d="M147 71c2.625.375 2.625.375 5 1 .625 2.375.625 2.375 1 5l-2 2c-2.625-.375-2.625-.375-5-1v-2h-9v-2l3.875-.375c3.473-.315 3.473-.315 6.125-2.625"/><path fill="#7a8fa2" d="M563.938 155.75 567 156l2 3-6-1v3l5 1 1 5c-2.709 1.354-5.01 1.065-8 1l-1-4h2v2h4v-3l-5-1a88 88 0 0 1-1-5c1-1 1-1 3.938-1.25"/><path fill="#8094a8" d="M535 156h8v2h-5v3h5v2h-5v3h5v2h-8zm-42 0h8v2h-5v3h5v2h-5v3h5v2h-8zm-306 0h8v2h-5v3h5v2h-5v3h5v2h-8z"/><path fill="#7d858c" d="M251 67h6v10h-6c-1.37-2.74-1.126-4.97-1-8z"/><path fill="#281e26" d="m635 833 4 1h-2v8h2v-7h1v7h2v-8l-2-1h4v11h-9z"/><path fill="#c3e5db" d="m179 829 2 4-7-1 1 6 6-1-1 4c-3.375.188-3.375.188-7 0-2.313-3.47-2.425-4.922-2-9 2.129-3.36 4.21-3.307 8-3"/><path fill="#b9c0c8" d="M126 544a365 365 0 0 1 4.875-.125l2.742-.07C136 544 136 544 138 546v3l-3 1 3 1c-1 1-1 1-3.5 1.125C132 552 132 552 131 551a100 100 0 0 1 0-5h-3v6h-2z"/><path fill="#c6ced6" d="M193 67h3v8h3v-8h3v10c-6.152.098-6.152.098-8 0-1-1-1-1-1.098-3.066l.036-2.496.027-2.504z"/><path fill="#83888f" d="M739 832c3.125.375 3.125.375 6 1q.062 3.5 0 7l-1 1a177 177 0 0 1-7-1c-.125-2.875-.125-2.875 0-6z"/><path fill="#757d88" d="M158 341c2.625.375 2.625.375 5 1 .625 2.875.625 2.875 1 6-2 2-2 2-4.5 2.25C157 350 157 350 155 348c.33-3.297.623-4.623 3-7"/><path fill="#31c38f" d="M166 654h8v2h-6v3h6v2h-5v3h5v2h-8z"/><path fill="#c1c8cf" d="M514 432c3 1 3 1 4.188 3.063L519 437l2-5h6v2l-4-1-.375 3.313C522 440 522 440 520 443c-1.875-.187-1.875-.187-4-1-1.877-3.378-2.218-6.176-2-10"/><path fill="#bfc8cf" d="M514 204c3 1 3 1 4.188 3.063L519 209l2-5h6v2l-4-1-.375 3.313C522 212 522 212 520 215c-1.875-.187-1.875-.187-4-1-1.877-3.378-2.218-6.176-2-10"/><path fill="#6a7d8e" d="M339 93h2l1 2 4-2 2 3 1-3h2c-.486 3.123-.999 5.996-2 9h-2l-1-4h-2l-1 4h-2z"/><path fill="#718294" d="M224 590h2l2 2 1-2c3 1 3 1 4 3l1-3h2c-.486 3.123-.999 5.996-2 9h-2l-1-4h-2l-1 4h-2z"/><path fill="#465360" d="m129 298 3 1v9h-6c-2.125-6.75-2.125-6.75-1-9l4 1z"/><path fill="#4b545f" d="M367 689h2v12h-6c-1-1-1-1-1.062-4.062L362 694l5-1zm-9 0h2v12h-6c-1-1-1-1-1.062-4.062L353 694l5-1z"/><path fill="#c1c9d0" d="M549 356h3c.195 1.457.38 2.916.563 4.375l.316 2.46C553 365 553 365 552 367h-3v-2h-5c1.24-3.432 2.503-6.303 5-9"/><path fill="#7f8792" d="M255 341c4.556.556 4.556.556 6 2a177 177 0 0 1-1 7c-2.375.125-2.375.125-5 0-2-2-2-2-2.25-4.5.25-2.5.25-2.5 2.25-4.5"/><path fill="#cdd5dd" d="m285 67 1 3-5-1v2l6 1-1 5h-7l-1-3h5l-5-2v-4c2.463-1.231 4.28-1.072 7-1"/><path fill="#78899a" d="M114 590q2.718-.04 5.438-.062l3.058-.036C125 590 125 590 126 591c.141 2.67.042 5.324 0 8h-2v-8l-2 1a109 109 0 0 0-1 7h-2v-8l-2 1a109 109 0 0 0-1 7h-2z"/><path fill="#75889a" d="M90 590q2.718-.04 5.438-.062l3.058-.036C101 590 101 590 102 591c.141 2.67.042 5.324 0 8h-2v-8l-2 1a109 109 0 0 0-1 7h-2v-8l-2 1a109 109 0 0 0-1 7h-2z"/><path fill="#748598" d="M550 306h2v3l5 1c.043 2 .04 4 0 6-1 1-1 1-4.062 1.063L550 317z"/><path fill="#c8d0d7" d="M90 542h6c.778 3.406 1.1 6.508 1 10l-3-1v-2h-2v3h-2z"/><path fill="#7a8ea1" d="M139 90h2v8h2v2h-2v2h-2v-2h-5c.501-4.385 1.983-6.8 5-10"/><path fill="#e3f3ee" d="M194 832a100 100 0 0 1 5 0c1 1 1 1 1.098 2.848L200 841h-7l-1-4 5-1v-2l-4 1z"/><path fill="#9fa4ac" d="M554 359h6v8h-3l-1 3h-3z"/><path fill="#d0eae2" d="M201 832c3.375-.125 3.375-.125 7 0 2 2 2 2 2.125 5.625L210 841h-3v-7l-2 1c-.658 3.03-.658 3.03-1 6h-3z"/><path fill="#738394" d="M335 693c2-.043 4-.04 6 0l1 1c1.515.232 3.038.412 4.563.563l2.503.253L351 695v1h-8v2h8v1h-8v2h-3v-7l-2 1c-.658 3.03-.658 3.03-1 6h-2z"/><path fill="#c4ccd3" d="m145 542 4 1 2 9h-2v-2h-4v2h-3c.507-3.719 1.116-6.735 3-10"/><path fill="#818994" d="M96 339h3q.758 1.903 1.5 3.813l.844 2.144C102 347 102 347 102 350h-2v-3c-2.473.344-2.473.344-5 1l-1 2h-2q.713-2.47 1.438-4.937l.808-2.778C95 340 95 340 96 339"/><path fill="#32cb95" d="m94 85.625 3.188-.023C100 86 100 86 101.863 87.324c1.704 2.511 1.334 4.727 1.137 7.676h-2v-6H89l-2 6h-2c-.364-5.463-.364-5.463 1.137-7.676 2.647-1.881 4.646-1.723 7.863-1.699"/><path fill="#d5dce3" d="M695.625 831.875 698 832l1 5h-5v2h5v2c-2.875.125-2.875.125-6 0-2-2-2-2-2.25-4.5.359-3.585 1.28-4.454 4.875-4.625"/><path fill="#7b8d9f" d="M224 694c.625 2.375.625 2.375 1 5-2 2-2 2-4.562 2.188C218 701 218 701 217 700c-.04-2-.043-4 0-6 2.667-1.333 4.167-.671 7 0"/><path fill="#6b798a" d="M142.438 589.813C145 590 145 590 147 592v3h-6l1 2h4v2c-2.875.125-2.875.125-6 0l-2-2c.704-6.9.704-6.9 4.438-7.187"/><path fill="#6c7a8b" d="M303.438 564.813C306 565 306 565 308 567v3h-6l1 2h4v2c-2.875.125-2.875.125-6 0l-2-2c.704-6.9.704-6.9 4.438-7.187"/><path fill="#b7bec5" d="m181 544 3 1v2h2v-2h2l-1 6-4 1-1-2-2 2c-2.625.125-2.625.125-5 0l-1-5 2 3h2z"/><path fill="#677788" d="m148 445 7 1-.562 2.813c-.68 3.2-.68 3.2.562 6.187h-2l-2-3-1 3h-2z"/><path fill="#c2cbd2" d="m223 245 6 1v8h-7c-.562-1.937-.562-1.937-1-4 1-1 1-1 3.563-1.062L227 249v-2l-5 1z"/><path fill="#a8b1b9" d="M172 245c4.875.875 4.875.875 6 2q.061 3.5 0 7h-7l-1-4 5-1v-2l-4 1z"/><path fill="#647686" d="M167.438 92.813C170 93 170 93 172 95v3h-6l1 2h4v2c-2.875.125-2.875.125-6 0l-2-2c.704-6.9.704-6.9 4.438-7.187"/><path fill="#7e91a3" d="M127 693c2-.043 4-.04 6 0 1 1 1 1 1.188 3.438C134 699 134 699 132 701h-4l-1 3z"/><path fill="#58626e" d="M173 693q3.012.43 6 1v6c-2.875.625-2.875.625-6 1l-2-2c.556-4.556.556-4.556 2-6"/><path fill="#a3aab2" d="M106 545h7v10h-2v-3l-5-1z"/><path fill="#999fa6" d="M213 544c4.706.706 4.706.706 6 2 .125 2.5.125 2.5 0 5-1 1-1 1-3.437 1.188C213 552 213 552 211 550c.556-4.556.556-4.556 2-6"/><path fill="#728294" d="M536 461q2.718-.04 5.438-.062l3.058-.036C547 461 547 461 548 462q.062 3.5 0 7h-2v-7h-3v7h-2v-7l-2 1c-.658 3.03-.658 3.03-1 6h-2z"/><path fill="#da6476" d="M747.563 442.813C750 443 750 443 751 444c.188 2.438.188 2.438 0 5l-2 2c-2.625-.375-2.625-.375-5-1-.625-2.375-.625-2.375-1-5 2-2 2-2 4.563-2.187"/><path fill="#6f8294" d="M536 385q2.718-.04 5.438-.062l3.058-.036C547 385 547 385 548 386q.062 3.5 0 7h-2v-7h-3v7h-2v-7l-2 1c-.658 3.03-.658 3.03-1 6h-2z"/><path fill="#d76375" d="M747.563 367.813C750 368 750 368 751 369c.188 2.438.188 2.438 0 5l-2 2c-2.625-.375-2.625-.375-5-1-.625-2.375-.625-2.375-1-5 2-2 2-2 4.563-2.187m0-76C750 292 750 292 751 293c.188 2.438.188 2.438 0 5l-2 2c-2.625-.375-2.625-.375-5-1-.625-2.375-.625-2.375-1-5 2-2 2-2 4.563-2.187"/><path fill="#c4cdd4" d="M590 204h7v2h-5v2l5 1c.043 1.666.04 3.334 0 5-1 1-1 1-4.062 1.063L590 215l-1-3 6 1v-3h-5z"/><path fill="#75879a" d="M119 203c3 1 3 1 5 4l1-4h2v10c-4-2-4-2-5-4l-1 4h-2z"/><path fill="#859aae" d="M522 156h7l-1 2h-4v8h5l-1-4 3 1-1 5h-8z"/><path fill="#788b9e" d="M272 93a100 100 0 0 1 5 0c1 1 1 1 1.098 2.848L278 102h-7c-.562-1.937-.562-1.937-1-4 1-1 1-1 3.563-1.062L276 97v-2h-5z"/><path fill="#29a178" d="M139.563 61.938 142 62l1 3h9v1h-9l-1 3c-1.666.043-3.334.04-5 0-1-1-1-1-1.125-3.5.17-3.406.269-3.48 3.688-3.562"/><path fill="#d3dae1" d="M680 832c3.125.375 3.125.375 6 1v4h-6v2h6l-1 2c-2 .043-4 .04-6 0-1-1-1-1-1.187-3.937C678 834 678 834 680 832"/><path fill="#e8f5f1" d="M160 832c3.125.375 3.125.375 6 1v4h-6v2h6l-1 2c-2 .043-4 .04-6 0-1-1-1-1-1.187-3.937C158 834 158 834 160 832"/><path fill="#d6ede6" d="M183 830h2l1 2c2.527.656 2.527.656 5 1v8h-3v-7l-2 1c-.658 3.03-.658 3.03-1 6h-2z"/><path fill="#6a788a" d="m131 565 7 1v8h-7c-.562-1.937-.562-1.937-1-4 1-1 1-1 3.563-1.062L136 569l-1-2h-5z"/><path fill="#5e6e7e" d="M117 301c2-.043 4-.04 6 0 1 1 1 1 1.063 3.563L124 307l-5 1v3h-2z"/><path fill="#5d6d7d" d="M107 206c2-.043 4-.04 6 0 1 1 1 1 1.063 3.563L114 212l-5 1v3h-2z"/><path fill="#b5bcc3" d="M563 204c2.625-.187 2.625-.187 5 0 .777 3.398 1.194 6.511 1 10-1 1-1 1-4.062 1.063L562 215l-1-3 6 1-1.5-1.375C564 210 564 210 564 208h2v-2l-5 1z"/><path fill="#57626e" d="M320.5 692.875C323 693 323 693 324 694c.125 3 .125 3 0 6-1 1-1 1-3.5 1.125C318 701 318 701 317 700c-.125-3-.125-3 0-6 1-1 1-1 3.5-1.125"/><path fill="#707d8e" d="M344 565q3.51.43 7 1v4h-6l1 2h4v2c-2 .043-4 .04-6 0-1-1-1-1-1.125-4.5C343 566 343 566 344 565"/><path fill="#1d242d" d="M95.5 563.875C98 564 98 564 99 565c.125 3 .125 3 0 6-1 1-1 1-3.5 1.125C93 572 93 572 92 571c-.125-3-.125-3 0-6 1-1 1-1 3.5-1.125"/><path fill="#5f7181" d="m565 385 1 5h-5v2l5-1-1 2c-3.716.2-4.772.152-8-2v-4c3.228-2.152 4.284-2.2 8-2"/><path fill="#bc9323" d="M566.438 230.813C569 231 569 231 571 233c-.375 3.125-.375 3.125-1 6-2 .043-4 .04-6 0-1-1-1-1-1.125-4 .164-3.926.164-3.926 3.563-4.187"/><path fill="#5a6c7b" d="M620.5 206.875C623 207 623 207 624 208c.125 3 .125 3 0 6-1 1-1 1-3.5 1.125C618 215 618 215 617 214c-.125-3-.125-3 0-6 1-1 1-1 3.5-1.125"/><path fill="#d4dde4" d="M204 67c6.152-.098 6.152-.098 8 0 1 1 1 1 1.063 4.063L213 74h-2l-1-4h-4v10h-2z"/><path fill="#1a232a" d="M168 66c2.729.033 5.297.564 8 1v6l-1-3h-6v2h3l-1 3c-3.875-.875-3.875-.875-5-2-.187-2.437-.187-2.437 0-5z"/><path fill="#464f56" d="m69 43 2 2-2.625 1.563C60.799 51.696 57.395 58.69 54 67h-1c-.838-5.447 1.1-8.408 4.14-12.68C64.349 45.326 64.349 45.326 69 43"/><path fill="#6b7b8c" d="M260.438 589.813C263 590 263 590 265 592v3h-6l1 2h4v2c-2 .043-4 .04-6 0-1-1-1-1-1.125-4.5.158-4.426.158-4.426 3.563-4.687m-42 0C221 590 221 590 223 592v3h-6l1 2h4v2c-2 .043-4 .04-6 0-1-1-1-1-1.125-4.5.158-4.426.158-4.426 3.563-4.687"/><path fill="#b5bbc2" d="M540.563 434.938 543 435c.8 3.287 1.097 4.71 0 8-2.375.125-2.375.125-5 0l-2-2c.728-5.969.728-5.969 4.563-6.062"/><path fill="#c4cdd4" d="M571 432h7v2h-5v2l5 1c.043 1.666.04 3.334 0 5-1 1-1 1-3.562 1.063L572 443l-1-3 5 1v-3h-5z"/><path fill="#b2bbc2" d="M550 283q3.5-.062 7 0c1 1 1 1 1.063 4.563L558 291h-3v-6h-2v6h-3z"/><path fill="#b6bfc7" d="M240 242h3v3l5 1v8h-2v-7h-4v7h-2z"/><path fill="#b4bbc2" d="M540.563 206.938 543 207c.8 3.287 1.097 4.71 0 8-2.375.125-2.375.125-5 0l-2-2c.728-5.969.728-5.969 4.563-6.062"/><path fill="#67798a" d="M289.438 92.813C292 93 292 93 294 95v3h-6l1 2h4v2c-2 .043-4 .04-6 0-1-1-1-1-1.125-4.5.158-4.426.158-4.426 3.563-4.687"/><path fill="#68798b" d="M201.438 92.813C204 93 204 93 206 95v3h-6l1 2h4v2c-2 .043-4 .04-6 0-1-1-1-1-1.125-4.5.158-4.426.158-4.426 3.563-4.687"/><path fill="#cad0d8" d="M747 832h2v7h3v-7h3v9q-3.5.062-7 0c-1-1-1-1-1.098-2.848z"/><path fill="#e2f2ed" d="M216.125 831.875 219 832v10c-2-2-2-2-2.5-4.562L216 835l-2-1v5h2v2c-3.875-.875-3.875-.875-5-2-.187-2.437-.187-2.437 0-5 2-2 2-2 5.125-2.125"/><path fill="#30aa7e" d="M176 731h12l1 3-11-1 1 11-3-1z"/><path fill="#6d7d8e" d="m234 566 1 4h-6l1 2h4v2c-2 .043-4 .04-6 0-1-1-1-1-1.062-4.562L227 566c2.667-1.333 4.167-.671 7 0"/><path fill="#7a828d" d="M102 480h2v2h4l1-2v2h2v2h-2v6l2 1h-3v-7h-4v6l2 1-4-1c-1.125-7.75-1.125-7.75 0-10"/><path fill="#d0d9e1" d="M253.625 244.875 256 245l1 5h-6v2h6l-1 2c-2.375.125-2.375.125-5 0-2-2-2-2-2.25-4.5.359-3.585 1.28-4.454 4.875-4.625"/><path fill="#949da5" d="M200 245c2.625.375 2.625.375 5 1l1 4h-6l1 2h5l-1 2c-2 .043-4 .04-6 0-1-1-1-1-1.187-3.937C198 247 198 247 200 245"/><path fill="#798c9f" d="M199 156h10v2h-4v10h-3v-10h-3z"/><path fill="#c9d2d9" d="m186 69 1.875.563c2.167.674 2.167.674 4.125-.563.125 2.875.125 2.875 0 6-2 2-2 2-5.125 2.125L184 77c0-3.204.743-5.094 2-8"/><path fill="#8194a7" d="M108.625 589.875 111 590l1 5h-6l1 2h5l-1 2c-2.375.125-2.375.125-5 0-2-2-2-2-2.25-4.5.359-3.585 1.28-4.454 4.875-4.625"/><path fill="#717f90" d="M307.625 589.875 310 590l1 5h-6l1 2h5l-1 2c-2.375.125-2.375.125-5 0-2-2-2-2-2.25-4.5.359-3.585 1.28-4.454 4.875-4.625"/><path fill="#7e92a5" d="M267 565a100 100 0 0 1 5 0c1 1 1 1 1.098 2.848L273 574h-7v-5h5v-3l-5 1z"/><path fill="#6e7e90" d="M188.625 564.875 191 565l1 5h-6l1 2h5l-1 2c-2.375.125-2.375.125-5 0-2-2-2-2-2.25-4.5.359-3.585 1.28-4.454 4.875-4.625"/><path fill="#838a96" d="M200 341c2.625.375 2.625.375 5 1l1 4h-6l1 2h5l-1 2h-6c-.625-3.375-.625-3.375-1-7z"/><path fill="#6a7c8d" d="M319.625 92.875 322 93l1 5h-6l1 2h5l-1 2c-2.375.125-2.375.125-5 0-2-2-2-2-2.25-4.5.359-3.585 1.28-4.454 4.875-4.625"/><path fill="#eff8f3" d="m474 371 1 4c4.415-1.27 4.415-1.27 8-4l-.562 2.75c-.395 2.933-.385 4.514.562 7.25-3.27-.564-4.826-1.5-7-4v4h-2z"/><path fill="#717984" d="m129 341 5 1v8h-6l-1-4 5-1v-2l-4 1z"/><path fill="#c3ccd3" d="M530 280h2v11q-3.5.062-7 0c-1-1-1-1-1.062-4.062L524 284l5-1-2 2c-.643 2.069-.643 2.069-1 4h4z"/><path fill="#485866" d="M531 157v4l-2 2v3h-5v-8c2.49-.687 4.379-1 7-1"/><path fill="#3a4642" d="m386 566 2 1c-1.668 3.941-4.227 6.79-7 10l-4-2v-4l4 1z"/><path fill="#7a828d" d="M93 479h2v3l5 1v8h-2v-7h-3v7h-2z"/><path fill="#bfc8d0" d="M189 242h2v3l5 1v8h-2v-7h-3v7h-2z"/><path fill="#c3e8dc" d="m95 828 4 1-1 8h1v7l-4 1z"/><path fill="#627384" d="M97 445h5l2 2c-.375 2.125-.375 2.125-1 4l-5 1-1 3z"/><path fill="#bcc4cb" d="M574.438 203.813C577 204 577 204 579 206c.25 3.5.25 3.5 0 7l-2 2c-2.125-.375-2.125-.375-4-1h3v-8l-3 1-1 5h-1q-.062-3.5 0-7c1-1 1-1 3.438-1.187"/><path fill="#75889b" d="M79.5 202.688 82 203l2 3h-6l1 5h2l1-2-2-1h4c-.875 3.875-.875 3.875-2 5-2.437.188-2.437.188-5 0-2-2-2-2-2.25-5 .315-3.775.93-4.835 4.75-5.312"/><path fill="#798da0" d="M231 156h3v10h5v2h-8z"/><path fill="#c5ced5" d="m267 69 2 2 4-2c2.125 5.625 2.125 5.625 1 9-5.875-1.875-5.875-1.875-7-3-.04-2-.043-4 0-6"/><path fill="#2d926f" d="M215.5 737.875C218 738 218 738 219 739c.125 2.5.125 2.5 0 5-1 1-1 1-3.5 1.125C213 745 213 745 212 744c-.125-2.5-.125-2.5 0-5 1-1 1-1 3.5-1.125"/><path fill="#586776" d="M116.5 447.875C119 448 119 448 120 449c.125 2.5.125 2.5 0 5-1 1-1 1-3.5 1.125C114 455 114 455 113 454c-.125-2.5-.125-2.5 0-5 1-1 1-1 3.5-1.125"/><path fill="#c0c6ce" d="M514 356q3.5-.062 7 0c1 1 1 1 1.063 3.563L522 362l-2-3c-2.06-.724-2.06-.724-4-1v4l3 1h-2v4h-3z"/><path fill="#596979" d="M136.5 300.875C139 301 139 301 140 302c.125 2.5.125 2.5 0 5-1 1-1 1-3.5 1.125C134 308 134 308 133 307c-.125-2.5-.125-2.5 0-5 1-1 1-1 3.5-1.125m-43-95C96 206 96 206 97 207c.125 2.5.125 2.5 0 5-1 1-1 1-3.5 1.125C91 213 91 213 90 212c-.125-2.5-.125-2.5 0-5 1-1 1-1 3.5-1.125"/><path fill="#1f2c35" d="M372 93h5l-2 2c-.4 2.323-.74 4.657-1 7l-9-1-1-3h6l1-3z"/><path fill="#7e91a4" d="M191 693a100 100 0 0 1 5 0c1 1 1 1 1.063 4.563L197 701h-6l-1-4 5-1v-2l-5 1z"/><path fill="#6a7889" d="M531.563 460.938 534 461l1 5h-5v2l5-1-1 2c-1.666.043-3.334.04-5 0-1-1-1-1-1.125-4 .166-3.977.166-3.977 3.688-4.062"/><path fill="#677889" d="M531.563 384.938 534 385l1 5h-5v2l5-1-1 2c-1.666.043-3.334.04-5 0-1-1-1-1-1.125-4 .166-3.977.166-3.977 3.688-4.062"/><path fill="#c7ced5" d="M537 356h5c.625 2.313.625 2.313 1 5l-2 3 2 1v2h-7c1.498-3.112 3.2-6.053 5-9l-5 1z"/><path fill="#677889" d="M531.563 308.938 534 309l1 5h-5v2l5-1-1 2c-1.666.043-3.334.04-5 0-1-1-1-1-1.125-4 .166-3.977.166-3.977 3.688-4.062"/><path fill="#161f28" d="M129 158q2.514.428 5 1v6a88 88 0 0 1-5 1c-1-1-1-1-1.125-4 .125-3 .125-3 1.125-4"/><path fill="#798b9d" d="M208 689h2v4l5 1v7h-2v-7l-2 1c-.658 3.03-.658 3.03-1 6h-2z"/><path fill="#788a9b" d="M99 689h2v4l5 1v7h-2v-7l-2 1c-.658 3.03-.658 3.03-1 6h-2z"/><path fill="#bfc6ce" d="m191 544 5 1v7h-7l.5-1.937c.54-1.871.54-1.871.5-3.063z"/><path fill="#576776" d="M126 448h6c.625 2.375.625 2.375 1 5l-2 2c-2.625-.375-2.625-.375-5-1z"/><path fill="#29ac82" d="M100 838h7v6h-7z"/><path fill="#d2d9e0" d="M667 829h6v2h-4v8h5v2h-7z"/><path fill="#75889a" d="M138 445h2l1 8h2l1-8h2c.195 6.055.195 6.055 0 8-2 2-2 2-4.562 2.188C139 455 139 455 138 454a75 75 0 0 1-.062-4.562l.027-2.504z"/><path fill="#cfd8df" d="M545 432h2l1 5 1-2 3 1-2 3 2 4-4-2-1 2h-2z"/><path fill="#99a0a8" d="M576 206v8c-1.812.625-1.812.625-4 1l-3-2 1-6c3-1 3-1 6-1"/><path fill="#ccd4db" d="M545 204h2l1 5 1-2 3 1-2 3 2 4-4-2-1 2h-2z"/><path fill="#718597" d="M581 155h2v15h-3c-.929-2.786-1.163-4.61-1.187-7.5l-.043-2.344C579 158 579 158 581 155"/><path fill="#758798" d="M177 590q3.5-.062 7 0c1 1 1 1 1.098 2.848L185 599h-2l-1-7h-2l-1 7h-2z"/><path fill="#bcc4cc" d="M100 544c2.125.375 2.125.375 4 1l1 4-2 1 2 1c-1 1-1 1-3.5 1.125C99 552 99 552 98 551c-.187-2.437-.187-2.437 0-5z"/><path fill="#64666d" d="M516 358c2.438.375 2.438.375 5 1l1 2h6c-3 2-3 2-5 2l-1 3h-3l-1-3-2-1z"/><path fill="#79818c" d="M165 341h2l1 7h2l1-7h2v9q-3.5.062-7 0c-1-1-1-1-1.098-2.848z"/><path fill="#7a828d" d="M263 341c2-.043 4-.04 6 0 1 1 1 1 1.098 2.848L270 350h-2v-7h-3v7h-2z"/><path fill="#c8d1d8" d="m142 244 1 2h2v2l2 1h-2l1 3-2 2c-3.125-.375-3.125-.375-6-1v-5h3v2h2l1-3-5-1z"/><path fill="#708295" d="M256 93h2l1 7h2l1-7h2v9q-3.5.061-7 0c-1-1-1-1-1.098-2.848z"/><path fill="#adb0b7" d="m645 831 3 1a675 675 0 0 1-.375 6.438c-.07 1.194-.14 2.39-.21 3.62-.138.971-.274 1.942-.415 2.942-2.623 1.312-4.23.896-7.125.563l-2.758-.31L635 845v-1h10z"/><path fill="#30b182" d="M211 736v2h-6l1 5 5-1-1 3c-2.875.188-2.875.188-6 0-2-3-2-3-1.75-6.125L203 736c2.862-1.43 4.934-.6 8 0"/><path fill="#2ead80" d="M298 735h2l1 3 3-1-.562 2.313c-.666 2.777-.666 2.777.562 5.687h-6z"/><path fill="#32c892" d="M153 654h10v2h-4v10h-2v-10h-4z"/><path fill="#6f8192" d="M242 590c5.75-.125 5.75-.125 8 1v8h-2l-1-7h-2l-1 7h-2z"/><path fill="#afb5bd" d="M204 542h8v2h-3v8h-3v-8h-2z"/><path fill="#323d49" d="M80 445c2 .25 2 .25 4 1l1 3-7 6c.875-8.875.875-8.875 2-10"/><path fill="#8297ab" d="M514 156h4v12h-2l-1-5-2 1zm-38 0h4c1.354 2.709 1.065 5.01 1 8l-2-2-1 6h-2z"/><path fill="#576574" d="M457 156c2.125.375 2.125.375 4 1 1.125 3.75 1.125 3.75 0 6h-5c-.625-2.375-.625-2.375-1-5z"/><path fill="#6c7e90" d="M149 93c5.75-.125 5.75-.125 8 1v8h-2l-1-7h-2l-1 7h-2z"/><path fill="#6b7d8e" d="M113 298h2v10h-2v-6h-3v6h-2v-7l5-1z"/><path fill="#dc2b52" d="M265.563 245.938 269 246l1 3h-2v2l-7 1a100 100 0 0 1 0-5c1-1 1-1 4.563-1.062"/><path fill="#526372" d="M549 158h4l3 10h-3l-1-4h-2l-1 4z"/><path fill="#536271" d="M115 158h4l3 10h-3l-1-4h-2l-1 4z"/><path fill="#75899b" d="M600 155h2c2.335 3.648 2.304 6.744 2 11-1 2.438-1 2.438-2 4h-2z"/><path fill="#1a232c" d="M102 158q2.514.428 5 1v2l2 1h-5v2l3 1-5 1a177 177 0 0 1-1-7z"/><path fill="#d0d8df" d="m708 832 6 1v4h-6v2h6l-1 2h-6v-6h4l-3-1z"/><path fill="#30ad80" d="M270.563 737.938 273 738l1 4-2 1 2 1c-1 1-1 1-3.5 1.125C268 745 268 745 267 744c-.125-2.5-.125-2.5 0-5 1-1 1-1 3.563-1.062"/><path fill="#542533" d="M738 435a56.5 56.5 0 0 1-4 7c-.365 2.221-.365 2.221-.414 4.668l-.117 2.705-.094 2.815-.117 2.85q-.141 3.48-.258 6.962h-1c-.116-3.75-.187-7.499-.25-11.25l-.102-3.223-.039-3.105-.063-2.857c.633-3.579 2.558-6.565 6.454-6.565"/><path fill="#a7acb3" d="m528 435 4 2 1-2 3 1-2 7h-4z"/><path fill="#79818b" d="m209 341 5 1v2h-4l4 2-1 4h-5l-1-2 5 1v-2l-5-2z"/><path fill="#6e8092" d="M88.563 300.938 91 301l1 4-2 1 2 1c-1 1-1 1-3.5 1.125C86 308 86 308 85 307c-.125-2.5-.125-2.5 0-5 1-1 1-1 3.563-1.062"/><path fill="#dfab23" d="M554 231h7v8h-2v-6h-3v6h-2z"/><path fill="#74899b" d="m608 207 3 1 1 3 2-4h2a225 225 0 0 1-1.25 4.938l-.703 2.777C613 217 613 217 610.89 217.816L609 218l.625-1.562c.534-3.47-.548-6.144-1.625-9.438"/><path fill="#a5acb3" d="m528 207 4 2 1-2 3 1-2 7h-4z"/><path fill="#181f28" d="m176 158 5 1v6l-5 1z"/><path fill="#75899b" d="M236 90c3 1 3 1 4 3h2l2-3h2l-.875 2.063c-1.251 3.266-2.2 6.565-3.125 9.937h-2l-.875-3.75c-.738-2.974-1.57-5.584-3.125-8.25"/><path fill="#778a9d" d="M306 90h2v3l5 1v8h-1l-1-7h-2l-1 7h-2z"/><path fill="#7a8c9e" d="M116 565h2l2 5 2-5h2q-.716 2.438-1.437 4.875l-.81 2.742C121 575 121 575 120 577l-3-1h2z"/><path fill="#caead8" d="M487 369h5l2 7h-6c-1.062-2.375-1.062-2.375-2-5z"/><path fill="#8195a8" d="M562.563 308.938 565 309l1 4h-6l1 2h5l-1 2c-1.666.043-3.334.04-5 0-1-1-1-1-1.125-4 .166-3.977.166-3.977 3.688-4.062"/><path fill="#a7b1b8" d="m95 242 2 1v13l-3-1c-1.564-3.127-1.4-6.58-1-10z"/><path fill="#a6afb6" d="M150 242c3 1 3 1 4 3 .356 7.467.356 7.467-2 11h-2z"/><path fill="#6c7e90" d="M129 206a100 100 0 0 1 5 0c1 1 1 1 1.063 4.063L135 213h-6c0-4 0-4 1-5z"/><path fill="#6f8193" d="M151 205c2.125.938 2.125.938 4 2v3l-2 1 2 1c-2.375.625-2.375.625-5 1l-2-2c.25-2.562.25-2.562 1-5z"/><path fill="#748699" d="M173 156h3l1 12h-4z"/><path fill="#d9e0e7" d="m757 833 2 1v5h4v-5h1v7h-5v3h-2z"/><path fill="#bec3ca" d="M687 829h3v12h-3z"/><path fill="#2fb082" d="M147 654h3v12h-3z"/><path fill="#30b183" d="M113 654h3v12h-3z"/><path fill="#7b8b9e" d="M314 590h5l1 2-5-1c1.255 2.51 2.5 2.871 5 4l-1 4h-6v-2l4-1-4-2z"/><path fill="#bec5cd" d="m243 544 7 1v7h-2v-6h-3v6h-2z"/><path fill="#748799" d="M105 445h2v3l5 1v6h-2v-6h-3v6h-2z"/><path fill="#e1f3ed" d="M489 445h3v12h-3zm0-228h3v12h-3z"/><path fill="#76899c" d="M215 93h5l1 2-5-1c1.255 2.51 2.5 2.871 5 4l-1 4h-6v-2l4-1-4-2z"/><path fill="#c9d2d9" d="m173 64 2 4-3.312-.562c-3.624-.696-3.624-.696-6.688.562l-1 6h-1c-.36-6.345-.36-6.345 1.063-8.937 2.949-1.618 5.646-1.25 8.937-1.063"/><path fill="#7d8590" d="m128 483-1 2-3-1v2l5 1-1 4h-6v-2h4l-2-1.312-2-1.688v-3c2.49-1.245 3.41-.777 6 0"/><path fill="#c6ced5" d="M554 435h5l1 2-4 1 4 1-1 4h-5l-1-2 5 1v-2l-5-1z"/><path fill="#c8e9cf" d="m477 295 5 1 2 9h-4v-2h2l-2-3h-3z"/><path fill="#c6ced5" d="M554 207h5l1 2-4 1 4 1-1 4h-5l-1-2 5 1v-2l-5-1z"/><path fill="#bec5cc" d="M731 832h6v2l-2 1c-.658 3.03-.658 3.03-1 6h-3z"/><path fill="#32c892" d="M184 654h2v10h5v2h-7z"/><path fill="#c8d0d7" d="M161 545h6l1 5-5-4v5l3 1h-3v3h-2z"/><path fill="#54bb6b" d="m488 295 4 1c.625 2.375.625 2.375 1 5l-2 2h-3z"/><path fill="#7d878f" d="m139 243 2 1-1 2 4 1-1 4-2-1v-2l-2 1v3h-2c-.8-3.287-1.097-4.71 0-8z"/><path fill="#c4cdd5" d="M213 243c2-.043 4-.04 6 0 1.903 1.903 1 5.45 1 8l1 3h-3l-.312-1.937L217 250l-3-1 4-1v-4h-5z"/><path fill="#30ad80" d="m229 738 3 2 1-2h2a260 260 0 0 1-1.312 4.438l-.739 2.496L232 747l-3 1z"/><path fill="#7c8fa2" d="M276 590h5l1 2-5-1c1.255 2.51 2.5 2.871 5 4l-1 4h-5l-1-2 5 1c-1.255-2.51-2.5-2.871-5-4z"/><path fill="#758799" d="M175 565h2l1 5h2l1-5h2l-3 9-3-1c-.73-1.848-.73-1.848-1.187-4.062-.16-.734-.318-1.467-.481-2.223z"/><path fill="#7c8fa2" d="M244 565h5l1 2-5-1c1.255 2.51 2.5 2.871 5 4l-1 4h-5l-1-2 5 1c-1.255-2.51-2.5-2.871-5-4z"/><path fill="#7a8c9f" d="M209 565h2l1 7h3v-7h1v9c-2 .043-4 .04-6 0-1-1-1-1-1.098-2.848z"/><path fill="#7a8d9f" d="M103 565c2-.043 4-.04 6 0 1 1 1 1 1.098 2.848L110 574h-2l-1-7h-3v7h-1z"/><path fill="#7a8b9e" d="M313.625 564.875 316 565l1 3-5-1v5l3 1v-2h2l-1 3c-2.375.125-2.375.125-5 0-2-2-2-2-2.25-4.5.359-3.585 1.28-4.454 4.875-4.625"/><path fill="#788a9d" d="M260.625 564.875 263 565l1 3-5-1v5l3 1v-2h2l-1 3c-2.375.125-2.375.125-5 0-2-2-2-2-2.25-4.5.359-3.585 1.28-4.454 4.875-4.625"/><path fill="#d4a423" d="M541 231h7v3h-2v5h-3z"/><path fill="#1f2221" d="M533 230h4v7l-5-1a100 100 0 0 1 0-5z"/><path fill="#879cb1" d="M155 156h5v2h-3v5l3 1h-3v4h-2z"/><path fill="#8195a9" d="M141 156h2l.078 1.898.172 2.477.14 2.46c.402 2.353.402 2.353 2.657 3.454L148 167v1c-2 .043-4 .04-6 0-1-1-1-1-1.098-3.504l.036-3.059.027-3.066z"/><path fill="#d1dae1" d="M725 835h5c-.875 4.875-.875 4.875-2 6-2 .04-4 .043-6 0l-1-3 6 1v-2h-2z"/><path fill="#7e91a5" d="M285 590a100 100 0 0 1 5 0c1 1 1 1 1.098 2.848L291 599h-6l4-4-3-1 3-3-5 1zm-116 0a100 100 0 0 1 5 0c1 1 1 1 1.098 2.848L175 599h-6l4-4-3-1 3-3-5 1z"/><path fill="#7b8fa2" d="M276 565c2-.043 4-.04 6 0 1 1 1 1 1.098 2.848L283 574h-2l-1-7h-2l-1 7h-1z"/><path fill="#728497" d="m141 300 7 2v6h-2v-6h-3v6h-2z"/><path fill="#c8d2d9" d="M237 243h1v11c-2 .043-4 .04-6 0-1-1-1-1-1.062-3.562L231 248l1 4h3v-6h2z"/><path fill="#8d979e" d="m104 242 2 1-3 3 3 1-2 4-1-3-2 1 1 4h-2c-1.125-5.625-1.125-5.625 0-9 1.938-1.25 1.938-1.25 4-2"/><path fill="#798c9f" d="M353 93c2-.043 4-.04 6 0 1 1 1 1 1.098 2.848L360 102h-1l-1-7h-2l-1 7h-2z"/><path fill="#0e484a" d="m92 75 5 1-1 5-5-1z"/><path fill="#7c8ea0" d="M267 690v10l3 1h-7l2-1a109 109 0 0 0-1-7l-2-1c3-2 3-2 5-2"/><path fill="#32c590" d="M128 654h2v12l-4-1v-3h2z"/><path fill="#77899c" d="M201 590h2l2 5 2-5h2l-3 9h-2z"/><path fill="#c0c7cf" d="M228 542h2q.039 2.219.063 4.438l.035 2.496C230 551 230 551 229 552c-1.666.04-3.334.043-5 0l-1-4h2l2 2z"/><path fill="#d86375" d="m744.469 452.867 3.031.008 3.031-.008C753 453 753 453 754 454c.04 1.666.043 3.334 0 5h-2l-1-4-8-1-1 5h-1a100 100 0 0 1 0-5c1-1 1-1 3.469-1.133"/><path fill="#d66275" d="m744.469 377.867 3.031.008 3.031-.008C753 378 753 378 754 379c.04 1.666.043 3.334 0 5h-2l-1-4-8-1-1 5h-1a100 100 0 0 1 0-5c1-1 1-1 3.469-1.133m0-76 3.031.008 3.031-.008C753 302 753 302 754 303c.04 1.666.043 3.334 0 5h-2l-1-4-8-1-1 5h-1a100 100 0 0 1 0-5c1-1 1-1 3.469-1.133"/><path fill="#1f2a33" d="m77 300 5 1-1 5-4 1z"/><path fill="#7b8fa3" d="M626 207h2v6h4v-6h1v8c-2 .043-4 .04-6 0-1-1-1-1-1.062-4.562z"/><path fill="#6e8193" d="M605 203h2v14h-2c-1.244-2.488-1.133-4.227-1.125-7l-.008-2.687C604 205 604 205 605 203"/><path fill="#19212a" d="m78 205 6 1-3 6-4-2z"/><path fill="#8398ac" d="M485 156h4v12h-2l-.437-3.75c-.35-2.815-.767-5.52-1.563-8.25"/><path fill="#8499ad" d="M505 156h4l-.437 1.5c-.783 3.478-1.15 6.96-1.563 10.5h-2z"/><path fill="#e4f3ee" d="m172 833 .75 1.938c1.06 2.206 1.06 2.206 3.188 2.875 2.26.344 2.26.344 5.062-.813l-1 4q-3.5.062-7 0c-1-1-1-1-1.062-4.562z"/><path fill="#2fa179" d="m133 654 4 1c1.188 2.438 1.188 2.438 2 5l1 2h-3l-1 3z"/><path fill="#7e838b" d="M175 544q2.514.428 5 1l-2 6-3-1a88 88 0 0 1-1-5z"/><path fill="#6b747f" d="M143 479h2l-3 14h-2c.514-4.97 1.234-9.29 3-14"/><path fill="#55606f" d="M567 461h5l-2 2a90 90 0 0 0-1 6h-2c-.8-3.287-1.097-4.71 0-8m-6 5h5l-2 2h-3z"/><path fill="#718496" d="M99 301v2h-3l3 1-1 4-5-1 2-1 2 1v-2l-4-1v-3c2.49-1.245 3.41-.777 6 0"/><path fill="#e3ad23" d="m532 228 4 2-3 1c-.349 3.717-.349 3.717 1.5 6.813L536 239c-4.875-.875-4.875-.875-6-2-.187-3.437-.187-3.437 0-7z"/><path fill="#181f21" d="m519 231 2 1v2l3-1-1 4h-7c0-3 0-3 1.5-4.687z"/><path fill="#6d8192" d="M635 203h2c1.322 2.645 1.097 4.678 1.063 7.625l-.028 3.04L638 216l-3 1z"/><path fill="#2fbc8a" d="M137 74h10l1 2 3 1v2l-5-1v-2h-9z"/><path fill="#dce5ec" d="M187.563 66.813C190 67 190 67 191 68c.04 2 .043 4 0 6l-2-4h-3l-2 5h-1c-.125-2.875-.125-2.875 0-6 2-2 2-2 4.563-2.187"/><path fill="#ced6dd" d="m739 832 6 1v7l-5 1 1-2h2c-.267-1.985-.267-1.985-1-4l-3-1z"/><path fill="#30a97d" d="M251 737h2l2 3 1-2h2l-2 7h-3z"/><path fill="#7f93a6" d="M119 690h2v3l3 1h-3v6l3 1-5-1v-6l-2-1h2z"/><path fill="#c4ccd4" d="M119 544h2v8h-6v-7h1v5h3z"/><path fill="#6d7680" d="M137 479h2q-.464 2.938-.937 5.875l-.528 3.305C137 491 137 491 136 493h-2q.465-2.657.938-5.312l.527-2.989C136 482 136 482 137 479"/><path fill="#1e2731" d="m85 450 4 1v4h-8z"/><path fill="#40434a" d="m552 435 2 1-1 3 5 1v2l-6 1-3-5z"/><path fill="#a3a9b0" d="M548 357c2 2 2 2 2.125 4.625L550 364l-6 1c1.125-2.972 2.223-5.334 4-8"/><path fill="#3c424a" d="m552 207 2 1-1 3 5 1v2l-6 1-3-5z"/><path fill="#dceee9" d="m232 834 1 2c2.527.656 2.527.656 5 1l-1 4h-6v-2l2-1z"/><path fill="#6f7e8e" d="M159 689c1.305 3.916.322 5.039-1.437 8.688l-1.434 3.011L155 703l-2-1q1.215-2.97 2.438-5.937l1.37-3.34C158 690 158 690 159 689m-9 0c1.305 3.916.322 5.039-1.437 8.688l-1.434 3.011L146 703h-2c1.54-5.015 3.03-9.615 6-14"/><path fill="#647686" d="m121 446 4 1v8l-4-1z"/><path fill="#c79a23" d="M572 231h5v2h-2v6h-3z"/><path fill="#7d90a2" d="m237 690 1 3c2.015.733 2.015.733 4 1h-3v6l3 1-5-1v-6l-3-1h3z"/><path fill="#2a2f38" d="m190 591 3 1v5h-4c-.625-1.875-.625-1.875-1-4z"/><path fill="#35343c" d="m132 591 3 1v5h-4c-.625-1.875-.625-1.875-1-4z"/><path fill="#2d3039" d="m293 566 3 1v5h-4c-.625-1.875-.625-1.875-1-4z"/><path fill="#292e38" d="m143 566 3 1v5h-4c-.625-1.875-.625-1.875-1-4z"/><path fill="#8e949c" d="M90 542h6l1 2-2 3h-4z"/><path fill="#aeb7be" d="M117 248h2l2 4h6l2-4c-.875 4.875-.875 4.875-2 6-6.31.467-6.31.467-8.937-1.312C117 251 117 251 117 248"/><path fill="#7f94a7" d="M221 164v4h-3v-3l-6 1 1-3c4.625-1.25 4.625-1.25 8 1"/><path fill="#4f5e6d" d="m138 91 2 1v6h-6z"/><path fill="#1e2831" d="m248 95 5 1-1 5-4-1z"/><path fill="#c4ccd3" d="M286 72c.563 1.938.563 1.938 1 4-1 1-1 1-4.562 1.063L279 77l-1-3 2.313.125c2.914.096 2.914.096 5.687-2.125"/><path fill="#32cc95" d="M101 73c3.875.875 3.875.875 5 2 .188 2.938.188 2.938 0 6l-2 2h-3v-2l2-1c-.656-3.61-.656-3.61-2-7"/><path fill="#292027" d="m670 832 4 1v5l-4 1z"/><path fill="#999ba2" d="m636 827 6 2v2h-11l4-1z"/><path fill="#6e8091" d="M295 689c1.305 3.916.322 5.039-1.437 8.688l-1.434 3.011L291 703c-1.228-3.683-.603-4.63.875-8.125l1.117-2.695C294 690 294 690 295 689"/><path fill="#7b8ea0" d="M367 689h2v12l-2-1v-6l-3-1h3zm-9 0h2v12l-2-1v-6l-3-1h3z"/><path fill="#2a3239" d="M564 434h3v7l-4-1a100 100 0 0 1 0-5z"/><path fill="#232d36" d="m191 343 4 1-1 5-4-1z"/><path fill="#616b73" d="m169 244-1 5-5-1v-4c3.75-1.125 3.75-1.125 6 0"/><path fill="#bfe5d9" d="m141 836 5 1v4h-6z"/><path fill="#36353e" d="m112 592 2 1-1 5h-6l-1-3h6z"/><path fill="#989ea6" d="m144 544 3 1 1 5h-3v2h-3c.875-5.75.875-5.75 2-8"/><path fill="#323b43" d="M569 435h2v3h5v3l-5-1-1 2z"/><path fill="#c6cfd6" d="M532 359h2v10l-4 1v-2h2z"/><path fill="#7c848f" d="m245 339 1 2h2v9h-3a491 491 0 0 1-.562-4.375l-.317-2.46C244 341 244 341 245 339"/><path fill="#75899c" d="M103.563 300.938 106 301l1 2-5-1 1 4 4 1c-1 1-1 1-3.5 1.125C101 308 101 308 100 307c-.125-2.5-.125-2.5 0-5 1-1 1-1 3.563-1.062"/><path fill="#9ea8af" d="m515 284 1 4c3.629.151 3.629.151 7-1l1 4-3.312-.562c-3.624-.696-3.624-.696-6.688.562z"/><path fill="#4e5960" d="M529 280h1v9h-4l1-7h2z"/><path fill="#8f99a0" d="m106 243 4 1c.625 2.813.625 2.813 1 6l-2 3-2-1v-4c-.304-1.672-.631-3.34-1-5"/><path fill="#ced8df" d="M186 243h1v11h-6l3-2c.25-3.084.25-3.084 0-6h2z"/><path fill="#b8c2c9" d="M595 209h2c.043 1.666.04 3.334 0 5-1 1-1 1-4.062 1.063L590 215l-1-3 6 1z"/><path fill="#ced7de" d="M169 70h6v5l-4 1 1-4h-3z"/><path fill="#239074" d="M83 40c-8.262 4.592-8.262 4.592-13 4 3.476-4.249 7.82-5.566 13-4"/><path fill="#f1f9f6" d="M183 830h2c1.054 3.982.841 6.982 0 11h-2z"/><path fill="#2b2b30" d="m219 694 4 1-1 5h-3c-1.125-3.75-1.125-3.75 0-6"/><path fill="#5f6a79" d="M106 590h5l1 2-1 2h-6z"/><path fill="#302c35" d="m322 566 3 1v5h-4a100 100 0 0 1 0-5z"/><path fill="#262932" d="m197 566 3 1v5h-4a100 100 0 0 1 0-5zm-28 0 3 1v5h-4a100 100 0 0 1 0-5z"/><path fill="#232730" d="m153 566 3 1v5h-4a100 100 0 0 1 0-5z"/><path fill="#b2b6be" d="M524 435h3v8h-3z"/><path fill="#c6cdd4" d="M554 359h2v11h-3z"/><path fill="#adb6be" d="M546 283h3v8h-3z"/><path fill="#ccd5dd" d="m105 243 3 3-1 2 2 1-2 3-1-5-5-1z"/><path fill="#313a41" d="m589 206 1 4h5v3l-7-1a100 100 0 0 1 0-5z"/><path fill="#afb6be" d="M524 207h3v8h-3z"/><path fill="#282f36" d="M583 206h2l1 6-4 1c-.043-2-.04-4 0-6z"/><path fill="#17202a" d="m333 94 3 1v5h-4a100 100 0 0 1 0-5z"/><path fill="#172029" d="m191 94 3 1v5h-4a100 100 0 0 1 0-5z"/><path fill="#d3dce3" d="M219 73h3v2h5l1-2-1 4h-7z"/><path fill="#96979e" d="M695.625 831.875 698 832l-1 4h-4l-2 3c-.125-2.375-.125-2.375 0-5 2-2 2-2 4.625-2.125"/><path fill="#6e7e8f" d="M148 590h5l-1 2h-2v7h-2z"/><path fill="#586573" d="m266 569 5 1 1 4h-6z"/><path fill="#808893" d="m108 480 1 2h2v2h-2v6l2 1h-3v-7h-3v-2h3z"/><path fill="#7a828d" d="M150 341h5v2h-3v7h-2z"/><path fill="#c9d2da" d="M198 249h7v1h-5l1 2h5l-1 2h-6z"/><path fill="#27323a" d="m170 246 5 1v2l-4 1v4h-2l-2-5 3-1z"/><path fill="#7a838b" d="M253.625 244.875 256 245l-1 4h-4l-2 3c-.125-2.375-.125-2.375 0-5 2-2 2-2 4.625-2.125"/><path fill="#afb8bf" d="M588 205v9l-2 1-3-2 2-1v-6c2-1 2-1 3-1"/><path fill="#1e2933" d="m83 158 .875 1.875c1.062 2.258 1.062 2.258 3.125 4.125l-4 3-1-2c-2.017-1.134-2.017-1.134-4-2l1.938-.812C82.33 161.113 82.33 161.113 83 158"/><path fill="#718496" d="M339 93h2c1.688 1.688 1.688 1.688 3 4-.312 2.75-.312 2.75-1 5h-2z"/><path fill="#6e8092" d="m189 90 1 3 2.438-.062C195 93 195 93 196 94q.061 3.5 0 7l-2-1c-.625-2.562-.625-2.562-1-5l-4-1z"/><path fill="#2ebd8e" d="M104 86c2.867.573 3.861.861 6 3 .125 3.125.125 3.125 0 6h-2l-.875-2.937c-.767-3.17-.767-3.17-3.125-4.063z"/><path fill="#31b787" d="m263 736 3 1v8h-3c-1.125-6.75-1.125-6.75 0-9"/><path fill="#879cb0" d="m110 690 1 3c2.015.733 2.015.733 4 1h-4c.27 2.437.27 2.437 1 5l3 2-5-1v-6l-3-1h3z"/><path fill="#28262f" d="m296 591 3 1v5h-4a100 100 0 0 1 0-5z"/><path fill="#758799" d="M237 565h5l-2 2c-.4 2.323-.74 4.657-1 7h-2zm-77 0h5l-2 2c-.4 2.323-.74 4.657-1 7h-2z"/><path fill="#202932" d="M120 484c2 0 2 0 3.5 1.375L125 487l2 2c-4.75 1.125-4.75 1.125-7 0z"/><path fill="#1a242c" d="M115 484h3v6l-4-1z"/><path fill="#afb4bb" d="M521 432h6v2l-4-1-1 7c-2-3-2-3-1.625-5.687z"/><path fill="#131e26" d="M255 343h4v5h-4z"/><path fill="#7b838f" d="M225 341h4v2h-2v7h-2z"/><path fill="#162028" d="M115 343h4v5h-4z"/><path fill="#162029" d="M105 343h4v5h-4z"/><path fill="#283239" d="m220 245 2 1v2l5-1v2l-2.375.313c-2.955.463-2.955.463-4.625 3.687-.981-3.053-.981-4.947 0-8"/><path fill="#c2cad1" d="M567 210h2l-1 5h-6l-1-3 6 1z"/><path fill="#adb4bb" d="M521 204h6v2l-4-1-1 7c-2-3-2-3-1.625-5.687z"/><path fill="#73879a" d="M372 93h5l-2 2c-.4 2.323-.74 4.657-1 7h-2z"/><path fill="#73869a" d="M280 93h5l-2 2c-.4 2.323-.74 4.657-1 7h-2z"/><path fill="#2e363d" d="M186 69h3v6l-4-1z"/><path fill="#758799" d="m250 590 5 1v8h-2l-.375-3.375c-.272-3.656-.272-3.656-2.625-5.625"/><path fill="#363c46" d="m221 566 6 2-1 5-2-3c-2.05-1.192-2.05-1.192-4-2z"/><path fill="#a9afb7" d="M194 547v5h-5c.375-1.937.375-1.937 1-4 2-1 2-1 4-1"/><path fill="#212b33" d="M111 482h1v9l-3-1v-6h2z"/><path fill="#502d38" d="m746 444 4 1-1 4-4-1z"/><path fill="#422835" d="m746 369 4 1-1 4-4-1z"/><path fill="#141e27" d="m237 343 4 1-1 5-3-1zm-60 0 4 1-1 5-3-1z"/><path fill="#162129" d="m158 343 4 1-1 5-3-1z"/><path fill="#75889b" d="M125 299h2c1.097 3.29.8 4.713 0 8l2 1-4-1c-1.125-5.75-1.125-5.75 0-8"/><path fill="#432835" d="m746 293 4 1-1 4-4-1z"/><path fill="#202b33" d="M182 247h3v5h-4z"/><path fill="#c2cad2" d="M577 206h2c.125 3.375.125 3.375 0 7l-2 2c-2.125-.375-2.125-.375-4-1h3z"/><path fill="#1e222a" d="M573 206h3v7h-3z"/><path fill="#738698" d="m157 93 5 1v8h-2l-.375-3.375c-.272-3.656-.272-3.656-2.625-5.625"/><path fill="#c7cfd7" d="M241 69h3v6h2v2l-5-1z"/><path fill="#30373f" d="M244 69h3l1 8h-2v-2h-2z"/><path fill="#8f989f" d="M232 67h2v2l3 1v1h-5l-2 4c-.125-2.875-.125-2.875 0-6z"/><path fill="#b0dcce" d="M193 836q2.514.428 5 1l-1 3c-2.062.688-2.062.688-4 1-.562-1.937-.562-1.937-1-4z"/><path fill="#9e9fa7" d="M680 832q3.012.43 6 1l-1 2c-2.562.625-2.562.625-5 1l-1-3z"/><path fill="#a5d9c9" d="M160 832q3.012.43 6 1l-1 2c-2.562.625-2.562.625-5 1l-1-3z"/><path fill="#c3c9d0" d="M701 830h3l1 4-3-1v7h-1c-1.125-7.75-1.125-7.75 0-10"/><path fill="#2a2a2f" d="m130 694 2 1-1 5h-3v-5z"/><path fill="#2e9e77" d="M127 654h1v8l-3 1-2-5 3 1z"/><path fill="#7a8c9e" d="M136 592h1c.125 2.375.125 2.375 0 5-2 2-2 2-5.125 2.125L129 599l1-3 4 1z"/><path fill="#4c5764" d="M284 594q2.514.428 5 1l-1 3c-2.062.688-2.062.688-4 1-.562-1.937-.562-1.937-1-4z"/><path fill="#4d5865" d="M168 594q2.514.428 5 1l-1 3c-2.062.688-2.062.688-4 1-.562-1.937-.562-1.937-1-4z"/><path fill="#798b9e" d="M297 567h1c.125 2.375.125 2.375 0 5-2 2-2 2-5.125 2.125L290 574l1-3 4 1z"/><path fill="#748497" d="M194 566c2.139 2.139 2.427 3.133 3 6l4 1v1c-2 .043-4 .04-6 0-1-1-1-1-1.062-4.562z"/><path fill="#54585f" d="M155 546h2v7h-2l-1 2c-.098-6.152-.098-6.152 0-8z"/><path fill="#ecf7f3" d="m476 445 4 1v6h-2z"/><path fill="#6b7e8f" d="M567 385h5l-2 2a90 90 0 0 0-1 6h-2z"/><path fill="#172029" d="M142 343h4v5h-4z"/><path fill="#535c66" d="m98 339 2 2c-.375 2.625-.375 2.625-1 5h-3c.875-5.875.875-5.875 2-7"/><path fill="#6d7e90" d="M567 309h5l-2 2a90 90 0 0 0-1 6h-2z"/><path fill="#4e575f" d="M257 247h1v6l-7-1v-2h6z"/><path fill="#808a91" d="M222 249q2.514.428 5 1l-1 3c-2.062.688-2.062.688-4 1-.562-1.937-.562-1.937-1-4z"/><path fill="#ecf7f3" d="m476 217 4 1v6h-2z"/><path fill="#252e38" d="m127 203 3 4 3 1-4 2v3h-2z"/><path fill="#8499ad" d="M127 164c3.123.486 5.996.999 9 2-2 2-2 2-5.125 2.125L128 168z"/><path fill="#8296aa" d="M244 156h6l1 3-6-1v2h-2z"/><path fill="#44525f" d="M271 97q2.514.428 5 1l-1 3c-2.062.688-2.062.688-4 1-.562-1.937-.562-1.937-1-4z"/><path fill="#2dbc8c" d="m88 86 2 1-2 3a75 75 0 0 0-1 5h-2c-.37-5.538-.37-5.538 1.5-7.875z"/><path fill="#262d35" d="m271 69 3 1-1 5-3-1z"/><path fill="#262e36" d="m208 69 3 1-1 5-3-1z"/><path fill="#acddcd" d="M148 832c2.063.438 2.063.438 4 1-1.372 2.954-2.989 5.44-5 8-.098-6.152-.098-6.152 0-8z"/><path fill="#545e69" d="M197 696v5l-5-1v-3c3.875-1 3.875-1 5-1"/><path fill="#4e5058" d="m187 544 1.813.938c2.277 1.164 2.277 1.164 5.187 2.062l-7 4z"/><path fill="#ceebe1" d="m480 449 3 1-1 5-3 1-1-4h2z"/><path fill="#c9d1d7" d="m549 435 3 1-2 3 2 4c-3.875-1.75-3.875-1.75-5-4 .938-2.125.938-2.125 2-4"/><path fill="#c8cfd6" d="M528 435c3 1 3 1 4.188 2.875C533 440 533 440 533 443h-3z"/><path fill="#202a33" d="M209 343h7v5l-2 1-1-3c-2-1.209-2-1.209-4-2z"/><path fill="#d8efdd" d="M495 296h1c.367 5.5.367 5.5-1.375 7.875C493 305 493 305 491 305c.375-1.937.375-1.937 1-4l2-1c.652-2.025.652-2.025 1-4"/><path fill="#ceebe1" d="m480 221 3 1-1 5-3 1-1-4h2z"/><path fill="#c7cfd6" d="M528 207c3 1 3 1 4.188 2.875C533 212 533 212 533 215h-3z"/><path fill="#ced7de" d="m232 73 7 1-1 3h-6l-1-2z"/><path fill="#29ad83" d="m99 74 1 6-3-1-1-3-3-2c3-1 3-1 6 0"/><path fill="#2fc08e" d="M96 72v2l-1.875.813C91.7 75.956 91.7 75.956 90 79c-.687-1.812-.687-1.812-1-4 2.176-3.206 2.922-3 7-3"/><path fill="#a5d6c7" d="M223 832q2.514.428 5 1l-1 3h-4l-1-3z"/><path fill="#302f38" d="m308 568 1 3-2 2c-2.625-.375-2.625-.375-5-1v-2h6z"/><path fill="#151e27" d="M104 484h3v6h-3z"/><path fill="#17212a" d="M552 386h3v6h-3z"/><path fill="#6e8092" d="m85 205 4 2h-2v6h-2z"/><path fill="#7c90a3" d="m552 156 4 2-1 5-2-1c-.625-3.062-.625-3.062-1-6"/><path fill="#7c8fa3" d="m118 156 4 2-1 5-2-1c-.625-3.062-.625-3.062-1-6"/><path fill="#a4a6ae" d="m676 831-3 2-3-1v7h-1v-8c3.01-.934 3.867-1.044 7 0"/><path fill="#ddf1eb" d="M174 829h5l2 4-8-2z"/><path fill="#62656c" d="m163 546 3 1 1 5-4-1z"/><path fill="#202129" d="M552 462h3v6l-3-1z"/><path fill="#442630" d="M738 435c-1.293 2.884-2.66 4.872-5 7 0-4 0-4 1.375-5.75C736 435 736 435 738 435"/><path fill="#aaaeb6" d="m514 432 3 1 1 5-4-1z"/><path fill="#ccd3da" d="M515 356c2-.043 4-.04 6 0 1 1 1 1 1.063 3.563L522 362l-2-3c-2.552-1.205-2.552-1.205-5-2z"/><path fill="#202932" d="m200 346 9 1v1l-8 1z"/><path fill="#4d565f" d="m200 341 4 1v3l-5-1z"/><path fill="#1f222a" d="M552 310h3v6l-3-1z"/><path fill="#566372" d="M560 309h5v3h-5z"/><path fill="#8c969d" d="M517 280c2.36 2.36 2.491 3.779 3 7h-3a129 129 0 0 1-1-6z"/><path fill="#a8afb6" d="m514 204 3 1 1 5-4-1z"/><path fill="#1d262f" d="M245 158h7v2h-2l-1 2-4-2z"/><path fill="#8095a8" d="M561 156c2.875-.187 2.875-.187 6 0l2 3h-8z"/><path fill="#8499ad" d="m301 91 1 2 2 1h-2v7l2 1h-3v-8l-2-1h2z"/><path fill="#d8e1e8" d="M269 67h4v2l-3 2-2 3c-.043-2-.04-4 0-6z"/></svg>