<svg xmlns="http://www.w3.org/2000/svg" width="841" height="949"><path fill="#07111b" d="M0 0h841v949H0z"/><path fill="#07111b" d="M0 0h841v949H0zm34 106v754h22l-1-4c-.243-3.476-.231-6.954-.25-10.437l-.062-2.854c-.05-8.915-.05-8.915 3.312-12.709 4.855-4.076 10.24-3.418 16.25-3.38l3.5-.014q4.826-.013 9.653.002c3.496.007 6.992-.004 10.489-.012a6092 6092 0 0 1 18.393-.007c9.118.009 18.235 0 27.352-.01a31944 31944 0 0 1 48.845-.018 58812 58812 0 0 0 57.107-.007c26.759-.01 53.517-.016 80.276-.008l3.058.001 24.59.008q47.963.014 95.927-.022a116611 116611 0 0 1 119.197-.03l2.855.001q21.361.003 42.723-.019 24.285-.023 48.57.002 13.598.016 27.197-.009 9.075-.014 18.152.01c3.45.008 6.901.01 10.352-.005 3.713-.013 7.425-.001 11.139.016l3.263-.029c6.013.06 9.538.503 14.112 4.53 2.049 2.932 2.248 5.313 2.23 8.844l-.005 2.777-.038 2.879-.001 2.879c-.027 4.151-.17 7.56-1.186 11.621h21V106z"/><path fill="#040d1c" d="M0 0h841v949H0zm38.125 34.313-1.617 1.613c-5.34 7.346-4.935 14.602-4.894 23.382q-.007 2.216-.016 4.43c-.014 4.068-.01 8.135-.002 12.202.005 4.422-.008 8.843-.018 13.264q-.022 11.63-.016 23.257c.004 11.529-.008 23.057-.024 34.585a52120 52120 0 0 0-.04 65.357 103832 103832 0 0 1-.024 64.984l-.002 3.645q-.03 50.768-.03 101.537v3.868l.002 19.41v11.689q.002 60.653-.061 121.305a126635 126635 0 0 0-.07 150.755l.001 3.612c0 19.195-.02 38.391-.045 57.587q-.037 28.929-.009 57.858.02 17.193-.023 34.386-.027 11.481.007 22.962c.012 4.363.014 8.725-.01 13.088a953 953 0 0 0 .011 11.914q.008 2.137-.015 4.276c-.106 9.927 1.416 17.932 8.35 25.429 4.308 3.776 7.92 5.541 13.614 5.546l3.21.018 3.529-.012 3.762.012q5.195.011 10.39.004c3.761-.003 7.522.006 11.284.014q9.897.017 19.794.016c9.811-.001 19.623.01 29.434.022 19.563.025 39.126.034 58.69.039h3.071l3.078.001q16.866.006 33.734.016c33.95.02 67.9.037 101.85.04h3.291l26.468.002q51.62.006 103.239.061a110865 110865 0 0 0 128.277.065h3.073c16.337.002 32.675.019 49.012.042q24.62.034 49.239.013 14.634-.015 29.269.023 9.77.022 19.54-.004c3.714-.01 7.427-.01 11.14.01 4 .022 7.997.005 11.996-.015l3.5.038c8.173-.09 12.96-2.036 18.96-7.503l1.351-1.656 1.398-1.656c2.816-4.233 3.477-7.956 3.479-12.99l.016-3.776-.014-4.149.01-4.425c.009-4.073.005-8.146 0-12.218-.005-4.424.002-8.848.008-13.271q.013-11.64.007-23.278c-.006-11.539 0-23.077.009-34.616q.02-32.706.014-65.413a138635 138635 0 0 1 .01-68.676q.013-50.796.008-101.592v-3.87l-.003-19.425v-3.896l-.002-7.802q-.007-60.702.021-121.405a250526 250526 0 0 0 .026-154.458q0-27.034.016-54.067.019-30.735.002-61.471-.011-17.211.008-34.422.012-11.487-.006-22.974c-.006-4.368-.008-8.735.004-13.102q.014-5.96-.007-11.917-.004-2.144.007-4.287c.039-7.422-.016-13.637-3.386-20.344-2.323-2.242-2.323-2.242-5-4l-2.5-2.625c-3.922-3.726-7.455-4.625-12.785-4.628l-3.194-.017-3.496.013-3.74-.01c-3.437-.009-6.874-.007-10.311-.002-3.735.003-7.47-.005-11.205-.012q-9.825-.015-19.65-.011c-9.741.003-19.481-.006-29.222-.016-18.407-.02-36.815-.025-55.222-.026a111169 111169 0 0 1-54.904-.017l-3.08-.001q-42.893-.02-85.785-.02h-3.268l-26.278.002q-51.246 0-102.493-.042a135590 135590 0 0 0-127.367-.045h-3.052c-16.218 0-32.437-.013-48.656-.03q-24.442-.026-48.886-.006-14.528.012-29.055-.016a4761 4761 0 0 0-19.402.005c-3.686.008-7.372.01-11.058-.007-3.971-.017-7.942-.003-11.912.013l-3.469-.03c-8.303.074-15.918 1.621-21.885 7.84"/><path fill="#221d1b" d="m69.582 717.872 2.95-.009 3.27.006 3.466-.007q4.796-.006 9.593-.003 5.205-.001 10.41-.008 10.34-.011 20.68-.01 12.379-.004 24.757-.015c19.948-.016 39.896-.022 59.844-.027q14.15-.004 28.297-.01a332707 332707 0 0 1 121.218-.03h3.062c32.78-.003 65.561-.02 98.342-.042a153925 153925 0 0 1 115.31-.04h2.836q22.618-.005 45.236-.027 22.721-.022 45.442-.01 13.509.007 27.018-.015 9.015-.014 18.031.001 5.143.01 10.285-.006c3.688-.011 7.377-.004 11.065.008l3.242-.023c6.204.044 10.96.497 15.709 4.93 3.644 4.766 4.482 6.856 4.516 12.839l.015 1.982q.021 3.25.027 6.503l.017 4.522q.015 4.747.02 9.493c.006 4.046.03 8.092.058 12.139.019 3.115.024 6.231.026 9.347q.004 2.236.024 4.473c.017 2.092.015 4.183.008 6.275l.011 3.602c-.484 4.334-1.917 7.7-4.867 10.935-4.182 3.256-6.962 4.48-12.207 4.484l-2.956.01-3.262-.005-3.47.007q-4.794.008-9.588.006-5.206.002-10.411.011-10.338.014-20.675.016-12.376.006-24.753.02-29.915.03-59.83.04l-28.292.015a298672 298672 0 0 1-102.88.042h-3.045l-15.273.004h-3.062q-49.161.014-98.321.065a116156 116156 0 0 1-118.13.059c-15.076.002-30.152.018-45.228.038q-22.716.03-45.431.017-13.506-.01-27.011.022-9.015.02-18.028 0c-3.427-.007-6.854-.008-10.281.01-3.688.014-7.375.005-11.063-.011l-3.241.031c-6.02-.057-9.475-.52-14.062-4.526-4.346-4.816-5.124-8.092-5.177-14.488l-.02-1.981c-.02-2.163-.031-4.325-.041-6.488l-.013-2.242q-.03-5.876-.044-11.75c-.011-4.039-.046-8.077-.085-12.115a1285 1285 0 0 1-.038-9.335 485 485 0 0 0-.035-4.465 417 417 0 0 1-.017-6.26l-.018-3.593c.765-5.144 3.278-8.217 7.113-11.595 3.304-2.348 4.96-2.813 8.957-2.816m0-104 2.95-.009 3.27.006 3.466-.007q4.796-.006 9.593-.003 5.205-.001 10.41-.008 10.34-.011 20.68-.01 12.379-.004 24.757-.015c19.948-.016 39.896-.022 59.844-.027q14.15-.004 28.297-.01a332707 332707 0 0 1 121.218-.03h3.062c32.78-.003 65.561-.02 98.342-.042a153925 153925 0 0 1 115.31-.04h2.836q22.618-.005 45.236-.027 22.721-.022 45.442-.01 13.509.007 27.018-.015 9.015-.014 18.031.001 5.143.01 10.285-.006c3.688-.011 7.377-.004 11.065.008l3.242-.023c6.204.044 10.96.497 15.709 4.93 3.644 4.766 4.482 6.856 4.516 12.839l.015 1.982q.021 3.25.027 6.503l.017 4.522q.015 4.747.02 9.493c.006 4.046.03 8.092.058 12.139.019 3.115.024 6.231.026 9.347q.004 2.236.024 4.473c.017 2.092.015 4.183.008 6.275l.011 3.602c-.484 4.334-1.917 7.7-4.867 10.935-4.182 3.256-6.962 4.48-12.207 4.484l-2.956.01-3.262-.005-3.47.007q-4.794.008-9.588.006-5.206.002-10.411.011-10.338.014-20.675.016-12.376.006-24.753.02-29.915.03-59.83.04l-28.292.015a298672 298672 0 0 1-102.88.042h-3.045l-15.273.004h-3.062q-49.161.014-98.321.065a116156 116156 0 0 1-118.13.059c-15.076.002-30.152.018-45.228.038q-22.716.03-45.431.017-13.506-.01-27.011.022-9.015.02-18.028 0c-3.427-.007-6.854-.008-10.281.01-3.688.014-7.375.005-11.063-.011l-3.241.031c-6.02-.057-9.475-.52-14.062-4.526-4.346-4.816-5.124-8.092-5.177-14.488l-.02-1.981c-.02-2.163-.031-4.325-.041-6.488l-.013-2.242q-.03-5.876-.044-11.75c-.011-4.039-.046-8.077-.085-12.115a1285 1285 0 0 1-.038-9.335 485 485 0 0 0-.035-4.465 417 417 0 0 1-.017-6.26l-.018-3.593c.765-5.144 3.278-8.217 7.113-11.595 3.304-2.348 4.96-2.813 8.957-2.816"/><path fill="#212019" d="m69.582 416.872 2.95-.009 3.27.006 3.466-.007q4.796-.006 9.593-.003 5.205-.001 10.41-.008 10.34-.011 20.68-.01 12.379-.004 24.757-.015c19.948-.016 39.896-.022 59.844-.027q14.15-.004 28.297-.01a332707 332707 0 0 1 121.218-.03h3.062c32.78-.003 65.561-.02 98.342-.042a153925 153925 0 0 1 115.31-.04h2.836q22.618-.005 45.236-.027 22.721-.022 45.442-.01 13.509.007 27.018-.015 9.015-.014 18.031.001 5.143.01 10.285-.006c3.688-.011 7.377-.004 11.065.008l3.242-.023c6.204.044 10.96.497 15.709 4.93 3.478 4.55 4.48 6.596 4.516 12.288l.03 3.703.012 4.02.017 4.12q.015 4.322.02 8.645c.006 3.683.03 7.365.058 11.048.019 2.838.024 5.676.026 8.514a847 847 0 0 0 .042 6.046l-.01 3.74.011 3.28c-.504 4.205-2.003 7.566-4.867 10.706-4.182 3.256-6.962 4.48-12.207 4.484l-2.956.01-3.262-.005-3.47.007q-4.794.008-9.588.006-5.206.002-10.411.011-10.338.014-20.675.016-12.376.005-24.753.02-29.915.03-59.83.04l-28.292.015a298672 298672 0 0 1-102.88.042h-3.045l-15.273.004h-3.062q-49.161.014-98.321.065a116156 116156 0 0 1-118.13.059c-15.076.002-30.152.018-45.228.038q-22.716.03-45.431.017-13.506-.01-27.011.022-9.015.02-18.028 0c-3.427-.007-6.854-.008-10.281.01-3.688.014-7.375.005-11.063-.011l-3.241.031c-6.02-.057-9.475-.52-14.062-4.526-4.172-4.623-5.12-7.791-5.177-13.937l-.039-3.702q-.013-2.002-.022-4.006l-.013-2.041q-.03-5.35-.044-10.7c-.011-3.675-.046-7.35-.085-11.025-.027-2.834-.035-5.667-.038-8.501a674 674 0 0 0-.06-6.032c.026-11.335.026-11.335 4.478-16.056 3.997-3.521 6.29-5.124 11.582-5.128"/><path fill="#161a33" d="m69.582 318.872 2.95-.009 3.27.006 3.466-.007q4.796-.006 9.593-.003 5.205-.001 10.41-.008 10.34-.011 20.68-.01 12.379-.004 24.757-.015c19.948-.016 39.896-.022 59.844-.027q14.15-.004 28.297-.01a332707 332707 0 0 1 121.218-.03h3.062c32.78-.003 65.561-.02 98.342-.042a153925 153925 0 0 1 115.31-.04h2.836q22.618-.004 45.236-.027 22.721-.022 45.442-.01 13.509.007 27.018-.015 9.015-.014 18.031.001 5.143.01 10.285-.006c3.688-.011 7.377-.004 11.065.008l3.242-.023c6.204.044 10.96.497 15.709 4.93 3.478 4.55 4.48 6.596 4.516 12.288l.03 3.703.012 4.02.017 4.12q.015 4.322.02 8.645c.006 3.683.03 7.365.058 11.048.019 2.838.024 5.676.026 8.514a847 847 0 0 0 .042 6.046l-.01 3.74.011 3.28c-.504 4.205-2.003 7.566-4.867 10.706-4.182 3.256-6.962 4.48-12.207 4.484l-2.956.01-3.262-.005-3.47.007q-4.794.008-9.588.006-5.206.002-10.411.011-10.338.014-20.675.016-12.376.005-24.753.02-29.915.03-59.83.04l-28.292.015a298672 298672 0 0 1-102.88.042h-3.045l-15.273.004h-3.062q-49.161.014-98.321.065a116156 116156 0 0 1-118.13.059c-15.076.002-30.152.018-45.228.038q-22.716.03-45.431.017-13.506-.01-27.011.022-9.015.02-18.028 0c-3.427-.007-6.854-.008-10.281.01-3.688.014-7.375.005-11.063-.011l-3.241.031c-6.02-.057-9.475-.52-14.062-4.526-4.172-4.623-5.12-7.791-5.177-13.937l-.039-3.702q-.013-2.002-.022-4.006l-.013-2.041q-.03-5.35-.044-10.7c-.011-3.675-.046-7.35-.085-11.025-.027-2.834-.035-5.667-.038-8.501a674 674 0 0 0-.06-6.032c.026-11.335.026-11.335 4.478-16.056 3.997-3.521 6.29-5.124 11.582-5.128"/><path fill="#072132" d="m69.582 220.872 2.95-.009 3.27.006 3.466-.007q4.796-.006 9.593-.003 5.205-.001 10.41-.008 10.34-.011 20.68-.01 12.379-.004 24.757-.015c19.948-.016 39.896-.022 59.844-.027q14.15-.004 28.297-.01a332707 332707 0 0 1 121.218-.03h3.062c32.78-.003 65.561-.02 98.342-.042a153925 153925 0 0 1 115.31-.04h2.836q22.618-.005 45.236-.027 22.721-.022 45.442-.01 13.509.007 27.018-.015 9.015-.014 18.031.001 5.143.01 10.285-.006c3.688-.011 7.377-.004 11.065.008l3.242-.023c6.204.044 10.96.497 15.709 4.93 3.478 4.55 4.48 6.596 4.516 12.288l.03 3.703.012 4.02.017 4.12q.015 4.322.02 8.645c.006 3.683.03 7.365.058 11.048.019 2.838.024 5.676.026 8.514a847 847 0 0 0 .042 6.046l-.01 3.74.011 3.28c-.504 4.205-2.003 7.566-4.867 10.706-4.182 3.256-6.962 4.48-12.207 4.484l-2.956.01-3.262-.005-3.47.007q-4.794.008-9.588.006-5.206.002-10.411.011-10.338.014-20.675.016-12.376.005-24.753.02-29.915.03-59.83.04l-28.292.015a298672 298672 0 0 1-102.88.042h-3.045l-15.273.004h-3.062q-49.161.015-98.321.065a116156 116156 0 0 1-118.13.059c-15.076.002-30.152.018-45.228.038q-22.716.03-45.431.017-13.506-.01-27.011.022-9.015.02-18.028 0c-3.427-.007-6.854-.008-10.281.01-3.688.014-7.375.005-11.063-.011l-3.241.031c-6.02-.057-9.475-.52-14.062-4.526-4.172-4.623-5.12-7.791-5.177-13.937l-.039-3.702q-.013-2.002-.022-4.006l-.013-2.041q-.03-5.35-.044-10.7c-.011-3.675-.046-7.35-.085-11.025-.027-2.834-.035-5.667-.038-8.501a674 674 0 0 0-.06-6.032c.026-11.335.026-11.335 4.478-16.056 3.997-3.521 6.29-5.124 11.582-5.128"/><path fill="#092426" d="m69.582 122.872 2.95-.009 3.27.006 3.466-.007q4.796-.006 9.593-.003 5.205-.001 10.41-.008 10.34-.011 20.68-.01 12.379-.004 24.757-.015c19.948-.016 39.896-.022 59.844-.027q14.15-.003 28.297-.01a332707 332707 0 0 1 121.218-.03h3.062c32.78-.003 65.561-.02 98.342-.042a153925 153925 0 0 1 115.31-.04h2.836q22.618-.005 45.236-.027 22.721-.022 45.442-.01 13.509.007 27.018-.015 9.015-.014 18.031.001 5.143.01 10.285-.006c3.688-.011 7.377-.004 11.065.008l3.242-.023c6.204.044 10.96.497 15.709 4.93 3.478 4.55 4.48 6.596 4.516 12.288l.03 3.703.012 4.02.017 4.12q.015 4.322.02 8.645c.006 3.683.03 7.365.058 11.048.019 2.838.024 5.676.026 8.514a847 847 0 0 0 .042 6.046l-.01 3.74.011 3.28c-.504 4.205-2.003 7.566-4.867 10.706-4.182 3.256-6.962 4.48-12.207 4.484l-2.956.01-3.262-.005-3.47.007q-4.794.008-9.588.006-5.206.002-10.411.011-10.338.014-20.675.016-12.376.005-24.753.02-29.915.03-59.83.04l-28.292.015a298672 298672 0 0 1-102.88.042h-3.045l-15.273.004h-3.062q-49.161.014-98.321.065a116156 116156 0 0 1-118.13.059c-15.076.002-30.152.018-45.228.038q-22.716.03-45.431.017-13.506-.01-27.011.022-9.015.02-18.028 0c-3.427-.007-6.854-.008-10.281.01-3.688.014-7.375.005-11.063-.011l-3.241.031c-6.02-.057-9.475-.52-14.062-4.526-4.172-4.623-5.12-7.791-5.177-13.937l-.039-3.702q-.013-2.002-.022-4.006l-.013-2.041q-.03-5.35-.044-10.7c-.011-3.675-.046-7.35-.085-11.025-.027-2.834-.035-5.667-.038-8.501a674 674 0 0 0-.06-6.032c.026-11.335.026-11.335 4.478-16.056 3.997-3.521 6.29-5.124 11.582-5.128"/><path fill="#201729" d="m69.582 515.872 2.95-.009 3.27.006 3.466-.007q4.796-.006 9.593-.003 5.205-.001 10.41-.008 10.34-.011 20.68-.01 12.379-.004 24.757-.015c19.948-.016 39.896-.022 59.844-.027q14.15-.004 28.297-.01a332707 332707 0 0 1 121.218-.03h3.062c32.78-.003 65.561-.02 98.342-.042a153925 153925 0 0 1 115.31-.04h2.836q22.618-.005 45.236-.027 22.721-.022 45.442-.01 13.509.007 27.018-.015 9.015-.014 18.031.001 5.143.01 10.285-.006c3.688-.011 7.377-.004 11.065.008l3.242-.023c6.204.044 10.96.497 15.709 4.93 3.45 4.511 4.48 6.554 4.516 12.196l.03 3.642.012 3.955.017 4.051q.015 4.253.02 8.504c.006 3.623.03 7.245.058 10.868.019 2.791.024 5.583.026 8.375.004 1.981.023 3.963.042 5.945l-.01 3.68.011 3.225c-.508 4.185-2.018 7.545-4.867 10.669-4.182 3.256-6.962 4.48-12.207 4.484l-2.956.01-3.262-.005-3.47.007q-4.794.008-9.588.006-5.206.002-10.411.011-10.338.014-20.675.016-12.376.005-24.753.02-29.915.03-59.83.04l-28.292.015a298672 298672 0 0 1-102.88.042h-3.045l-15.273.004h-3.062q-49.161.014-98.321.065a116156 116156 0 0 1-118.13.059c-15.076.002-30.152.018-45.228.038q-22.716.03-45.431.017-13.506-.01-27.011.022-9.015.02-18.028 0c-3.427-.007-6.854-.008-10.281.01-3.688.014-7.375.005-11.063-.011l-3.241.031c-6.02-.057-9.475-.52-14.062-4.526-4.143-4.59-5.12-7.742-5.177-13.845l-.039-3.641-.022-3.94-.013-2.008q-.03-5.262-.044-10.525c-.011-3.615-.046-7.229-.085-10.843a971 971 0 0 1-.038-8.362 600 600 0 0 0-.06-5.933C53.547 525.75 53.547 525.75 58 521c3.997-3.521 6.29-5.124 11.582-5.128"/><path fill="#08121c" d="M34 861h762c0 50.315 0 50.315-4.797 56.207l-1.953 1.606-1.922 1.644c-7.144 4.735-13.09 4.974-21.5 4.926l-3.73.015q-5.128.014-10.258 0c-3.719-.006-7.438.006-11.157.015q-9.779.02-19.557.012c-9.695-.007-19.39.003-29.083.017-18.321.025-36.642.03-54.963.027a67788 67788 0 0 0-48.533.013l-3.056.002-3.06.002-3.067.001q-42.698.024-85.397.018h-3.253l-16.322-.003h-3.274l-6.556-.002q-51.006-.008-102.011.042a106690 106690 0 0 1-126.79.05l-3.038-.001q-22.714 0-45.427.03-25.83.032-51.657.005a8271 8271 0 0 0-28.915.017q-9.656.02-19.31-.009c-3.67-.01-7.337-.012-11.006.007-3.953.022-7.906.004-11.859-.017l-3.444.037c-8.128-.092-14.93-1.827-21.048-7.446C26.455 903.775 34 876.198 34 861"/><path fill="#17202b" d="m63.101 26.743 3.743-.01q5.156-.011 10.31-.002c3.737.003 7.473-.005 11.209-.012q9.825-.015 19.651-.011c9.741.003 19.482-.006 29.223-.016 18.408-.02 36.815-.025 55.223-.026a111178 111178 0 0 0 54.904-.017l3.08-.001q42.893-.02 85.784-.02h3.268l26.274.002q51.246 0 102.494-.042a135612 135612 0 0 1 127.37-.045h3.051c16.22 0 32.44-.013 48.66-.03q24.441-.026 48.882-.006 14.527.012 29.056-.016 9.699-.018 19.398.005c3.686.008 7.372.01 11.059-.007 3.97-.017 7.938-.003 11.907.013l3.476-.03c8.113.073 13.464 1.58 19.627 6.903 5.38 6.277 7.373 10.487 7.379 18.646l.01 3.77-.005 4.157.007 4.422q.009 6.111.006 12.222.002 6.635.011 13.27.014 13.176.016 26.352.006 15.776.02 31.55.03 38.132.04 76.263l.015 36.061a485285 485285 0 0 1 .042 131.138v3.881l.005 23.371q.013 62.663.064 125.324a188718 188718 0 0 1 .059 150.575c.002 19.216.018 38.432.038 57.648q.03 28.954.017 57.91-.01 17.214.022 34.428.02 11.49 0 22.979c-.007 4.368-.008 8.736.01 13.105q.022 5.959-.006 11.919-.005 2.143.011 4.287c.066 9.032-.283 15.607-6.511 22.59l-2 1.632-2 1.68c-3.789 2.738-6.493 3.695-11.194 3.7l-3.21.017-3.529-.012-3.762.012q-5.195.011-10.39.004c-3.761-.003-7.522.006-11.284.014q-9.897.017-19.794.016c-9.811-.001-19.623.01-29.434.022-19.563.025-39.126.034-58.69.039h-3.071l-3.078.001q-16.866.006-33.734.016c-33.95.02-67.9.037-101.85.04h-3.291l-26.468.002q-51.62.006-103.239.061a110865 110865 0 0 1-128.277.065h-3.073c-16.337.002-32.675.019-49.012.042q-24.62.034-49.239.013-14.634-.015-29.269.023-9.77.022-19.54-.004c-3.714-.01-7.427-.01-11.14.01-4 .022-7.997.005-11.996-.015l-3.5.038c-6.914-.076-11.621-1.08-16.936-5.659-2.277-2.57-2.277-2.57-3.938-5.125l-1.714-2.57c-2.254-3.854-2.474-6.816-2.477-11.202l-.01-3.763.005-4.165-.007-4.418q-.009-6.114-.006-12.227-.002-6.634-.011-13.27-.014-13.177-.016-26.357-.006-15.777-.02-31.554-.03-38.137-.04-76.276l-.015-36.066a485311 485311 0 0 1-.042-131.152v-3.882l-.005-23.377q-.013-62.67-.064-125.343a188756 188756 0 0 1-.059-150.592c-.002-19.219-.018-38.438-.038-57.656q-.03-28.96-.017-57.92.01-17.217-.022-34.435-.02-11.491 0-22.984c.007-4.369.008-8.738-.01-13.107q-.022-5.96.006-11.921.005-2.145-.011-4.289c-.067-9.235.4-15.64 6.66-22.81l2.226-1.914 2.21-1.96c6.38-4.398 13.064-3.949 20.516-3.922M38.25 37.938C24.745 56.32 34 87.05 34 105h762c4.9-33.67 4.9-33.67-5.781-69.023l-1.719-1.352-1.719-1.398c-7.26-5-15.248-4.371-23.741-4.356l-3.698-.005a5432 5432 0 0 0-10.182 0q-5.535 0-11.07-.007-9.704-.007-19.408-.005-14.43 0-28.86-.008-27.27-.013-54.54-.013a216891 216891 0 0 1-54.225-.008l-3.042-.001q-42.36-.01-84.722-.01h-29.177q-50.612.001-101.225-.02a264553 264553 0 0 0-125.795-.023h-3.013q-24.03 0-48.057-.015-24.14-.013-48.277-.003-14.349.006-28.696-.007-9.579-.009-19.158.002-5.462.008-10.923-.003c-3.92-.01-7.84-.002-11.76.006l-3.431-.015c-10.112.046-18.484 1.209-25.531 9.202M34 106v754h22l-1-4c-.243-3.476-.231-6.954-.25-10.437l-.063-2.854c-.05-8.915-.05-8.915 3.313-12.709 4.855-4.076 10.24-3.418 16.25-3.38l3.5-.014q4.827-.013 9.653.002c3.496.007 6.992-.004 10.489-.012q9.196-.018 18.393-.007c9.118.009 18.235 0 27.352-.01a31812 31812 0 0 1 48.845-.018 58812 58812 0 0 0 57.107-.007c26.759-.01 53.517-.016 80.276-.008l3.058.001 24.59.008q47.963.014 95.927-.022a116611 116611 0 0 1 119.197-.03l2.855.001q21.361.003 42.723-.019 24.285-.023 48.57.002 13.598.017 27.197-.009 9.075-.014 18.152.01c3.45.008 6.901.01 10.352-.005 3.713-.013 7.425-.001 11.139.016l3.263-.029c6.013.06 9.538.503 14.112 4.53 2.049 2.932 2.248 5.313 2.23 8.844l-.005 2.777-.038 2.879-.001 2.879c-.027 4.151-.17 7.56-1.186 11.621h21V106zm0 755c-3.626 29.634-3.626 29.634 6.385 57.593 7.19 6.266 14.972 7.13 24.156 7.036l3.74.022c3.416.015 6.83.008 10.246-.009 3.72-.012 7.439.004 11.158.017q9.774.025 19.547.004c9.689-.019 19.378-.009 29.067.006 17.304.027 34.609.024 51.914.01q22.715-.02 45.43-.01l3.044.001 12.23.005c38.249.015 76.497.001 114.745-.025q50.976-.035 101.952.002a103560 103560 0 0 0 126.742.017l3.037-.001q22.702-.008 45.403.013 25.812.023 51.623-.016 14.448-.024 28.895.003 9.649.017 19.298-.017c3.666-.012 7.331-.016 10.997.002 3.95.019 7.9 0 11.85-.024l3.442.036c8.124-.096 14.928-1.834 21.042-7.45C803.545 903.775 796 876.2 796 861z"/><path fill="#303030" d="M773 106h23v754h-23z"/><path fill="#9e9e9e" d="M788 133c2.157 1.595 2.91 2.48 3.375 5.146l.001 2.545.023 2.946-.021 3.25.013 3.456c.009 3.185.004 6.37-.006 9.554-.007 3.458.003 6.915.01 10.373q.015 9.099.003 18.198c-.011 9.02-.006 18.04.004 27.061q.02 24.162.005 48.323-.011 21.142-.006 42.286l.001 2.83.003 11.37c.01 35.58 0 71.158-.015 106.737q-.021 47.45.001 94.9a149367 149367 0 0 1 .01 117.887v2.823q-.005 21.134.008 42.267.013 24.023-.01 48.044-.015 13.457.002 26.913.01 8.976-.01 17.95-.014 5.123 0 10.246c.01 3.67 0 7.339-.013 11.008l.02 3.25-.022 2.946v2.545c-.467 2.665-1.219 3.551-3.376 5.146-5.132.642-5.132.642-7.664-1.23-1.73-2.292-1.711-3.605-1.712-6.46l-.023-2.947.021-3.25-.013-3.456c-.009-3.185-.004-6.37.006-9.554.007-3.458-.003-6.915-.01-10.373q-.015-9.099-.003-18.198c.011-9.02.006-18.04-.004-27.061a32432 32432 0 0 1-.005-48.323q.011-21.142.006-42.286l-.001-2.83-.003-11.37c-.01-35.58 0-71.158.015-106.737q.021-47.45-.001-94.9a149367 149367 0 0 1-.01-117.887v-2.823q.005-21.133-.008-42.267-.013-24.023.01-48.044.015-13.457-.002-26.913-.01-8.976.01-17.95.014-5.123 0-10.246c-.01-3.67 0-7.339.013-11.008l-.02-3.25.022-2.946v-2.545c.93-5.316 4.578-5.746 9.376-5.146"/><path fill="#08141d" d="M768.375 49.063c4.62 3.409 8.368 7.616 10.625 12.937.66 6.497-.48 11.453-4 17-3.63 3.944-6.961 6.705-12.453 7.238-6.52.173-10.311-.259-15.547-4.238-4.898-4.65-6.688-9.24-7.437-15.875.16-5.62 3.124-9.84 7.035-13.703 6.435-5.502 13.737-5.89 21.777-3.36"/><path fill="#272221" d="m85.75 732.625 3.04-.113c7.473-.09 7.473-.09 11.35 2.949L102 738l1 1c.336 3.574.325 7.162.375 10.75l.113 3.04c.09 7.473.09 7.473-2.949 11.35L98 766l-1 1c-3.574.336-7.162.325-10.75.375l-3.04.113c-7.473.09-7.473.09-11.35-2.949L70 762l-1-1c-.336-3.574-.325-7.162-.375-10.75l-.113-3.04c-.09-7.473-.09-7.473 2.949-11.35L74 734c2.428-2.428 8.494-1.33 11.75-1.375m0-105 3.04-.113c7.473-.09 7.473-.09 11.35 2.949L102 633l1 1c.336 3.574.325 7.162.375 10.75l.113 3.04c.09 7.473.09 7.473-2.949 11.35L98 661l-1 1c-3.574.336-7.162.325-10.75.375l-3.04.113c-7.473.09-7.473.09-11.35-2.949L70 657l-1-1c-.336-3.574-.325-7.162-.375-10.75l-.113-3.04c-.09-7.473-.09-7.473 2.949-11.35L74 629c2.428-2.428 8.494-1.33 11.75-1.375"/><path fill="#251d2f" d="m85.75 529.625 3.04-.113c7.473-.09 7.473-.09 11.35 2.949L102 535l1 1c.336 3.574.325 7.162.375 10.75l.113 3.04c.09 7.473.09 7.473-2.949 11.35L98 563l-1 1c-3.574.336-7.162.325-10.75.375l-3.04.113c-7.473.09-7.473.09-11.35-2.949L70 559l-1-1c-.336-3.574-.325-7.162-.375-10.75l-.113-3.04c-.09-7.473-.09-7.473 2.949-11.35L74 531c2.428-2.428 8.494-1.33 11.75-1.375"/><path fill="#25251f" d="m85.75 431.625 3.04-.113c7.473-.09 7.473-.09 11.35 2.949L102 437l1 1c.336 3.574.325 7.162.375 10.75l.113 3.04c.09 7.473.09 7.473-2.949 11.35L98 465l-1 1c-3.574.336-7.162.325-10.75.375l-3.04.113c-7.473.09-7.473.09-11.35-2.949L70 461l-1-1c-.336-3.574-.325-7.162-.375-10.75l-.113-3.04c-.09-7.473-.09-7.473 2.949-11.35L74 433c2.428-2.428 8.494-1.33 11.75-1.375"/><path fill="#0e282b" d="m85.75 136.625 3.04-.113c7.473-.09 7.473-.09 11.35 2.949L102 142l1 1c.336 3.574.325 7.162.375 10.75l.113 3.04c.09 7.473.09 7.473-2.949 11.35L98 170l-1 1c-3.574.336-7.162.325-10.75.375l-3.04.113c-7.473.09-7.473.09-11.35-2.949L70 166l-1-1c-.336-3.574-.325-7.162-.375-10.75l-.113-3.04c-.09-7.473-.09-7.473 2.949-11.35L74 138c2.428-2.428 8.494-1.33 11.75-1.375"/><path fill="#1b1f38" d="m85.75 333.625 3.04-.113c7.473-.09 7.473-.09 11.35 2.949L102 339l1 1c.335 3.407.325 6.829.375 10.25l.113 2.895c.09 7.125.09 7.125-2.949 10.964L98 366l-1 1c-3.574.336-7.162.325-10.75.375l-3.04.113c-7.473.09-7.473.09-11.35-2.949L70 362l-1-1c-.335-3.407-.325-6.829-.375-10.25l-.113-2.895c-.09-7.125-.09-7.125 2.949-10.964L74 335c2.428-2.428 8.494-1.33 11.75-1.375"/><path fill="#0d2636" d="m85.75 235.625 3.04-.113c7.473-.09 7.473-.09 11.35 2.949L102 241l1 1c.335 3.407.325 6.829.375 10.25l.113 2.895c.09 7.125.09 7.125-2.949 10.964L98 268l-1 1c-3.574.336-7.162.325-10.75.375l-3.04.113c-7.473.09-7.473.09-11.35-2.949L70 264l-1-1c-.335-3.407-.325-6.829-.375-10.25l-.113-2.895c-.09-7.125-.09-7.125 2.949-10.964L74 237c2.428-2.428 8.494-1.33 11.75-1.375"/><path fill="#2e2620" d="M88.063 740.523c3.552.874 4.948 2.493 6.937 5.477.698 2.84.698 5.16 0 8-1.99 2.984-3.385 4.603-6.937 5.477-3.924.282-5.734-.258-9.063-2.477-2.22-3.329-2.759-5.14-2.477-9.062 1.464-5.952 5.948-7.817 11.54-7.415m0-105c3.552.874 4.948 2.493 6.937 5.477.698 2.84.698 5.16 0 8-1.99 2.984-3.385 4.603-6.937 5.477-3.924.282-5.734-.258-9.063-2.477-2.22-3.329-2.759-5.14-2.477-9.062 1.464-5.952 5.948-7.817 11.54-7.415"/><path fill="#1a6551" d="M768.375 49.063c4.62 3.409 8.368 7.616 10.625 12.937.66 6.497-.48 11.453-4 17-3.63 3.944-6.961 6.705-12.453 7.238-6.52.173-10.311-.259-15.547-4.238-4.898-4.65-6.688-9.24-7.437-15.875.16-5.62 3.124-9.84 7.035-13.703 6.435-5.502 13.737-5.89 21.777-3.36m-20.89 5.402C742.563 60.248 742.434 64.607 743 72c1.763 5.29 4.612 7.8 9 11 4.777 1.592 9.458 1.994 14.227.129C770.963 80.423 774.41 77.315 776 72c.747-5.346.711-9.551-1.687-14.437-4.663-5.167-7.776-7.296-14.625-7.813-4.773.324-8.675 1.304-12.204 4.715"/><path fill="#2c2d4d" d="M88.063 340.516c3.461.865 4.949 2.626 6.937 5.484.438 3.188.438 3.188 0 6-2 2-2 2-4.625 2.125L88 354l.563 1.938L89 358c-1 1-1 1-3.75 1.375C82 359 82 359 79.125 357c-2.367-3.341-2.89-5.06-2.602-9.062 1.466-5.959 5.948-7.804 11.54-7.422"/><path fill="#469a7d" d="m124 142 1 1c3.325.498 6.658.902 9.996 1.305C138 145 138 145 140 148h4v-2l-4 1v-2a88 88 0 0 1 5-1c1 1 1 1 1.063 4.563L146 152c-2.125.054-4.25.093-6.375.125l-3.586.07C133 152 133 152 131 150v-3h-2v5l-1.937-.562L125 151l-1 1c-2.937.25-2.937.25-6 0-2-3-2-3-1.75-6.125L117 143c2.484-1.242 4.252-1.14 7-1"/><path fill="#cfae42" d="m211.5 436.875 2.5.125h5l1 2 2 1c2 1 2 1 3 3h4v-2l-4 1v-2l3.313-.437c3.618-.446 3.618-.446 6.687-1.563l2 1v2h-2l1 6h-15v-6h-2v6q-2.437.079-4.875.125l-2.742.07C209 447 209 447 207 445c-.25-3-.25-3 0-6 2-2 2-2 4.5-2.125"/><path fill="#c082a7" d="M210 535h5v2c3.742.765 6.339 1.046 10 0l2 1v7h-10v-6h-2v6l-1.937-.562L211 544l-1 1c-2.937.25-2.937.25-6 0-2-3-2-3-1.75-6.125L203 536c2.48-1.24 4.254-1.069 7-1"/><path fill="#92979f" d="M256 760v2l1.793-.07c4.632-.106 7.926.124 12.207 2.07l2-1 1-3h5v9h-14v-5h-2v5h-2v-5h-2v5h-8v-8c3-1 3-1 6-1"/><path fill="#80848a" d="M526 656h2l1 3h7c3.597-.323 3.597-.323 7-1l1-2h2v9h-20v-5h-3v5h-8l.5-1.812c.611-2.301.611-2.301.5-5.188h10z"/><path fill="#7f8389" d="M654 658v7l-3-1v-4h-3v5h-14v3h-2v-3h-2v-5h-2v5h-2v-5h-2v5h-2v-7h19a408 408 0 0 0 7.66-.879C651 657 651 657 654 658"/><path fill="#a36e90" d="M176 537c3.536.536 3.536.536 5 2l1-2h3v6h2v-6q2.187-.079 4.375-.125l2.46-.07C196 537 196 537 198 539c.125 2.625.125 2.625 0 5l-5 1v3h-3v-3h-10l-2.625.063C175 545 175 545 174 544c-.187-2.437-.187-2.437 0-5z"/><path fill="#53b390" d="M201 145c4.45.235 8.652.023 13-1h5v6h2v-6h2v8h-12l2-1v-5l-2 1-1 3h-2v-3l-5-1v4l4-1-1 3c-1.958.054-3.916.093-5.875.125l-3.305.07C194 152 194 152 192 150c.25-2.562.25-2.562 1-5 2.87-1.435 4.846-.526 8 0"/><path fill="#7b7d8c" d="M117 558h6v2h2.375c9.125 0 9.125 0 12.625 2l3-2h4v2h-2v5h-2v-3h-5v2l4-1v2h-12v-5h-3v5h-8z"/><path fill="#6f808e" d="M306 263h2l1 3 1.938-.5c4.038-.66 7.98-.58 12.062-.5l2 4 2-1v-3l4 1v6h-11v3h-2l-1-3h-11z"/><path fill="#7b8c94" d="M353 165h2v9c-2.375.125-2.375.125-5 0l-2-2v-3h-2v5h-17l-1-7 3 1c3.792 0 7.256-.455 11-1h11z"/><path fill="#aab0b6" d="M55 51h3v4h4v-4h4l1 4 3-2c2.063.188 2.063.188 4 1 2 3 2 3 1.688 5.625C75 62 75 62 74 63c-1.666.04-3.334.043-5 0l4-1v-6h-4l-1 5h-2v2h-3v-5h-5v5h-3z"/><path fill="#b98958" d="m127 740 4.063.5c4.02.445 7.894.668 11.937.5l1-1c2.5-.125 2.5-.125 5 0 1 1 1 1 1.063 4.563L150 748h-2v-6h-2v6h-3v-3l-3 1 2 1c-4.408.98-8.485 1-13 1v3h-2z"/><path fill="#7871a5" d="M227 339h3v2l2.875-.125C236 341 236 341 238 343c.125 3.125.125 3.125 0 6h-3v-6h-2v6h-10v-6h-3l1 6h-3l-1-8c3.694-1.231 6.206-.644 10 0z"/><path fill="#8d84bd" d="M127 341c10 0 10 0 12.688.563L142 342l1-1c3-.125 3-.125 6 0 1 1 1 1 1.063 4.563L150 349h-2v-6h-2v6h-3v-3l-1 3h-12l2-1v-5c-1.625 1.121-1.625 1.121-3 3-.25 3.125-.25 3.125 0 6h-2z"/><path fill="#777a80" d="M559 656c4.75.875 4.75.875 7 2v-2h2l1 2 3 1v6h-2v-5h-2v5h-9l-1-2-1 2h-6l-2-7h6v2h2v-2h2z"/><path fill="#6c7e86" d="M240 165c4.75.875 4.75.875 7 2v-2h2l1 2 3 1v6h-2v-5h-2v5h-9l-1-2-1 2h-6l-2-7h6v2h2v-2h2z"/><path fill="#75777d" d="M496 760h3l1 3 1.875-.5C504 762 504 762 506 762l2.563-.062C511 762 511 762 512 763c.04 2 .043 4 0 6h-1v-5h-3v5h-11v-5h-2l1 5h-3l-1-4-4-1v4l4-1-1 2-5-1v-5c.957-.2.957-.2 1.934-.402l2.503-.535 2.497-.528c2.043-.343 2.043-.343 3.066-1.535"/><path fill="#7a8188" d="M94 51h3v2c3.046 1.191 3.046 1.191 6.625 1H107c1 1 1 1 1.125 4.5C108 62 108 62 107 63c-2 .043-4 .04-6 0h-2q-2.505-.476-5-1c-1.125-7.625-1.125-7.625 0-11"/><path fill="#c7ccd1" d="M159 53q2.513.967 5 2c2.242-.287 2.242-.287 4-1l1 2 2-2 3 1q-.676 2.44-1.375 4.875l-.773 2.742C171 65 171 65 169 67h-4v-3h3c-.991-2.627-.991-2.627-3-5-3.626-.417-3.626-.417-7 0v2l6-1-1 3c-2 .043-4 .04-6 0-1-1-1-1-1.25-4.437L156 55z"/><path fill="#322821" d="m167.383 632.805 2.742.07 2.758.055L175 633v3h5v7h-2v-6h-3v6q-2.437.079-4.875.125l-2.742.07C165 643 165 643 163 641c-.25-3-.25-3 0-6 2-2 2-2 4.383-2.195"/><path fill="#80848a" d="M444 656h2v9h-17v-5h-3v5h-2v-7c6.341-1.368 6.341-1.368 9.688.5L436 660c2.128-.157 2.128-.157 4-1l3-1z"/><path fill="#82929b" d="M281 165h2v9h-11v-5h-2v5h-2v-5h-2v5h-2v-3h-5v2l4-1v2h-5l-1-5a60 60 0 0 1 8.5-1.625c.753-.095 1.506-.19 2.281-.29 2.286-.088 4.04.252 6.219.915v3l2-1v-3l4 1z"/><path fill="#91969f" d="M560 760c4.886-.282 7.275-.193 11 3h5l1-3h2v9h-2v-3h-5v2l4-1v2h-14l-1-5-2 6c-1.467-3.815-.433-6.29 1-10"/><path fill="#757c8e" d="M640 363h7l2.313-.062c2.686.062 5.064.51 7.687 1.062h3v3h-4v2l4-1v2h-11v3h-2l-1-3h-4v3h-2z"/><path fill="#727382" d="M183 560q2.01.456 4 1l3-1v6l2-1c.656-2.527.656-2.527 1-5 3.375-.125 3.375-.125 7 0l2 2c-.375 2.625-.375 2.625-1 5h-4v3h-2v-3h-13l-1-5z"/><path fill="#6f6f7f" d="M269 558h2v3l2.438-.562L276 560l1 1 1-3h3v2l2.438-.062C286 560 286 560 287 561c.04 2 .043 4 0 6h-2v-5h-2v5l-2.266-.07-2.984-.055-2.953-.07c-3.123.038-3.123.038-6.797 2.195z"/><path fill="#aeb7bf" d="M402 888c3.125.375 3.125.375 6 1v2h-5l-1 4 2-1v-2a536 536 0 0 1 5.75-1.562l3.234-.88c2.86-.529 4.332-.542 7.016.442v7l-2.187-.562c-2.97-.462-4.916-.124-7.813.562h-3l-2.562.125C402 897 402 897 400 895c-.25-2.5-.25-2.5 0-5z"/><path fill="#aa7396" d="M80 571q2.514.428 5 1l1-1q3.5-.062 7 0c0 3.273-.3 5.847-1 9-8.778 0-8.778 0-13-1-1-1-1-1-1.187-3.437C78 573 78 573 80 571"/><path fill="#7b8c94" d="m411 167 3 3 1-3c3.787 0 7.265.425 11 1v5l2-1c.656-2.527.656-2.527 1-5h6v2h-2v5q-3.687.08-7.375.125l-2.117.05c-1.837.018-3.674-.072-5.508-.175l-2-2-1.375 2.5L413 177h-2v-2h2l-1-2.312C411 170 411 170 411 167"/><path fill="#677981" d="M193.375 167.5c2.719.518 4.017.195 6.625-.5l3 1 2.063-.562L207 167l2 2c-.375 2.625-.375 2.625-1 5-14.375 0-14.375 0-19-1v-5c2-1 2-1 4.375-.5"/><path fill="#434e5c" d="M235 841h13c1.37 2.74 1.126 4.97 1 8l-1 2h-2v-2h-9v2h-2c-1.37-2.74-1.126-4.97-1-8z"/><path fill="#74777c" d="M665 760h2l1 3 4-1v3l-3-1v4l5-1 1-4c2.076-.553 3.844-1 6-1l2.563-.062C686 762 686 762 687 763c.04 2 .043 4 0 6h-2v-5h-2v5h-18z"/><path fill="#d892ba" d="m87 539 2 2-.062 3.375c.068 3.945.601 4.754 3.062 7.625v3h-2l-1.187-2.5L87 550c-3.626-.417-3.626-.417-7 0l-1 5h-2c.547-3.375 1.055-5.082 3-8l-.562-2.5c-.438-2.5-.438-2.5.687-4.312 2.467-1.563 4.005-1.556 6.875-1.188"/><path fill="#888e93" d="m194 462 6 1v3l2-1v-3l1.938.563L206 463l1-1c1.497-.098 3-.13 4.5-.125l2.469-.008C216 462 216 462 217 463c.04 2 .043 4 0 6h-2v-5h-2v5h-2v-5h-2v5h-11v-5h-2v5h-2z"/><path fill="#cbd0d5" d="M227 50h3v3l3.375-.062C237 53 237 53 239 54v9h-3v-7h-2v7h-7z"/><path fill="#9ea4aa" d="M145 51h9c.992 3.969 1 6.925 1 11-3.215 1.607-6.436 1.057-10 1z"/><path fill="#7c8c9a" d="M263 263h3v2l4 1v3l2-1v-3l4 1v6h-8v-5h-2v5c-6.152.098-6.152.098-8 0-1-1-1-1-1.062-3.562L257 266c3.75-1.125 3.75-1.125 6 0z"/><path fill="#25241a" d="M85.5 442.75C89 443 89 443 91 445c.33 3.103.505 5.158-1.125 7.875-2.717 1.63-4.772 1.455-7.875 1.125-2-2-2-2-2.25-5.5.341-4.774.976-5.409 5.75-5.75"/><path fill="#57bb96" d="M87 146c2 2 2 2 2.063 5.5L89 155l1 2-6.055-.098c-2.027-.028-2.027-.028-3.945 1.098-.656 2.527-.656 2.527-1 5h-2c-.377-4.518-.377-4.518 1.563-7L80 154a530 530 0 0 0-1-5c2.065-3.327 4.27-3.478 8-3"/><path fill="#8b9097" d="M713 656h2l1 2c2.017 1.134 2.017 1.134 4 2l1-1c2-.625 2-.625 4-1 1 1 1 1 1.063 4.063L726 665h-8v-5h-3v5q-3.5.062-7 0c-1-1-1-1-1.062-3.562L707 659c3.75-1.125 3.75-1.125 6 0zm-257 0h2l1 2c2.017 1.134 2.017 1.134 4 2l1-1c2-.625 2-.625 4-1 1 1 1 1 1.063 4.063L469 665h-8v-5h-3v5q-3.5.062-7 0c-1-1-1-1-1.062-3.562L450 659c3.75-1.125 3.75-1.125 6 0z"/><path fill="#8b9197" d="M428 460h2l1 2c2.017 1.134 2.017 1.134 4 2l1-1c2-.625 2-.625 4-1 1 1 1 1 1.063 4.063L441 469h-8v-5h-3v5q-3.5.062-7 0c-1-1-1-1-1.062-3.562L422 463c3.75-1.125 3.75-1.125 6 0z"/><path fill="#878fa0" d="M426 361h2l1 2c2.017 1.134 2.017 1.134 4 2l1-1c2-.625 2-.625 4-1 1 1 1 1 1.063 4.063L439 370h-8v-5h-3v5q-3.5.062-7 0c-1-1-1-1-1.062-3.562L420 364c3.75-1.125 3.75-1.125 6 0z"/><path fill="#949494" d="M783 113c3.511.293 4.805.81 7.375 3.313L792 119l-1 4h-12c-1-4-1-4-.004-5.703z"/><path fill="#d19a62" d="M88.063 740.523c3.552.874 4.948 2.493 6.937 5.477.698 2.84.698 5.16 0 8-1.99 2.984-3.385 4.603-6.937 5.477-3.924.282-5.734-.258-9.063-2.477-2.22-3.329-2.759-5.14-2.477-9.062 1.464-5.952 5.948-7.817 11.54-7.415M80 744c-1.631 3.262-1.52 6.436-1 10 .833 2.167.833 2.167 3 3 3.564.52 6.738.631 10-1 1.631-3.262 1.52-6.436 1-10-.833-2.167-.833-2.167-3-3-3.564-.52-6.738-.631-10 1"/><path fill="#82868c" d="M198 658q3.688-.08 7.375-.125l2.117-.05c1.837-.018 3.674.072 5.508.175l2 2c-.375 2.625-.375 2.625-1 5h-4v3h-2v-3h-2v-5h-2v5h-2v-5h-2v5h-2z"/><path fill="#d19a62" d="M88.063 635.523c3.552.874 4.948 2.493 6.937 5.477.698 2.84.698 5.16 0 8-1.99 2.984-3.385 4.603-6.937 5.477-3.924.282-5.734-.258-9.063-2.477-2.22-3.329-2.759-5.14-2.477-9.062 1.464-5.952 5.948-7.817 11.54-7.415M80 639c-1.631 3.262-1.52 6.436-1 10 .833 2.167.833 2.167 3 3 3.564.52 6.738.631 10-1 1.631-3.262 1.52-6.436 1-10-.833-2.167-.833-2.167-3-3-3.564-.52-6.738-.631-10 1"/><path fill="#8890a0" d="M599 365h3v2h-5v2l4-1v2h-8v-5h-2v5h-2v-5h-2v5h-2v-3h-5v2l4-1v2h-5l-1-5 1.813-.437c6.92-1.78 12.46-2.729 19.187.437"/><path fill="#5e6479" d="M188 361h9v3l5-1 1 4h-4v2l4-1v2h-11v-8h-2v8h-2c-1.125-6.75-1.125-6.75 0-9"/><path fill="#505d6c" d="M308 74h3v2l2.438-.062C316 76 316 76 317 77c.04 2 .043 4 0 6h-1v-5h-3v5h-7v-5h-2v5h-2v-5h-2v5h-2v-6c3.576-1.238 6.337-.75 10 0z"/><path fill="#5b6878" d="M383 841h2v3l6-2 1 2 3-1 2 1v-2h2v6l4-3-1 4c-1.666.043-3.334.04-5 0l-1-1q-2.002.492-4 1a85 85 0 0 1-4.75.063l-2.422-.028L383 849z"/><path fill="#657284" d="M71 74h2l1 3 1.75-.5C78 76 78 76 82 76v2l7-1-1 6h-2l-1-2-1 2h-2l-1-2-2 2c-2.688.27-5.291.087-8 0z"/><path fill="#757c83" d="M242.848 53.902 249 54c.054 1.791.093 3.583.125 5.375l.07 3.023C249 65 249 65 247 67c-2.625.125-2.625.125-5 0l-1-3 5 1v-2l-2.437-.437C241 62 241 62 240 61c-.125-3-.125-3 0-6 1-1 1-1 2.848-1.098"/><path fill="#9e93d0" d="M202 339h5l1 3-4-1v2c1.892.681 1.892.681 4 1l2-2c3.125-.125 3.125-.125 6 0 .934 3.01 1.044 3.867 0 7h-14l-1-3 5 1v-2l-5-1z"/><path fill="#68b3d8" d="M118 241h10v10h-11l-1-3 6 1v-2l-5-1z"/><path fill="#cb89af" d="M213 535h2v2c3.742.765 6.339 1.046 10 0l2 1v7h-10v-6h-2v6h-2z"/><path fill="#939bab" d="M215 361h2l1 3 1.863-.473 2.45-.59 2.425-.597C227 362 227 362 230 363v6h2v-5l2-1v7h-9l-1-4-5-1 1 3c2.015.733 2.015.733 4 1-3.153.7-5.727 1-9 1z"/><path fill="#a99dde" d="M88.063 340.516c3.461.865 4.949 2.626 6.937 5.484.438 3.188.438 3.188 0 6-2 2-2 2-4.625 2.125L88 354l.563 1.938L89 358c-1 1-1 1-3.75 1.375C82 359 82 359 79.125 357c-2.367-3.341-2.89-5.06-2.602-9.062 1.466-5.959 5.948-7.804 11.54-7.422m-7.5 4.046C78.42 347.906 78.504 350.106 79 354c1.106 2.025 1.106 2.025 3 3h4l1-3c3.063-1.187 3.063-1.187 6-2 .86-2.293.86-2.293 1-5-1.393-2.477-1.393-2.477-4-4-3.94-.563-6.058-.604-9.437 1.563"/><path fill="#70818f" d="m228 265 4 2 1-2c4 0 4 0 6.063.563 2.137.658 2.137.658 4.937-.563v6c2.51-1.255 2.871-2.5 4-5v6c-1.958.08-3.916.14-5.875.188l-3.305.105L236 272l-2-3-3 6h-2v-2h2l-1.5-2.875C228 267 228 267 228 265"/><path fill="#999" d="M778 844h14c-1.05 4.202-2.319 6.63-5 10-4 0-4 0-5.484-1.426l-1.266-1.886-1.297-1.864C778 847 778 847 778 844"/><path fill="#607280" d="M199 265c2.063.438 2.063.438 4 1l1-1c2.438-.187 2.438-.187 5 0l2 2c-.375 2.625-.375 2.625-1 5h-4v3h-2l-1-3h-5c-.625-2.375-.625-2.375-1-5z"/><path fill="#54b592" d="M81 178q3.005.47 6 1c2.769-.369 2.769-.369 5-1v9h-3v-6h-2l-1 5c-2.375.625-2.375.625-5 1-2-2-2-2-2.25-4.5C79 180 79 180 81 178"/><path fill="#647181" d="m507 843 3 1c1.336-.322 2.669-.658 4-1 2-.038 4-.045 6 0v5h2v-5h6l-2 6q-3.187.039-6.375.063l-3.586.035C513 849 513 849 511 848l-2 3-2-1z"/><path fill="#ba8a59" d="M240.5 634.875C243 635 243 635 244 636q.061 3.5 0 7h-2v-6h-2v6l-1.937-.562L236 642l-1 1c-2.5.125-2.5.125-5 0-1-1-1-1-1.125-3.5C229 637 229 637 230 636a100 100 0 0 1 5 0h2c1-1 1-1 3.5-1.125"/><path fill="#d1b043" d="M89 441c2.438 1.438 2.438 1.438 4 4 .181 2.336.126 4.544-.055 6.879-.126 2.427-.126 2.427 2.055 5.121-3 0-3 0-4.812-.5-2.303-.635-2.303-.635-5.188-.312-3-.188-3-.188-5.375-1.75-2.248-3.373-2.193-5.463-1.625-9.438 2.888-4.505 5.882-4.731 11-4m-9 4c-.333 3.5-.333 3.5 0 7 1.88 2.298 1.88 2.298 4.938 2.313 2.985-.086 2.985-.086 4.937-1.438 1.63-2.717 1.455-4.772 1.125-7.875-1.943-2.38-1.943-2.38-5.5-2.25-3.557-.13-3.557-.13-5.5 2.25"/><path fill="#dadfe3" d="M200 51h3v12c-6.152.098-6.152.098-8 0-1-1-1-1-1.062-4.562L194 55l2.438-.875c2.695-.858 2.695-.858 3.562-3.125"/><path fill="#868a91" d="M525 758h2v2h6c.7 3.153 1 5.727 1 9h-2l-1-2-1 2c-2.5.688-2.5.688-5 1-1-1-1-1-1.133-3.25l.008-2.75-.008-2.75C524 759 524 759 525 758"/><path fill="#484023" d="M211.438 436.875 214 437h3v10c-6.055.195-6.055.195-8 0-2-2-2-2-2.25-5 .309-3.703.855-4.928 4.688-5.125"/><path fill="#6c6e73" d="m337.938 657.813 2.714-.043C343 658 343 658 345 660c-.375 2.625-.375 2.625-1 5h-4v3h-2l-1-3-5-1a100 100 0 0 1 0-5c1.666-1.666 3.66-1.171 5.938-1.187"/><path fill="#8d9199" d="M526 656h2l1 3 3-1v2h-2l2 5h-6v-5h-3v5h-8l.5-1.812c.611-2.301.611-2.301.5-5.188h10z"/><path fill="#788997" d="M284 265h2v2h2v-2h4l3.125-.062C298 265 298 265 300 266v5c-2.312.625-2.312.625-5 1l-3-2v2h-6c-1.46-2.647-2-3.894-2-7"/><path fill="#9094a2" d="M316 560c1 1 1 1 1.063 4.063L317 567h-9v-5l-2 1v4h-4l1-2c-.4-2.098-.4-2.098-1-4 5.196-2.208 8.583-2.01 14-1"/><path fill="#666d80" d="m487.063 362.875 3.847-.008C494 363 494 363 495 364c.04 2 .043 4 0 6h-2v-5h-2v5h-2v-5h-3v5q-3.5.062-7 0c-1-1-1-1-1.062-3.562L478 364c2.987-1.493 5.744-1.132 9.063-1.125"/><path fill="#7b7f85" d="M177 780h2v3l2.375-.5C184 782 184 782 186 782l2.563-.062C191 782 191 782 192 783c.04 2 .043 4 0 6h-1v-5h-3v5h-11z"/><path fill="#c3a43f" d="M126 438c1.46.114 2.917.242 4.375.375l2.46.21C135 439 135 439 137 441c.125 3.125.125 3.125 0 6h-11c-1.125-6.75-1.125-6.75 0-9"/><path fill="#4e6269" d="m148.125 165.938 2.758.59L153 167v2h-2v5h-4l-2.625.125C142 174 142 174 140 172c.25-3.062.25-3.062 1-6 2.722-1.361 4.183-.704 7.125-.062"/><path fill="#556171" d="M233 74h2v9h-7l-2.562.063C223 83 223 83 222 82a100 100 0 0 1 0-5c3.714-1.061 7.147-1 11-1z"/><path fill="#5e5f64" d="M278 780h5v9q-2.47.039-4.937.063l-2.778.035C273 789 273 789 272 788a100 100 0 0 1 0-5c3.75-1.125 3.75-1.125 6 0z"/><path fill="#8a8f96" d="M364 657v7h2v-5h2v6h-5l-1-4-5-1 1 3c2.015.733 2.015.733 4 1-4.44.935-8.465 1-13 1l.5-1.812c.611-2.301.611-2.301.5-5.188l2.563.625c4.312.47 7.38-1.625 11.437-1.625"/><path fill="#cbd0d5" d="M76 54h3l1 3 1-3 1.75.563c2.457.477 3.894.194 6.25-.563l-1 8c-1.875.625-1.875.625-4 1l-2-2-1 2h-3z"/><path fill="#a89cdd" d="M124 339c2 2 2 2 2.25 5-.25 3-.25 3-2.25 5-3.062.188-3.062.188-6 0-1-1-1-1-1.098-2.848L117 340c2.513-1.256 4.217-1.209 7-1"/><path fill="#7f8f9d" d="m156.348 264.77 2.714.043 2.723.019C164 265 164 265 165 266c.04 2 .043 4 0 6h-1v-5h-3l.25 2.313c-.25 2.687-.25 2.687-2 4.562-2.25 1.125-2.25 1.125-4.5.813L153 274c-.625-3.375-.625-3.375-1-7 2-2 2-2 4.348-2.23"/><path fill="#8897a0" d="M472 167q3.468-.04 6.938-.062l3.902-.036C486 167 486 167 487 168c.04 2 .043 4 0 6h-2v-5h-2v5h-2v-5h-2v5h-8l.5-1.812c.611-2.301.611-2.301.5-5.188"/><path fill="#8d97a2" d="M69 841h9v2h5l1 5-4 1v2h-2v-2h-2v-6h-3v6h-2v-6h-2z"/><path fill="#505252" d="M229 459h2l1 2 5-1c.625 2.375.625 2.375 1 5l-2 2 2 2-8 1c-2.304-3.457-2.259-4.949-2-9z"/><path fill="#9ca2ab" d="M417.5 761.875C420 762 420 762 421 763c.04 2 .043 4 0 6h-2v-5h-2v5h-2v-3h-5v2l4-1v2h-11l-1 2v-8l2 1-1 4h3l-1-5h9c1-1 1-1 3.5-1.125"/><path fill="#dea467" d="M121.5 737.75c2.5.25 2.5.25 4.5 2.25.25 3 .25 3 0 6l-2 2c-3.625-.375-3.625-.375-7-1-.125-3.375-.125-3.375 0-7 2-2 2-2 4.5-2.25"/><path fill="#697083" d="M267 361h2v4h4v-4h2l1 3 1.875-.562C280 363 280 363 282 364v5c-3.153.7-5.727 1-9 1v-4h-4v4h-2z"/><path fill="#d1d6db" d="m212 51 1 3-6-1v2l6 2 1 5c-2.957 1.478-5.742 1.06-9 1l-1-4h3v2h4c-1.507-3.013-4.032-3.61-7-5 .375-2.437.375-2.437 1-5 2.667-1.333 4.167-.671 7 0"/><path fill="#dca266" d="M206.5 632.75c2.5.25 2.5.25 4.5 2.25.25 3 .25 3 0 6-2 2-2 2-4.5 2.25C204 643 204 643 202 641c-.25-3-.25-3 0-6 2-2 2-2 4.5-2.25"/><path fill="#868c91" d="m399 461 3 1-1 6h2l2-6 4 1v6h-16v-2h3l-3-1 1-4 4 1-1 2 2 1z"/><path fill="#cacfd4" d="M215 51h3c.95 3.695.95 6.305 0 10h2v-7h6v2h-3v7h-7c-1.47-4.412-2.369-7.483-1-12"/><path fill="#4b5766" d="M211 841h2l1 2c3.345.994 5.69 1.103 9 0l1 5c-4.41 1.102-8.484 1.077-13 1z"/><path fill="#6a7789" d="M599 843h3l-1 2c2.047.165 2.047.165 3.75-1 2.875-1.278 5.137-1.208 8.25-1 1 1 1 1 1 6h-15l-1-5z"/><path fill="#7a7e83" d="M246 780h2l1 3 1-1a100 100 0 0 1 5 0v9l-5 1v-3h-4z"/><path fill="#717479" d="M713.375 762.5c2.687.512 4.053.235 6.625-.5 1 1 1 1 1.063 4.063L721 769q-2.719.039-5.437.063l-3.06.035C710 769 710 769 709 768a100 100 0 0 1 0-5c2-1 2-1 4.375-.5"/><path fill="#8d929a" d="M307 658c5.174-.203 9.226-.247 14 2h3v2h-5v2l4-1v2h-8v-5h-2v5h-2v-5h-2v5h-2z"/><path fill="#73767c" d="M371 658c2.063.438 2.063.438 4 1l1-1c2.5-.125 2.5-.125 5 0 1 1 1 1 1.063 4.063L382 665h-2v-5h-2v5h-8c-.625-2.375-.625-2.375-1-5z"/><path fill="#9296a5" d="m208 560 3 1-1 2 2 1 1-3h3c2.674-.286 5.334-.65 8-1v3l-3-1v4l4-1v2h-5l-1-3h-5v2l4-1v2h-11l-1-2h3l-3-2v-2z"/><path fill="#626f7f" d="M93 841c2.383.242 2.383.242 5.125.875l2.758.617L103 843v6l-1-4h-2v4c-6.152.098-6.152.098-8 0-1-1-1-1-1.187-3.437C91 843 91 843 93 841"/><path fill="#788991" d="m302 167 5 1 1 3 2-1v-3l4 1v6h-11l-1 2z"/><path fill="#707277" d="M206 782h11v2h-2v5h-7v3h-2zm24-22h2v9h-7v3h-2v-10h5l1 1z"/><path fill="#808589" d="m126 462 2.25.563c2.724.433 4.158.178 6.75-.563 1 1 1 1 1.063 4.063L136 469h-11l-1-4z"/><path fill="#798997" d="M321 265c2.125.938 2.125.938 4 2v2l2-1v-3l4 1v6h-11l-1 2v-8z"/><path fill="#6a7789" d="m581 843 2.25.5c2.967.54 4.831.099 7.75-.5 2.313.438 2.313.438 4 1l-2 5h-2l-1-1-1.687.438c-2.818.685-5.424.628-8.313.562a100 100 0 0 1 0-5z"/><path fill="#54606f" d="m336.066 842.902 2.497.035 2.503.028L343 843l1 5-4 1v2h-2l-1-2c-2.527-.656-2.527-.656-5-1 1.12-4.958 1.12-4.958 4.066-5.098"/><path fill="#898d94" d="M256 780h2v2l3.375-.562C265 781 265 781 267 782v2h4v2h-5v3h-6v-5h-2v5h-2z"/><path fill="#60667a" d="M690.375 363.5c2.663.507 4.092.344 6.625-.5l2 4-2 1 2 1c-4.7 1.016-8.3 1.016-13 0v-5c2-1 2-1 4.375-.5"/><path fill="#566272" d="M688 841h2v3l1.875-.562C694 843 694 843 696 844v-3h2v8l-3.25-.125c-3.936-.13-3.936-.13-7.75 2.125z"/><path fill="#7d8086" d="M138 780h2v2l4 1 1-3h2v9h-9z"/><path fill="#6a6c70" d="m336 761 10 2v5c-1 1-1 1-2.812 1.133l-2.188-.008-2.187.008C337 769 337 769 336 768q-.062-3.5 0-7"/><path fill="#8078ae" d="M246 341q.039 2.469.063 4.938l.035 2.777C246 351 246 351 245 352c-1.666.04-3.334.043-5 0-1.04-3.38-1.08-6.478-1-10 2.463-1.231 4.28-1.072 7-1"/><path fill="#4f8ead" d="M136 243q.039 2.469.063 4.938l.035 2.777C136 253 136 253 135 254c-1.666.04-3.334.043-5 0-1.04-3.38-1.08-6.478-1-10 2.463-1.231 4.28-1.072 7-1"/><path fill="#787b81" d="M729 760h2l1 2 3 1v6h-1v-5h-3v5q-3.5.062-7 0c-1-1-1-1-1.062-3.562L723 763c3.75-1.125 3.75-1.125 6 0z"/><path fill="#8e949b" d="M397 656h2v2h9l1 7h-2v-5h-2v5h-2v-5h-2v5h-4z"/><path fill="#84888f" d="M559 656h2v9h-2l-1-2-1 2h-6l-2-7h6v2h2v-2h2z"/><path fill="#936e49" d="M228 633v10h-6c-2.125-6.75-2.125-6.75-1-9 2.484-.828 4.352-1 7-1"/><path fill="#6d7487" d="M304 362c7.75.75 7.75.75 10 3-.375 2.625-.375 2.625-1 5h-9z"/><path fill="#7b8b93" d="M240 165h2v9h-2l-1-2-1 2h-6l-2-7h6v2h2v-2h2z"/><path fill="#54b692" d="M233 143c2.063.438 2.063.438 4 1v8l-1.812-.562c-2.352-.659-2.352-.659-5.188.562v-6l-2 1c-.656 2.527-.656 2.527-1 5h-2v-8l3.438.063c3.378.353 3.378.353 4.562-1.063"/><path fill="#92a1ab" d="m448 167 3 1-1 2 2 1 1-3h3q3.505-.474 7-1v2h-2v5h-2v-3h-5v2l4-1v2h-11l-1-2h3l-2-1z"/><path fill="#3d3748" d="M117 558h6v2l3 1h-2v6h-7z"/><path fill="#ad7598" d="M132 535h3v10h-8l2-1v-5c-2.33.959-2.33.959-4 4v-5a88 88 0 0 1 5-1l1 1z"/><path fill="#6c7d8b" d="m218.563 264.875 2.44-.008C223 265 223 265 224 266c.04 2 .043 4 0 6h-1v-5h-3v5q-3.5.062-7 0c-1-1-1-1-1.062-3.562L212 266c2.38-1.19 3.915-1.133 6.563-1.125"/><path fill="#39826c" d="M146 145v7q-2.156.039-4.312.063l-2.426.035C137 152 137 152 134 151v-2h4l-4-1v-2l4-1 2 3h4v-2l-4 1v-2c2.49-1.245 3.41-.777 6 0"/><path fill="#7c8086" d="m258 658 4 1 1-1c2.5-.125 2.5-.125 5 0 1 1 1 1 1.063 4.063L269 665h-1v-5h-3v5q-3.5.062-7 0c-1-1-1-1-1.125-3.5C257 659 257 659 258 658"/><path fill="#c6ccd1" d="M134 53c2.625.375 2.625.375 5 1l1 5h-6v2l6-1-1 3c-2 .043-4 .04-6 0-1-1-1-1-1.187-4.437C132 55 132 55 134 53"/><path fill="#878b93" d="M235 762h6l1 2 3-1-3 9h-2v-6l-1 3h-5c0-4 0-4 1-7"/><path fill="#495564" d="M116 77v6h-11l-1-5c1.33-.345 2.665-.675 4-1l2.563-.625C113 76 113 76 116 77"/><path fill="#5b6777" d="M107 843c10.375 0 10.375 0 14 1l-1 5h-6v-4h-2l-1 4-1-4-1 4h-2z"/><path fill="#868b92" d="M371 762q2.469-.04 4.938-.062l2.777-.036C381 762 381 762 382 763c.04 2 .043 4 0 6h-1v-5h-3v5h-8l.5-1.812c.611-2.301.611-2.301.5-5.188"/><path fill="#817ab0" d="m179 338 6 1v10h-3v-6h-2v6h-2c-1.23-6.4-1.23-6.4-.062-9.437z"/><path fill="#dee2e7" d="M159 53c2.688.875 2.688.875 5 2v4h-6v2l6-1-1 3c-2 .043-4 .04-6 0-1-1-1-1-1.25-4.437L156 55z"/><path fill="#c8945e" d="m157 738 4 1v4h2v5h-7c-1.467-3.815-.433-6.29 1-10"/><path fill="#d29b62" d="M81.5 668.875C84 669 84 669 85 670c.125 3.5.125 3.5 0 7-1 1-1 1-3.5 1.125C79 678 79 678 78 677c-.125-3.5-.125-3.5 0-7 1-1 1-1 3.5-1.125"/><path fill="#aa9039" d="M81.5 472.875C84 473 84 473 85 474c.125 3.5.125 3.5 0 7-1 1-1 1-3.5 1.125C79 482 79 482 78 481c-.125-3.5-.125-3.5 0-7 1-1 1-1 3.5-1.125"/><path fill="#837bb1" d="M81.5 374.875C84 375 84 375 85 376c.125 3.5.125 3.5 0 7-1 1-1 1-3.5 1.125C79 384 79 384 78 383c-.125-3.5-.125-3.5 0-7 1-1 1-1 3.5-1.125"/><path fill="#a398d7" d="M155 339c2.875-.125 2.875-.125 6 0l2 2c-.375 2.125-.375 2.125-1 4l-4 1v3h-3z"/><path fill="#7d8e97" d="M281 165h2v9h-10v-6l1 3 2-1v-3l4 1z"/><path fill="#d1d6db" d="M184 54c6.152-.098 6.152-.098 8 0 1 1 1 1 1.098 2.848L193 63h-3v-7h-3v7h-3z"/><path fill="#73757b" d="m587 761 3 1v7h-9c-.625-2.375-.625-2.375-1-5l2-2c2.125.375 2.125.375 4 1z"/><path fill="#8b9098" d="M496 760h2v9h-1v-5h-2l1 5h-3l-1-4-4-1v4l4-1-1 2-5-1v-5c.957-.2.957-.2 1.934-.402l2.503-.535 2.497-.528c2.043-.343 2.043-.343 3.066-1.535"/><path fill="#6a6c71" d="M693 656h3v2l2.438-.062C701 658 701 658 702 659c.04 2 .043 4 0 6h-2v-5h-2v5h-5z"/><path fill="#848a8f" d="M257 460h2l1 2 3 1v6h-2v-5h-2v5h-8c-.625-2.375-.625-2.375-1-5l2-2c2.125.375 2.125.375 4 1l-1 2-3-1v4l5-1z"/><path fill="#286153" d="m199 145 2 1v5c-3.375.625-3.375.625-7 1l-2-2c.25-2.562.25-2.562 1-5 2.517-1.258 3.378-.82 6 0"/><path fill="#57ba96" d="M185 142h4l3 10h-3v-2h-4v2h-2c.458-3.47.891-6.674 2-10"/><path fill="#576473" d="M720 841h2v3l4-1v-2h2v7l3 1h-11z"/><path fill="#707277" d="M256 760c1.478 2.957 1.06 5.742 1 9h-7v-8c3-1 3-1 6-1"/><path fill="#251f1c" d="m91 745 2 1c.358 7.284.358 7.284-1 10-3.28 1.64-6.371 1.178-10 1l-1-2 3.313-1.062c3.151-1.315 4.31-2.474 5.624-5.625zm0-105 2 1c.358 7.284.358 7.284-1 10-3.28 1.64-6.371 1.178-10 1l-1-2 3.313-1.062c3.151-1.315 4.31-2.474 5.624-5.625z"/><path fill="#6a7184" d="M469 363h7c.934 3.01 1.044 3.867 0 7h-11v-6h1v5l2-1c.656-2.527.656-2.527 1-5"/><path fill="#70778a" d="m573 361 1 2 3 1v6h-2v-5h-2v5h-5v-8c3-1 3-1 5-1"/><path fill="#7d8187" d="M273 760h5v9c-3.492.1-6.594-.222-10-1v-2h4z"/><path fill="#a67c51" d="M80 774c4.706.706 4.706.706 6 2 .188 2.438.188 2.438 0 5l-2 2c-2.625-.375-2.625-.375-5-1q-.061-3.5 0-7z"/><path fill="#5292b2" d="M80 277c2.625.375 2.625.375 5 1v7c-2.375.625-2.375.625-5 1-2-2-2-2-2.25-4.5C78 279 78 279 80 277"/><path fill="#809199" d="M210 167h2v6h2v-6q3.5-.061 7 0c1 1 1 1 1.063 4.063L222 174h-1v-5h-3v5q-3.5.061-7 0c-1-1-1-1-1.062-4.062z"/><path fill="#979ea4" d="M227 50h3v3h7v1h-6v9h-4z"/><path fill="#576373" d="M131 841h2v3l4-1 2 4h2v4h-2l-1-2h-7z"/><path fill="#787b81" d="M197.625 781.875 200 782v9l-5 1-1-4-.687-2.125L193 784c2-2 2-2 4.625-2.125"/><path fill="#7c8086" d="M610 762c7.75-.125 7.75-.125 10 1v5l-5 1-1-5h-2v5h-2z"/><path fill="#777e90" d="M357 363c7.75-.125 7.75-.125 10 1v5l-5 1-1-5h-2v5h-2z"/><path fill="#525e6e" d="M179.563 75.938 182 76c.195 6.055.195 6.055 0 8l-2 2c-2.125-.375-2.125-.375-4-1l1-2-2-1c1.073-5.977 1.073-5.977 4.563-6.062"/><path fill="#dce1e5" d="M258 54v2l-3 1 4 2-1 4h-7v-3h3l-3-2v-4c2.667-1.333 4.167-.671 7 0"/><path fill="#8f98a0" d="m423 888 6 1c.976 2.928 1.082 4.956 1 8h-7z"/><path fill="#485462" d="M122 841h2v2l4 1v-3h2v8h-8z"/><path fill="#bb8b59" d="M133 636c2-.043 4-.04 6 0 1 1 1 1 1.063 3.563L140 642l-5 1v3h-2z"/><path fill="#b88958" d="M213 636c2-.043 4-.04 6 0 1 1 1 1 1.063 3.563L220 642l-5 1v3h-2z"/><path fill="#727382" d="m237 559 3 1-1 6 2 1h-10l-1-5c2.076-.553 3.844-1 6-1z"/><path fill="#797a8a" d="M291 558h3v2l2.438-.062C299 560 299 560 300 561c.04 2 .043 4 0 6h-1v-5h-3v5h-5z"/><path fill="#be80a5" d="M191 538c2-.043 4-.04 6 0 1 1 1 1 1.063 3.563L198 544l-5 1v3h-2z"/><path fill="#525e6e" d="M284 76v2h-2v5q-3.5.061-7 0c-1-1-1-1-1.062-3.562L274 77c3.215-1.607 6.436-1.057 10-1"/><path fill="#535f6f" d="M239 74h3v2l2.438-.062C247 76 247 76 248 77c.04 2 .043 4 0 6h-1v-5h-3v5h-5z"/><path fill="#53606f" d="M629 843v6l-1-4h-2v4h-7v-5c3.782-1.837 5.946-2.158 10-1"/><path fill="#7c7f85" d="M188.563 761.938 191 762v9l-5 1c-.91-3.07-1.173-5.8-1-9 1-1 1-1 3.563-1.062"/><path fill="#7c8185" d="M463.563 461.938 466 462v9l-5 1c-.91-3.07-1.173-5.8-1-9 1-1 1-1 3.563-1.062"/><path fill="#808589" d="m313 461 3 1-1 6h2l2-6 4 1v6q-2.22.039-4.437.063l-2.497.035C314 469 314 469 313 468q-.062-3.5 0-7"/><path fill="#848b9c" d="M668 363q2.219-.04 4.438-.062l2.496-.036C677 363 677 363 678 364c.04 2 .043 4 0 6h-6l1-4-3-1v5h-2z"/><path fill="#5e6b7c" d="m99 74 1 2 3 1v6h-1v-5h-3v5h-5v-8c3-1 3-1 5-1"/><path fill="#91979e" d="M468 762v9l-5 1c-.91-3.073-1.089-5.801-1-9 2-1 2-1 6-1m221-104v9l-5 1c-.91-3.073-1.089-5.801-1-9 2-1 2-1 6-1"/><path fill="#9195a3" d="M176 560v9l-5 1c-.91-3.073-1.089-5.801-1-9 2-1 2-1 6-1"/><path fill="#8e96a6" d="M453 363v9l-5 1c-.91-3.073-1.089-5.801-1-9 2-1 2-1 6-1"/><path fill="#6c7a8c" d="m326 75 2.813 1c3.107 1.15 3.107 1.15 6.187 1v3h-4v2l7-1v2h-12z"/><path fill="#556272" d="M190 75h1v7l2 1q-2.22.039-4.437.063l-2.497.035C184 83 184 83 183 82a100 100 0 0 1 0-5c2.076-.553 3.844-1 6-1z"/><path fill="#dc94bd" d="m163.5 534.688 2.5.312 2 3h-6v4l4 1v-2l-2-1h4v4c-3.375.625-3.375.625-7 1-2-2-2-2-2.25-5 .315-3.775.93-4.835 4.75-5.312"/><path fill="#858b90" d="M344 462h9l2 4-2 1 1 2-5-1-1-4h-2v5h-2z"/><path fill="#c5a640" d="M183 439c4.571.549 8.674 1.417 13 3v2h-5v3h-3v-6l-2 1c-.656 2.527-.656 2.527-1 5h-2z"/><path fill="#616e7f" d="M257 76q3.5-.061 7 0c1 1 1 1 1.063 4.063L265 83h-1v-5h-3v5h-8v-6h1v5l2-1c.656-2.527.656-2.527 1-5"/><path fill="#d8dde2" d="M113 54h3v7h3v-7h2v9q-3.5.062-7 0c-1-1-1-1-1.098-2.848z"/><path fill="#d5b343" d="M118 437h5l1 3-5-1v2l5 1-1 5h-6l-1-3 6 1v-2l-5-1z"/><path fill="#8d9ca9" d="m143 263 5 1-1 2-3-1v2l4 1 1-5h2v9h-8l-1-2 5 1v-2l-5-2z"/><path fill="#596676" d="m162 75 9 2v5l-5 1-1-5h-2l1 5h-2z"/><path fill="#68717a" d="M420 890v7l-1.687-.437c-2.427-.59-4.862-1.086-7.313-1.563l-1-5c3.663-.75 6.424-1.238 10 0"/><path fill="#888d94" d="M425 762q2.219-.04 4.438-.062l2.496-.036C434 762 434 762 435 763c.04 2 .043 4 0 6h-2v-5h-2v5h-2v-5h-2v5h-2zm-277 0q2.219-.04 4.438-.062l2.496-.036C157 762 157 762 158 763c.04 2 .043 4 0 6h-2v-5h-2v5h-2v-5h-2v5h-2z"/><path fill="#ca955f" d="M216 739v3h-2v-2h-4v6l6-1-1 3c-2.875.188-2.875.188-6 0-2-3-2-3-1.75-6.125L208 739c2.862-1.43 4.934-.6 8 0"/><path fill="#d9a065" d="M88 669c2.625.375 2.625.375 5 1v1h-5l5 2-1 5c-4.875-.875-4.875-.875-6-2-.187-2.437-.187-2.437 0-5z"/><path fill="#888d94" d="M504 658q2.219-.04 4.438-.062l2.496-.036C513 658 513 658 514 659c.04 2 .043 4 0 6h-2v-5h-2v5h-2v-5h-2v5h-2z"/><path fill="#b3983b" d="M177 439c3.536.536 3.536.536 5 2 .125 2.5.125 2.5 0 5-1 1-1 1-3.5 1.125C176 447 176 447 175 446c-.187-2.437-.187-2.437 0-5z"/><path fill="#777e90" d="M371.563 360.938 374 361v9h-6c-.098-6.152-.098-6.152 0-8 1-1 1-1 3.563-1.062"/><path fill="#8a81ba" d="M171 341c3.536.536 3.536.536 5 2 .125 2.5.125 2.5 0 5-1 1-1 1-3.5 1.125C170 349 170 349 169 348c-.187-2.437-.187-2.437 0-5z"/><path fill="#ab9fe0" d="M221.563 339.938 225 340c1.065 3.196 1.074 5.657 1 9h-3v-6h-3l1 6h-3c-.879-6.152-.879-6.152-1-8 1-1 1-1 4.563-1.062"/><path fill="#8c9aa8" d="M334 265c2.063.438 2.063.438 4 1l-1 2-3-1v4l5-1 1-4h5v3h-4v2l7-1v2h-15c0-6 0-6 1-7"/><path fill="#5bc39c" d="m124 142 1 3h-5l-1 5 6-1-1 3c-2.875.188-2.875.188-6 0-2-3-2-3-1.75-6.125L117 143c2.463-1.231 4.28-1.072 7-1"/><path fill="#d0d5da" d="M123 54h7v2l-3 1 3 1v5h-6l-1-3h3l-3-2z"/><path fill="#9298a0" d="M577 760h2v9h-2v-3h-5v2l4-1v2c-2.375.125-2.375.125-5 0l-2-2c.375-2.125.375-2.125 1-4l1.875.563c2.167.674 2.167.674 4.125-.563z"/><path fill="#7a8083" d="M324 462h5c1 1 1 1 1.063 4.063L330 469h-4v3h-2z"/><path fill="#d6b444" d="M148 439v2h-2l1 6h-3v-6l-3 1-1 5h-2v-8c3.663-.75 6.424-1.238 10 0"/><path fill="#757c8e" d="M130 363h5c1 1 1 1 1.063 4.063L136 370h-4v3h-2z"/><path fill="#968cc8" d="m191 341 5 1c.934 3.01 1.044 3.867 0 7h-6c-.625-2.312-.625-2.312-1-5z"/><path fill="#407692" d="M125 241h3v10l-4-1v-4l-5-1v-2h5z"/><path fill="#708189" d="M130 167h5c1 1 1 1 1.063 4.063L136 174h-4v3h-2z"/><path fill="#92a1aa" d="M407 167v7h-3l-1-3h-4v2l4-1v2h-5c-.625-1.812-.625-1.812-1-4 2-3 2-3 4.438-3.75C404 166 404 166 407 167"/><path fill="#5f6d7e" d="m134 75 2.813 1c3.107 1.15 3.107 1.15 6.187 1v3h-4v2l4-1v2h-9z"/><path fill="#d4d8dd" d="M72.063 53.188C74 54 74 54 76 57c-.54 4.54-.54 4.54-2 6-1.666.04-3.334.043-5 0l4-1v-6h-4l-1 5h-1c-.187-2.875-.187-2.875 0-6 3-2 3-2 5.063-1.812"/><path fill="#556171" d="m283 842 7 2c.563 1.938.563 1.938 1 4-1 1-1 1-4.562 1.063L283 849a129 129 0 0 1-1-6z"/><path fill="#a0774e" d="M90 746c-.312 2.875-.312 2.875-1 6-3 2-3 2-7 2 .25-2.875.25-2.875 1-6 2.547-1.868 3.809-2 7-2"/><path fill="#979da5" d="m127 658 3 1-1 2 2 1 1-3c3 0 3 0 6 1v2h-5v2l4-1v2h-11l-1-2h3l-2-1z"/><path fill="#a0774e" d="M90 641c-.312 2.875-.312 2.875-1 6-3 2-3 2-7 2 .25-2.875.25-2.875 1-6 2.547-1.868 3.809-2 7-2"/><path fill="#d19a62" d="m155 634 4 1v2h-2l2 6-4-1v-5l-3 1-1 5h-2v-8l6 1z"/><path fill="#99a1b1" d="m648 364 2 1-1 4h3l-1-5h9v3h-4v2l4-1v2h-11l-1 2z"/><path fill="#909eac" d="m127 265 3 1-1 2 2 1 1-3c3 0 3 0 6 1v2h-5v2l4-1v2h-11l-1-2h3l-2-1z"/><path fill="#4f6371" d="M263 263h1v9c-2 .043-4 .04-6 0-1-1-1-1-1.062-3.562L257 266c3.75-1.125 3.75-1.125 6 0z"/><path fill="#76878f" d="m328 167 3 1h4l3 1-1 4c-2.763.597-5.16 1-8 1z"/><path fill="#566272" d="m321 842 3 2c2.153-.308 2.153-.308 4-1a88 88 0 0 1 1 5c-1 1-1 1-4.562 1.063L321 849a129 129 0 0 1-1-6z"/><path fill="#777a80" d="M388 760h2v9h-6v-6l4-1z"/><path fill="#8c9098" d="M549 760h2v2c1.883 1.108 1.883 1.108 4 2l2-1c-.498 3.735-.875 5.812-3 9h-2v-2h2l-2-5-1 4h-2z"/><path fill="#66676c" d="M713 656h1v9c-2 .043-4 .04-6 0-1-1-1-1-1.062-3.562L707 659c3.75-1.125 3.75-1.125 6 0zm-257 0h1v9c-2 .043-4 .04-6 0-1-1-1-1-1.062-3.562L450 659c3.75-1.125 3.75-1.125 6 0z"/><path fill="#864" d="M144.5 635.875C147 636 147 636 148 637c.125 2.5.125 2.5 0 5-1 1-1 1-3.5 1.125C142 643 142 643 141 642c-.125-2.5-.125-2.5 0-5 1-1 1-1 3.5-1.125"/><path fill="#b08354" d="M232.5 635.875C235 636 235 636 236 637c.125 2.5.125 2.5 0 5-1 1-1 1-3.5 1.125C230 643 230 643 229 642c-.125-2.5-.125-2.5 0-5 1-1 1-1 3.5-1.125"/><path fill="#666a6b" d="M428 460h1v9c-2 .043-4 .04-6 0-1-1-1-1-1.062-3.562L422 463c3.75-1.125 3.75-1.125 6 0z"/><path fill="#ba9d3d" d="M164 437h4v5h5v2h-5v3h-3v-7h-2z"/><path fill="#5f6679" d="M426 361h1v9c-2 .043-4 .04-6 0-1-1-1-1-1.062-3.562L420 364c3.75-1.125 3.75-1.125 6 0z"/><path fill="#65afd3" d="M88 244c2-.043 4-.04 6 0 1 1 1 1 1.133 4.125L95.125 252l.008 3.875C95 259 95 259 94 260c-2 .04-4 .043-6 0v-1h5v-13h-5z"/><path fill="#8a9097" d="M100 54q3.5-.062 7 0c1 1 1 1 1.063 4.563L108 62l-2-2c-2.108.319-2.108.319-4 1z"/><path fill="#5e6b7b" d="M490 841h2v8h-7l-1-4 4-2 1 1z"/><path fill="#e7ab6b" d="M168 738h2v8h4v-8h2c.195 6.055.195 6.055 0 8-2 2-2 2-4.562 2.188C169 748 169 748 168 747a75 75 0 0 1-.062-4.562l.027-2.504z"/><path fill="#7b7e84" d="M666 656h2v9c-1.666.043-3.334.04-5 0-1-1-1-1-1.062-3.562L662 659l4-1z"/><path fill="#7b8083" d="M307 460h2v9c-1.666.043-3.334.04-5 0-1-1-1-1-1.062-3.562L303 463l4-1z"/><path fill="#83888d" d="M418 462v7l-4-1v-4h-2v5h-2v-7c3.053-.981 4.947-.981 8 0"/><path fill="#767c8f" d="M627 361h2v9c-1.666.043-3.334.04-5 0-1-1-1-1-1.062-3.562L623 364l4-1z"/><path fill="#525e6e" d="M271 74h2v9h-6v-6l3-1z"/><path fill="#8b99ad" d="m754 61 1.75 1.563c2.098 1.663 2.098 1.663 4.313 1.25 2.2-.851 2.2-.851 4.937-2.813l-1 1.75c-1.27 2.449-1.27 2.449-1 6.25.933 2.2.933 2.2 2 4l-1.75-1.562c-2.098-1.664-2.098-1.664-4.312-1.25-2.2.85-2.2.85-4.938 2.812l1-1.75c1.27-2.449 1.27-2.449 1-6.25-.933-2.2-.933-2.2-2-4"/><path fill="#647182" d="M397 842h2v6l4-3-1 4c-1.666.043-3.334.04-5 0l-1-1c-2.054.41-2.054.41-4 1v-5l3-1 2 1z"/><path fill="#5b5b5f" d="M525 758h2c1.203 2.405 1.1 3.95 1.063 6.625l-.028 2.477L528 769h-4a758 758 0 0 1-.062-4.937l-.036-2.778C524 759 524 759 525 758"/><path fill="#9398a0" d="M132 677v7h-3v-5l-3 1 2 1-1 3-5-1 3-1-2-1 1-4c3.287-.8 4.71-1.097 8 0"/><path fill="#7c8086" d="M516 658h8l-2 1v6h-7l.5-1.812c.611-2.301.611-2.301.5-5.188"/><path fill="#8e939b" d="M673 657h1v7h2l2-6 4 1v6h-9z"/><path fill="#90959c" d="m470 657 3 1-1 6 5-1-3-1 1-4 4 1v6c-6.152.098-6.152.098-8 0-1-1-1-1-1.062-4.562z"/><path fill="#dba166" d="M167.625 632.875 170 633l1 3h-5v4h6l-2 3c-2.5.313-2.5.313-5 0-2-2-2-2-2.25-5 .32-3.85.934-4.937 4.875-5.125"/><path fill="#9ca1af" d="M145 560v2h-2v5h-2v-3h-5v2l4-1v2h-5l-1-5 1.813-.437C141.889 560 141.889 560 145 560"/><path fill="#8b93a3" d="M547 362h1v7h2l2-6 4 1v6h-9z"/><path fill="#627482" d="M292 265c5.75-.125 5.75-.125 8 1v5c-2.312.688-2.312.688-5 1-1.812-1.187-1.812-1.187-3-3z"/><path fill="#60a7ca" d="M137 243c2-.043 4-.04 6 0 1 1 1 1 1.063 4.563L144 251h-2v-6h-2v6h-3z"/><path fill="#55b793" d="M171 144c2-.043 4-.04 6 0 1 1 1 1 1.063 4.563L178 152h-2v-6h-2v6h-3z"/><path fill="#5d6a7a" d="m565 842 3 1-1 5 4-1-1 4h-2v-2h-7l-1-5h4z"/><path fill="#9298a0" d="M198 658h9v7h-1v-5h-2v5h-2v-5h-2v5h-2z"/><path fill="#8a8d9b" d="M310 560c2-.043 4-.04 6 0 1 1 1 1 1.063 4.063L317 567c-4.75.125-4.75.125-7-1z"/><path fill="#8d9499" d="M271 462c6.055-.195 6.055-.195 8 0l2 2-2 1 2 1-1 3-5-1 3-1-5-3v5h-2z"/><path fill="#8b9196" d="M138 462c7.75-.125 7.75-.125 10 1v2l-4-1v4l4-1-1 2-5-1v-4h-2v5h-2z"/><path fill="#e0bc46" d="M211.625 436.875 214 437l1 3h-5v4h5l-1 3c-2.375.125-2.375.125-5 0-2-2-2-2-2.25-5 .32-3.85.934-4.937 4.875-5.125"/><path fill="#a79bdc" d="M127 341c2-.043 4-.04 6 0 1 1 1 1 1.063 4.063L134 348l-4 1 2-1v-5c-1.625 1.121-1.625 1.121-3 3-.25 3.125-.25 3.125 0 6h-2z"/><path fill="#6ab7dd" d="m84 247 6 4c-1.049 2.622-1.65 3.794-4.125 5.25L84 257l1-3-7-1v-2l7-1z"/><path fill="#84949c" d="m411 167 3 3 1-3 5 1-1 5 3 1c-4.875-.875-4.875-.875-6-2l-1.375 2.5L413 177h-2v-2h2l-1-2.312C411 170 411 170 411 167"/><path fill="#828990" d="M200 51c1.238 3.576.75 6.337 0 10l-1.875-.625L196 60l-2 2v-7l2.438-.875c2.695-.858 2.695-.858 3.562-3.125"/><path fill="#8d929a" d="M300 762h6v6c2.51-1.255 2.871-2.5 4-5v6h-5l-1-5h-2v5h-2z"/><path fill="#cbab41" d="M89 473h3c1.125 6.75 1.125 6.75 0 9l-6-1c.547-3.375 1.055-5.082 3-8"/><path fill="#9199a9" d="m226 362 4 1v6h2v-5l2-1v7l-8-1z"/><path fill="#7a8193" d="M349 361a100 100 0 0 1 5 0c1 1 1 1 1.063 3.563L355 367h-4v3h-2z"/><path fill="#5fcba2" d="m165 144 5 1v7h-6v-4h4v-2l-4 1z"/><path fill="#59c09a" d="M154 144c2.125.375 2.125.375 4 1l1 4-3 1 3 1c-1 1-1 1-3.562 1.063L153 152c-.625-2.875-.625-2.875-1-6z"/><path fill="#90959d" d="M621 762c6.152-.098 6.152-.098 8 0 1 1 1 1 1.063 4.063L630 769h-1v-5h-2v5h-2v-5h-2v5h-2z"/><path fill="#c4915d" d="M202 741v7h-6v-4l2-1h-2v-2c2.49-1.245 3.41-.777 6 0"/><path fill="#91969d" d="M593 658c6.152-.098 6.152-.098 8 0 1 1 1 1 1.063 4.063L602 665h-2v-5h-2v5h-1v-5h-2v5h-2z"/><path fill="#90959d" d="M622 658c6.152-.098 6.152-.098 8 0 1 1 1 1 1.063 4.063L631 665h-1v-5h-2v5h-2v-5h-2v5h-2zm-453 0c6.152-.098 6.152-.098 8 0 1 1 1 1 1.063 4.063L178 665h-1v-5h-2v5h-2v-5h-2v5h-2z"/><path fill="#c4915d" d="M187 636v7h-6v-4l2-1h-2v-2c2.49-1.245 3.41-.777 6 0"/><path fill="#8d95a5" d="M503 363c6.152-.098 6.152-.098 8 0 1 1 1 1 1.063 4.063L512 370h-2v-5h-2v5h-1v-5h-2v5h-2z"/><path fill="#777e90" d="m208 363 5 1 1 5-2.437.375L209 370l-1 2z"/><path fill="#8c94a5" d="M283 363c6.152-.098 6.152-.098 8 0 1 1 1 1 1.063 4.063L292 370h-1v-5h-2v5h-2v-5h-2v5h-2z"/><path fill="#75868e" d="m472 167 6 1v6h-7l.5-1.812c.611-2.301.611-2.301.5-5.188"/><path fill="#566373" d="m145 76 5 1 1 5-2.437.375L146 83l-1 2z"/><path fill="#dbe0e4" d="M176 54c2.125.375 2.125.375 4 1l-2 1c-.656 2.527-.656 2.527-1 5 3.278-.752 3.278-.752 5-4v6c-2.875.125-2.875.125-6 0-2-2-2-2-2.25-4.5C174 56 174 56 176 54"/><path fill="#9ca6b1" d="M69 841h8l1 8h-2v-6h-3v6h-2v-6h-2z"/><path fill="#7d8187" d="m117 780 6 4-1 5h-5z"/><path fill="#8b9097" d="m324 760 3 1c.73 1.848.73 1.848 1.188 4.063l.48 2.222L329 769h-2v-2h-4v2h-2z"/><path fill="#888d94" d="M665 760h2l1 3 4-1v3l-3-1v4l3 1h-7z"/><path fill="#cf9961" d="M188.563 740.938 191 741l1 4-3 1 3 1c-1 1-1 1-3.5 1.125C186 748 186 748 185 747c-.125-2.5-.125-2.5 0-5 1-1 1-1 3.563-1.062"/><path fill="#888d94" d="M231 658v7h-3v-5h-3v5h-2v-7c3.287-.8 4.71-1.097 8 0"/><path fill="#8d9199" d="M432 658v7h-3v-5h-3v5h-2v-7c3.287-.8 4.71-1.097 8 0"/><path fill="#91969e" d="M249 657h6c.976 2.928 1.082 4.956 1 8l-3-1v-4h-2l1 5h-3z"/><path fill="#ca89af" d="M154 538v7h-6v-4h4v-2l-4 1v-2c2.49-1.245 3.41-.777 6 0"/><path fill="#d590b7" d="M213 535h2v2l4 1v7h-2v-6h-2v6h-2z"/><path fill="#91979d" d="M442 461h6c.976 2.928 1.082 4.956 1 8l-3-1v-4h-2l1 5h-3z"/><path fill="#868c91" d="m369 460 6 2v7h-6z"/><path fill="#cdac41" d="M158 440v7h-6v-4h4v-2l-4 1v-2c2.49-1.245 3.41-.777 6 0"/><path fill="#596c73" d="M191 167c2.625.938 2.625.938 5 2l-1 4a88 88 0 0 1-5 1c-1-1-1-1-1.062-3.562L189 168z"/><path fill="#687587" d="M302.5 75.875C306 76 306 76 307 77c.04 2 .043 4 0 6h-1v-5h-2v5h-2v-5h-2v5h-2c-.043-2-.04-4 0-6 1-1 1-1 4.5-1.125"/><path fill="#e6eaee" d="m146 52 1 4 4 1h-3v4h5v-3h2v4c-2.957 1.478-5.742 1.06-9 1z"/><path fill="#586575" d="M253 841h2v2h5v6l-1-4h-2v4h-4z"/><path fill="#dea367" d="M217 738h2v3h5v7h-2v-6l-2 1c-.656 2.527-.656 2.527-1 5h-2z"/><path fill="#7d8187" d="M341 658c2.125.938 2.125.938 4 2l-1 5h-4l-1 2v-8z"/><path fill="#7d7e8d" d="M198 560c2.125.938 2.125.938 4 2l-1 5h-4l-1 2v-8z"/><path fill="#dbb845" d="M217 437h2l1 2 3 1v7h-2v-6h-2v6h-2z"/><path fill="#728391" d="M207 265c2.125.938 2.125.938 4 2l-1 5h-4l-1 2v-8z"/><path fill="#84888e" d="M239 780h2v2h4v2h-2v5h-2l-1-4-2 5c-1.312-3.937-.243-6.125 1-10"/><path fill="#cd9860" d="M226 741a100 100 0 0 1 5 0c1 1 1 1 1.063 4.063L232 748h-6v-4h4v-2l-4 1z"/><path fill="#e0a568" d="M173 633h2v3h5v7h-2v-6h-3v6h-2z"/><path fill="#322338" d="M84.563 540.938 87 541l1 5-6 1a88 88 0 0 1-1-5c1-1 1-1 3.563-1.062"/><path fill="#6e7487" d="M182 363c2.125.375 2.125.375 4 1v6h-5c-.625-2.375-.625-2.375-1-5z"/><path fill="#84939c" d="M183 165c3 1 3 1 4.25 3.375C188 171 188 171 187 174l-4-2v2h-2z"/><path fill="#c2c7cc" d="M86 54h3l-1 8-4 1c-.909-2.544-1.147-3.631-.125-6.187C85 55 85 55 86 54"/><path fill="#707e90" d="M445 841h2v3h2v4h2l1-4 1 5h-8z"/><path fill="#83878e" d="M279 780h4v9h-4z"/><path fill="#76797f" d="M400 763v5a88 88 0 0 1-5 1c-1-1-1-1-1.062-3.562L394 763c2.49-1.245 3.41-.777 6 0m-47 0v5a88 88 0 0 1-5 1c-1-1-1-1-1.062-3.562L347 763c2.49-1.245 3.41-.777 6 0"/><path fill="#7d8187" d="M117 675h4v9h-4z"/><path fill="#888c93" d="M610 656h4v9h-4z"/><path fill="#76797f" d="M423 659v5a88 88 0 0 1-5 1c-1-1-1-1-1.062-3.562L417 659c2.49-1.245 3.41-.777 6 0m-117 0v5a88 88 0 0 1-5 1c-1-1-1-1-1.062-3.562L300 659c2.49-1.245 3.41-.777 6 0m-26 0v5a88 88 0 0 1-5 1c-1-1-1-1-1.062-3.562L274 659c2.49-1.245 3.41-.777 6 0"/><path fill="#ce9860" d="M246 636h6v7h-6v-4h4v-2l-4 1z"/><path fill="#767b7e" d="M389 463v5a88 88 0 0 1-5 1c-1-1-1-1-1.062-3.562L383 463c2.49-1.245 3.41-.777 6 0"/><path fill="#897532" d="M128 441h6l1 6c-2 .043-4 .04-6 0-1-1-1-1-1.062-3.562z"/><path fill="#70778a" d="M153 364v5a88 88 0 0 1-5 1c-1-1-1-1-1.062-3.562L147 364c2.49-1.245 3.41-.777 6 0"/><path fill="#a397d7" d="M231 342c2-.043 4-.04 6 0 1 1 1 1 1.063 4.063L238 349h-3v-6h-2v6h-2z"/><path fill="#66b1d5" d="M87 277h5c.625 1.813.625 1.813 1 4l-2 3h2v2h-7l5-7-4 1z"/><path fill="#103130" d="M82 148h5c.625 1.875.625 1.875 1 4l-2 2c-2.625-.375-2.625-.375-5-1z"/><path fill="#dee3e7" d="M248 54h1c.054 1.791.093 3.583.125 5.375l.07 3.023C249 65 249 65 247 67c-2.625.125-2.625.125-5 0l-1-3h5l.184-1.934.254-2.504c.08-.823.162-1.647.246-2.496C247 55 247 55 248 54"/><path fill="#525f6e" d="M614 844v5l-9-1 3-1v-3c2.49-1.245 3.41-.777 6 0"/><path fill="#767a7f" d="M164 782c2.125.938 2.125.938 4 2l-1 5-5-1v-5zm530-20c2.125.938 2.125.938 4 2l-1 5-5-1v-5z"/><path fill="#81858c" d="M681 762a100 100 0 0 1 5 0c1 1 1 1 1.063 4.063L687 769h-2v-5h-2v5l-3-1z"/><path fill="#cc9660" d="M144 740a100 100 0 0 1 5 0c1 1 1 1 1.063 4.563L150 748h-2v-6h-2v6h-2z"/><path fill="#767a7f" d="M218 658c2.125.938 2.125.938 4 2l-1 5-5-1v-5z"/><path fill="#81858c" d="M376 658a100 100 0 0 1 5 0c1 1 1 1 1.063 4.063L382 665h-2v-5h-2v5l-3-1z"/><path fill="#d590b7" d="M87 571h6c0 3.273-.3 5.847-1 9l-4-1h3v-3h-4z"/><path fill="#a498d8" d="M87 375h5c.845 3.378 1.108 5.675 0 9h-5l-1-3 5 1v-2l-2-1 2-3-4 1z"/><path fill="#71788b" d="M320 363c2.125.938 2.125.938 4 2l-1 5-5-1v-5zm-68 0c2.125.938 2.125.938 4 2l-1 5-5-1v-5z"/><path fill="#6b7c8a" d="M189 265c2.125.375 2.125.375 4 1v5l-5 1c-.625-2.375-.625-2.375-1-5z"/><path fill="#3b866f" d="m81 178 3 1v7l-3 1c-2-2-2-2-2.25-4.5C79 180 79 180 81 178"/><path fill="#677981" d="M339 167c2.063.438 2.063.438 4 1 1.125 3.75 1.125 3.75 0 6h-5c-.043-2-.04-4 0-6z"/><path fill="#515e6e" d="M63 76c2.125.938 2.125.938 4 2l-1 5-5-1v-5z"/><path fill="#606d7e" d="M658 843h4v8h-5c0-2.84.403-5.237 1-8"/><path fill="#505c6b" d="M709 841h4v8h-5q-.062-3.5 0-7z"/><path fill="#5c6979" d="m475 844-2 5h-7v-3h3v-2c2.49-1.245 3.41-.777 6 0m-62 0-2 5h-7v-3h3v-2c2.49-1.245 3.41-.777 6 0"/><path fill="#687586" d="M145 842h2l-1 6h2v-2h3l-2-1v-2l4 1v5h-8z"/><path fill="#878c92" d="m358 762 4 1-1 2 4 2v4h-2l-1-2h-5v-2h3l-3-1zm-158 0 4 1-1 2 4 2v4h-2l-1-2h-5v-2h3l-3-1z"/><path fill="#808391" d="m332 560 3 3 1-3h2l-1 5h3v2h-5l-1 3h-2v-2h2l-1-2.312C332 563 332 563 332 560"/><path fill="#8b8f9d" d="M153 558h2v2l4 1v6h-2v-5h-2v5h-2z"/><path fill="#da93bb" d="m136 537 7 1v7h-2v-6l-2 1c-.656 2.527-.656 2.527-1 5h-2z"/><path fill="#ce8bb2" d="M121 535h2q.039 2.219.063 4.438l.035 2.496C123 544 123 544 122 545c-1.666.04-3.334.043-5 0l-1-4h3v2h2z"/><path fill="#8c9297" d="M149 460h2v2l4 1v6h-2v-5h-2v5h-2z"/><path fill="#a398d7" d="m249 341 4 1-1 2 2 1-1 4h-5l-1-2 4-1h-3z"/><path fill="#6cb9de" d="m153 243 7 1v7h-2v-6l-2 1c-.656 2.527-.656 2.527-1 5h-2z"/><path fill="#687687" d="M81 77h8l-1 6h-2l-1-2-1 2h-2z"/><path fill="#878b92" d="M481 762c2.063.438 2.063.438 4 1v6h-6c.875-5.875.875-5.875 2-7m-24 0c2.063.438 2.063.438 4 1v6h-6c.875-5.875.875-5.875 2-7m-277 0c2.063.438 2.063.438 4 1v6h-6c.875-5.875.875-5.875 2-7"/><path fill="#92979f" d="m118 760 5 1v2h-4l4 2-1 4h-5v-2l4 1-2.062-1.75L117 764c.25-2.25.25-2.25 1-4"/><path fill="#84888f" d="M415 762a100 100 0 0 1 5 0c1 1 1 1 1.063 4.063L421 769h-2v-5h-2v5h-2c-1.125-4.75-1.125-4.75 0-7"/><path fill="#878c93" d="M578 658c2.063.438 2.063.438 4 1v6h-6c.875-5.875.875-5.875 2-7m-93 0c2.063.438 2.063.438 4 1v6h-6c.875-5.875.875-5.875 2-7"/><path fill="#545457" d="M632 658h5v6h-3v3l-2 1c-1.125-7.75-1.125-7.75 0-10"/><path fill="#878998" d="M246 560c2.063.438 2.063.438 4 1v6h-6c.875-5.875.875-5.875 2-7"/><path fill="#878d92" d="M336 462c2.063.438 2.063.438 4 1v6h-6c.875-5.875.875-5.875 2-7m-45 0c2.063.438 2.063.438 4 1v6h-6c.875-5.875.875-5.875 2-7"/><path fill="#92989e" d="m118 460 5 1v2h-4l4 2-1 4h-5v-2l4 1-2.062-1.75L117 464c.25-2.25.25-2.25 1-4"/><path fill="#828a9b" d="M635 363c2.063.438 2.063.438 4 1v6h-6c.875-5.875.875-5.875 2-7m-24 0c2.063.438 2.063.438 4 1v6h-6c.875-5.875.875-5.875 2-7m-486 0c2.063.438 2.063.438 4 1v6h-6c.875-5.875.875-5.875 2-7"/><path fill="#7e8e97" d="M162 167c2.063.438 2.063.438 4 1v6h-6c.875-5.875.875-5.875 2-7m-37 0c2.063.438 2.063.438 4 1v6h-6c.875-5.875.875-5.875 2-7"/><path fill="#b1b6bc" d="M165 54h3l1 2 2-1-1 6-3 1c-1.562-1.187-1.562-1.187-3-3 .313-2.687.313-2.687 1-5"/><path fill="#70777e" d="m180 54 3 1v7l-2-2c-2.108.319-2.108.319-4 1-.187-2.375-.187-2.375 0-5z"/><path fill="#515d6c" d="M555 841h4v8h-4z"/><path fill="#8a8e95" d="M217 782v2h-2v5h-7l2-2v-4c3-1 3-1 7-1"/><path fill="#8c9198" d="M230 760h2v9h-7l2-2v-4h2z"/><path fill="#888c94" d="m181 658 4 1v6h-5c0-4 0-4 1-7"/><path fill="#271c2f" d="M206 537h3v2h3v3l-7 1a100 100 0 0 1 0-5z"/><path fill="#888e93" d="m266 462 4 1v6h-5c0-4 0-4 1-7"/><path fill="#848b9d" d="m498 363 4 1v6h-5c0-4 0-4 1-7"/><path fill="#52666c" d="m419 167 6 1v5c-3 1-3 1-6 0z"/><path fill="#0c2a2b" d="M120 144h3v2h3v3l-7 1a100 100 0 0 1 0-5z"/><path fill="#616e7f" d="M290 76c2.063.438 2.063.438 4 1v6h-6c.875-5.875.875-5.875 2-7"/><path fill="#5a6676" d="m154 843 5 1v5h-4l-1 2z"/><path fill="#5d697a" d="M498 842v7h-5c-.187-2.375-.187-2.375 0-5 3-2 3-2 5-2"/><path fill="#9398a1" d="M291 780h2l1 3h3l-2 3 2 3h-6z"/><path fill="#80838a" d="m263 781 4 1v2h4v2h-5v3h-3z"/><path fill="#868a90" d="M311 762a100 100 0 0 1 5 0c1 1 1 1 1.063 4.063L317 769h-2v-5h-2v5h-2zm-32 0a100 100 0 0 1 5 0c1 1 1 1 1.063 4.063L285 769h-2v-5h-2v5h-2z"/><path fill="#8a8f96" d="M131 762a100 100 0 0 1 5 0c1 1 1 1 1.063 4.063L137 769h-2v-5h-2v5h-2zm150-104a100 100 0 0 1 5 0c1 1 1 1 1.063 4.063L287 665h-2v-5h-2v5h-2z"/><path fill="#989ea6" d="m292 656 1 4h4v-4h2v9h-2v-4h-4l-1 4z"/><path fill="#858896" d="M318 560a100 100 0 0 1 5 0c1 1 1 1 1.063 4.063L324 567h-2v-5h-2v5h-2z"/><path fill="#8a8d9b" d="M251 560a100 100 0 0 1 5 0c1 1 1 1 1.063 4.063L257 567h-2v-5h-2v5h-2z"/><path fill="#868e9f" d="M679 363a100 100 0 0 1 5 0c1 1 1 1 1.063 4.063L685 370h-2v-5h-2v5h-2z"/><path fill="#4e5469" d="M647 363h5v6h-3v3l-2 1c-1.125-7.75-1.125-7.75 0-10"/><path fill="#868e9f" d="M440 363a100 100 0 0 1 5 0c1 1 1 1 1.063 4.063L446 370h-2v-5h-2v5h-2z"/><path fill="#979faf" d="M267 361h2v4h4l1-4v9l-1-4h-4v4h-2z"/><path fill="#9098a9" d="M188 361h5v9h-1v-8h-2v8h-2c-1.125-6.75-1.125-6.75 0-9"/><path fill="#81919e" d="M173 265a100 100 0 0 1 5 0c1 1 1 1 1.063 4.063L179 272h-2v-5h-2v5h-2z"/><path fill="#82929a" d="M464 167a100 100 0 0 1 5 0c1 1 1 1 1.063 4.063L470 174h-2v-5h-2v5h-2z"/><path fill="#5f7178" d="M353 165h2v7c-1.937.563-1.937.563-4 1-1-1-1-1-1.062-3.562L350 167h3z"/><path fill="#65d6aa" d="M83 146c4.875.875 4.875.875 6 2v7l1 2-8-1c1.255-2.51 2.5-2.871 5-4-.276-1.94-.276-1.94-1-4z"/><path fill="#3c4856" d="m75 76 1.813.5c2.3.611 2.3.611 5.187.5l-3 6-4-1z"/><path fill="#6b798b" d="M221 76v7l-3-1v-4h-3v5h-1v-7c3.01-.934 3.867-1.044 7 0"/><path fill="#c2cbd2" d="M402 888c3.125.375 3.125.375 6 1v2h-5v4l3 2c-4.875-.875-4.875-.875-6-2-.187-2.437-.187-2.437 0-5z"/><path fill="#5b6878" d="m679 843 5 1-1 5h-3l-1 2zm-387 0 5 1-1 5h-3l-1 2z"/><path fill="#576373" d="M360 842h4c1.044 3.133.934 3.99 0 7h-4a129 129 0 0 1-1-6z"/><path fill="#898e95" d="m699 762 6 1v6h-2v-5h-2v5h-2z"/><path fill="#898f94" d="m453 462 6 1v6h-2v-5h-2v5h-2zm-157 0 6 1v6h-2v-5h-2v5h-2z"/><path fill="#858d9e" d="M663 363c2.063.438 2.063.438 4 1v6h-5c-.043-2-.04-4 0-6zm-47 0 6 1v6h-2v-5h-2v5h-2zm-277 0 6 1v6h-2v-5h-2v5h-2zm-82 0 6 1v6h-2v-5h-2v5h-2z"/><path fill="#5ea5c7" d="M149 241h3v10h-3z"/><path fill="#8e959c" d="M152 53h2l-1 8h-5v-4h3z"/><path fill="#ecf0f4" d="M55 51h2v5h6v1h-6v6h-2z"/><path fill="#556171" d="M265 842h4c1.044 3.133.934 3.99 0 7h-4a129 129 0 0 1-1-6z"/><path fill="#5e6b7b" d="M653 842v7l-5-1 1-5c3-1 3-1 4-1"/><path fill="#596575" d="m460 842 5 2-1 5h-4z"/><path fill="#8f949c" d="M582 762c2.125.375 2.125.375 4 1v3h-4v2l4-1v2h-5c-.625-2.375-.625-2.375-1-5z"/><path fill="#92979e" d="M654 658v7l-3-1v-4h-3v5h-1v-6c3.625-2.125 3.625-2.125 7-1"/><path fill="#999eac" d="M117 558h6v2h-4v2l3 1h-4v3l4 1h-5z"/><path fill="#d08cb4" d="m90 540 4 2-.062 2.563c.064 3.556.5 6.928 1.062 10.437-3.3-4.95-4.109-7.027-4-13z"/><path fill="#463147" d="m162 537 6 1v2l-2 1v2l-5-1z"/><path fill="#8b9297" d="M217 463v6h-2v-5h-2v5h-2v-6c2.49-1.245 3.41-.777 6 0"/><path fill="#8f959b" d="M184 462c2.125.375 2.125.375 4 1v3h-4v2l4-1v2h-5c-.625-2.375-.625-2.375-1-5z"/><path fill="#82899b" d="M140 363h2l1 2 3-1-3 9h-2l.063-2.75c-.052-2.677-.285-4.72-1.063-7.25"/><path fill="#8b93a4" d="M295 363c2.125.375 2.125.375 4 1v3h-4v2l4-1v2h-5c-.625-2.375-.625-2.375-1-5zm-96 0c2.125.375 2.125.375 4 1v3h-4v2l4-1v2h-5c-.625-2.375-.625-2.375-1-5z"/><path fill="#5fcba2" d="M146 145v7h-5l3-1v-2l-3-1h3v-2l-4 1v-2c2.49-1.245 3.41-.777 6 0"/><path fill="#5fcaa1" d="M221 144h2v8h-6v-7h1v5h3z"/><path fill="#dce1e5" d="M99 56h2l1 4h3l2-3v6c-2.875.125-2.875.125-6 0-2-2-2-2-2.125-4.625z"/><path fill="#ce9861" d="M86 774h7c-1.059 3.403-2.009 6.014-4 9l-2-1 3-6h-4z"/><path fill="#90959c" d="M715 763v3h-4v2l3 1-5-1v-5c2.49-1.245 3.41-.777 6 0"/><path fill="#91979e" d="M537 762c2.125.938 2.125.938 4 2v2l-2 1 2 1a88 88 0 0 1-5 1c-1-1-1-1-1.062-3.562L535 763z"/><path fill="#90959c" d="M442 763v3h-4v2l3 1-5-1v-5c2.49-1.245 3.41-.777 6 0m-244 0v3h-4v2l3 1-5-1v-5c2.49-1.245 3.41-.777 6 0"/><path fill="#91979e" d="M161 762c2.125.938 2.125.938 4 2v2l-2 1 2 1a88 88 0 0 1-5 1c-1-1-1-1-1.062-3.562L159 763z"/><path fill="#565659" d="M401 762h5v6h-3v3l-2 1z"/><path fill="#332922" d="m119 740 5 1-1 5h-4z"/><path fill="#8c9198" d="m604 658 4 1v6h-5l.5-1.812c.611-2.301.611-2.301.5-5.188"/><path fill="#9195a3" d="M162 560c2.125.938 2.125.938 4 2v2l-2 1 2 1a88 88 0 0 1-5 1c-1-1-1-1-1.062-3.562L160 561z"/><path fill="#d38eb6" d="M126 537q2.514.428 5 1v6l-4 1 2-1v-5c-2.33.959-2.33.959-4 4a100 100 0 0 1 0-5z"/><path fill="#8c9298" d="m160 462 4 1v6h-5l.5-1.812c.611-2.301.611-2.301.5-5.188"/><path fill="#91989e" d="M220 462c2.125.938 2.125.938 4 2v2l-2 1 2 1a88 88 0 0 1-5 1c-1-1-1-1-1.062-3.562L218 463z"/><path fill="#8991a2" d="m541 363 4 1v6h-5l.5-1.812c.611-2.301.611-2.301.5-5.188m-13 0 4 1v6h-5l.5-1.812c.611-2.301.611-2.301.5-5.188"/><path fill="#8e95a6" d="M695 363c2.125.938 2.125.938 4 2v2l-2 1 2 1a88 88 0 0 1-5 1c-1-1-1-1-1.062-3.562L693 364z"/><path fill="#848c9d" d="M116 361h7v2h-2v7h-2v-7h-3z"/><path fill="#a296d5" d="M82 341c7.385-.492 7.385-.492 10.5 2l1.5 2h-3l-1-1a75 75 0 0 0-4.562-.062l-2.504.027L81 344z"/><path fill="#282a48" d="m119 341 5 1-1 5h-4z"/><path fill="#8999a6" d="M264 263h2v2l3 1v6h-1v-5h-2v5h-2z"/><path fill="#8897a0" d="M494 168v3h-4v2l3 1-5-1v-5c2.49-1.245 3.41-.777 6 0"/><path fill="#8a99a2" d="M173 167c2.125.938 2.125.938 4 2v2l-2 1 2 1a88 88 0 0 1-5 1c-1-1-1-1-1.062-3.562L171 168z"/><path fill="#808f98" d="M116 165h7v2h-2v7h-2v-7h-3z"/><path fill="#58bc97" d="M197.188 144.375 199 145v2l-4-1v5l2 1-4-1-1-5c3-2 3-2 5.188-1.625"/><path fill="#667385" d="m208 76 4 1v6h-5l.5-1.812c.611-2.301.611-2.301.5-5.188"/><path fill="#60686f" d="M69 56h4v6l-5 1c0-2.621.313-4.51 1-7"/><path fill="#566272" d="M668 843c2.063.438 2.063.438 4 1l-1 5h-4a100 100 0 0 1 0-5zm-448 0c2.063.438 2.063.438 4 1l-1 5h-4a100 100 0 0 1 0-5z"/><path fill="#5f6c7c" d="m715 843 4 1v5l-5-1zm-283 0 4 1v5l-5-1zm-126 0 4 1v5l-5-1zm-115 0 4 1v5l-5-1z"/><path fill="#6b7889" d="m312 841 5 2v6h-2v-5h-2v5h-2q-.062-3.5 0-7z"/><path fill="#91969e" d="M150 782c2.063.438 2.063.438 4 1v3h-4v2l3 1-5-1c.875-4.875.875-4.875 2-6m443-20c2.063.438 2.063.438 4 1v3h-4v2l3 1-5-1c.875-4.875.875-4.875 2-6"/><path fill="#dfa568" d="M178 741h5l-1 2c.892 2.117.892 2.117 2 4-1 1-1 1-3.562 1.063L178 748l-1-2 5 1v-2l-4-1z"/><path fill="#91969e" d="M657 658c2.063.438 2.063.438 4 1v3h-4v2l3 1-5-1c.875-4.875.875-4.875 2-6"/><path fill="#2d2520" d="m205 635 4 1v5l-5-1z"/><path fill="#de96bf" d="M183 538h2v5h3v-5h1v7h-6z"/><path fill="#c182a8" d="M169 537h5v2h-2v6h-3z"/><path fill="#969da3" d="m234 460 4 1c-.875 4.875-.875 4.875-2 6l2 2h-6l4-7-3 1z"/><path fill="#8f97a7" d="M480 363c2.125.938 2.125.938 4 2v2l-2 1 1 2-5-1v-5z"/><path fill="#8d95a6" d="M380 363c2.063.438 2.063.438 4 1v3h-4v2l3 1-5-1c.875-4.875.875-4.875 2-6"/><path fill="#ab9ee0" d="M245 342h1q.039 2.219.063 4.438l.035 2.496C246 351 246 351 245 352c-1.666.04-3.334.043-5 0l-1-2h5l-.062-3.437C244 343 244 343 245 342"/><path fill="#7f8f9d" d="m228 265 1.875 1.063L232 267l2-1c-.498 3.735-.875 5.812-3 9h-2v-2h2l-1.5-2.875C228 267 228 267 228 265"/><path fill="#8a99a7" d="M214 265c2.125.938 2.125.938 4 2v2l-2 1 1 2-5-1v-5z"/><path fill="#6cb9df" d="M135 244h1q.039 2.219.063 4.438l.035 2.496C136 253 136 253 135 254c-1.666.04-3.334.043-5 0l-1-2h5l-.062-3.437C134 245 134 245 135 244"/><path fill="#52666d" d="m204 167 4 1 1 5-2 1-3-1z"/><path fill="#62d0a6" d="m225 144 6 1v7h-1v-6l-2 1c-.656 2.527-.656 2.527-1 5h-2z"/><path fill="#d5dadf" d="M243.563 53.938 246 54l-2 2c-.167 3.083-.167 3.083 0 6l-4-1c-.043-2-.04-4 0-6 1-1 1-1 3.563-1.062"/><path fill="#979da5" d="M542 763h2v5c2.33-.959 2.33-.959 4-4l-1 5h-3v3h-2z"/><path fill="#e6a96a" d="M94 747h1c.42 4.291.455 6.351-2.062 9.938C89.35 759.455 87.29 759.42 83 759v-1l3.313-.812c4.09-1.197 4.09-1.197 6.687-4.188.727-3.108.727-3.108 1-6"/><path fill="#595a5d" d="M530 660h3l1 2h5l-1 3h-6z"/><path fill="#979da5" d="M410 659h2v5c2.33-.959 2.33-.959 4-4l-1 5h-3v3h-2z"/><path fill="#e6a96a" d="M94 642h1c.42 4.291.455 6.351-2.062 9.938C89.35 654.455 87.29 654.42 83 654v-1l3.313-.812c4.09-1.197 4.09-1.197 6.687-4.188.727-3.108.727-3.108 1-6"/><path fill="#ce9861" d="m189 634 4 1v2h-2l2 6-4-1c-1.125-5.75-1.125-5.75 0-8"/><path fill="#674661" d="M86 571h1v5h4v3c-1.875.625-1.875.625-4 1l-2-2c.375-3.625.375-3.625 1-7"/><path fill="#949cac" d="M325 364h2v5c2.33-.959 2.33-.959 4-4l-1 5h-3v3h-2zm-156 0h2v5c2.33-.959 2.33-.959 4-4l-1 5h-3v3h-2z"/><path fill="#5f6c7c" d="M478 841h2v2l3 1v5l-1-4h-2v4h-2z"/><path fill="#90969e" d="M232 782c2.063.438 2.063.438 4 1v6h-5l1-2a280 280 0 0 0-1-4zm212-20c2.063.438 2.063.438 4 1v6h-5l1-2a280 280 0 0 0-1-4zm-277 0c2.063.438 2.063.438 4 1v6h-5l1-2a280 280 0 0 0-1-4z"/><path fill="#bb8b59" d="M78 748h1l.938 3.438c.691 3.35.691 3.35 2.062 4.562q3.493.553 7 1v1c-3.187.813-3.187.813-7 1-3-2.062-3-2.062-5-5 .188-3.312.188-3.312 1-6"/><path fill="#d29b62" d="M119 738c2.375-.125 2.375-.125 5 0 2 2 2 2 2.125 5.125L126 746h-3v-5l-4-2z"/><path fill="#76797f" d="M641 658h8l-2 1v6h-3v-5l-3-1z"/><path fill="#92989f" d="M567 656c2.5 1.125 2.5 1.125 5 3 .313 3.188.313 3.188 0 6h-2v-5h-2v5h-1z"/><path fill="#76797e" d="M397 656h2c1.478 2.957 1.06 5.742 1 9h-3z"/><path fill="#90969e" d="M164 658c2.063.438 2.063.438 4 1v6h-5l1-2a280 280 0 0 0-1-4z"/><path fill="#bb8b59" d="M78 643h1l.938 3.438c.691 3.35.691 3.35 2.062 4.562q3.493.553 7 1v1c-3.187.813-3.187.813-7 1-3-2.062-3-2.062-5-5 .188-3.312.188-3.312 1-6"/><path fill="#885d7b" d="m176 537 4 1-2 6-4-3z"/><path fill="#92999f" d="M258 460c2.5 1.125 2.5 1.125 5 3 .313 3.188.313 3.188 0 6h-2v-5h-2v5h-1z"/><path fill="#8f97a7" d="M572 361c2.5 1.125 2.5 1.125 5 3 .313 3.188.313 3.188 0 6h-2v-5h-2v5h-1z"/><path fill="#939bab" d="M240 364c3 0 3 0 6 1v2h-5v2l4-1v2h-5a88 88 0 0 1-1-5z"/><path fill="#a498d7" d="M202 339h5l1 3-4-1v2l2 1h-5z"/><path fill="#21475c" d="M86 278q2.514.428 5 1c-1.37 3.161-1.99 3.993-5 6-1-1-1-1-1.125-3.5C85 279 85 279 86 278"/><path fill="#556977" d="M154 265h2l1 5-4 2c-.625-2.375-.625-2.375-1-5z"/><path fill="#8b9aa3" d="M248 165c2.5 1.125 2.5 1.125 5 3 .313 3.188.313 3.188 0 6h-2v-5h-2v5h-1z"/><path fill="#8898a1" d="M392 167c2.063.438 2.063.438 4 1v6h-5l1-2a280 280 0 0 0-1-4zm-69 0c2.063.438 2.063.438 4 1v6h-5l1-2a280 280 0 0 0-1-4z"/><path fill="#c4c9ce" d="m212 51 1 3-8-1-1 3c.375-2.437.375-2.437 1-5 2.667-1.333 4.167-.671 7 0"/><path fill="#647081" d="M544 843c2.063.438 2.063.438 4 1v5h-5v-3h3l-3-2z"/><path fill="#667384" d="M637 843c2.063.438 2.063.438 4 1v5h-5v-3h3l-3-2z"/><path fill="#566372" d="M418 841h6v2h-2v6h-2v-6h-2z"/><path fill="#92979f" d="m450 762 4 1v6h-5v-2h3l-3-1zm-277 0 4 1v6h-5v-2h3l-3-1z"/><path fill="#999fa7" d="M646 763c3 0 3 0 6 1v2h-5v2l4-1v2h-5a88 88 0 0 1-1-5z"/><path fill="#5a5b5e" d="M431 660h2l1 2h5l-1 3h-6z"/><path fill="#999fa7" d="M153 659c3 0 3 0 6 1v2h-5v2l4-1v2h-5a88 88 0 0 1-1-5z"/><path fill="#8f969b" d="m194 462 5 1v6h-1v-5h-2v5h-2z"/><path fill="#92989e" d="m177 462 4 1v6h-5v-2h3l-3-1z"/><path fill="#e0bd46" d="M199 437h3v10h-2c-1-6.625-1-6.625-1-10"/><path fill="#6a7889" d="m198 76 4 1v6h-5l1-2 2 1v-2h-3zm-45 0 4 1v6h-5l1-2 2 1v-2h-3z"/><path fill="#485159" d="m249 54 2 1 1 3c1.997 1.685 1.997 1.685 4 3l-5-1-2 4z"/><path fill="#dce1e5" d="M221 54h5v2h-3v7h-2z"/><path fill="#667383" d="M455 843c2.063.438 2.063.438 4 1l-1 5h-4a100 100 0 0 1 0-5zm-85 0c2.063.438 2.063.438 4 1l-1 5h-4a100 100 0 0 1 0-5zm-24 0c2.063.438 2.063.438 4 1l-1 5h-4a100 100 0 0 1 0-5zm-71 0c2.063.438 2.063.438 4 1l-1 5h-4a100 100 0 0 1 0-5z"/><path fill="#9aa0a9" d="M218 783h5v3h-4v2l4-1v2h-5a88 88 0 0 1-1-5z"/><path fill="#949aa1" d="M226 782c2.063.438 2.063.438 4 1 0 3 0 3-1 6h-4l1-2a280 280 0 0 0-1-4z"/><path fill="#9da3ab" d="M470 763h5v3h-4v2l4-1v2h-5a88 88 0 0 1-1-5zm-183 0h5v3h-4v2l4-1v2h-5a88 88 0 0 1-1-5zm-70 0h5v3h-4v2l4-1v2h-5a88 88 0 0 1-1-5z"/><path fill="#949aa1" d="M515 762c2.063.438 2.063.438 4 1 0 3 0 3-1 6h-4l1-2a280 280 0 0 0-1-4z"/><path fill="#dca266" d="m234 739 3 1v8h-3c-.879-6.152-.879-6.152-1-8z"/><path fill="#9da3ab" d="M495 659h5v3h-4v2l4-1v2h-5a88 88 0 0 1-1-5z"/><path fill="#616266" d="m211 658 4 2-1 4-4-1z"/><path fill="#949aa1" d="M588 658c2.063.438 2.063.438 4 1 0 3 0 3-1 6h-4l1-2a280 280 0 0 0-1-4z"/><path fill="#d89f65" d="M221 634h2v2l2 1h-2l2 6-4-1c-1.125-5.75-1.125-5.75 0-8"/><path fill="#9ca1af" d="M231 561h5v3h-4v2l4-1v2h-5a88 88 0 0 1-1-5z"/><path fill="#dd95bf" d="m229 536 3 1v8h-3c-.879-6.152-.879-6.152-1-8z"/><path fill="#959ca2" d="m405 462 4 1v6h-5l3-1v-2l-2-1z"/><path fill="#949ba1" d="M357 462c2.063.438 2.063.438 4 1 0 3 0 3-1 6h-4l1-2a280 280 0 0 0-1-4z"/><path fill="#959ca2" d="m319 462 4 1v6h-5l3-1v-2l-2-1z"/><path fill="#494123" d="M119 439h7v7h-2v-4l-5-1z"/><path fill="#335" d="M86 376h5v6l-5-1z"/><path fill="#9aa2b2" d="M579 364h5v3h-4v2l4-1v2h-5a88 88 0 0 1-1-5zm-65 0h5v3h-4v2l4-1v2h-5a88 88 0 0 1-1-5zm-59 0h5v3h-4v2l4-1v2h-5a88 88 0 0 1-1-5z"/><path fill="#9199a9" d="M473 363c2.063.438 2.063.438 4 1 0 3 0 3-1 6h-4l1-2a280 280 0 0 0-1-4z"/><path fill="#b3a6ea" d="m178 339 3 1-1 9h-2c-1.125-6.625-1.125-6.625 0-10"/><path fill="#93a2ac" d="M258 168h5v3h-4v2l4-1v2h-5a88 88 0 0 1-1-5z"/><path fill="#96a5ae" d="M154 168h5v3h-4v2l4-1v2h-5a88 88 0 0 1-1-5z"/><path fill="#8d9ca5" d="M317 167c2.063.438 2.063.438 4 1 0 3 0 3-1 6h-4l1-2a280 280 0 0 0-1-4z"/><path fill="#67d9ac" d="M133 145c2.063.438 2.063.438 4 1h-3v2l4-1v2h-4v2l3 1-5-1a100 100 0 0 1 0-5z"/><path fill="#60cda4" d="m148 143 3 1v8h-3c-.879-6.152-.879-6.152-1-8z"/><path fill="#748295" d="M105 77h5v3h-4v2l4-1v2h-5a88 88 0 0 1-1-5z"/><path fill="#515e6e" d="m326 75 3 1v7h-3z"/><path fill="#dde1e6" d="m95 54 3 1-1 6h2v2h-4z"/><path fill="#4d555d" d="m121 54 2 1 1 3c1.997 1.685 1.997 1.685 4 3l-5-1-1 3h-1z"/><path fill="#bbc4cc" d="m416 889 4 1v7h-3z"/><path fill="#414d5a" d="M514 843h5v5h-5z"/><path fill="#272323" d="m564 762 4 1-1 5h-3z"/><path fill="#d9a065" d="M168 738h2v8l3 1c-1.937.563-1.937.563-4 1-1-1-1-1-1.098-3.066l.036-2.496.027-2.504z"/><path fill="#91969d" d="m699 658 3 1v6h-2v-5h-2v5h-1v-6z"/><path fill="#767a7f" d="M559 656h2v9h-2l-2-7h2z"/><path fill="#9094a2" d="m284 560 3 1v6h-2v-5h-2v5h-1v-6z"/><path fill="#77526e" d="M124 539h5v5c-1.937.563-1.937.563-4 1-1-1-1-1-1.062-3.562z"/><path fill="#82878c" d="m282 460 2 1v9l-3 1z"/><path fill="#2c2d28" d="M148 460h1v9l-5-1v-4l4 1z"/><path fill="#e3bf47" d="m126 438 3 1v8h-3c-1.125-6.75-1.125-6.75 0-9"/><path fill="#9aa3b3" d="M403 364h5v3h-4v2l4-1v2h-5a88 88 0 0 1-1-5z"/><path fill="#8d95a5" d="m492 363 3 1v6h-2v-5h-2v5h-1v-6z"/><path fill="#a79cdc" d="M136 344h6v5h-6z"/><path fill="#585580" d="M227 340h1v9l-3-1c.875-6.875.875-6.875 2-8"/><path fill="#445867" d="M321 266h-2l1 9h-2l-.875-2.875c-.893-3.177-.893-3.177-3.125-5.125 3.625-2.125 3.625-2.125 7-1"/><path fill="#97a5b0" d="M374 168h5v3h-4v2l4-1v2h-5a88 88 0 0 1-1-5z"/><path fill="#82929b" d="m328 167 5 1-1 6h-3z"/><path fill="#6b7d85" d="M240 165h2v9h-2l-2-7h2z"/><path fill="#83939b" d="m404 166 3 1v7h-3v-5l-2-1z"/><path fill="#dfe4e8" d="M81 54h3c.255 3.064.219 4.632-1.375 7.313L81 63h-2z"/><path fill="#687587" d="m174 843 3 1-1 5-4-1c.875-3.875.875-3.875 2-5"/><path fill="#434143" d="m224 783 1 3 3 1c-2.572 1.62-3.677 2.044-6.75 1.625L219 788v-2h4z"/><path fill="#83878d" d="M145 780h2v9h-2c-.845-3.378-1.108-5.675 0-9"/><path fill="#91969e" d="m606 760 3 1-1 8h-2c-1.125-6.75-1.125-6.75 0-9"/><path fill="#595a5d" d="M142 760c1.097 3.29.8 4.713 0 8l-3-1c-.687-2.062-.687-2.062-1-4l4-1z"/><path fill="#585666" d="M262 558c1.097 3.29.8 4.713 0 8l-3-1c-.687-2.062-.687-2.062-1-4l4-1z"/><path fill="#585766" d="M310 560h6v3l-1.875.375c-2.316.497-2.316.497-4.125 2.625z"/><path fill="#e0bc46" d="M118 437h5l1 3-5-1 1 3h-3z"/><path fill="#757c8e" d="M215 361h2c1.125 6.75 1.125 6.75 0 9h-2z"/><path fill="#625d8b" d="m84 345-1 6h-3l-1-4c3-2 3-2 5-2"/><path fill="#6ebce2" d="M118 241h5l1 3-5-1 1 3h-3z"/><path fill="#687587" d="M276 76c2.125.938 2.125.938 4 2v2h-5l-1 2v-5zm-52 0c2.125.938 2.125.938 4 2v2h-5l-1 2v-5zm-39 0c2.125.938 2.125.938 4 2v2h-5l-1 2v-5z"/><path fill="#707e90" d="m129 76 3 1 1 5-5 1 1-2a280 280 0 0 0-1-4z"/><path fill="#17202a" d="m203 57 7 1 1 3h-4v-2h-3l-1 2z"/><path fill="#c7d1d8" d="m410 891 2 1-1 3h3l1-3-1 5-5-1z"/><path fill="#c5ced6" d="m427 889 3 1v7h-3c-1.125-5.75-1.125-5.75 0-8"/><path fill="#4f5b6a" d="M696 841h2v8l-3-1z"/><path fill="#75777d" d="M177 780h2l1 8-3 1z"/><path fill="#58585c" d="m132 780 1 2c2.017 1.134 2.017 1.134 4 2l-2 4h-2z"/><path fill="#5b5b5f" d="M468 763h-2v5l-3-1c-.687-2.062-.687-2.062-1-4 2.49-1.245 3.41-.777 6 0"/><path fill="#82868c" d="M577 760h2v9h-2c-.845-3.378-1.108-5.675 0-9"/><path fill="#555559" d="M542 762h5l1 2c-.937 2.125-.937 2.125-2 4h-2v-5z"/><path fill="#555558" d="M273 760h1v9l-6-1v-2h4z"/><path fill="#5b5b5f" d="M689 659h-2v5l-3-1c-.687-2.062-.687-2.062-1-4 2.49-1.245 3.41-.777 6 0"/><path fill="#565659" d="M566 656h1v9l-3-1c.875-5.75.875-5.75 2-8"/><path fill="#555559" d="M410 658h5l1 2c-.937 2.125-.937 2.125-2 4h-2v-5z"/><path fill="#58585c" d="m236 656 1 2c2.017 1.134 2.017 1.134 4 2l-2 4h-2z"/><path fill="#e3a769" d="M142 636c2.063.438 2.063.438 4 1h-3l.938 1.875L146 643l-5-1a100 100 0 0 1 0-5z"/><path fill="#5a5868" d="M176 561h-2v5l-3-1c-.687-2.062-.687-2.062-1-4 2.49-1.245 3.41-.777 6 0"/><path fill="#828493" d="M141 560h4v2h-2v5h-2c-1.125-4.75-1.125-4.75 0-7"/><path fill="#404240" d="M354 463h2v3l3 1-3 2c-3.187-.875-3.187-.875-6-2v-1h5z"/><path fill="#545a6e" d="m226 362 4 2-1 5h-3z"/><path fill="#53596e" d="M453 364h-2v5l-3-1c-.687-2.062-.687-2.062-1-4 2.49-1.245 3.41-.777 6 0"/><path fill="#4d5368" d="M325 363h5l1 2c-.937 2.125-.937 2.125-2 4h-2v-5zm-156 0h5l1 2c-.937 2.125-.937 2.125-2 4h-2v-5z"/><path fill="#5a5682" d="M130 343h2v5h-2l-1 4c-.625-2.812-.625-2.812-1-6z"/><path fill="#465b61" d="M247 165h1v9l-3-1c.875-5.75.875-5.75 2-8"/><path fill="#7b8c94" d="M459 167h4v2h-2v5h-2c-1.125-4.75-1.125-4.75 0-7"/><path fill="#60cda4" d="M91 157h2v2h2v2h-2v2h-2v-2h-2v-2h2z"/><path fill="#50ad8c" d="m165 144 5 1-1 4-1-3-4 1zm1 5 3 1-3 1z"/><path fill="#2a333c" d="m213 52 2 2-3 3-5-2v-2l6 1z"/><path fill="#303a42" d="M403 890h6v2h-5v2l2 1h-4z"/><path fill="#697687" d="m123 844 1 4c1.985-.267 1.985-.267 4-1l1-3h1v5h-7z"/><path fill="#657283" d="m441 843 3 1v5h-4a100 100 0 0 1 0-5z"/><path fill="#4a5664" d="M581 843c2.063.438 2.063.438 4 1l-1 4-4 1a100 100 0 0 1 0-5z"/><path fill="#2d2a2b" d="m675 764-1 3-5 1v-4c3.75-1.125 3.75-1.125 6 0"/><path fill="#8a8e96" d="m129 676 3 1v7h-3z"/><path fill="#92979f" d="m727 657 3 1v7h-3z"/><path fill="#4a494c" d="m674 657 6 3a91 91 0 0 1-4 4h-2z"/><path fill="#322f30" d="M357 660h6l-1 4-5-1z"/><path fill="#85898f" d="M198 658h5l-1 2h-2v5h-2z"/><path fill="#92989f" d="m328 657 3 1v7h-3z"/><path fill="#9296a4" d="m149 559 3 1v7h-3z"/><path fill="#707578" d="m199 463 1 3 4-1 1 3-6 1z"/><path fill="#92999f" d="m379 461 3 1v7h-3zm-7 0 3 1v7h-3z"/><path fill="#40455b" d="m548 362 6 3a91 91 0 0 1-4 4h-2z"/><path fill="#8b93a4" d="m534 364 1 2h2v-2h2l-2 6h-2z"/><path fill="#282c44" d="M219 365h6l-1 4-5-1z"/><path fill="#ab9fe0" d="m164 341 4 2-2 6h-2z"/><path fill="#242643" d="m90 343-2 2-2-1-1 3-1-2h-2l-1 2v-3c2.957-1.478 5.742-1.06 9-1"/><path fill="#172f3f" d="m340 267-1 3-5 1v-4c3.75-1.125 3.75-1.125 6 0"/><path fill="#81909e" d="m278 264 3 1v7h-3z"/><path fill="#8493a1" d="m183 264 3 1-1 6 2 1-4-1z"/><path fill="#63767d" d="m273 168 1 3 4-1 1 3-6 1z"/><path fill="#81919a" d="m224 166 3 1v7h-3z"/><path fill="#8b9aa3" d="m167 166 3 1v7h-3z"/><path fill="#6a7789" d="m134 75 3 1v7h-3z"/><path fill="#c6cbd0" d="m258 59 1 3c-1 1-1 1-4.562 1.063L251 63v-3l7 1z"/><path fill="#656c74" d="m130 55 2 1v5l-2 1v-4l-4-1c1.875-1.062 1.875-1.062 4-2"/><path fill="#a0a6ac" d="M159 53c2.125.938 2.125.938 4 2l-1 3h-4l-1-4z"/><path fill="#c2c7cc" d="M215 51h3v3h-2v8h-1c-1.125-7.625-1.125-7.625 0-11"/><path fill="#53606f" d="M591 843c2.063.438 2.063.438 4 1l-2 5h-2a88 88 0 0 1-1-5z"/><path fill="#505c6b" d="M445 841h2l1 7-3 1zm-62 0h2l1 7-3 1z"/><path fill="#5b6878" d="M302 842h2v7h-2v-3l-4-1h4z"/><path fill="#4a5765" d="M720 841h2l1 8h-3z"/><path fill="#4a5665" d="M131 841h2l1 8h-3z"/><path fill="#888c93" d="M169 782h4v2h-2v5h-2z"/><path fill="#8c9198" d="M212 762h4v2h-2v5h-2z"/><path fill="#8e939b" d="m336 761 3 1v7l-3-1z"/><path fill="#d69e64" d="M208 745h8l-1 3h-6z"/><path fill="#8c9198" d="M490 658h4v2h-2v5h-2z"/><path fill="#8c8f9d" d="M226 560h4v2h-2v5h-2z"/><path fill="#878a98" d="M177 560h4v2h-2v5h-2z"/><path fill="#8c9298" d="M189 462h4v2h-2v5h-2z"/><path fill="#2c2d29" d="m256 463 1 4-5 1v-4z"/><path fill="#988235" d="m223 441 3 2 3 1v2l-6 1z"/><path fill="#8890a1" d="M557 363h4v2h-2v5h-2zm-381 0h4v2h-2v5h-2zm-15 0h4v2h-2v5h-2z"/><path fill="#838b9c" d="M235 363h4v2h-2v5h-2z"/><path fill="#7e8e9b" d="M301 265h4v2h-2v5h-2zm-52 0h4v2h-2v5h-2z"/><path fill="#7a8b98" d="M149 263h2v9l-3-1z"/><path fill="#84939c" d="M149 167h4v2h-2v5h-2z"/><path fill="#3e4a58" d="m228 78 1 3-1 2h-5v-3h5z"/><path fill="#6d7b8d" d="m203 75 3 1v7l-3-1z"/><path fill="#475361" d="M486 843h2v5h-4c.875-3.875.875-3.875 2-5"/><path fill="#1a242e" d="M93 843h3v5l-4-1z"/><path fill="#647182" d="m709 841 2 1-1 7h-2q-.062-3.5 0-7z"/><path fill="#2b231f" d="M86 776h4l-2 6-2-1z"/><path fill="#ecae6d" d="M87 746h3l-1 6-4 1 3-5-2-1z"/><path fill="#906c48" d="m89 672 4 1-2 4-3-1z"/><path fill="#332922" d="m81 670 2 1v5h-3a100 100 0 0 1 0-5z"/><path fill="#ecae6d" d="M87 641h3l-1 6-4 1 3-5-2-1z"/><path fill="#634c35" d="M244 637h6v2h-4l-1 4h-1z"/><path fill="#422e44" d="M89 542c1.991 2.986 2.941 5.597 4 9l-2 1c-3.077-4.308-3.077-4.308-2.687-7.812z"/><path fill="#6f4c67" d="M219 539h6v2h-4l-1 4h-1z"/><path fill="#4c5267" d="M409 364h1v6l-6-1v-2h4z"/><path fill="#6e699a" d="M156 339h5l-1 5h-3z"/><path fill="#44595f" d="M380 168h1v6l-6-1v-2h4z"/><path fill="#2e454a" d="m160 168 4 2-3 1-2 2h-4v-2h4z"/><path fill="#2c695a" d="M211 146h2v5l-4 1z"/><path fill="#0f2f2f" d="m203 146 5 1 1 4h-2v-2l-4 1z"/><path fill="#dadfe4" d="m129 59 1 4h-6l-1-3 6 1z"/><path fill="#bec3c9" d="M258 54v2h-7v-2c2.667-1.333 4.167-.671 7 0"/></svg>