<svg xmlns="http://www.w3.org/2000/svg" width="813" height="495"><path fill="#0a1623" d="M0 0h813v495H0z"/><path fill="#070f1f" d="M0 0h813v495H0zm62.254 81.96c-4.55 7.4-4.685 13.54-4.648 22.115q-.007 2.002-.019 4.006a1826 1826 0 0 0-.008 10.977c.002 3.95-.012 7.9-.025 11.85-.02 7.736-.025 15.472-.023 23.207a13585 13585 0 0 1-.017 24.304l-.003 2.733a33934 33934 0 0 0-.01 51.17c.005 15.597-.016 31.194-.05 46.79a20069 20069 0 0 0-.043 48.065c.002 8.992-.003 17.984-.028 26.976a4405 4405 0 0 0-.006 22.968c.01 3.904.01 7.807-.01 11.712q-.028 5.367.008 10.735c.006 1.898-.012 3.796-.031 5.694.086 8.38 1.604 15.325 7.414 21.648 6.7 6.318 13.435 7.535 22.324 7.473l3.044.015c3.376.013 6.75.005 10.126-.004q3.661.007 7.322.019 7.968.02 15.935.012c7.899-.007 15.797.003 23.696.017 14.928.025 29.855.03 44.783.027a45018 45018 0 0 1 39.549.013l2.49.002 4.995.003q34.8.024 69.6.018h2.65l21.311-.005q41.56-.008 83.12.042a70849 70849 0 0 0 103.332.05l2.476-.001q18.506 0 37.013.03 21.046.032 42.093.005c7.852-.01 15.704-.007 23.556.017 5.862.015 11.725.005 17.587-.015q3.558-.006 7.117.013c3.224.018 6.446.004 9.67-.017l2.792.037c7.455-.103 14.005-2.319 19.586-7.416 7.163-7.656 7.516-15.245 7.472-25.32q.007-2.002.019-4.006c.016-3.659.014-7.318.008-10.977-.002-3.95.012-7.9.025-11.85.02-7.736.025-15.472.023-23.207a13585 13585 0 0 1 .017-24.304l.003-2.733c.019-17.057.018-34.114.01-51.17-.005-15.597.016-31.194.05-46.79q.05-24.032.043-48.065c-.002-8.992.003-17.984.028-26.976q.033-11.484.006-22.968c-.01-3.904-.01-7.807.01-11.712q.028-5.367-.008-10.735c-.006-1.898.012-3.796.031-5.694-.086-8.38-1.604-15.325-7.414-21.648-6.7-6.318-13.435-7.535-22.324-7.473l-3.044-.015c-3.376-.013-6.75-.005-10.126.004q-3.661-.007-7.322-.019-7.968-.02-15.935-.012c-7.899.007-15.797-.003-23.696-.017-14.928-.025-29.855-.03-44.783-.027a45018 45018 0 0 1-39.549-.013l-2.49-.002-4.995-.003q-34.8-.024-69.6-.018h-2.65l-21.311.005q-41.56.007-83.12-.042a70849 70849 0 0 0-103.332-.05l-2.476.001q-18.507 0-37.013-.03-21.046-.032-42.093-.005-11.778.017-23.556-.017c-5.862-.015-11.725-.005-17.587.015q-3.558.006-7.117-.013a811 811 0 0 0-9.67.017l-2.792-.037c-9.095.126-16.593 3.572-22.41 10.622"/><path fill="#0d1820" d="m103.292 197.746 2.86-.01c3.18-.009 6.36-.003 9.541.003l6.889-.011c6.324-.01 12.648-.008 18.972-.004 6.115.003 12.23-.005 18.345-.012q21.084-.02 42.168-.014a57633 57633 0 0 0 44.282-.01q32.76-.013 65.519-.008h2.495l12.524.003h2.513l5.03.002q39.133.007 78.265-.021a104151 104151 0 0 1 99.606-.026q17.426 0 34.852-.016 19.817-.019 39.633-.002 10.114.012 20.23-.005 9.255-.014 18.51.007 3.353.004 6.704-.008c3.034-.01 6.067-.002 9.1.011l2.64-.022c7.277.065 13.677 1.629 19.28 6.584l1.89 1.606c5.709 6.776 6.472 13.026 6.298 21.707l.021 3.012c-.08 9.355-2.172 15.852-8.623 22.793-4.538 4.19-9.84 5.817-15.895 5.824l-2.44.01-2.67-.005-2.856.007q-4.774.009-9.548.006l-6.886.011q-9.489.014-18.978.017-9.174.005-18.349.02c-16.388.02-32.776.03-49.164.04l-23.253.014a201910 201910 0 0 1-84.579.042h-2.503l-12.553.004h-2.517q-40.4.014-80.798.065a78450 78450 0 0 1-94.778.058h-2.332c-12.387.003-24.774.019-37.161.04q-18.672.03-37.343.016c-6.745-.005-13.49-.003-20.235.016q-9.258.026-18.516.001-3.353-.004-6.707.014c-3.035.015-6.068.006-9.103-.01l-2.64.031c-7.43-.084-13.574-2.466-18.844-7.839l-1.645-1.613c-5.067-6.811-5.034-13.274-4.98-21.512l-.061-3.314c.005-8.13 1.248-13.585 6.682-19.709l2.254-1.914 2.246-1.96c5.398-3.88 10.184-3.952 16.608-3.92"/><path fill="#085244" d="m104.63 360.376 2.86-.02c3.163-.016 6.325.003 9.488.023q3.435-.007 6.872-.02a3212 3212 0 0 1 18.883.017c6.09.014 12.181.004 18.272-.005 13.227-.019 26.453-.009 39.68.012q17.361.028 34.724.026h2.326l9.349-.002c29.235-.005 58.47.018 87.706.054a53100 53100 0 0 0 82.928.037h2.498l12.452-.003 2.482-.001a74136 74136 0 0 1 67.449.022l2.335.002 2.331.001 4.647.003q16.202.012 32.403.008 20.88-.004 41.757.032c6.713.012 13.426.019 20.139.013q9.213-.006 18.426.023 3.338.008 6.674-.001c3.02-.007 6.04.004 9.06.02l2.627-.02c5.901.059 11.855.705 16.53 4.713 5.392 6.014 5.815 12.398 5.784 20.065l.05 2.46c.005 6.884-1.226 12.418-5.55 17.978-6.362 4.948-12.66 5.628-20.432 5.565l-2.857.013c-3.159.01-6.317 0-9.477-.01q-3.43.005-6.863.014c-6.287.013-12.574.006-18.86-.003-6.084-.006-12.168.002-18.251.01q-19.815.02-39.63.005-17.337-.011-34.676-.006l-2.323.001-9.336.003c-29.192.01-58.384 0-87.576-.015a70631 70631 0 0 0-77.823.001 100568 100568 0 0 1-96.741.01h-2.318q-17.33-.005-34.66.008-19.701.013-39.402-.01-10.057-.013-20.113-.001-9.2.013-18.397-.012-3.336-.005-6.67.006c-3.013.009-6.026 0-9.039-.014l-2.639.02c-5.653-.052-9.992-.907-14.338-4.863-5.412-6.987-5.782-11.59-5.829-20.285-.032-1.06-.065-2.12-.1-3.21-.047-7.031.763-11.758 5.538-17.04 5.621-4.685 10.455-5.725 17.63-5.624"/><path fill="#b0bac7" d="m103.292 197.746 2.86-.01c3.18-.009 6.36-.003 9.541.003l6.889-.011c6.324-.01 12.648-.008 18.972-.004 6.115.003 12.23-.005 18.345-.012q21.084-.02 42.168-.014a57633 57633 0 0 0 44.282-.01q32.76-.013 65.519-.008h2.495l12.524.003h2.513l5.03.002q39.133.007 78.265-.021a104151 104151 0 0 1 99.606-.026q17.426 0 34.852-.016 19.817-.019 39.633-.002 10.114.012 20.23-.005 9.255-.014 18.51.007 3.353.004 6.704-.008c3.034-.01 6.067-.002 9.1.011l2.64-.022c7.277.065 13.677 1.629 19.28 6.584l1.89 1.606c5.709 6.776 6.472 13.026 6.298 21.707l.021 3.012c-.08 9.355-2.172 15.852-8.623 22.793-4.538 4.19-9.84 5.817-15.895 5.824l-2.44.01-2.67-.005-2.856.007q-4.774.009-9.548.006l-6.886.011q-9.489.014-18.978.017-9.174.005-18.349.02c-16.388.02-32.776.03-49.164.04l-23.253.014a201910 201910 0 0 1-84.579.042h-2.503l-12.553.004h-2.517q-40.4.014-80.798.065a78450 78450 0 0 1-94.778.058h-2.332c-12.387.003-24.774.019-37.161.04q-18.672.03-37.343.016c-6.745-.005-13.49-.003-20.235.016q-9.258.026-18.516.001-3.353-.004-6.707.014c-3.035.015-6.068.006-9.103-.01l-2.64.031c-7.43-.084-13.574-2.466-18.844-7.839l-1.645-1.613c-5.067-6.811-5.034-13.274-4.98-21.512l-.061-3.314c.005-8.13 1.248-13.585 6.682-19.709l2.254-1.914 2.246-1.96c5.398-3.88 10.184-3.952 16.608-3.92M81 212c-2.969 4.936-2.368 10.148-2.375 15.75l-.074 3.21c-.029 7.69 1.083 13.217 6.23 19.063l1.719 1.352 1.719 1.398c3.274 2.255 5.844 3.476 9.853 3.481l2.45.018 2.678-.012 2.867.012c3.194.01 6.388.006 9.582.002l6.91.016a8247 8247 0 0 0 19.048.015c6.138 0 12.276.013 18.414.023 14.887.025 29.775.034 44.662.039h2.337l2.342.001q12.838.006 25.676.016a119079 119079 0 0 0 97.655.042h2.525q39.285.006 78.568.061a64215 64215 0 0 0 97.641.065h2.34c12.432.002 24.863.019 37.295.042q18.74.034 37.477.013c6.77-.008 13.539-.007 20.308.016q9.292.03 18.583-.003 3.366-.005 6.73.016c3.047.018 6.09.005 9.137-.015l2.65.038c6.858-.099 11.695-2.333 16.581-7.172 5.856-6.735 5.865-12.1 5.91-20.737.032-1.107.065-2.215.1-3.355.046-7.116-.796-11.947-5.538-17.395-4.065-4.07-8.179-7.247-14.072-7.254l-2.45-.018-2.678.012-2.867-.012c-3.194-.01-6.388-.006-9.582-.002l-6.91-.016a8247 8247 0 0 0-19.048-.015c-6.138 0-12.276-.013-18.414-.023-14.887-.025-29.775-.034-44.662-.039h-2.337l-2.342-.001q-12.838-.006-25.676-.016a119079 119079 0 0 0-100.18-.042q-39.285-.006-78.568-.061a64215 64215 0 0 0-97.641-.065h-2.34c-12.432-.002-24.863-.019-37.295-.042a12500 12500 0 0 0-37.477-.013c-6.77.008-13.539.007-20.308-.016a2777 2777 0 0 0-18.583.003q-3.366.005-6.73-.016c-3.047-.018-6.09-.005-9.137.015l-2.65-.038C91.985 200.471 86.19 204.825 81 212"/><path fill="#20725e" d="m98.072 200.746 2.45-.018 2.678.012 2.867-.012c3.194-.01 6.388-.006 9.582-.002l6.91-.016c6.35-.014 12.698-.016 19.048-.015 6.138 0 12.276-.013 18.414-.023 14.887-.025 29.775-.034 44.662-.039h2.337l2.342-.001q12.838-.006 25.676-.016a119079 119079 0 0 1 100.18-.042q39.285-.006 78.568-.061a64215 64215 0 0 1 97.641-.065h2.34c12.432-.002 24.863-.019 37.295-.042q18.74-.034 37.477-.013c6.77.008 13.539.007 20.308-.016q9.292-.03 18.583.003 3.366.005 6.73-.016c3.047-.018 6.09-.005 9.137.015l2.65-.038c6.858.099 11.695 2.333 16.581 7.172 5.856 6.735 5.865 12.1 5.91 20.737.032 1.107.065 2.215.1 3.355.046 7.116-.796 11.947-5.538 17.395-4.065 4.07-8.179 7.247-14.072 7.254l-2.45.018-2.678-.012-2.867.012c-3.194.01-6.388.006-9.582.002l-6.91.016a8247 8247 0 0 1-19.048.015c-6.138 0-12.276.013-18.414.023-14.887.025-29.775.034-44.662.039h-2.337l-2.342.001q-12.838.006-25.676.016c-25.843.02-51.686.037-77.53.04h-2.505l-17.62.002h-2.525q-39.285.006-78.568.061a64215 64215 0 0 1-97.641.065h-2.34c-12.432.002-24.863.019-37.295.042q-18.74.034-37.477.013c-6.77-.008-13.539-.007-20.308.016q-9.292.03-18.583-.003-3.366-.005-6.73.016c-3.047.018-6.09.005-9.137-.015l-2.65.038c-6.871-.099-11.64-2.357-16.581-7.137-5.854-6.614-5.864-12.913-5.91-21.335l-.1-3.197c-.047-6.975.936-11.636 5.538-16.99 4.06-4.072 8.181-7.247 14.072-7.254M85.688 210.5l-1.489 1.781c-3.28 4.701-2.422 10.552-2.449 16.031l-.062 3.131c-.034 6.623.354 11.35 5.03 16.42l1.782 1.45 1.781 1.488c4.196 2.928 8.882 2.34 13.77 2.33l2.855.007q4.78.006 9.56.002l6.888.01q9.498.011 18.997.01 9.18.003 18.361.014c16.402.016 32.803.022 49.205.027l23.268.01a225074 225074 0 0 0 102.206.03c26.953.003 53.907.02 80.86.042a104087 104087 0 0 0 94.831.04h2.332q18.597.005 37.194.027 18.682.022 37.366.01 10.126-.008 20.253.011 9.262.019 18.525 0 3.36-.004 6.717.01c3.034.01 6.068.003 9.102-.01l2.658.024c5.855-.05 10.175-1 14.634-5.114l1.45-1.781 1.488-1.781c3.28-4.701 2.422-10.552 2.449-16.032l.063-3.13c.033-6.623-.355-11.35-5.032-16.42l-1.781-1.45-1.781-1.488c-4.196-2.928-8.882-2.34-13.77-2.33l-2.855-.007q-4.78-.006-9.56-.002l-6.888-.01q-9.498-.011-18.997-.01-9.18-.003-18.361-.014c-16.402-.016-32.803-.022-49.205-.027l-23.268-.01a225074 225074 0 0 0-99.688-.03h-2.518c-26.953-.003-53.907-.02-80.86-.042a104087 104087 0 0 0-94.831-.04h-2.332q-18.597-.005-37.194-.027-18.682-.022-37.366-.01-10.127.008-20.253-.011-9.262-.019-18.525 0-3.36.004-6.717-.01c-3.034-.01-6.068-.003-9.102.01-.877-.009-1.754-.016-2.658-.024-6.692.058-11.705 1.513-16.083 6.895"/><path fill="#dfe3e8" d="m95 108 5 1 2-1c1.54-.07 3.083-.085 4.625-.062l2.477.027L111 108c.108 2.103.186 4.208.25 6.313l.14 3.55C111 121 111 121 109.188 122.938c-3.016 1.465-5.003.858-8.187.062l-1-3 7 1v-2l-2.375.125C102 119 102 119 100 117l-1 2h-4z"/><path fill="#858d9b" d="M141 139c6 0 6 0 7.813 1.375C150 142 150 142 151 144l5-1v-2l-5 1v-2q2.988-.57 6-1c1 1 1 1 1.098 2.848L158 148h-14v3h-3z"/><path fill="#3c4c59" d="M185 316h2v3l5 1v8h-2v-7h-3v7q-2.47.039-4.937.063l-2.778.035C177 328 177 328 176 327q-.061-3.5 0-7c4.75-1.125 4.75-1.125 7 0z"/><path fill="#768a9d" d="M139 223c1.938 1.063 1.938 1.063 3 3 .188 3.688.188 3.688 0 7-3.378.845-5.675 1.108-9 0-.625-2.375-.625-2.375-1-5 2.139-2.139 3.133-2.427 6-3l-6 1c-1.15 4.07-1.15 4.07.125 7.875 2.412 1.447 4.11 1.35 6.875 1.125v2c-6.308.357-6.308.357-8.937-1-1.722-3.24-1.593-6.42-1.063-10 2.168-4.082 5.806-3.45 10-3"/><path fill="#d9dde2" d="M88 103.813C91 104 91 104 93 105v3l-7-1c2.366 2.615 4.942 4.264 8 6-.875 4.875-.875 4.875-2 6-5.736.273-5.736.273-8 0l-2-2v-3l8 2v-2l-7-3c-.125-2.375-.125-2.375 0-5 2-2 2-2 5-2.187"/><path fill="#3c4b58" d="M227 317h2v2h2v2h-2v6l2 1-2.062-.562c-3.5-.522-6.459.027-9.938.562-1-1-1-1-1.062-4.562L218 320c6.75-1 6.75-1 9-1z"/><path fill="#6c7c80" d="M367.625 381.875 371 382q.118 2.686.188 5.375l.105 3.023L371 393c-3 2-3 2-5.625 1.75L363 394l-1-2 6 1v-2l-2.437-.437C363 390 363 390 362 389c-.187-2.437-.187-2.437 0-5 2-2 2-2 5.625-2.125"/><path fill="#22303a" d="m239 320 1-1a100 100 0 0 1 5 0v2h-2v7q-2.47.039-4.937.063l-2.778.035C233 328 233 328 232 327q-.061-3.5 0-7c2.665-1.332 4.148-.585 7 0"/><path fill="#808fa3" d="M93 182h3l2 5 2-5h4v10l-4-1-3 1-1-2-1 2h-2z"/><path fill="#7d8a9e" d="M127 277h2v4h2l1-4c3 1 3 1 4 3l1-3h2l-1 9-4 1v-5h-2v5h-4z"/><path fill="#7d8b9f" d="M145 277c5.568.568 5.568.568 7 2 .188 2.938.188 2.938 0 6l-2 2c-3.625-.375-3.625-.375-7-1-.125-3.375-.125-3.375 0-7z"/><path fill="#b7c1cd" d="m642 104 8 4 1.875-2c2.125-2 2.125-2 4.125-2l-4 8 2 1.875c2 2.125 2 2.125 2 4.125l-8-4-1.875 2C644 118 644 118 642 118l4-8-2-1.875C642 106 642 106 642 104"/><path fill="#babec5" d="M110 108h1c.108 2.103.186 4.208.25 6.313l.14 3.55C111 121 111 121 109.188 122.938c-3.016 1.465-5.003.858-8.187.062l-1-3 7 1v-2h-5l2-1-1-7h4l-.062 2.813c-.096 3.21-.096 3.21 1.062 6.187h2z"/><path fill="#d8dde2" d="M134 108c6.934-.098 6.934-.098 9 0 1 1 1 1 1.098 3.285l-.036 2.778-.027 2.785L144 119h-3l-1-8h-2l-1 8h-3z"/><path fill="#8290a4" d="M167 277c2.875-.125 2.875-.125 6 0 2 2 2 2 2.25 5-.25 3-.25 3-2.25 5-3.125.125-3.125.125-6 0z"/><path fill="#dde1e6" d="M112 108c6.934-.098 6.934-.098 9 0 1 1 1 1 1.098 3.285l-.035 2.778-.028 2.785L122 119h-3l-1-8h-2l-1 8h-3z"/><path fill="#6d7c80" d="M352.563 378.938 355 379l2 4c-2.169-.506-4-1-6-2v3l5 1 1 5c-2.709 1.354-5.01 1.065-8 1l-2-4h3v2h4v-2l-6-2c1.073-5.977 1.073-5.977 4.563-6.062"/><path fill="#6a7e8f" d="M184 225h6l2 2c-.375 3.625-.375 3.625-1 7h-5v3h-2z"/><path fill="#78808f" d="M210 136h2v12h-6c-2-2-2-2-2.25-4.5.25-2.5.25-2.5 2.25-4.5h4z"/><path fill="#5c6e7e" d="M166.688 316.313 169 317l-1 3-4-1-1 2 2.438-.062C168 321 168 321 169 322c.125 2.5.125 2.5 0 5-1 1-1 1-3.437 1.25L163 328c-2.313-3.47-2.425-4.922-2-9 1.732-2.825 2.366-3.074 5.688-2.687"/><path fill="#777e8c" d="m176 139 4 2 1-2c3 1 3 1 4 3l1-3h2c.201 3.625-.142 5.865-2 9h-2l-2-3-1 3h-3z"/><path fill="#708496" d="M222 225c4.556.556 4.556.556 6 2 .125 3 .125 3 0 6-1 1-1 1-4.062 1.063L221 234c-.625-3.375-.625-3.375-1-7z"/><path fill="#8991a0" d="M92 139q2.718-.04 5.438-.062l3.058-.036C103 139 103 139 104 140c.141 2.67.042 5.324 0 8h-2v-7h-3v7h-2v-7h-3v7h-2z"/><path fill="#6f8294" d="M112 225c4.556.556 4.556.556 6 2 .188 2.438.188 2.438 0 5-2 2-2 2-4.562 2.188C111 234 111 234 110 233c-.187-2.937-.187-2.937 0-6z"/><path fill="#6f8395" d="M170 225q2.718-.04 5.438-.062l3.058-.036C181 225 181 225 182 226c.141 2.67.042 5.324 0 8h-2v-7h-3v7h-2v-7h-3v7h-2z"/><path fill="#858d9b" d="M191 139c4.556.556 4.556.556 6 2 .125 3 .125 3 0 6-1 1-1 1-3.437 1.188C191 148 191 148 189 146c-.25-2.5-.25-2.5 0-5z"/><path fill="#6f8294" d="M230 225a365 365 0 0 1 4.875-.125l2.742-.07C240 225 240 225 242 227c.125 3.625.125 3.625 0 7h-2v-7h-3v7h-2v-7h-3v7h-2z"/><path fill="#7f8da1" d="M82 277c2.875-.125 2.875-.125 6 0l2 2c-.375 2.125-.375 2.125-1 4l-4 1v3h-3z"/><path fill="#596b7b" d="M104 317c1.89.184 1.89.184 4 1 1.047 2.285 1.047 2.285 1.75 5.063l.734 2.785L111 328l-3-1v-2h-5v3h-2c.672-3.806 1.727-7.352 3-11"/><path fill="#727f92" d="M156 277h6c.778 3.406 1.1 6.508 1 10-2 0-2 0-3.625-1.5L158 284v3h-2z"/><path fill="#6c7c80" d="M372 382q3.5-.062 7 0c1 1 1 1 1.098 2.848L380 391h-3v-7h-2v7h-3zm18 0q3.5-.062 7 0c1 1 1 1 1.098 2.848L398 391h-3v-7h-2v7h-3z"/><path fill="#6d798c" d="M95 277h3c3 6.625 3 6.625 3 10h-3v-2h-4v2h-2q.463-2.22.938-4.437l.527-2.497C94 278 94 278 95 277"/><path fill="#7a8290" d="M86.563 135.938 90 136v2h-5v3h5v2h-6v4h6v1h-8a920 920 0 0 1-.062-5.437l-.036-3.06c.154-3.947.562-3.494 4.66-3.565"/><path fill="#748295" d="m110 182 4 1c1.047 2.066 1.047 2.066 1.75 4.563l.734 2.503L117 192h-3v-2h-4v2l-3-1z"/><path fill="#6c7a8d" d="M82 182h7v2h-4v2h4v2h-4v2h4v2h-7z"/><path fill="#88919e" d="M107 139c4.875.875 4.875.875 6 2q.061 3.5 0 7h-7c-.562-1.937-.562-1.937-1-4 1-1 1-1 3.563-1.062L111 143v-2l-5 1z"/><path fill="#738799" d="M210 319c4.875.875 4.875.875 6 2q.061 3.5 0 7h-7l-1-4 6-1v-2l-5 1zm-74 0c4.875.875 4.875.875 6 2q.061 3.5 0 7h-7l-1-4 6-1v-2l-5 1z"/><path fill="#6a7280" d="M141 139c6 0 6 0 8 1l-2 7-4-1-1 5h-1z"/><path fill="#435361" d="M137 225.875c3 .125 3 .125 4 1.125.04 1.666.043 3.334 0 5l-1.812.438c-1.75.45-3.475.99-5.188 1.562l-2-2c.725-5.947.725-5.947 5-6.125"/><path fill="#778c9f" d="M195 319c4.875.875 4.875.875 6 2q.061 3.5 0 7h-7l1-5h4v-2l-5 1z"/><path fill="#7d8a9e" d="M106 277h5l1 3-5-1v2l5 1-1 5h-6l-1-3 6 1v-2l-5-1z"/><path fill="#7b889b" d="M117 277h5l1 3-5-1v2l5 1-1 5h-6l-1-3 6 1v-2l-5-1z"/><path fill="#b9bec4" d="M95 108h4c1.125 7.625 1.125 7.625 0 11h-4z"/><path fill="#586a7a" d="m163 225 5 1v8h-6l-1-4 5-1v-2l-4 1z"/><path fill="#7b8fa2" d="M127 319c2.625.375 2.625.375 5 1l1 4h-6l1 2h5l-1 2c-2.375.125-2.375.125-5 0-2-2-2-2-2.25-4.5.25-2.5.25-2.5 2.25-4.5"/><path fill="#6e8294" d="M185 316h2v3l5 1v8h-2v-7h-3v7h-2z"/><path fill="#7b90a3" d="M199 225c2.625.375 2.625.375 5 1l1 4h-6l1 2h5l-1 2c-2.375.125-2.375.125-5 0-2-2-2-2-2.25-4.5.25-2.5.25-2.5 2.25-4.5"/><path fill="#7a8fa2" d="M146 225c2.625.375 2.625.375 5 1v4h-5l1 2c2.025.652 2.025.652 4 1-1 1-1 1-3.5 1.125C145 234 145 234 144 233c-.187-2.937-.187-2.937 0-6z"/><path fill="#dfe3e8" d="M129 104h3v15h-3z"/><path fill="#687b8c" d="M239 320v4h-6v2h6l-1 2c-1.666.043-3.334.04-5 0-1-1-1-1-1.062-4.562L232 320c2.667-1.333 4.167-.671 7 0"/><path fill="#6a7d8e" d="M101 225h2l1 5h2l1-5h2q-.716 2.438-1.437 4.875l-.81 2.742C106 235 106 235 105 237l-3-1 .063-2.687c-.056-2.935-.394-5.468-1.063-8.313"/><path fill="#1e2b35" d="M136.688 224.375 139 225v1l-6 2 1 5h4v3c-2.875-.312-2.875-.312-6-1-2-3-2-3-1.812-6.062 1.08-3.91 2.388-5.137 6.5-4.563"/><path fill="#7b8a9d" d="M100 182h4v10h-3c-2.125-6.625-2.125-6.625-1-10"/><path fill="#1c2232" d="M91 139h1v9l-8-1v-4l6-1z"/><path fill="#6d7c8e" d="M126 182h3v8h4v2h-7z"/><path fill="#828b98" d="m170 139 5 1v2h-4l4 2-1 4h-5l-1-2 5 1v-2l-5-2z"/><path fill="#6d8193" d="m248 319 5 1-1 2-3-1v2l5 1-1 4h-6v-2h4l-4-2z"/><path fill="#8d96a3" d="M167 140v2h-4l4 2-1 4h-5l-1-2 5 1v-2l-5-2v-3c2.667-1.333 4.167-.671 7 0"/><path fill="#66797c" d="M386 379h3v12h-3z"/><path fill="#6d8092" d="M213 225c2.563.25 2.563.25 5 1l1 2-6-1 1 5 5-1-1 3h-6c-.625-3.375-.625-3.375-1-7z"/><path fill="#6b7280" d="M119 136h2v12h-3a920 920 0 0 1-.062-5.437l-.036-3.06C118 137 118 137 119 136"/><path fill="#728598" d="m145 319 5 1-1 2-3-1v2l4 1v4h-6v-2h4l-4-2z"/><path fill="#6d8093" d="m153 225 3 2 4-2-1.125 2.25c-1.17 2.693-1.17 2.693 0 5.063L160 234l-5-2v2l-3-1 1.063-1.75c1.086-2.608.868-3.644-.063-6.25"/><path fill="#d3d7dd" d="M82 114c2.035.509 4.055 1.017 6.063 1.625 2.142.58 2.142.58 4.937-.625l-1 4c-6.055.195-6.055.195-8 0l-2-2z"/><path fill="#202535" d="M93 106c2 2 2 2 2.125 4.625L95 113c-3.403-1.059-6.014-2.009-9-4v-2l7 1z"/><path fill="#768a9d" d="M120 225h1l1 7h2l1-7h2v9h-7z"/><path fill="#1d2a34" d="m152 225 3 4-2 4h-6l-1-3h5z"/><path fill="#111d26" d="m213 227 7 1v3l-6 2c-1-1-1-1-1.062-3.562z"/><path fill="#818a98" d="M99 139q2.514.428 5 1v8h-2v-7h-3v7h-1c-.098-6.152-.098-6.152 0-8z"/><path fill="#e1e5eb" d="M134 108h2c1.203 2.405 1.1 3.95 1.063 6.625l-.028 2.477L137 119h-3z"/><path fill="#727f92" d="M127 277h2v4h2l1 6h-4z"/><path fill="#6d8092" d="M152 317h2v2h2v2h-2v6l2 1-4-1c-1.125-7.75-1.125-7.75 0-10m-40 0h2v2h2v2h-2v6l2 1-4-1c-1.125-7.75-1.125-7.75 0-10"/><path fill="#6e8293" d="M227 317h2v2h2v2h-2v6l2 1-4-1c-1.125-7.75-1.125-7.75 0-10"/><path fill="#88919e" d="M158 140v8l-2-1v-3l-3-1h3v-2l-5 1v-2c2.667-1.333 4.167-.671 7 0"/><path fill="#446b68" d="M362 384h5l1 4-5 2c-1-1-1-1-1.062-3.562z"/><path fill="#14192a" d="m145 279 5 1-1 5h-4z"/><path fill="#798da0" d="m184 226 3 1-.187 2.375L187 232l3 2h-4v3h-2z"/><path fill="#141f28" d="m159 226 7 1v2l-1.812.313c-2.47.776-3.51 1.758-5.188 3.687l-2-4z"/><path fill="#919aa7" d="M211 137h1v11h-6v-3l3 1v-6h2z"/><path fill="#6a7b7f" d="M358 382h3v9h-3z"/><path fill="#73879a" d="m103 322 1 2h4l1-2 2 6-3-1v-2h-5v3h-2c.875-4.875.875-4.875 2-6"/><path fill="#5c6779" d="M82 277h6l-1 5h-3l-1 5h-1z"/><path fill="#6b7280" d="M114 139h3v9h-3z"/><path fill="#7e8ea1" d="m83 183 1 4 4 1h-3v2h4v2h-6z"/><path fill="#6e8193" d="M203 319h5v2h-3v7h-2z"/><path fill="#818996" d="M199 139h5v2h-3v7h-2z"/><path fill="#1a1f2f" d="m104 110 3 1v5h-4a100 100 0 0 1 0-5z"/><path fill="#708395" d="M241 319h4v2h-2v7h-2z"/><path fill="#1e2b35" d="M192 321h7v2l-1.875.25c-2.31.563-2.31.563-3.375 2.813L193 328h-1z"/><path fill="#0d1222" d="m169 279 4 1-1 5h-3z"/><path fill="#121e27" d="M222 227h4v5h-4z"/><path fill="#142029" d="M186 227h4v5h-4z"/><path fill="#7f8795" d="M176 139c3 1 3 1 4.188 2.813C181 144 181 144 181 148h-3z"/><path fill="#4e5e6d" d="m127 319 5 1 1 4-6-1z"/><path fill="#808ea2" d="M117 277h5l1 3-5-1 1 3h-3z"/><path fill="#4e5e6d" d="m199 225 5 1 1 4-6-1z"/><path fill="#768b9d" d="m163 225 5 1v6l-1-2-3-1h2v-2l-4 1z"/><path fill="#121e27" d="m112 227 4 1-1 5-3-1z"/><path fill="#606776" d="M152 143c2.063.438 2.063.438 4 1l1 4h-5c-.562-1.937-.562-1.937-1-4z"/><path fill="#121727" d="M207 141h3v5h-4z"/><path fill="#101625" d="M192 141h3v5h-4z"/><path fill="#105749" d="m351 381 7 1v5l-7-3z"/><path fill="#8593a7" d="M93 281h2v2l4-1-1 3h-4v2h-2z"/><path fill="#535a68" d="M106 143q2.514.428 5 1l-1 3c-2.062.688-2.062.688-4 1-.562-1.937-.562-1.937-1-4z"/><path fill="#8e97a5" d="M130 140h2v3l3 1h-3v3h-2v-3l-3-1h3z"/><path fill="#465664" d="M200 321h1v7l-5-1v-3h3z"/><path fill="#445462" d="m214 324-1 3c-2.062.688-2.062.688-4 1l-1-4c2.49-1.245 3.41-.777 6 0m-74 0-1 3c-2.062.688-2.062.688-4 1l-1-4c2.49-1.245 3.41-.777 6 0"/><path fill="#1a2630" d="m152 321-1 6-2-3-3-1v-2c3.75-1.125 3.75-1.125 6 0"/><path fill="#707d91" d="M137 277h2l-1 9-1-2h-2z"/><path fill="#18242d" d="M136.688 224.375 139 225v1l-2.875.813c-3.378.937-3.378.937-5.125 4.187-.187-2.375-.187-2.375 0-5 3-2 3-2 5.688-1.625"/><path fill="#242939" d="m158 141 1 3 6 1v2l-2.375-.625L160 146l-2 2z"/><path fill="#d6dadf" d="M107 111c1.5 1.125 1.5 1.125 3 3 .188 3.188.188 3.188 0 6h-2c-1.62-2.572-2.044-3.677-1.625-6.75z"/><path fill="#19262f" d="m143 321 1 3 5 1-1 2h-5c-1.125-3.75-1.125-3.75 0-6"/><path fill="#495968" d="M146 225q2.514.428 5 1l-1 3h-4l-1-3z"/><path fill="#121727" d="M144 141h3v6h-3z"/><path fill="#7a8290" d="M167 140v2c-2.49.687-4.379 1-7 1v-3c2.667-1.333 4.167-.671 7 0"/><path fill="#637284" d="M100 182c2 2 2 2 2.195 3.945L102 192c-1.76-2.641-2.527-3.974-3-7z"/><path fill="#212535" d="m86 113 5 1-1 3-4-1z"/></svg>