<svg xmlns="http://www.w3.org/2000/svg" width="1918" height="654"><path fill="#141f27" d="M0 0h1918v654H0z"/><path fill="#0d1820" d="M1918 4v80H360V5l104.69-.092 2.074-.002q110.973-.097 221.947-.192l4.986-.004 165.6-.142 154.584-.134a5303814 5303814 0 0 1 255.388-.22C1347.642 4.15 1426.015 4.086 1918 4"/><path fill="#14212b" d="m48.594 260.606 3.524-.019q4.82-.019 9.643-.008c3.471.002 6.943-.012 10.415-.025 6.797-.02 13.594-.025 20.391-.023a10494 10494 0 0 0 21.36-.017l2.402-.003c14.993-.019 29.985-.018 44.978-.01 13.705.005 27.41-.016 41.115-.05q21.123-.05 42.247-.043c7.903.002 15.805-.003 23.707-.028q10.092-.033 20.184-.006c3.43.01 6.86.01 10.29-.01 3.726-.019 7.45-.006 11.175.015 1.612-.02 1.612-.02 3.257-.038 7.935.093 14.665 1.946 20.634 7.414 5.567 5.927 7.538 12.212 7.478 20.233l.019 2.348c.016 2.58.012 5.16.007 7.741q.01 2.786.026 5.57c.022 5.034.025 10.067.023 15.1q.002 6.31.017 12.621.027 14.894.015 29.788a7135 7135 0 0 0 .053 30.689q.045 13.19.038 26.383c-.002 5.247.004 10.494.028 15.741.023 4.938.02 9.874 0 14.812q-.005 2.71.016 5.42c.077 10.356.064 19.66-7.391 27.69-7.139 6.817-14.363 7.55-23.84 7.503l-3.523.019q-4.82.019-9.643.008c-3.471-.002-6.943.012-10.415.025q-10.195.028-20.391.023a10494 10494 0 0 0-21.36.017l-2.402.003c-14.993.019-29.985.018-44.978.01-13.705-.005-27.41.016-41.115.05q-21.123.05-42.247.043c-7.903-.002-15.805.003-23.707.028q-10.092.033-20.184.006c-3.43-.01-6.86-.01-10.29.01-3.726.019-7.45.006-11.175-.015l-3.257.038c-7.935-.093-14.665-1.946-20.634-7.414-5.567-5.927-7.538-12.212-7.478-20.233l-.019-2.348c-.016-2.58-.012-5.16-.007-7.741q-.01-2.786-.026-5.57c-.022-5.034-.025-10.067-.023-15.1q-.002-6.31-.017-12.621-.027-14.894-.015-29.788a7135 7135 0 0 0-.053-30.689 6702 6702 0 0 1-.038-26.383c.002-5.247-.004-10.494-.028-15.741-.023-4.938-.02-9.874 0-14.812q.005-2.71-.016-5.42c-.077-10.356-.064-19.66 7.391-27.69 7.139-6.817 14.363-7.55 23.84-7.503"/><path fill="#0c1920" d="m433.099 475.874 2.547-.008 2.806.006 2.99-.005q5.02-.004 10.04.002l7.255-.007q7.942-.006 15.884-.004 11.889.002 23.778-.006 20.26-.011 40.519-.012 20.541 0 41.082-.008l2.618-.001 10.553-.004q62.523-.022 125.044-.028 31.121-.003 62.242-.01a1431404 1431404 0 0 1 257.054-.03q102.999-.005 205.998-.041c49.331-.017 98.662-.033 147.993-.037h3.072a892351 892351 0 0 1 96.601-.005q47.4-.001 94.8-.025a133869 133869 0 0 1 111.24-.008q20.487.002 40.976-.016 20.124-.017 40.248 0 11.813.009 23.625-.011c5.832-.01 11.665-.004 17.497.008q3.532.004 7.066-.008c3.182-.01 6.363-.002 9.545.01l2.785-.022c5.095.043 8.646.533 13.043 3.396 3.658 4.298 4.505 7.35 4.496 12.937l.002 3.961-.031 2.042c-.03 2.055-.021 4.107-.008 6.162-.072 11.218-.072 11.218-3.459 16.898-3.44 3.118-6.506 4.125-11.099 4.126l-2.547.008-2.806-.006-2.99.005q-5.02.004-10.04-.002l-7.255.007q-7.942.006-15.884.004-11.889-.002-23.778.006-20.26.011-40.519.012-20.541 0-41.082.008l-2.618.001-10.553.004q-62.523.022-125.044.028l-62.242.01a1431402 1431402 0 0 1-257.054.03q-102.999.005-205.998.041a597678 597678 0 0 1-247.666.042q-47.4.001-94.8.025a133869 133869 0 0 1-108.63.009l-2.61-.001c-13.658-.003-27.317.005-40.976.016q-20.124.017-40.248 0a9157 9157 0 0 0-23.625.011c-5.832.01-11.665.004-17.497-.008q-3.532-.004-7.066.008c-3.182.01-6.363.002-9.545-.01l-2.785.022c-5.102-.043-8.62-.562-13.043-3.396-5.106-5.634-4.22-12.09-4.24-19.287a557 557 0 0 0-.073-6.024l-.015-3.865-.028-3.528c.495-4.58 1.922-7.997 5.356-11.109 3.079-1.828 5.592-2.312 9.099-2.313m19.456-247.002 2.952-.005q4.935-.004 9.87.002l7.146-.007q7.813-.006 15.627-.004 11.698.002 23.395-.006 19.935-.011 39.869-.012 20.208 0 40.417-.008l2.576-.001 10.387-.004q61.517-.022 123.034-.028l61.248-.01a1386475 1386475 0 0 1 252.97-.03q101.348-.005 202.695-.041c48.543-.017 97.086-.033 145.629-.037h3.024a864345 864345 0 0 1 95.076-.005q46.638-.001 93.276-.025a129612 129612 0 0 1 109.466-.008q20.154.002 40.308-.016 19.805-.017 39.608 0 11.62.009 23.239-.011c5.742-.01 11.485-.004 17.227.008q3.473.004 6.945-.008c3.135-.01 6.27-.002 9.404.01l2.717-.022c8.811.075 16.13 2.189 22.61 8.306 3.823 4.618 5.445 9.771 6.167 15.653-1.081 8.497-3.835 14.802-10.437 20.437-9.987 6.128-22.891 4.551-34.115 4.5q-3.583.006-7.167.017-7.809.017-15.618 0c-7.793-.018-15.586-.012-23.38-.002-13.283.017-26.566.015-39.849.002a28142 28142 0 0 0-53.346-.003q-48.381.024-96.761 0a172996 172996 0 0 0-122.63-.015l-65.764.003h-3.025q-47.72-.002-95.438-.018l-3.127-.001-50.276-.018a389768 389768 0 0 0-212.024-.017h-3.147l-34.508.006H985.7a480409 480409 0 0 1-196.32-.015q-32.07-.007-64.139-.003h-2.92l-14.56.003a137267 137267 0 0 1-115.514-.027l-2.567-.001q-20.14-.01-40.28.002-19.788.01-39.578-.014-11.61-.015-23.221.001c-5.738.008-11.477 0-17.215-.015q-3.47-.004-6.939.006c-3.132.01-6.265 0-9.397-.014l-2.715.022c-9.05-.08-16.087-2.29-22.675-8.59-4.99-5.436-5.8-11.641-5.66-18.809 1.074-7.11 4.738-12.232 10-17 6.644-4.12 12.973-4.146 20.555-4.128"/><path fill="#14212b" d="m50.45 76.612 3.475-.016c3.84-.014 7.681-.007 11.522 0q4.133-.008 8.264-.02a6014 6014 0 0 1 20.114-.014q8.175.006 16.352-.002l2.352-.003 4.732-.004c14.785-.014 29.57-.009 44.356.003 13.519.01 27.037-.003 40.555-.027q20.834-.037 41.668-.027 11.691.006 23.382-.017 9.954-.022 19.907.002 5.074.015 10.15-.004c3.673-.013 7.345-.002 11.018.016l3.22-.03c8.938.09 16.301 2.569 22.926 8.73 6.302 7.288 7.285 14.953 7.188 24.268l.022 3.655c.014 3.28.005 6.558-.014 9.837-.017 3.448-.008 6.896-.003 10.345.005 5.787-.011 11.574-.04 17.362-.031 6.671-.031 13.342-.014 20.013.016 6.445.01 12.89-.008 19.334a1569 1569 0 0 0 .002 8.192c.005 3.82-.015 7.638-.043 11.457l.02 3.397c-.112 9.297-2.516 16.503-8.838 23.437-4.88 4.28-11.003 6.625-17.447 6.638l-2.968.014h-3.268l-3.466.01q-4.77.014-9.539.017-5.14.007-10.283.022c-8.28.02-16.56.03-24.841.039l-11.7.015a51612 51612 0 0 1-48.991.044l-2.534.002c-13.545.008-27.089.033-40.633.066q-20.862.049-41.722.054c-7.808.002-15.615.01-23.423.036q-9.975.034-19.95.02-5.087-.007-10.175.017c-3.682.018-7.363.01-11.045-.002l-3.228.033c-8.252-.071-15.837-2.09-22.1-7.808-6.483-7.918-8.289-16.305-8.178-26.268l-.032-3.612a767 767 0 0 1 .002-9.694c.015-3.405.001-6.811-.008-10.217-.011-5.715.003-11.43.032-17.147.032-6.578.022-13.155-.011-19.733q-.04-8.52-.016-17.04c.01-3.38.011-6.757-.009-10.136-.015-3.771.008-7.54.042-11.311l-.037-3.326c.141-8.696 2.545-16.983 8.867-23.272 7.715-6.224 14.74-7.4 24.395-7.345"/><path fill="#133838" d="m40.936 264.743 3.029-.02 3.32.01 3.532-.014q4.855-.014 9.71-.01c3.49 0 6.98-.01 10.47-.02 6.839-.017 13.678-.022 20.516-.023q8.34-.001 16.68-.012 23.642-.026 47.286-.025h5.154c13.788.001 27.575-.018 41.363-.046q21.236-.043 42.47-.04c7.949 0 15.896-.006 23.844-.027a4323 4323 0 0 1 20.305-.009c3.452.006 6.904.007 10.356-.01 3.746-.016 7.49-.007 11.236.009l3.293-.032c6.986.064 12.804 1.006 18.02 5.973 5.964 6.834 5.853 12.42 5.85 21.233.005 2.05.041 4.098.08 6.148.023 8.067-.087 14.519-5.862 20.678-4.449 3.992-8.727 5.74-14.647 5.754l-3.035.021-3.311-.007-3.535.016a2443 2443 0 0 1-9.702.015c-3.49.002-6.98.015-10.469.027-7.628.022-15.256.03-22.884.035q-7.146.006-14.292.017a31348 31348 0 0 1-47.27.041h-2.573l-2.577.001c-13.781.004-27.562.03-41.343.068q-21.228.057-42.457.058c-7.945 0-15.89.009-23.834.038q-10.147.038-20.293.017c-3.45-.008-6.9-.007-10.35.016-3.744.02-7.486.01-11.23-.008l-3.291.04C37.72 324.58 33.24 323.4 28 319c-6.514-6.857-6.4-13.69-6.426-22.755-.011-2.042-.06-4.08-.111-6.122-.042-7.64.222-13.33 5.537-19.123 4.355-4.037 7.959-6.248 13.936-6.257"/><path fill="#15222c" d="m43.183 506.365 3.68-.024c3.353-.016 6.704-.01 10.058.005 3.622.012 7.244-.006 10.867-.02 7.09-.022 14.179-.017 21.269-.002q8.644.015 17.289.007l2.487-.002 5.003-.005c15.63-.015 31.261.002 46.892.029q20.107.031 40.216-.005a17280 17280 0 0 1 51.71-.017l2.478.002c5.754.005 11.509-.003 17.263-.014q10.523-.023 21.046.016c3.577.013 7.155.018 10.733.002 3.88-.018 7.761.003 11.643.028l3.414-.034c6.864.086 11.477 1.164 16.769 5.669 5.682 6.119 5.27 11.726 5.375 19.687l.113 3.225c.078 7.026-.848 11.69-5.488 17.088-4.221 3.92-7.29 5.122-12.985 5.137l-3.138.015-3.46.002-3.665.013q-5.046.016-10.092.022-5.439.01-10.878.029-13.14.034-26.279.052l-7.422.011a55317 55317 0 0 1-59.44.071c-14.328.013-28.655.046-42.982.088q-22.063.063-44.126.071c-8.258.004-16.517.015-24.776.048q-10.55.044-21.1.028a1289 1289 0 0 0-10.763.022c-3.893.027-7.784.015-11.677-.001l-3.425.042c-6.824-.069-11.587-1.057-16.792-5.65-5.459-6.123-5.773-12.018-5.625-20l-.059-3.156c.044-6.927 1.03-11.625 5.684-16.844 6.203-5.465 12.193-5.714 20.183-5.635"/><path fill="#0d1a21" d="m52.46 173.869 2.783-.012 3.062.003 3.25-.01q5.416-.01 10.833-.011l7.745-.015q10.54-.02 21.08-.024 6.582-.005 13.162-.012 18.216-.019 36.433-.026h4.717l4.737-.002h2.374q19.04-.009 38.078-.046 19.545-.035 39.088-.037 10.974.001 21.949-.025 10.32-.024 20.642-.01 3.791.002 7.582-.013c3.447-.013 6.893-.007 10.34.004l3.041-.025c5.296.038 9.094.365 13.644 3.392 3.658 4.298 4.505 7.35 4.496 12.937l.002 3.961-.031 2.042c-.03 2.055-.021 4.107-.008 6.162-.072 11.218-.072 11.218-3.459 16.898-3.569 3.234-6.715 4.124-11.46 4.131l-2.783.012-3.062-.003-3.25.01q-5.416.01-10.833.011l-7.745.015q-10.54.02-21.08.024-6.582.005-13.162.012-18.216.019-36.433.026h-4.717l-4.737.002h-2.374q-19.04.009-38.078.046-19.545.035-39.088.037-10.974-.001-21.949.025-10.32.024-20.642.01-3.791-.002-7.582.013c-3.447.013-6.893.007-10.34-.004l-3.041.025c-5.306-.038-9.067-.393-13.644-3.392-5.106-5.634-4.22-12.09-4.24-19.287a557 557 0 0 0-.072-6.024l-.016-3.865-.028-3.528c.495-4.58 1.922-7.997 5.356-11.109 3.21-1.905 5.807-2.313 9.46-2.318"/><path fill="#404141" d="M0 0h1918v4c-96.859.413-193.718.707-920.438 1.134h-2.95l-50.304-.004a1208858 1208858 0 0 0-233.617.004h-2.987q-45.808.003-91.615.003h-2.918l-91.844-.003q-40.062-.001-80.125.002a404390 404390 0 0 1-131.182-.007C222.54 5.109 135.065 4.972 0 4z"/><path fill="#0d1820" d="m218.883 177.287 3.003-.012c3.27-.006 6.539.03 9.81.069q3.408.01 6.817.011 7.14.015 14.279.082c6.108.057 12.215.079 18.323.088q7.037.014 14.072.052 3.38.016 6.759.028 4.714.023 9.43.073l2.833.007c.855.01 1.71.022 2.592.034l2.25.018C311 178 311 178 314 180c3.09 5.905 2.408 12.441 2.438 18.937.032 1.263.065 2.526.1 3.827l.02 3.7.041 3.364c-.766 4.056-2.323 6.708-5.599 9.172-3.281.883-6.47.82-9.852.776l-2.992.032c-3.261.027-6.52.01-9.781-.011q-3.402.006-6.803.017c-4.752.01-9.502-.004-14.254-.032-6.09-.034-12.179-.014-18.269.022-4.682.021-9.364.014-14.047-.001q-3.367-.007-6.736.015c-3.14.015-6.276-.008-9.414-.042l-2.812.037c-6.118-.12-6.118-.12-8.735-2.086-3.24-3.69-3.945-6.621-3.97-11.446l-.019-3.824c.02-1.306.04-2.612.059-3.957l-.059-3.957.02-3.824.017-3.471c1.84-9.234 7.268-10.124 15.53-9.96m1539.541 301.999 2.855-.012c3.108-.006 6.214.03 9.323.069q3.24.01 6.48.011 6.787.015 13.573.082c5.806.057 11.61.079 17.416.088 4.46.008 8.918.028 13.377.052q3.212.016 6.424.028 4.481.023 8.962.073l2.693.007c.813.01 1.626.022 2.463.034l2.14.018C1846 480 1846 480 1849 482c3.09 5.905 2.408 12.441 2.437 18.937l.1 3.827.022 3.7.04 3.364c-.764 4.047-2.353 6.69-5.599 9.172-3.13.876-6.158.821-9.393.776l-2.844.032a617 617 0 0 1-9.294-.011q-3.234.006-6.467.017c-4.516.01-9.031-.004-13.547-.032a1435 1435 0 0 0-17.362.022c-4.45.021-8.9.014-13.352-.001q-3.2-.007-6.401.015c-2.984.015-5.964-.008-8.947-.042l-2.67.037c-5.816-.12-5.816-.12-8.39-2.086-3.251-3.705-3.973-6.597-3.997-11.446l-.02-3.824c.02-1.306.04-2.612.059-3.957l-.059-3.957.02-3.824.017-3.471c1.79-8.987 6.981-10.13 15.071-9.96"/><path fill="#503d28" d="m133.46 121.482 2.152-.02c2.326-.018 4.651-.007 6.978.007l4.89-.012q5.112-.008 10.225.022c4.352.022 8.703.01 13.055-.015 3.364-.014 6.728-.01 10.092 0q2.406.005 4.812-.01c17.489-.079 17.489-.079 24.211 6.335C213.141 133.12 214.21 137.8 213 144c-2.37 6.077-6.03 9.374-12 12-3.635.515-3.635.515-7.552.533l-2.181.027c-2.36.022-4.717.015-7.076.006q-2.478.008-4.957.02-5.182.014-10.366-.01c-4.413-.017-8.825.007-13.237.042-3.41.022-6.82.02-10.23.012q-2.44 0-4.88.02c-15.288.119-15.288.119-21.122-4.267-4.026-3.98-5.623-7.656-5.962-13.32.24-5.243 1.844-9.32 5.563-13.063 5.055-3.343 8.27-4.502 14.46-4.518"/><path fill="#52402a" d="m437.736 286.482 1.954-.02c2.114-.018 4.227-.007 6.341.007q2.22-.004 4.438-.012 4.64-.008 9.28.022c3.954.022 7.907.01 11.862-.015 3.052-.014 6.105-.01 9.157 0q2.187.005 4.373-.01c2.041-.01 4.081.006 6.123.028l3.511.01c4.97.783 9.027 3.637 12.225 7.508 1.8 5.401 1.858 10.217-.625 15.375-3.375 3.73-6.589 5.414-11.606 6.006l-3.521.007-1.959.016a561 561 0 0 1-6.355-.006q-2.223.003-4.445.01-4.647.005-9.292-.017c-3.964-.017-7.927-.007-11.89.01-3.057.012-6.113.008-9.17 0q-2.191-.004-4.384.008c-2.043.008-4.086-.004-6.13-.02l-3.519-.008c-5.281-.648-8.666-3.452-12.104-7.381-1.244-3.73-1.522-7.126-1-11 3.606-7.211 8.727-10.496 16.736-10.518"/><path fill="#b0bac7" d="m40.936 264.743 3.029-.02 3.32.01 3.532-.014q4.855-.014 9.71-.01c3.49 0 6.98-.01 10.47-.02 6.839-.017 13.678-.022 20.516-.023q8.34-.001 16.68-.012 23.642-.026 47.286-.025h5.154c13.788.001 27.575-.018 41.363-.046q21.236-.043 42.47-.04c7.949 0 15.896-.006 23.844-.027a4323 4323 0 0 1 20.305-.009c3.452.006 6.904.007 10.356-.01 3.746-.016 7.49-.007 11.236.009l3.293-.032c6.986.064 12.804 1.006 18.02 5.973 5.964 6.834 5.853 12.42 5.85 21.233.005 2.05.041 4.098.08 6.148.023 8.067-.087 14.519-5.862 20.678-4.449 3.992-8.727 5.74-14.647 5.754l-3.035.021-3.311-.007-3.535.016a2443 2443 0 0 1-9.702.015c-3.49.002-6.98.015-10.469.027-7.628.022-15.256.03-22.884.035q-7.146.006-14.292.017a31348 31348 0 0 1-47.27.041h-2.573l-2.577.001c-13.781.004-27.562.03-41.343.068q-21.228.057-42.457.058c-7.945 0-15.89.009-23.834.038q-10.147.038-20.293.017c-3.45-.008-6.9-.007-10.35.016-3.744.02-7.486.01-11.23-.008l-3.291.04C37.72 324.58 33.24 323.4 28 319c-6.514-6.857-6.4-13.69-6.426-22.755-.011-2.042-.06-4.08-.111-6.122-.042-7.64.222-13.33 5.537-19.123 4.355-4.037 7.959-6.248 13.936-6.257m-13.311 9.82c-3.607 5.41-2.918 11.323-2.975 17.614a366 366 0 0 1-.138 5.958c-.06 6.543-.002 11.723 3.724 17.245 6.399 5.876 11.998 6.198 20.372 6.135l3.527.02c3.219.016 6.437.013 9.655.003 3.476-.007 6.952.009 10.428.022 6.804.021 13.608.021 20.413.013q8.296-.008 16.594.001l2.387.003 4.8.006c15.002.016 30.004.007 45.006-.01 13.72-.014 27.439 0 41.158.03a15299 15299 0 0 0 49.443.026q8.285-.002 16.568.022 10.1.027 20.2-.005c3.434-.012 6.868-.015 10.302.004 3.726.016 7.45 0 11.176-.022l3.276.036c6.72-.083 11.294-1.23 16.459-5.664 5.384-6.338 4.596-13.502 4.5-21.5.015-1.293.03-2.586.047-3.918.018-9.565.018-9.565-4.547-17.582-6.168-5.296-11.84-5.715-19.735-5.628l-3.532-.022a972 972 0 0 0-9.654.011c-3.477.013-6.954-.002-10.431-.014-6.805-.018-13.61-.01-20.414.008q-8.295.02-16.592.015l-2.388-.002-4.802-.003c-14.145-.008-28.29.008-42.436.038q-20.58.044-41.162.02a19563 19563 0 0 0-52.007.006q-8.285.007-16.57-.005-10.1-.011-20.197.024c-3.434.013-6.867.02-10.301.008-3.724-.009-7.447.007-11.171.03l-3.282-.026c-7.668.085-12.327 1.305-17.701 7.103"/><path fill="#25343e" d="m41.798 267.863 3.011-.015 3.318-.002 3.517-.013q4.84-.016 9.682-.022 5.217-.01 10.436-.029 12.605-.034 25.21-.052l7.122-.011a50923 50923 0 0 1 54.458-.07l2.571-.001c13.746-.013 27.491-.046 41.237-.088q21.167-.063 42.335-.071c7.923-.004 15.847-.015 23.77-.048a3485 3485 0 0 1 20.244-.028c3.442.005 6.884.002 10.326-.022 3.735-.023 7.468-.015 11.203.001l3.284-.042c6.73.07 11.308 1.204 16.478 5.65 5.356 6.324 4.63 13.458 4.563 21.438l.072 3.892c-.01 6.467-.226 11.583-3.877 17.041-6.373 5.905-12.01 6.206-20.372 6.137l-3.53.019c-3.22.013-6.44.008-9.66-.004-3.479-.01-6.956.005-10.434.016-6.808.018-13.616.014-20.424.002a6861 6861 0 0 0-16.601-.006l-2.388.002-4.803.004c-15.007.011-30.013-.002-45.02-.023q-19.309-.026-38.617.003a19910 19910 0 0 1-52.024.012q-8.289-.003-16.578.012-10.104.017-20.207-.013c-3.436-.01-6.872-.015-10.308-.001-3.726.01-7.451-.003-11.178-.023l-3.284.027c-7.184-.075-11.689-1.161-17.088-6.164-4.363-6.523-3.946-13.313-3.804-20.933l-.034-3.905c.054-7.004.25-11.916 4.596-17.533 4.149-3.845 7.2-5.122 12.798-5.137m-12.646 9.473c-2.325 5.377-1.62 11.337-1.59 17.102l-.06 3.97.002 3.838-.006 3.49c.736 4.79 2.769 7.788 6.438 10.913 4.715 2.08 9.265 1.763 14.362 1.732l3.5.014c3.202.01 6.403.006 9.605-.003 3.455-.007 6.91.004 10.365.012 6.766.013 13.533.01 20.3.002q8.25-.01 16.501-.005l2.372.002 4.77.003c14.915.008 29.829-.002 44.743-.018q19.191-.018 38.382.003a26208 26208 0 0 0 49.327.01l2.363-.001q8.238-.003 16.476.009 10.043.013 20.087-.01 5.124-.013 10.247-.001c3.704.008 7.408-.002 11.112-.017l3.265.02c5.874-.046 10.111-.546 15.287-3.401 5.444-5.625 4.252-13.504 4.313-20.812l.087-3.526c.05-6.715.024-11.423-4.4-16.662-6.109-3.45-11.637-3.426-18.545-3.388l-3.507-.016c-3.2-.012-6.399-.01-9.598-.003-3.456.005-6.91-.008-10.366-.018a6238 6238 0 0 0-20.291-.013q-8.246.006-16.491-.002l-2.372-.003-4.77-.004c-14.906-.014-29.812-.009-44.717.003-13.637.01-27.273-.003-40.91-.027a18962 18962 0 0 0-42.017-.027c-7.862.003-15.723 0-23.585-.017a4177 4177 0 0 0-20.073.002c-3.413.009-6.826.011-10.24-.004-3.7-.013-7.4-.002-11.1.016l-3.27-.03c-7.253.072-11.335.975-15.996 6.867"/><path fill="#404040" d="m66.563 98.813 2.816.019A29 29 0 0 1 76 100v2l7 1v3h2l.875 2.438c.858 2.695.858 2.695 3.125 3.562v3h-2v-2l-5 2 1-4-4-1v-2h-4l1.375 1.875c2.941 5.656 3.772 11.79 3.625 18.125h3v3h-3c-.081 1.937-.14 3.875-.187 5.813l-.106 3.269c.032 2.904.032 2.904 1.668 4.7L83 146l2.188 1.688L87 149c-1.573 3.774-3.43 5.53-7 7.313-7.785 3.126-16.199 2.424-24-.313-2.5-2.125-2.5-2.125-4-4l2.5-.812c2.732-1.915 2.732-1.915 2.867-4.66.013-4.65-.36-8.986-1.367-13.528h-3v-3h2l-.14-2.738-.11-3.575-.14-3.55C55 117 55 117 56.95 115.215L59 114l1.063-2.125C61 110 61 110 64 109l1-2H55v3l-3 1c-1.23 3.512-1.23 3.512-2 7l-4-1c.013-3.101.189-5.998 1-9 4.585-4 4.585-4 8-4l1-3c3.566-1.893 6.565-2.249 10.563-2.187"/><path fill="#16242e" d="M43.238 23.852C48.35 26.682 51.925 30.51 54 36c.88 4.968.67 9.361-1.687 13.875-3.485 4.709-7.675 8.537-13.61 9.496C32.198 59.547 27.866 58.435 23 54c-3.59-3.94-5.313-7.657-5.625-13 .364-6.24 2.814-10.439 7.387-14.605 5.697-4.126 11.846-5.066 18.476-2.543"/><path fill="#636363" d="M66 120h2v2l2.371-.035 3.067-.028 3.058-.035C79 122 79 122 80 123c.04 1.666.043 3.334 0 5h3v3h-3c-.081 1.937-.14 3.875-.187 5.813l-.106 3.269c.032 2.904.032 2.904 1.668 4.7L83 146l2.188 1.688L87 149c-1.573 3.774-3.43 5.53-7 7.313-7.785 3.126-16.199 2.424-24-.313-2.5-2.125-2.5-2.125-4-4l2.438-.937c2.723-1.769 2.723-1.769 3.117-4.266A84 84 0 0 0 58 140l2.25 2.438c2.946 2.997 2.946 2.997 6.75 3.562 3.238-1.853 3.238-1.853 6-4l-11-2v-2l1.5-1.437C65.346 135 65.346 135 65 132l9 1v-2h-7c-2.037-4.074-2.026-6.59-1-11"/><path fill="#030303" d="M90 107h2c6.24 7.52 7.394 15.537 7 25l-2 1c-.317 1.928-.317 1.928-.375 4.188-.399 4.709-1.71 7.145-4.625 10.812l-6-1-1-7h-2l-1-2h-2v-7h3v-3h-3l-.586-3.105-.789-4.082-.383-2.042c-.738-3.785-1.668-7.247-3.242-10.771h4v2l4 1v3l4-1v2h2z"/><path fill="#1d3437" d="m393.363 30.867 2.95.008 2.925-.008C402 31 402 31 404.23 31.57c1.86.654 1.86.654 3.77-.57 4.297-.496 7.02-.396 10.438 2.25C421 36 421 36 421 40h-6l-1-2c-2.025-.652-2.025-.652-4-1-.043 1.931-.043 1.931 1 4q3.48 1.546 7 3c2 1.75 2 1.75 3 4 0 4.057-.431 6.241-2.875 9.5-4.093 1.965-6.898 1.457-11.32.863-3.638-.47-7.143-.432-10.805-.363v-1l3.813-.5c2.744-.656 3.847-.968 5.386-3.379 1.321-3.47 1.321-3.47 1.801-7.121l-3-1v-2l-3-1v-4l-6-1v5h-1v-7c7.75-.125 7.75-.125 10 1v-2l-13-1v12h-1q-.04-3.22-.062-6.437l-.036-3.622c.13-3.887.13-3.887 3.461-4.074"/><path fill="#d0d9e0" d="M422 133c3.704 2.027 5.654 3.48 8 7 .614 4.26.437 7.972-1.25 11.938-2.314 2.726-4.391 3.853-7.934 4.398-3.999.07-6.243.005-9.753-2.086-3.086-3.366-3.958-5.09-4.375-9.687.338-3.856.902-5.572 3.312-8.563 3.932-3.167 7.022-3.611 12-3"/><path fill="#030303" d="M48 126a264 264 0 0 1 3 5l2.563 1c2.437 1 2.437 1 3.562 3.21 1.437 4.582 1.615 9.05.875 13.79-2.25 2.25-2.25 2.25-5 3-3.124 0-4.127-1.111-6.5-3.187-2.564-2.885-4.716-5.382-6.5-8.813.25-3.875.25-3.875 1-7l-3-1v-5c3.71-1.802 6.078-2.548 10-1"/><path fill="#0f2f39" d="m389 31 2 1v1l2.336-.035 3.039-.028 3.023-.035C402 33 402 33 404 34v2l-10-1 1 2h6l.313 2.313c.747 2.923 1.294 3.914 3.687 5.687 2.103.714 2.103.714 4 1l-2 2-.937 3.438c-.994 3.33-1.482 4.45-4.063 6.562v1h-12c-.125-10.75-.125-10.75 1-13h-2z"/><path fill="#cbd8de" d="M52.25 280.75c4.89.326 7.34 1.84 10.75 5.25.825 4.908.7 8.832-1.875 13.125-4.38 2.628-8.136 2.802-13.125 1.875-3.098-2.191-3.804-3.41-5-7-.375-3.375-.375-3.375 0-7 2.438-2.875 2.438-2.875 5-5 1-1 1-1 4.25-1.25"/><path fill="#b8a375" d="M139 128c1.875 1.5 1.875 1.5 3 3l-1 3 1.938-.562L145 133c1.56 1.56 1.245 3.09 1.313 5.25-.029 3.543-.239 4.63-2.188 7.75-3.06 2.88-4.655 3.121-8.75 3.063l-2.477-.028L131 149l-1-2h2v-4l-5 2c-2.338-3.507-2.33-4.876-2-9 .857-3.684 1.555-4.707 4.75-6.812 3.418-1.25 5.65-1.668 9.25-1.188"/><path fill="#6a6a6a" d="m58 115 1 2h5c2.112 9.41 2.112 9.41 3 14h7v2h-9l1 2-2 3h-2v2l12 1c-3.667 4.889-3.667 4.889-7 6-2.85-.282-3.874-.874-5.922-2.926l-1.828-2.387-1.86-2.363C56 137 56 137 56 133h-3v-3h2l-.105-2.773-.083-3.602-.105-3.586L55 117z"/><path fill="#283743" d="M57 389c3.375 2.063 3.375 2.063 6 5 .56 3.606.81 5.784-1.25 8.875-1.913 1.23-3.517 1.74-5.75 2.125v4c-3.187.313-3.187.313-7 0-2.875-2.437-2.875-2.437-5-5l-1-1c-.381-3.242-.66-5.852 1.012-8.762 3.78-4.69 7.06-5.935 12.988-5.238"/><path fill="#171717" d="M55 107h10l-1 3-3 1a159 159 0 0 0-3 5l-2 1c-.47 3.046-.47 3.046-.625 6.563l-.227 3.628L55 130h-2v2c-3.736-1.245-4.188-2.634-6-6l-9 1c.804-9.107.804-9.107 3-13h2l1-5h3c.93 2.606 1.15 3.642.063 6.25L46 117h4l2-7h3z"/><path fill="#192630" d="M51 442c2.438.375 2.438.375 5 1l1 2a101 101 0 0 0 6 2l-.562 2.75c-.622 3.103-.622 3.103.124 5.5L63 457c-2 2-2 2-4.625 2.125L56 459l-1 4c-1.937-.312-1.937-.312-4-1l-1-3h-5c-1.017-4.575-1.298-8.456 0-13h5z"/><path fill="#836936" d="m133.46 121.482 2.152-.02c2.326-.018 4.651-.007 6.978.007l4.89-.012q5.112-.008 10.225.022c4.352.022 8.703.01 13.055-.015 3.364-.014 6.728-.01 10.092 0q2.406.005 4.812-.01c15.673-.07 15.673-.07 22.336 4.546 2.562 3.062 2.562 3.062 4 6l-1 3-.25-1.875c-.536-2.228-.536-2.228-2.375-3.125L206 129l-2.973-2.036c-4.792-2.745-9.44-2.486-14.84-2.39l-3.167.01c-3.34.016-6.68.06-10.02.103q-3.274.018-6.547.03c-5.413.028-10.822.118-16.234.23-3.231.053-6.46.055-9.692.052q-3.075.038-6.152.083l-2.817-.037c-6.31.151-9.498 1.817-14.032 6.197-1.847 2.128-2.852 3.957-3.526 6.695l-.625 2.34L115 142h-1c-.521-5.837.165-9.158 3.223-14.14 4.756-4.976 9.509-6.36 16.238-6.378"/><path fill="#dcc388" d="m444 293 1 3h3c1 4.168 1.264 6.381-.437 10.375-3.55 3.635-5.554 3.544-10.563 3.625-2.537-1.269-2.786-2.497-4-5l-2-2c.077-4.14.417-6.314 3.125-9.5 3.713-1.937 5.872-1.442 9.875-.5"/><path fill="#967730" d="m437.74 286.546 1.953-.002c2.11.003 4.22.034 6.33.065q2.208.012 4.414.018c3.857.015 7.713.054 11.57.098 3.942.041 7.883.06 11.825.08 7.723.042 15.445.11 23.168.195v1h-55v3l2.313.812c2.668 1.18 3.887 1.95 5.687 4.188.852 3.725.678 7.388-.809 10.922-1.735 2.522-3.439 3.934-6.457 4.512-2.348.064-4.43.037-6.734-.434l-2-2 3.75.125c3.256-.012 5.584-.074 8.25-2.125 2.543-3.432 2.16-6.862 2-11l-4 1-1-2 1-2c-4.21-.413-6.356-.425-9.937 1.937-2.768 4.11-2.534 7.255-2.063 12.063-2.37-2.37-2.345-3.063-2.437-6.313.056-3.902.318-4.541 2.937-7.75L435 291c-3.786.264-5.713.778-8.75 3.125-2.648 3.384-3.354 5.72-4.25 9.875h-1c-.458-5.72.283-8.599 4-13 4.376-3.445 7.19-4.497 12.74-4.454"/><path fill="#8c8c8c" d="M66 120h2v2l2.371-.035 3.067-.028 3.058-.035C79 122 79 122 80 123c.04 1.666.043 3.334 0 5h3v3h-3l-.687 2.25c-1.616 3.385-3.122 4.792-6.313 6.75-3.312.25-3.312.25-6 0l2-5-5-1 1-2 9 1v-2h-7c-2.037-4.074-2.026-6.59-1-11"/><path fill="#60917d" d="m393.363 30.867 2.95.008 2.925-.008C402 31 402 31 404.23 31.57c1.86.654 1.86.654 3.77-.57 4.297-.496 7.02-.396 10.438 2.25C421 36 421 36 421 40h-6l-1-2c-2.025-.652-2.025-.652-4-1-.043 1.931-.043 1.931 1 4q3.48 1.546 7 3c2 1.75 2 1.75 3 4-.128 3.644-.24 6.057-2.562 8.938-.475.35-.95.7-1.438 1.062l-3-1 2.063-1.625c2.212-2.255 2.212-2.255 2.187-5.375-1.636-3.927-3.53-4.564-7.34-6.14C409 43 409 43 407 41c.556-4.556.556-4.556 2-6 2-.04 4-.043 6 0l1 3h2l-1-3c-3.119-1.56-5.573-1.36-9-1-1.917 2.25-1.917 2.25-3 5l-2 3-2-1v-3l-6-1v5h-1v-7c7.75-.125 7.75-.125 10 1v-2l-13-1v12h-1q-.04-3.22-.062-6.437l-.036-3.622c.13-3.887.13-3.887 3.461-4.074"/><path fill="#8399ad" d="m52 335 3 1 .813 2.938L57 342c3.018 1.452 3.018 1.452 6 2v3l-7 1-1 7-4-1v-2h-2l-1 3-5-1 1-4h2l-1.562-1.25L43 347c.313-2.187.313-2.187 1-4l6-1z"/><path fill="#6b6b6b" d="M74 109c2.623 1.799 3.817 3.123 4.473 6.266.25 2.247.43 4.475.527 6.734q-2.186.29-4.375.563l-2.46.316C70 123 70 123 68 122v-2h-2l-1 2-1-5h-5c.573-2.867.861-3.861 3-6 1.805-.887 1.805-.887 3.875-1.687l2.055-.825c2.427-.572 3.74-.326 6.07.512"/><path fill="#b9c3ca" d="M475 48v3h-6v2h2v2h-2v9h-4v-9l-1 1 .125 2.375C464 61 464 61 462.875 62.813c-2.71 1.715-4.738 1.52-7.875 1.187-2-2-2-2-2.25-5.5C453 55 453 55 455 53c2.383-.195 2.383-.195 5.125-.125l2.758.055L465 53l.375-1.937L466 49c2.957-1.478 5.742-1.06 9-1"/><path fill="#6a767f" d="M1085.563 341.938 1088 342l2 4-6-1v2l2.313.438C1089 348 1089 348 1092 349h4v-2l-5 1v-2c3.724-.693 7.21-1.111 11-1l1 4h2l1-4h2l-2 9h-4l-2-4-1 4h-17l-1-4 6 2c-1.392-2.784-3.156-2.979-6-4 1.073-5.977 1.073-5.977 4.563-6.062"/><path fill="#939ca3" d="M441 138h9l2 4 3.375-.562C459 141 459 141 461 142v9h-8l-1-5 6-1v-2l-3.687 1.438c-3.086 1.161-6.044 2.051-9.313 2.562v4h-4z"/><path fill="#858f96" d="m433 49 4.313-.187 2.425-.106c2.795.362 3.38 1.289 5.262 3.293 3.61.73 3.61.73 7 1v2l-2 1c-.465 1.895-.465 1.895-.625 4.063L449 64h-4l-1-7-2 2c-2.625.125-2.625.125-5 0v5h-4z"/><path fill="#e1d5b7" d="m170 133 4 1 1-1c2.5-.125 2.5-.125 5 0 1 1 1 1 1.125 3.5C181 139 181 139 180 140l2 1 .875-2.312C184 136 184 136 186 133h4l1 9c-3.836.959-6.823 1.102-10.75 1.063l-3.547-.028L174 143l3-6h-4v8l-4 1z"/><path fill="#1b2931" d="M572 493h6l4 4c2.603-.32 2.603-.32 5-1 2 2 2 2 2.125 5.625L589 505h-11l-1-4h-3v4h-2z"/><path fill="#393939" d="M72 100h4v2l7 1v3h2l.875 2.438c.858 2.695.858 2.695 3.125 3.562v3h-2v-2l-5 2 1-4-4-1v-2h-4l1 4-1.25-1.562L73 109c-3.004.518-5.866 1.587-8.75 2.563l-2.422.816L60 113l1-3 3-1c.733-2.015.733-2.015 1-4l6 1z"/><path fill="#1f2931" d="M424 136c2.628 2.168 3.776 3.653 4.34 7.04.098 2.148.098 2.148-.34 5.96l-3 2-2-2v-8l-2-2c-3.1.322-3.1.322-6 1l.25 3.813c.016 2.207.016 2.207-.25 4.187-2 2-2 2-4 3-2.36-3.541-2.573-4.828-2-9 3.94-6.327 7.775-8.042 15-6"/><path fill="#7f8990" d="M299 192h2v11h-17l1-5h4v-2l-5 1v-2c2.875-.625 2.875-.625 6-1l2 2 3-2h3z"/><path fill="#d6dfe6" d="M1772.77 491.152C1775 492 1775 492 1776 493c.41 3.196.283 4.592-1.574 7.273l-2.113 2.102-2.075 2.148C1768 506 1768 506 1765.23 505.727L1763 505c1.65-4.292 4.738-6.88 8-10l2 1-1.496 1.46-1.941 1.915-1.934 1.898c-1.708 1.644-1.708 1.644-2.629 3.727l2.313-2.312c1.448-1.449 2.91-2.886 4.437-4.25 1.515-1.743 1.862-3.187 2.25-5.438-4.734 1.392-8.19 3.968-11 8-.504 3.254-.504 3.254 0 6 2.324.335 2.324.335 5 0 2.25-1.72 2.25-1.72 4.188-4a103 103 0 0 1 3.812-4h2c-1.424 3.301-3.14 5.358-5.812 7.75l-2.02 1.86c-2.624 1.682-4.105 1.746-7.168 1.39-1.812-1.125-1.812-1.125-3-3-.522-3.949-.339-5.527 2.012-8.809l2.676-2.628 2.636-2.684C1770 491 1770 491 1772.77 491.152"/><path fill="#d5dee5" d="M232.77 189.152C235 190 235 190 236 191c.41 3.196.283 4.592-1.574 7.273l-2.113 2.102-2.075 2.148C228 204 228 204 225.23 203.727L223 203c1.65-4.292 4.738-6.88 8-10l2 1-1.496 1.46-1.941 1.915-1.934 1.898c-1.708 1.644-1.708 1.644-2.629 3.727l2.313-2.312c1.448-1.449 2.91-2.886 4.437-4.25 1.515-1.743 1.862-3.187 2.25-5.438-4.734 1.392-8.19 3.968-11 8-.504 3.254-.504 3.254 0 6 2.324.335 2.324.335 5 0 2.25-1.72 2.25-1.72 4.188-4a103 103 0 0 1 3.812-4h2c-1.424 3.301-3.14 5.358-5.812 7.75l-2.02 1.86c-2.624 1.682-4.105 1.746-7.168 1.39-1.812-1.125-1.812-1.125-3-3-.522-3.949-.339-5.527 2.012-8.809l2.675-2.629 2.637-2.683C230 189 230 189 232.77 189.152"/><path fill="#788da0" d="M51 442c2.438.375 2.438.375 5 1l1 2a101 101 0 0 0 6 2l-.562 2.75c-.622 3.103-.622 3.103.124 5.5L63 457c-2 2-2 2-4.625 2.125L56 459l-1 4c-1.937-.312-1.937-.312-4-1l-1-3h-5c-1.017-4.575-1.298-8.456 0-13h5zm1 2-2 3-4 1v9l2.438.375L51 458l1 2 1.75-.937C56 458 56 458 60 457v-9l-4-1-2-3z"/><path fill="#131313" d="M75 108h4v2l4 1v3l4-1c-.779 11.522-.779 11.522-3 17l-1-2h-3l-.586-3.105-.789-4.082-.383-2.042c-.738-3.785-1.668-7.247-3.242-10.771"/><path fill="#b1c1c7" d="M77 284c1.938.063 1.938.063 4 1 1.25 3.063 1.25 3.063 2 6l1.688-2.062C87 287 87 287 89.688 287.125 92 288 92 288 93 290h-5l-1 4 6-1v2c-4.077.604-7.89 1-12 1v-3h-5v3h-3q.713-2.72 1.438-5.437l.808-3.06C76 285 76 285 77 284"/><path fill="#b9c2c9" d="M526 139h4c.91 3.073 1.089 5.801 1 9l6 1v-2l-5-1 1-5h6l1 3-5-1v2l5 1v4c-1 1-1 1-3.687 1.133l-3.313-.008-3.312.008C527 151 527 151 526 150a71 71 0 0 1-.625-4.437c-.095-.804-.19-1.607-.29-2.434C525 141 525 141 526 139"/><path fill="#8692a2" d="M484 22c2 2 2 2 2.266 3.875L486.25 28l.016 2.125C486 32 486 32 484 34c-3.103.33-5.158.505-7.875-1.125-1.654-2.756-1.519-4.726-1.125-7.875 2.213-3.689 4.978-3.428 9-3"/><path fill="#7d92a6" d="M57 389c3.375 2.063 3.375 2.063 6 5 .56 3.606.81 5.784-1.25 8.875-1.913 1.23-3.517 1.74-5.75 2.125v4c-3.187.313-3.187.313-7 0-2.875-2.437-2.875-2.437-5-5l-1-1c-.381-3.242-.66-5.852 1.012-8.762 3.78-4.69 7.06-5.935 12.988-5.238m-9.937 4.125c-2.25 2.709-2.25 2.709-2.626 5.875.701 3.737 1.769 5.432 4.563 8 2.67.419 2.67.419 5 0v-4l7-2c.318-3.496.396-5.397-1.562-8.375-4.523-3.015-8.051-2.628-12.376.5"/><path fill="#b2bbc2" d="M1129 573h15v2l-2 1c-.658 3.03-.658 3.03-1 6l-1.687-.562c-2.712-.514-4.657-.102-7.313.562l-1 3h-2z"/><path fill="#818d9c" d="M507 22c6.625-.25 6.625-.25 10 2 .37 3.395.61 5.89-1.062 8.938-2.95 1.617-5.647 1.248-8.938 1.062z"/><path fill="#c1cfd5" d="M52.25 280.75c4.89.326 7.34 1.84 10.75 5.25.845 5.028.728 8.874-2.062 13.188C58 301 58 301 54.188 300.813L51 300v-1h6l-1-4 4 1c.651-5.908.651-5.908-1.625-11.062-3.076-1.215-5.094-1.416-8.375-.938-2.52 1.437-2.52 1.437-4 4-.5 3.584-.5 3.584 0 7l2 2-3 1c-2.344-3.662-2.525-6.724-2-11 2.438-2.875 2.438-2.875 5-5 1-1 1-1 4.25-1.25"/><path fill="#c8d1d8" d="M494 141c6.055-.195 6.055-.195 8 0 2 2 2 2 2.188 5-.188 3-.188 3-1.188 5h-5l-1 4h-3z"/><path fill="#a4602f" d="m135 131 3 1v5h5v4l-1.875.188c-2.403.64-2.403.64-3.375 3.375L137 147l-3-1-.375-1.937L133 142c-2.49-1.297-2.49-1.297-5-2l1-3h5l-.062-2.437C134 132 134 132 135 131"/><path fill="#a8a8a8" d="M78 138h1l.625 3.313c1.032 3.916 1.032 3.916 4.5 5.625L87 148c-1.187 2.938-1.187 2.938-3 6-2.687.875-2.687.875-5 1l-.125-1.875L78 151c-2.996-1.305-2.996-1.305-6-2 .375-1.937.375-1.937 1-4l2-1a125 125 0 0 0 2-5z"/><path fill="#364651" d="M601 494c.75 1.688.75 1.688 1 4-1.937 2.75-1.937 2.75-4 5l4 2-6.055-.293L594 505l-2 3-2-1c.06-1.793.149-3.584.25-5.375l.14-3.023c.61-2.602.61-2.602 2.532-3.891L595 494c2.49-1.245 3.41-.777 6 0"/><path fill="#c7d0d7" d="M1205 573q3.505.473 7 1c3.307-.369 3.307-.369 6-1l1 3-4-1v2l5 1-1 4h-6v-2l2-1-10-1v2h6l-1 2c-2 .043-4 .04-6 0-1-1-1-1-1.187-3.937C1203 575 1203 575 1205 573"/><path fill="#294c4c" d="M53 282.438c3.883.727 5.462 1.502 8 4.562.414 3.045.294 5.947 0 9l-2 1c-1.422-3.317-2.39-6.442-3-10a100 100 0 0 0-5 0c-1.356 1.125-1.356 1.125-1.062 4.063L50 294l-4 2c-1-1-1-1-1.375-4.25.375-3.75.375-3.75 2.5-6.687C50 283 50 283 53 282.438"/><path fill="#828282" d="M66 134c2.25.25 2.25.25 4 1l-2 4c4.814.566 7.203-1.174 11-4-.706 3.669-2.277 6.705-4 10h-2l-1 4 6 1 .375 2.438L79 155l2 1h-5l-1-3-2-1v-2h-2c.875-6.875.875-6.875 2-8l-11-2c0-2 0-2 1.75-4.187z"/><path fill="#bcc5cc" d="M1817 494h3v2h2v2h-2v5h2l1-3h5v-2l-5 1 1-3a100 100 0 0 1 5 0c1 1 1 1 1.098 2.848L1830 505h-12c-2.429-7.429-2.429-7.429-1-11"/><path fill="#ccd6dc" d="M422 133c3.704 2.027 5.654 3.48 8 7 .621 4.31.436 8.004-1.312 12-1.688 2-1.688 2-4.688 3-2.125-4.625-2.125-4.625-1-8l3 3c1.435-1.215 1.435-1.215 1.25-4.812-.056-2.617-.245-4.175-1.25-6.625-3.07-2.399-6.143-2.902-10-2.563-2.91 1.677-2.91 1.677-5 4l-2 2c0-4 0-4 1.875-6.187 3.721-3.175 6.257-3.219 11.125-2.813"/><path fill="#64707e" d="M550 22c6.055-.195 6.055-.195 8 0l2 2a236 236 0 0 1-1 7l1 3c-3.27-.564-4.826-1.5-7-4v4h-3z"/><path fill="#454545" d="m58 129 .875 2.75L60 135l.688 2.125c1.227 2.169 1.227 2.169 4.132 2.703l3.305.422c1.096.15 2.191.3 3.32.453L74 141c-2.104 2.927-3.502 4.834-7 6-2.85-.282-3.874-.874-5.922-2.926l-1.828-2.387-1.86-2.363C56 137 56 137 56 133l-3-1h2v-2c2-1 2-1 3-1"/><path fill="#98a2a8" d="M1116 570h8v12h-8z"/><path fill="#263541" d="m112 449 1-1c2-.04 4-.043 6 0v2h-3v7q-2.47.039-4.937.063l-2.778.035C106 457 106 457 105 456q-.061-3.5 0-7c2.665-1.332 4.148-.585 7 0"/><path fill="#8693a2" d="M491 22h4c1.75 2.5 1.75 2.5 3 5l1-5h3v12c-4-1-4-1-5.75-3.562L495 28l-1 6h-3z"/><path fill="#3c726d" d="m393.363 30.867 2.95.008 2.925-.008c2.432.117 4.424.53 6.762 1.133l2.063-.562L410 31l3 2-2.75.563c-4.458 1.971-5.17 4.117-7.25 8.437l-2-1v-3l-6-1v5h-1v-7c7.75-.125 7.75-.125 10 1v-2l-13-1v12h-1q-.04-3.22-.062-6.437l-.036-3.622c.13-3.887.13-3.887 3.461-4.074"/><path fill="#1f2b36" d="M319 261c5.99 0 10.6 3.221 15 7 3.691 4.375 6.118 8.3 7 14l-2 1v-4h-3c-1.176-1.61-1.176-1.61-2.312-3.75-2.314-3.956-4.651-5.968-8.688-8.25l-3-2 1-1-6-1z"/><path fill="#586b7a" d="m523 494 1 2h2l1 2 2-2c2.625.375 2.625.375 5 1v8c-5.75.125-5.75.125-8-1l-3 1v-7h-2v-2h2z"/><path fill="#715b46" d="M472 296h9c.7 3.153 1 5.727 1 9l-3.25.375c-3.918.464-3.918.464-7.75 2.625z"/><path fill="#daccaf" d="M456 296h6l2 6 2-4 4 1v6h-14z"/><path fill="#b5bfc6" d="M476 141h3l1 2 2-2c2.625-.125 2.625-.125 5 0l2 4h-3v-2h-3v6h3v-2l3 1v2c-2.645 1.322-4.678 1.097-7.625 1.063l-3.04-.028L476 151z"/><path fill="#97a2aa" d="M419 447c3.375-.125 3.375-.125 7 0l2 2a225 225 0 0 1-1 6c.358 2.277.358 2.277 1 4h-3l-1-4h-2v4h-3z"/><path fill="#9b8a75" d="M444 291c3.048 1.3 3.811 2.25 6 5 .985 3.882.76 7.229-.82 10.914-1.118 1.649-1.118 1.649-4.18 4.086-3.085.59-5.92.63-9 0l-2-2 3.75.125c3.256-.012 5.584-.074 8.25-2.125 2.543-3.432 2.16-6.862 2-11l-4 1-1-2 1-2c-4.21-.413-6.356-.425-9.937 1.938-2.768 4.108-2.534 7.254-2.063 12.062-2.37-2.37-2.345-3.063-2.437-6.312.102-3.535.409-4.643 2.375-7.75 4.144-2.623 7.286-2.952 12.062-1.938"/><path fill="#aeb8bf" d="M440 246c3.375-.125 3.375-.125 7 0l2 2a225 225 0 0 1-1 6c.358 2.277.358 2.277 1 4-2.993-.998-3.948-1.752-6-4v4h-3z"/><path fill="#cbd4db" d="M486.438 52.813C490 53 490 53 492 55v4h-8l1 2h7l-2 3c-3.5.375-3.5.375-7 0-2-3-2-3-1.687-6.625.882-4.331.882-4.331 5.125-4.562"/><path fill="#9c9c9c" d="M72.188 108c2.154 1.189 3.402 1.956 4.812 4v6l-12-1-1-4c5.366-5 5.366-5 8.188-5"/><path fill="#929292" d="m66.813 98.875 2.957.055L72 99l-1 7c-4.714-.48-8.666-.968-13-3v2l-6 2 1-3h2l1-3c3.653-1.96 6.714-2.224 10.813-2.125"/><path fill="#909cad" d="M433 22h8c.625 2.313.625 2.313 1 5l-2 3-4-1v3l5-1v3h-8z"/><path fill="#69757d" d="M1177 345q2.969-.04 5.938-.062l3.34-.036C1189 345 1189 345 1190 346c.141 2.67.042 5.324 0 8h-3v-7h-2v7h-3v-7h-2v7h-3z"/><path fill="#d3c5a9" d="M486 296c1.945-.293 1.945-.293 4.125-.187L494 296v11h-3l-1-2a109 109 0 0 0-7-1c.547-3.375 1.055-5.082 3-8"/><path fill="#c6d0d7" d="M260 194c3.375-.125 3.375-.125 7 0l2 2c-.375 3.625-.375 3.625-1 7h-5v3h-3z"/><path fill="#174e54" d="M408 46c6.6.6 6.6.6 9 3-.556 4.556-.556 4.556-2 6-1.666.04-3.334.043-5 0l-1-2 5-1-1-3h-4l-2 7 3.438.375L414 57l1 2-2.125-.219c-5.658-.553-11.19-.888-16.875-.781v-1l3.813-.5c2.742-.654 3.845-.948 5.351-3.379.717-2.024 1.284-4.047 1.836-6.121z"/><path fill="#7a8fa2" d="m572 202 4 1 1 4 2-5h4v10l-4-1-3 1-1-2-1 2h-2z"/><path fill="#cdd6dd" d="M470 139h3v2h2v2h-2v6h2v2l-5-1v-7l-4 1-1 7h-3v-10h8z"/><path fill="#c7d0d7" d="M475 48v3h-6v2h2v2h-2v9h-4a357 357 0 0 1-.625-5.25l-.352-2.953C464 52.836 464.36 51.433 466 49c2.957-1.478 5.742-1.06 9-1"/><path fill="#8895a4" d="M573 22c4 1 4 1 5.75 3.563L580 28l1-6h2v12c-4-1-4-1-5.25-3.062L577 29l-1 5h-3z"/><path fill="#50a688" d="M141.438 102.688c2.562.312 2.562.312 4.437 1.5C147 106 147 106 146.813 108.562 146 111 146 111 144 113c-2.5.25-2.5.25-5 0-2-2-2-2-2.25-5 .31-3.729.905-4.828 4.688-5.312"/><path fill="#7b90a4" d="M96 528q.039 2.718.063 5.438l.035 3.058C96 539 96 539 95 540c-2 .04-4 .043-6 0l-1-2h5l-1.937-.437C89 537 89 537 88 536q-.061-3.5 0-7c2.709-1.354 5.01-1.065 8-1"/><path fill="#b0b0b0" d="M66 120h2v2h11v10h-3l-2-5h-8c-1.125-4.75-1.125-4.75 0-7"/><path fill="#7d92a5" d="M459.5 201.75c2.5.25 2.5.25 4.5 2.25.25 3 .25 3 0 6-2 2-2 2-4.5 2.25C457 212 457 212 455 210c-.25-3-.25-3 0-6 2-2 2-2 4.5-2.25"/><path fill="#bcc5cc" d="m451 140 1 2 3.375-.562C459 141 459 141 461 142v9h-8l-1-5 6-1v-2l-7 1z"/><path fill="#687c8d" d="M488 493h2v12q-3.5.062-7 0c-1-1-1-1-1.062-4.562L482 497l5-1z"/><path fill="#8a97a7" d="m597 22 2 4-7-1v6h3l-1-3h5c-.875 4.875-.875 4.875-2 6-5.24.456-5.24.456-7.875-1.125-1.654-2.756-1.519-4.726-1.125-7.875 2.23-3.715 4.966-3.269 9-3"/><path fill="#5f7181" d="M572 493h6l2 2a225 225 0 0 1-1 6c.358 2.277.358 2.277 1 4h-2l-1-4h-3v4h-2z"/><path fill="#6a7e8f" d="M450 496h6l2 2c-.375 3.625-.375 3.625-1 7h-5v3h-2z"/><path fill="#768a9d" d="M95 395h6c2 2 2 2 2.188 5.063C103 403 103 403 102 404c-1.666.04-3.334.043-5 0v3h-2z"/><path fill="#a15a2a" d="M438 294h3l1 4 4 1v3l-4 1-1 4h-3l-1-4-4-1v-3l4-1z"/><path fill="#1e2b36" d="m38 263-1.687 1.25L34 266l-2.5 1.875c-2.56 2.175-4.467 4.461-6.5 7.125l-6 6c.3-6.003 2.971-9.772 7-14 7.06-5.745 7.06-5.745 12-4"/><path fill="#6f8395" d="M115 194c6 0 6 0 8 1v7l-5 1-1 3h-2z"/><path fill="#728698" d="M84 191h2v12h-7c-.625-3.375-.625-3.375-1-7l2-2h3z"/><path fill="#cdbca0" d="M153 133c5.75-.125 5.75-.125 8 1v9l-4-1-4 1z"/><path fill="#707070" d="m75 101 8 2v3h2l.875 2.438c.858 2.695.858 2.695 3.125 3.562v3h-2v-2l-5 2 1-4-3-1v-3h-4z"/><path fill="#49987e" d="M125 103q3.5-.061 7 0c1.78 1.78 1 4.597 1 7l1 3-4-1v-2h-2v3h-3z"/><path fill="#8894a4" d="M609.125 21.875 612 22l1 3-6-1c1.507 3.013 4.032 3.61 7 5-.875 3.875-.875 3.875-2 5-5.53.235-5.53.235-8-1v-3h3v2l3-2-2.437-.75C605 28 605 28 604.063 26L604 24c2-2 2-2 5.125-2.125m-82 0L530 22l1 3-6-1c1.507 3.013 4.032 3.61 7 5-.875 3.875-.875 3.875-2 5-5.53.235-5.53.235-8-1v-3h3v2l3-2-2.437-.75C523 28 523 28 522.063 26L522 24c2-2 2-2 5.125-2.125"/><path fill="#104851" d="M403 46c1 1 1 1 1.125 4C404 53 404 53 403 54c-1.52.072-3.042.084-4.562.063l-2.504-.028L394 54c-.25-2.312-.25-2.312 0-5 2.778-2.983 5.009-3.431 9-3"/><path fill="#16292f" d="m415 46 3 1c.75 2.75.75 2.75 1 6-1.562 2.375-1.562 2.375-4 4-3.145.315-5.16.42-8-1l1-7 5-1 2 4-5 2h5c.8-3.287 1.097-4.71 0-8"/><path fill="#ccd5dc" d="m1792 493 4 1 3 11h-3v-3h-5v3h-3c.66-2.846 1.517-5.523 2.563-8.25l.816-2.14z"/><path fill="#74889a" d="M69 194h6c2 2 2 2 2.25 4.5C77 201 77 201 75 203h-4v3h-2z"/><path fill="#837660" d="M143 123v1l-3.437.191c-11.156.67-11.156.67-20.18 6.723-2.294 3.46-3.505 7.05-4.383 11.086h-1c-.518-5.807-.01-9.493 3.418-14.3 6.33-6.8 17.122-4.977 25.582-4.7"/><path fill="#95a2b2" d="M447 22h9v2h-6v3h5v2h-5v3h6v2h-9z"/><path fill="#637687" d="M74 445h6c2 2 2 2 2.188 4.563C82 452 82 452 81 453c-1.666.04-3.334.043-5 0v4h-2z"/><path fill="#1c1c1c" d="M79 133h1v5l3-1v3h2v5l1.813.875C89 147 89 147 92 149l-4 3v-2l-2-1c-5.85-3.701-5.85-3.701-7-6a95 95 0 0 1-.062-5.125l.027-2.758z"/><path fill="#697c8d" d="M468 409h12l-2 2c-.648 2.57-.648 2.57-1 5h-8l-1 3z"/><path fill="#6a7e90" d="M538 202c2.875-.125 2.875-.125 6 0l2 2c-.3 1.673-.636 3.34-1 5l1 3h-3l-1-2-1 2h-3z"/><path fill="#6c7880" d="M1122 342h3l1 9h3l1-8h2q.039 2.469.063 4.938l.035 2.777C1132 353 1132 353 1131 354c-3.437.188-3.437.188-7 0-2-2-2-2-2.195-4.383l.07-2.742.055-2.758z"/><path fill="#b0bac1" d="M477 246h3c.195 1.624.38 3.25.563 4.875l.316 2.742C481 256 481 256 480 258h-3v-2h-5c1.14-3.856 2.178-7.065 5-10"/><path fill="#bfc9d0" d="M256 191h3q.079 2.438.125 4.875l.07 2.742C259 201 259 201 257 203c-3.562.188-3.562.188-7 0-1-1-1-1-1.098-3.285l.036-2.778.027-2.785L249 192h2l1 8h3z"/><path fill="#c7d0d7" d="M515 141c6.055-.195 6.055-.195 8 0 2 2 2 2 2.195 3.945L525 151h-3l-1-7h-2l-1 7h-3z"/><path fill="#8094a8" d="m51 442 5 1 1 3-2 1-3-3-2 4h-4l.563 3.375C47 455 47 455 46 457h5v4l-1-2h-5c-1.017-4.575-1.298-8.456 0-13h5z"/><path fill="#c4d1d7" d="M105 287c3.125.375 3.125.375 6 1q.061 3.5 0 7c-1 1-1 1-4 1.125-3-.125-3-.125-4-1.125-.187-2.937-.187-2.937 0-6z"/><path fill="#323232" d="m58 115 1 2h5l1 6c-6.625 1.125-6.625 1.125-10 0-.187-2.875-.187-2.875 0-6z"/><path fill="#a1abb3" d="M462 450h6v9h-3l-1 3-4-1h2z"/><path fill="#7e8890" d="M276 194c3.125.375 3.125.375 6 1q.062 3.5 0 7l-1 1a177 177 0 0 1-7-1c-.125-2.875-.125-2.875 0-6z"/><path fill="#c8d1d8" d="M1061 570h6v2h-4v4h5l1-3-.062 2.813c-.096 3.21-.096 3.21 1.062 6.187-1.937-.375-1.937-.375-4-1l-1-2-1 3h-3z"/><path fill="#627586" d="M105 529c1 1 1 1 1.188 3.438C106 535 106 535 104 537c-2.562.188-2.562.188-5 0-1-1-1-1-1.062-4.562L98 529c2.684-1.342 4.153-.73 7 0"/><path fill="#7c91a4" d="M80 528c3.125.375 3.125.375 6 1q.061 3.5 0 7c-1 1-1 1-3.437 1.188C80 537 80 537 78 535c-.25-2.5-.25-2.5 0-5z"/><path fill="#313b43" d="M1774 493c-.314 5.187-3.3 8.595-7 12h-2c1.527-3.436 3.6-6.12 6-9a517 517 0 0 0-3.5 3.375l-1.969 1.898c-1.752 1.592-1.752 1.592-1.531 3.727l3 2c-1.937.563-1.937.563-4 1-1-1-1-1-1.562-3.562 1.04-6.364 6.112-11.438 12.562-11.438"/><path fill="#67798a" d="m614.504 408.902 3.058.036 3.067.027L623 409l-2 2c-.648 2.57-.648 2.57-1 5-6.152.098-6.152.098-8 0-1-1-1-1-1.125-3.5.169-3.37.255-3.466 3.629-3.598m-48 0 3.058.036 3.067.027L575 409l-2 2c-.648 2.57-.648 2.57-1 5-6.152.098-6.152.098-8 0-1-1-1-1-1.125-3.5.169-3.37.255-3.466 3.629-3.598"/><path fill="#7a8fa2" d="m77 393 4 1c1.047 2.285 1.047 2.285 1.75 5.063l.734 2.785L84 404h-3v-3h-5v3l-3-1z"/><path fill="#313b43" d="M234 191c-.314 5.187-3.3 8.595-7 12h-2c1.527-3.436 3.6-6.12 6-9a517 517 0 0 0-3.5 3.375l-1.969 1.898c-1.752 1.592-1.752 1.592-1.531 3.727l3 2c-1.937.563-1.937.563-4 1-1-1-1-1-1.562-3.562C222.478 196.074 227.55 191 234 191"/><path fill="#6f8395" d="M554 496c4.556.556 4.556.556 6 2 .188 2.438.188 2.438 0 5-2 2-2 2-4.562 2.188C553 505 553 505 552 504c-.187-2.937-.187-2.937 0-6z"/><path fill="#708496" d="M465 496c4.556.556 4.556.556 6 2 .125 3 .125 3 0 6-1 1-1 1-3.437 1.188C465 505 465 505 463 503c-.25-2.5-.25-2.5 0-5z"/><path fill="#7a8fa2" d="M103 341q2.718-.04 5.438-.062l3.058-.036C114 341 114 341 115 342c.141 2.67.042 5.324 0 8h-2v-7h-3v7h-2v-7h-3v7h-2z"/><path fill="#7c91a4" d="M37 34c-1.875 3.875-1.875 3.875-3 5l10 1v2l-11 1 2 1.875C37 47 37 47 37 49h-2a263 263 0 0 1-4-5l-2-1c.46-4.147 3.516-9 8-9"/><path fill="#728698" d="M138 195c.625 2.875.625 2.875 1 6-2 2-2 2-4.562 2.188C132 203 132 203 131 202q-.061-3.5 0-7c2.667-1.333 4.167-.671 7 0"/><path fill="#4ea185" d="M114 103c5.75-.125 5.75-.125 8 1v5l-5 1v3h-3z"/><path fill="#d8e1e8" d="M434 50h7v1h-5v6l6-1v-3h2c-.875 4.875-.875 4.875-2 6-1.666.04-3.334.043-5 0v5h-3z"/><path fill="#708496" d="M506 202h3v8h3v-8h3c.195 6.055.195 6.055 0 8-2 2-2 2-4.5 2.25C508 212 508 212 506 210c-.27-2.688-.087-5.291 0-8m-39 0h3v8h3v-8h3c.195 6.055.195 6.055 0 8-2 2-2 2-4.5 2.25C469 212 469 212 467 210c-.27-2.688-.087-5.291 0-8"/><path fill="#d7e0e7" d="M514 142v9h-8l-1-4 4-1-1 3 3-1 1-2-2-1 1-2-6 1v-2c3.069-1.534 5.7-.55 9 0"/><path fill="#e0cda0" d="M141 131v3h3v3h-6l-1-5h-2l-1 5h-6c.352-2.548.868-3.847 2.563-5.812 3.706-1.806 6.425-.924 10.437-.188"/><path fill="#bbc4cb" d="M1815 497c1 1 1 1 1.063 4.563L1816 505h-8l1-5h4v-2l-5 1v-2c2.684-1.342 4.153-.73 7 0"/><path fill="#d4dde4" d="M456 448h3c.195 1.457.38 2.916.563 4.375l.316 2.46C460 457 460 457 459 459h-2v-2h-6c1.24-3.432 2.503-6.303 5-9"/><path fill="#67737c" d="M1175 346c1 1 1 1 1.063 4.563L1176 354h-8l1-5h4v-2l-5 1v-2c2.684-1.342 4.153-.73 7 0"/><path fill="#cdd6dd" d="M1109 573a100 100 0 0 1 5 0c1 1 1 1 1.098 2.848L1115 582h-7l-1-4 5-1v-2l-4 1z"/><path fill="#c9d3da" d="M436 451c1 1 1 1 1.063 4.563L437 459h-7l-1-4 5-1v-2l-5 1v-2c2.684-1.342 4.153-.73 7 0"/><path fill="#d1dae1" d="M1163.625 572.875 1166 573l2 5h-6v2h5v2c-2.875.125-2.875.125-6 0-2-2-2-2-2.25-4.5.359-3.585 1.28-4.454 4.875-4.625"/><path fill="#bec7ce" d="M1184 573q3.5-.062 7 0c1 1 1 1 1.098 2.848L1192 582h-3v-7h-2v7h-3z"/><path fill="#5a6c7b" d="M609 493h2c.195 1.624.38 3.25.563 4.875l.316 2.742C612 503 612 503 611 505h-2v-2h-5c.501-4.385 1.983-6.8 5-10"/><path fill="#343434" d="M81 113h6c-.779 11.522-.779 11.522-3 17l-1-2h-3v-5l2 1c.125-5.578.125-5.578-1-11"/><path fill="#7c91a5" d="M43.063 522.938 46 523v2h-5v15h5v2c-2 .043-4 .04-6 0-1.886-1.886-1.132-4.578-1.137-7.082l.012-2.418-.012-2.418c.012-7.059.012-7.059 4.2-7.144"/><path fill="#404e5b" d="M449 406h2v10c-2 .043-4 .04-6 0-1-1-1-1-1.187-3.437C444 410 444 410 446 408h3z"/><path fill="#b1c1c6" d="M122 287h7c1.478 2.957 1.06 5.742 1 9h-3v-7h-2v7h-3z"/><path fill="#6f8496" d="M563 202h3c3 6.625 3 6.625 3 10h-3v-2h-4v2h-2q.463-2.22.938-4.437l.527-2.497C562 203 562 203 563 202m-139 0h3c3 6.625 3 6.625 3 10h-3v-2h-4v2h-2q.463-2.22.938-4.437l.527-2.497C423 203 423 203 424 202"/><path fill="#958775" d="M139 128c1.676 1.523 1.676 1.523 3 3l-1.793-.176c-4.343-.248-6.579-.226-10.332 2.176-2.62 4.192-1.92 6.255-.875 11h-3c-1.753-3.507-1.244-6.952-.375-10.687 2.924-4.919 7.957-6.035 13.375-5.313"/><path fill="#e4d7ba" d="M186 133h4l1 9-4 1v-2h-4c.547-3.375 1.055-5.082 3-8"/><path fill="#bdc6ce" d="m444 447 6 1c.37 4.554.37 4.554-1.5 6.813L447 456l3 1v2h-8c1.307-2.916 2.759-4.759 5-7v-2l-2-1v2h-3z"/><path fill="#a8b2b9" d="M452 249c4.875.875 4.875.875 6 2q.062 3.5 0 7h-7l-1-4 5-1v-2l-4 1z"/><path fill="#7c90a4" d="M479 202c4 2 4 2 5 4l1-4h2v10c-4-2-4-2-5-4l-1 4h-2z"/><path fill="#7c91a4" d="M549 202c4 2 4 2 5 4l1-4h2v10c-4-2-4-2-5-4l-1 4h-2z"/><path fill="#cdd6dd" d="M1148.563 572.938 1151 573l1 5h-5v2h5v2c-2.875.125-2.875.125-6 0l-2-2c.711-6.969.711-6.969 4.563-7.062"/><path fill="#707c84" d="M1193 345c3.125.375 3.125.375 6 1v4h-5v2h5l-1 2-7-1c-.125-2.875-.125-2.875 0-6z"/><path fill="#c6d3d9" d="M52.375 280.813C56 281 56 281 59 283c-3 1-3 1-5.937.813-3.109-.065-3.109-.065-5.438 1.75-2.203 3.305-2.057 5.545-1.625 9.437l2 2-3 1c-2.344-3.662-2.525-6.724-2-11 2.438-2.875 2.438-2.875 5-5 1-1 1-1 4.375-1.187"/><path fill="#6a7d8f" d="M528 202h7v2h-4v2h4v2h-4v2h4v2h-7z"/><path fill="#8a97a7" d="M460 22c2.867.573 3.861.861 6 3l2-3 3 1-1.437 2.125c-1.65 3.036-2.167 5.467-2.563 8.875h-3l-.875-3.187c-.897-3.041-1.89-5.9-3.125-8.813"/><path fill="#464646" d="M64.125 126.875 67 127v4h7v2l-11-1v2h-3c-.625-2.375-.625-2.375-1-5 2-2 2-2 5.125-2.125"/><path fill="#b8c2c9" d="M1778 499c-1.424 3.301-3.14 5.358-5.812 7.75l-2.02 1.86c-2.624 1.682-4.105 1.746-7.168 1.39-1.812-1.125-1.812-1.125-3-3-.187-3.187-.187-3.187 0-6l2 1c.625 2.563.625 2.563 1 5 2.324.335 2.324.335 5 0 2.25-1.72 2.25-1.72 4.188-4 3.631-4 3.631-4 5.812-4"/><path fill="#708395" d="M417 409h6c1.125 4.75 1.125 4.75 0 7h-4v3h-2z"/><path fill="#727e86" d="M1111 345c2.625.375 2.625.375 5 1l1 4h-6v2h6l-1 2c-2 .043-4 .04-6 0-1-1-1-1-1.187-3.937C1109 347 1109 347 1111 345"/><path fill="#b8c2c9" d="M238 197c-1.424 3.301-3.14 5.358-5.812 7.75l-2.02 1.86c-2.624 1.682-4.105 1.746-7.168 1.39-1.812-1.125-1.812-1.125-3-3-.187-3.187-.187-3.187 0-6l2 1c.625 2.563.625 2.563 1 5 2.324.335 2.324.335 5 0 2.25-1.72 2.25-1.72 4.188-4 3.631-4 3.631-4 5.812-4"/><path fill="#c1cad1" d="M291 195v8h-7l1-5h4v-2l-5 1v-2c2.667-1.333 4.167-.671 7 0"/><path fill="#cad3da" d="M533 141h6l1 3-5-1v2l5 1v4c-1 1-1 1-3.562 1.063L534 151l3-1v-3l-5-1z"/><path fill="#0c1c26" d="m396 45 3 1-1.937 1.125c-2.702 2.456-2.747 4.32-3.063 7.875h8v2h-11c-.312-3.187-.312-3.187 0-7 2.5-2.937 2.5-2.937 5-5"/><path fill="#0f272e" d="m404 43 1 2c2.025.652 2.025.652 4 1l-2 2-.937 3.563L405 55c-2.995.998-4.173 1.007-7.187.563L394 55v-1l9-1v-6l-6-2c3-2 3-2 7-2"/><path fill="#798da0" d="M51 527a56.5 56.5 0 0 1 7 4c-1.285 2.867-2.571 4.976-5 7h-2l2-4-9-1v-2h9z"/><path fill="#778b9e" d="M541 409v9l-5 1-1-2 4-1-4-1v-6c2-1 2-1 6 0"/><path fill="#7b90a3" d="m130 395 6 1v8h-7l1-5h4v-2l-5 1zm-15 0 6 1v8h-7l1-5h4v-2l-5 1z"/><path fill="#6c7981" d="M1158 345q3.5-.062 7 0c1 1 1 1 1.098 2.848L1166 354h-2v-7l-2 1c-.658 3.03-.658 3.03-1 6h-3z"/><path fill="#768a9d" d="M107 528h3v7h3v-7h2v9q-3.5.062-7 0c-1-1-1-1-1.098-2.848z"/><path fill="#788c9f" d="M497 496c4.875.875 4.875.875 6 2q.062 3.5 0 7h-7l1-5h4v-2l-5 1zm-23 0c4.875.875 4.875.875 6 2q.062 3.5 0 7h-7l1-5h4v-2l-5 1z"/><path fill="#ede4ce" d="m444 293-1 5h-2v-4h-3l-1 5-5 1c.318-2.946.663-4.61 2.625-6.875 3.366-1.594 5.81-.88 9.375-.125"/><path fill="#bbc9cf" d="M113 287h2v7h3v-7h3v9q-3.5.062-7 0c-1-1-1-1-1.098-2.848z"/><path fill="#788c9f" d="M89 194c4.875.875 4.875.875 6 2q.061 3.5 0 7h-7l1-5h4v-2l-5 1z"/><path fill="#b6aea2" d="M495 296h3v2l4 1-1 5-6 1z"/><path fill="#1a3e3f" d="M52 283c5.47.608 5.47.608 7.688 2.25 1.709 2.28 1.622 3.622 1.5 6.438l-.083 2.449L61 296l-2 1c-1.125-2.625-1.981-4.836-2.312-7.687L56 287c-2.476-1.375-2.476-1.375-5-2z"/><path fill="#c7d0d7" d="M1081 573h5l1 3-4-1v2h4v5h-6l-1-3h3l-3-1z"/><path fill="#667a8b" d="m515 496 5 1v8h-6l-1-4 5-1v-2l-4 1z"/><path fill="#768a9c" d="M608 406h1v10h-6c-1.125-4.75-1.125-4.75 0-7h5z"/><path fill="#6e7a82" d="M1135 345h5l1 3-4-1v2h4v5h-6l-1-3h3l-3-1z"/><path fill="#2b2b2b" d="M61 141h13c-3.667 4.889-3.667 4.889-7 6-2.99-.352-3.827-.827-6-3z"/><path fill="#c5ced6" d="M441 138h6v2h-3v5l3 1h-3v5h-3z"/><path fill="#54af8e" d="M178 103h7v2h-5v2h4v2h-4v2h5v2h-7z"/><path fill="#8499ae" d="M149 448c2.625.375 2.625.375 5 1l1 4h-6l1 2h5l-1 2c-2.375.125-2.375.125-5 0-2-2-2-2-2.25-4.5.25-2.5.25-2.5 2.25-4.5"/><path fill="#687d8e" d="M129 448c2.875-.125 2.875-.125 6 0 2 2 2 2 2.125 5.625L137 457h-3v-7h-3v7h-2z"/><path fill="#8499ae" d="M158 395c2.625.375 2.625.375 5 1l1 4h-6l1 2h5l-1 2c-2.375.125-2.375.125-5 0-2-2-2-2-2.25-4.5.25-2.5.25-2.5 2.25-4.5"/><path fill="#687d8e" d="M138 395c2.875-.125 2.875-.125 6 0 2 2 2 2 2.125 5.625L146 404h-3v-7h-3v7h-2z"/><path fill="#bbc5cc" d="m465 246 5 1c.75 2.25.75 2.25 1 5-1.937 2.313-1.937 2.313-4 4l4 2h-8c1.31-2.92 2.756-4.756 5-7l1-3-6 2z"/><path fill="#745f3b" d="M208.875 127.375c2.18 2.693 2.833 4.219 3.125 7.625l-.75-1.875c-1.531-2.603-2.501-2.936-5.25-4.125l-3.312-2.062c-3.575-2.082-6.588-2.603-10.688-2.938v-1c7.104-1.595 11.294-.235 16.875 4.375"/><path fill="#171819" d="M72 97c5.94 1.003 10.202 2.31 15 6l-2 2-9-3v-2h-4z"/><path fill="#8d9aaa" d="m551 24 1 4c4.415-1.27 4.415-1.27 8-4l-.562 3.313c-.696 3.623-.696 3.623.562 6.687-3.27-.564-4.826-1.5-7-4v4h-2z"/><path fill="#6e8194" d="M112 449v4h-5c1.925 2.224 1.925 2.224 5 3-1 1-1 1-3.5 1.125C106 457 106 457 105 456q-.061-3.5 0-7c2.667-1.333 4.167-.671 7 0m0-53v4h-5c1.925 2.224 1.925 2.224 5 3-1 1-1 1-3.5 1.125C106 404 106 404 105 403q-.061-3.5 0-7c2.667-1.333 4.167-.671 7 0m-11-54v4h-5c1.925 2.224 1.925 2.224 5 3-1 1-1 1-3.5 1.125C95 350 95 350 94 349q-.061-3.5 0-7c2.667-1.333 4.167-.671 7 0"/><path fill="#768a9d" d="M84 338h2v4l1.875-.625L90 341c2 2 2 2 2.125 5.625L92 350h-2v-7l-3 1-1 6h-2z"/><path fill="#798ea1" d="M586 202h7v2h-5v2h4v2h-4v2h4v2h-6z"/><path fill="#7b8fa3" d="M519 202h5l1 3-5-1v2l5 1-1 5h-5l-1-3 5 1v-2l-5-1z"/><path fill="#4ea285" d="M150 103h7v2h-4v2h4v2h-4v4h-3z"/><path fill="#c2ccd3" d="M1155 570h4v5h-2v7h-3a248 248 0 0 1-.625-4.312l-.352-2.426C1153 573 1153 573 1155 570"/><path fill="#1a2831" d="m523 494 1 2h2l1 2h5v2l-2.437.813L527 502l-1 3h-3v-7h-2v-2h2z"/><path fill="#8095a9" d="M122 448c2.625.375 2.625.375 5 1v4h-5c1.925 2.224 1.925 2.224 5 3-1 1-1 1-3.5 1.125C121 457 121 457 120 456c-.187-2.937-.187-2.937 0-6z"/><path fill="#8196aa" d="M92 448c2.625.375 2.625.375 5 1v4h-5l1 2c2.025.652 2.025.652 4 1-1 1-1 1-3.5 1.125C91 457 91 457 90 456c-.187-2.937-.187-2.937 0-6z"/><path fill="#516270" d="M431.5 408.875C434 409 434 409 435 410c.125 2.5.125 2.5 0 5-1 1-1 1-3.5 1.125C429 416 429 416 428 415c-.125-2.5-.125-2.5 0-5 1-1 1-1 3.5-1.125"/><path fill="#6f8395" d="M487 409c.625 2.375.625 2.375 1 5l-2 2c-2.625-.375-2.625-.375-5-1v-6c2.49-1.245 3.41-.777 6 0"/><path fill="#8196aa" d="M119 341c2.625.375 2.625.375 5 1v4h-5l1 2c2.025.652 2.025.652 4 1-1 1-1 1-3.5 1.125C118 350 118 350 117 349c-.187-2.937-.187-2.937 0-6z"/><path fill="#212f3a" d="M53 338h1l.25 2.313c.896 3.21 1.966 3.98 4.75 5.687l-1.875.813C54.7 347.956 54.7 347.956 53 351l-.687-1.937c-1.166-2.335-1.166-2.335-3.938-2.813L46 346l1.813-.625c2.997-1.884 3.8-4.186 5.187-7.375"/><path fill="#778c9f" d="M436.625 201.875 439 202l2 4-6-1v4h6l-2 3c-2.5.313-2.5.313-5 0-2-2-2-2-2.25-5 .32-3.85.934-4.937 4.875-5.125"/><path fill="#b9a98e" d="M170 133h3l1 2 3 2h-4v8l-4 1z"/><path fill="#d4dde4" d="M477 49h3v15h-3z"/><path fill="#c9d2da" d="m1799 496 3 1v3h2l1-4h2l-2 9h-4z"/><path fill="#7b8fa2" d="M555 409h6v6l-5 1-1 3z"/><path fill="#6f8294" d="M407 406h2l1 8h2l1-8h2q.039 2.219.063 4.438l.035 2.496C415 415 415 415 414 416c-3 .125-3 .125-6 0-1-1-1-1-1.098-3.066l.036-2.497.027-2.503z"/><path fill="#738799" d="M85 395c6 0 6 0 8 1v5l-2-3-3-1-1 10h-2z"/><path fill="#ede1c3" d="M168 136v7h-6v-7c2.49-1.245 3.41-.777 6 0"/><path fill="#7d7d7d" d="m68 111-3 2v3l3 1v3h-2l-1 2-1-5h-5c.573-2.867.861-3.861 3-6 3.556-1.222 3.556-1.222 6 0"/><path fill="#677a8b" d="M53.563 448.938 56 449c.625 2.375.625 2.375 1 5l-2 2c-2.625-.375-2.625-.375-5-1a100 100 0 0 1 0-5c1-1 1-1 3.563-1.062"/><path fill="#828d94" d="m443 248 1.875.563c2.167.674 2.167.674 4.125-.563l-.562 2.75c-.395 2.933-.385 4.514.562 7.25-2.993-.998-3.948-1.752-6-4l-1 4c-.1-3.492.222-6.594 1-10"/><path fill="#677a8b" d="M161 195v4h-6v2h6l-1 2c-1.666.043-3.334.04-5 0-1-1-1-1-1.062-4.562L154 195c2.667-1.333 4.167-.671 7 0"/><path fill="#687b8c" d="M109 195v4h-6v2h6l-1 2c-1.666.043-3.334.04-5 0-1-1-1-1-1.062-4.562L102 195c2.667-1.333 4.167-.671 7 0"/><path fill="#8d8d8d" d="m75 141 1 3-3 1c-.733 2.015-.733 2.015-1 4l6 1 .375 2.438L79 155l2 1h-5l-1-3-2-1v-2h-2c.615-5.538.615-5.538 2.563-7.875z"/><path fill="#898989" d="M55 123h10l1 4-10 1z"/><path fill="#d0d9e0" d="M1098 571h3v2h2v2h-2v5h2v2l-5-1c-1.125-7.75-1.125-7.75 0-10"/><path fill="#c8d1d8" d="m1201 574 1 2h-5l-1 4 6-1-1 3c-2 .043-4 .04-6 0-1-1-1-1-1.062-4.562L1194 574c2.698-1.349 4.152-.803 7 0"/><path fill="#516372" d="m45 347 6 2v3h-2l-1 3-5-1 1-4h2z"/><path fill="#7e6634" d="M497 287c4.052 1.842 7.113 3.578 10 7 1.158 3.473 1.069 6.36 1 10a187 187 0 0 1-3.375-7.062c-2.359-4.265-5.296-5.928-9.625-7.938z"/><path fill="#747474" d="M71 147v3h2v2l3 1v3l2 1h-7v-2l-2-1h3v-3l-5-1v-2c2-1 2-1 4-1"/><path fill="#0e0f0f" d="m89 140 7 1-4 7-6-1z"/><path fill="#aaa" d="M70 101v1l-12 1v2l-6 2 1-3h2l1-3c4.28-2.14 9.49-1.093 14 0"/><path fill="#dae3ea" d="M453 56h2l2 5 3-1 1-3h2c.125 2.375.125 2.375 0 5-2 2-2 2-5 2.25-3-.25-3-.25-5-2.25-.125-3.125-.125-3.125 0-6"/><path fill="#386c67" d="M408 46c6.75.75 6.75.75 9 3-.556 4.556-.556 4.556-2 6-1.666.04-3.334.043-5 0l-1-2 5-1-1-3h-4l-2 2z"/><path fill="#718597" d="M446 493h2q.079 2.438.125 4.875l.07 2.742C448 503 448 503 446 505c-3.062.188-3.062.188-6 0-1-1-1-1-1.098-3.285l.036-2.777.027-2.786L439 494h1l1 8 4 1z"/><path fill="#667889" d="M438 408c3.875.875 3.875.875 5 2 .04 2 .043 4 0 6h-6c0-5 0-5 1-8"/><path fill="#6c7f90" d="M515 408q2.219-.04 4.438-.062l2.496-.036C524 408 524 408 525 409q.062 3.5 0 7h-1v-6h-3v6h-1v-6h-3v6h-2z"/><path fill="#e8dcbe" d="M477 296c2.625.375 2.625.375 5 1l-.562 2.313c-.666 2.777-.666 2.777.562 5.687h-6v-3l2-1v-2l-3-1z"/><path fill="#c0cdd3" d="M96 287c3.125.375 3.125.375 6 1v2h-5l-1 4 6-1-1 3c-2 .043-4 .04-6 0-1-1-1-1-1.187-3.937C94 289 94 289 96 287"/><path fill="#7f94a7" d="M448.625 201.875 451 202l1 3-6-1v6l6-1-1 3-7-1c-.125-3.375-.125-3.375 0-7 2-2 2-2 4.625-2.125"/><path fill="#767676" d="m75 127 1 5-2 1v-2h-7v-4c3.053-.981 4.947-.981 8 0"/><path fill="#ccd5dc" d="M1095 573v2l-3 1h4v2h-5v2h5v2c-2 .043-4 .04-6 0-1-1-1-1-1.062-4.562L1089 574c2-1 2-1 6-1m-18 0v2l-3 1h4v2h-5v2h5v2c-2 .043-4 .04-6 0-1-1-1-1-1.062-4.562L1071 574c2-1 2-1 6-1"/><path fill="#657788" d="M502 408c2.125.375 2.125.375 4 1l1 4h-5v2l5-1-1 2c-1.666.043-3.334.04-5 0-1-1-1-1-1.187-3.437C500 410 500 410 502 408"/><path fill="#6c8092" d="M490 202h8v2h-2v8h-3v-8h-3z"/><path fill="#1c272f" d="M416 149q3.51.43 7 1l1 3c-1 1-1 1-2.848 1.098L415 154c0-4 0-4 1-5"/><path fill="#aab3bb" d="M486.438 52.813C490 53 490 53 492 55c-.375 2.125-.375 2.125-1 4l-1-1c-2-.04-4-.043-6 0l-2-4c1-1 1-1 4.438-1.187"/><path fill="#d3dce3" d="M446 53h6v2l-2 1c-.465 1.895-.465 1.895-.625 4.063L449 64h-3z"/><path fill="#4c7f73" d="M412 43c2.25-.312 2.25-.312 5 0 2.375 2.063 2.375 2.063 4 5-.064 3.705-.207 6.017-2.562 8.938-.475.35-.95.7-1.438 1.062l-3-1 2.063-1.625c2.242-2.252 2.242-2.252 2-5.375-1.29-3.64-2.895-4.888-6.063-7"/><path fill="#95a2b3" d="M536 22h10v2h-4v10h-2V24h-4z"/><path fill="#d1dae1" d="M1177 573h4v2l-3 1h4v2h-5v2h5v2c-2 .043-4 .04-6 0-1-1-1-1-1.187-3.937C1175 575 1175 575 1177 573"/><path fill="#73879a" d="m158 448 5 1-1 2-3-1v2l5 1-1 4h-6v-2h4l-4-2z"/><path fill="#627485" d="M533 409v7h-6v-4l2-1h-2v-2c2.49-1.245 3.41-.777 6 0"/><path fill="#718598" d="M44 343c2.75.063 2.75.063 6 1 2.17 2.618 4 5.515 4 9l-3 1-1-5-7-2z"/><path fill="#788c9f" d="M579 202h4v10h-3c-2.125-6.625-2.125-6.625-1-10"/><path fill="#6c767c" d="m1070 572 1 8-3-1v-3h-5v-4c3.01-.934 3.867-1.044 7 0"/><path fill="#708496" d="M117 526h3c1.176 3.674 1.074 7.17 1 11l-4-1c-1.125-7.75-1.125-7.75 0-10"/><path fill="#778c9e" d="M601 494c.75 1.688.75 1.688 1 4-1.937 2.75-1.937 2.75-4 5l4 2h-7l5-10-5 2v-3c2.49-1.245 3.41-.777 6 0"/><path fill="#273541" d="m52 444 3 1 1 3-2.375.75c-2.948 1.404-3.527 2.257-4.625 5.25h-2l-1-6 2.438-.875c2.695-.858 2.695-.858 3.562-3.125"/><path fill="#e8dcbf" d="m466 298 4 1v6h-9v-2l1.938-.812c2.393-1.075 2.393-1.075 3.062-4.188"/><path fill="#4d9f83" d="M167 103h3v8h4v2h-7z"/><path fill="#75899c" d="M140 448c2.563.25 2.563.25 5 1l1 2h-5l-1 4 6-1-1 3c-2.375.125-2.375.125-5 0-2-2-2-2-2.25-4.5.25-2.5.25-2.5 2.25-4.5"/><path fill="#667989" d="M546.563 408.938 549 409l1 4h-5v2l5-1-1 2c-1.666.043-3.334.04-5 0-1-1-1-1-1.125-3.5.17-3.406.269-3.48 3.688-3.562"/><path fill="#75899c" d="M149 395c2.563.25 2.563.25 5 1l1 2h-5l-1 4 6-1-1 3c-2.375.125-2.375.125-5 0-2-2-2-2-2.25-4.5.25-2.5.25-2.5 2.25-4.5"/><path fill="#bbc9cf" d="M132 285h2v2h2v9h-4a491 491 0 0 1-.562-4.375l-.317-2.46C131 287 131 287 132 285"/><path fill="#6b7785" d="M434 22h7l1 5c-2.667 1.333-4.167.671-7 0z"/><path fill="#afb9c1" d="M438 450h3v11l-4 1z"/><path fill="#7c90a3" d="M593 409v4l-2 1h2v2c-1.666.043-3.334.04-5 0-1-1-1-1-1.062-4.062L587 409c2.49-1.245 3.41-.777 6 0"/><path fill="#727e86" d="M1145 346h5l1 4h-6v2h5v2c-2 .043-4 .04-6 0-1-1-1-1-1.062-3.562L1143 348l5 1v-2z"/><path fill="#e6d9bc" d="M486 296h3c.125 2.875.125 2.875 0 6l-2 2h-4c.547-3.375 1.055-5.082 3-8"/><path fill="#9baeb3" d="m77 284 4 1c.625 2.375.625 2.375 1 5l-2 2h-3c-1.125-1.75-1.125-1.75-2-4 .875-2.25.875-2.25 2-4"/><path fill="#a4aeb5" d="M459 249h3v11l-4 1z"/><path fill="#dde6ee" d="M299 192h2v11l-3-2v-4h-2l-2 3v-5l1.938-.375L298 194z"/><path fill="#b7c0c7" d="M270 191h3v12h-3z"/><path fill="#99a6b7" d="M508 24h1v8c2.51-.703 2.51-.703 5-2 .887-2.041.887-2.041 1-4h2a109 109 0 0 1-1 7c-2.709 1.354-5.01 1.065-8 1z"/><path fill="#222d36" d="M592 24c3.282.438 4.848 1.526 7 4h-5v2l2 1c-1.937.563-1.937.563-4 1-1-1-1-1-1.125-4C591 25 591 25 592 24"/><path fill="#142028" d="M479 24c2.063.438 2.063.438 4 1v6c-1.937.563-1.937.563-4 1-1-1-1-1-1.125-4C478 25 478 25 479 24"/><path fill="#2b3a46" d="m156 450 1 3 5 1-1 2h-11l-1-3h6z"/><path fill="#788c9f" d="M101 445h3v5h-2v7h-2v-7h-2v-2h2z"/><path fill="#728699" d="m61 397 2 4c-2.174 2.5-3.73 3.436-7 4l-1 4-4-2 2-1c.652-2.025.652-2.025 1-4l6-1z"/><path fill="#bebebe" d="m70 110 3 1v2h2v3h-8c.375-2.437.375-2.437 1-5z"/><path fill="#2d6361" d="M394 35c7.508-.37 7.508-.37 10 1.5l1 1.5-2 4-2-1v-3l-6-1v5h-1z"/><path fill="#7f94a7" d="M94 528h2q.039 2.718.063 5.438l.035 3.058C96 539 96 539 95 540c-2 .04-4 .043-6 0l-1-2h5l-.035-1.934-.028-2.504-.035-2.496C93 529 93 529 94 528"/><path fill="#7f94a8" d="M70 525h2v10h5v2h-7z"/><path fill="#73879a" d="M583 496c4.875.875 4.875.875 6 2q.062 3.5 0 7h-6l4-4-3-1h3v-2l-5 1z"/><path fill="#152229" d="M469 248c-.54 3.786-2.117 5.554-5 8h-2v-6c2.647-1.46 3.894-2 7-2"/><path fill="#717a82" d="M260 194h7l-2 2c.32 2.603.32 2.603 1 5h-3l-1-5-1 10h-1z"/><path fill="#f3e9cb" d="M153 133h6l1 5-5-3 .563 1.75c.477 2.457.194 3.894-.563 6.25h-2z"/><path fill="#102026" d="M395 37h6l1 4-7 2z"/><path fill="#425361" d="m88 397 4 1 1 5-5 1-1 3z"/><path fill="#3f4c54" d="M1146.563 344.938 1149 345l-1 4h-4l-2 4-1-4h-4v-2l2.938-.437c3.106-.571 3.606-1.552 6.624-1.625"/><path fill="#c2c2c2" d="m82 147 5 1c-1.312 2.938-1.312 2.938-3 6l-3 1c-.625-2.312-.625-2.312-1-5z"/><path fill="#c9d3da" d="M497 141c2.375-.125 2.375-.125 5 0 2 2 2 2 2.25 5-.25 3-.25 3-2.25 5l-2-7h-3z"/><path fill="#5b5b5b" d="M59 142h2c1.625 2 1.625 2 3 4l1.75-.437L72 144c-1 3-1 3-3 4a95 95 0 0 1-5.125.063l-2.758-.028L59 148z"/><path fill="#1e1e1e" d="m80 116 3 1c.25 6.625.25 6.625-2 10v-4h-2l-1-6z"/><path fill="#d5dee5" d="M472 53h3v11h-3z"/><path fill="#6d8092" d="M504 496h2l1 5h2l1-5h2l-3 9h-2c-3-5.625-3-5.625-3-9"/><path fill="#718597" d="M56 446h6c1.6 4.002.293 7.046-1 11-2-3-2-3-1.625-6.187L60 448h-4z"/><path fill="#283743" d="M112 397h7v2l-1.937.313L115 400l-1 3h-6l-1-3h5z"/><path fill="#727e86" d="M1098 346v8h-5l4-4-4-1h3v-2l-5 1v-2c2.667-1.333 4.167-.671 7 0"/><path fill="#b1b1b1" d="m66 133 7 1a88 88 0 0 1 1 5c-1 1-1 1-4.062 1.063L67 140l2-5z"/><path fill="#d8cbae" d="M197 132h2v11h-3a758 758 0 0 1-.062-4.937l-.036-2.778C196 133 196 133 197 132"/><path fill="#728698" d="m548 493 3 1h-2v2h2v2h-2v7h-2a248 248 0 0 1-.625-4.312l-.352-2.426C546 496 546 496 548 493"/><path fill="#1c2932" d="m445 449 3 1c-1.393 3.367-2.979 4.986-6 7-1-1-1-1-1.062-3.562L441 451h4z"/><path fill="#939da5" d="M478 249v9l-1-2h-5c.813-2.937.813-2.937 2-6 3-1 3-1 4-1"/><path fill="#6e8193" d="m142 191 3 1h-2l.563 1.563c.591 3.296.004 6.16-.563 9.437h-2v-7h-2v-2h2z"/><path fill="#202b32" d="m417 141 5 1-1 5-5-1z"/><path fill="#e8dbbd" d="M192 136h3v9l-4 1z"/><path fill="#abb4bb" d="M475 48v3h-6l-1 2h-3c.375-1.937.375-1.937 1-4 2.957-1.478 5.742-1.06 9-1"/><path fill="#818d9c" d="M447 22h1l.438 3.313c.445 3.618.445 3.618 1.562 6.687h6v2h-9z"/><path fill="#1b2934" d="M141 450h6v5h-7z"/><path fill="#7e92a6" d="m95 396 2 1c.625 2.563.625 2.563 1 5l4-1v3h-5v3h-2z"/><path fill="#1b2934" d="M150 397h6v5h-7z"/><path fill="#c9d3da" d="M490 141h3v10h-3z"/><path fill="#1a252c" d="M483 143h3v2h3l1-2v5l-4-1v2h-3z"/><path fill="#cfd8e0" d="M484.625 140.875 487 141l2 4h-3v-2l-3 1c-1.219 2.504-1.219 2.504-2 5h-1c-.125-2.875-.125-2.875 0-6 2-2 2-2 4.625-2.125"/><path fill="#566068" d="m511 143 1 5-4 1v-2h-2l-2 2v-5c2.49-.687 4.379-1 7-1"/><path fill="#eee5d1" d="M131 131h3v6h-6c.573-2.867.861-3.861 3-6"/><path fill="#0e1e26" d="m402 48-1 5h-6c.375-1.937.375-1.937 1-4 2-1 2-1 6-1"/><path fill="#152028" d="m510 24 4 1v6l-4 1z"/><path fill="#8f9cad" d="M594.125 21.875 597 22l2 4-7-1-2 5h-1c-.125-2.875-.125-2.875 0-6 2-2 2-2 5.125-2.125"/><path fill="#707a81" d="M1129 573h6v7h-4c-1.46-2.647-2-3.894-2-7"/><path fill="#e2cb8b" d="M442 302h5c-1.285 2.867-2.571 4.976-5 7h-2z"/><path fill="#6e8394" d="M97 192h2v2h2v2h-2v6l2 1-4-1c-1.125-7.75-1.125-7.75 0-10"/><path fill="#cdd6dd" d="m276 194 6 1v7l-5 1 1-2h2c-.267-1.985-.267-1.985-1-4l-3-1z"/><path fill="#909dad" d="M500 22h2v12l-4-1v-2h2z"/><path fill="#c7d0d7" d="m1214 575 1 2c2.527.656 2.527.656 5 1l-1 4h-6v-2l2-1z"/><path fill="#798ea1" d="m450 497 3 1-.187 2.375L453 503l3 2h-4v3h-2z"/><path fill="#040404" d="M54 117v9l-3-1v-3h-2c1.667-5 1.667-5 5-5"/><path fill="#8f9cac" d="M478 22c2.875-.125 2.875-.125 6 0 2 2 2 2 2.125 5.125L486 30c-2.51-1.255-2.871-2.5-4-5h-4z"/><path fill="#465562" d="M618 409h5l-2 2c-.648 2.57-.648 2.57-1 5l-7-1v-2h5zm-48 0h5l-2 2c-.648 2.57-.648 2.57-1 5l-7-1v-2h5z"/><path fill="#1a3f40" d="m51 295 6 1v3h-8z"/><path fill="#ccd9df" d="m76 289 1 3h3l1-3 1 4h-6v3h-3c1.875-5.875 1.875-5.875 3-7"/><path fill="#294c4c" d="m97 289 6 1v3l-7 1z"/><path fill="#a0aab1" d="M486 249h3v9h-3z"/><path fill="#1b2a34" d="m458 204 4 1v5l-5-1z"/><path fill="#c4ced5" d="M514 142v9h-1l-.437-2.875c-.392-3.018-.392-3.018-1.563-5.125l-6 1v-2c3.069-1.534 5.7-.55 9 0"/><path fill="#b3bdc4" d="M419.688 138.375 422 139v3l-2.375-.187L417 142l-2 3-1-5c3-2 3-2 5.688-1.625"/><path fill="#9f5728" d="m134 134 1 4h-3v2h3l-1 4-1-2a78 78 0 0 0-5-2l1-3h5z"/><path fill="#545454" d="m58 115 1 3-2 1v2l8 1c-2.76 1.804-3.89 2.013-7.25 1.625L55 123c-.187-2.875-.187-2.875 0-6z"/><path fill="#262626" d="M55 107h10l-1 3-3 1-2 3v-5l-3-1-1 2z"/><path fill="#97a4b4" d="M581 22h2v12h-3z"/><path fill="#2d373e" d="m1197 575 6 1v3l-7 1z"/><path fill="#6d8192" d="M609 493h2c.195 1.624.38 3.25.563 4.875l.316 2.742C612 503 612 503 611 505h-2z"/><path fill="#c9d2da" d="m446 453 2 2-1 1 3 1v2h-8c1.152-2.468 2.048-4.048 4-6"/><path fill="#263541" d="M128 448h1v9l-7-2v-2h5z"/><path fill="#718597" d="M456 409h6v7h-5l3-2-3-2 1-1h-2z"/><path fill="#5a666f" d="m1089 349 8 1-1 3c-4.75 1.125-4.75 1.125-7 0z"/><path fill="#263541" d="M102 341h1v9l-7-2v-2h5z"/><path fill="#204343" d="m88 289 6 1v3l-7 1z"/><path fill="#202e37" d="m118 196 4 1-1 5-4-1z"/><path fill="#afafaf" d="m78 145 5 1-1 1.688c-1.131 2.615-1.157 4.493-1 7.312h-2q-.543-1.935-1.062-3.875l-.598-2.18C77 147 77 147 78 145"/><path fill="#e1cc99" d="M127 136c2 2 2 2 2 4l5 2v5h-2v-4h-4z"/><path fill="#d1dbe1" d="M1169 573h5v2l-2 1c-.658 3.03-.658 3.03-1 6h-2z"/><path fill="#d0d9e0" d="M1832 496h5v2l-2 1c-.658 3.03-.658 3.03-1 6h-2z"/><path fill="#c5cfd7" d="M426 449h2l-.562 2.75c-.395 2.933-.385 4.514.562 7.25h-3l-1-6h2z"/><path fill="#718597" d="M447.563 408.938 450 409l-1 2-3-1 1 4h4v2c-2 .043-4 .04-6 0-1-1-1-1-1.125-3.5.17-3.406.269-3.48 3.688-3.562"/><path fill="#6e8193" d="m490 406 3 1-1 3a299 299 0 0 0-1 6h-2c-.977-6.055-.977-6.055-1-8z"/><path fill="#727f86" d="M1152 345h5v2l-2 1c-.658 3.03-.658 3.03-1 6h-2z"/><path fill="#e9dcbe" d="M472 296h2v11l-3 1z"/><path fill="#7e715c" d="M432 288h10v3l-10-1z"/><path fill="#7a8fa2" d="m529 203 1 4 4 1h-3v2h4v2h-6z"/><path fill="#cfd8df" d="m261 195 2 1v5l3 1-2 1-1 3h-2z"/><path fill="#1b2931" d="m133 196 4 1-1 5-4-1z"/><path fill="#d7e0e7" d="M422 141h2c.262 3.146.248 4.618-1.5 7.313L421 150l-5-1 1-2h4z"/><path fill="#656565" d="m58 103 8 1-1 3-10-1 3-1z"/><path fill="#9d9d9d" d="m75 101 7 3v2l-6 1z"/><path fill="#25282b" d="M50 101q2.514.428 5 1v2c-4.385 3-4.385 3-7 3 .875-4.875.875-4.875 2-6"/><path fill="#99a4ac" d="m454 450 3 1v4c-3 2-3 2-6 2 1.875-4.75 1.875-4.75 3-7"/><path fill="#778c9e" d="M114 448h5v2h-3v7h-2zm-30 0h5v2h-3v7h-2zm39-53h5v2h-3v7h-2z"/><path fill="#8499ad" d="m52 335 3 1v5l-2-2-2 5-4-1 3-1c1.23-3.512 1.23-3.512 2-7"/><path fill="#687c8d" d="M506 202h3v8h-3zm-39 0h3v8h-3z"/><path fill="#6e8193" d="M125 194h5v2h-3v7h-2z"/><path fill="#75899b" d="M84 191h2v12l-2-1c-.813-3.918-1.376-7.18 0-11"/><path fill="#5c5c5c" d="m78 135 1 3c-1.404 2.264-3.197 4.02-5 6l-2-1c.349-3.255 1.021-4.019 3.563-6.25z"/><path fill="#e3cfae" d="M135 135h2v3h2v2h-2v2h-2v-2h-3v-2h3z"/><path fill="#8d8d8d" d="M70 108c2.374.23 3.78.85 5.75 2.188 1.793 2.599 1.455 4.735 1.25 7.812l-2-1 1-4h-3l-1-2c-2.025-.652-2.025-.652-4-1z"/><path fill="#484848" d="m65 105 3 1-1 1 3 2-10 4 1-3 3-1c.733-2.015.733-2.015 1-4"/><path fill="#232628" d="M89 104h2l1 3h-2l-1 5-3-1-1-3 4-1z"/><path fill="#152028" d="m457 55 3 1v5h-4a100 100 0 0 1 0-5z"/><path fill="#596269" d="M1168 573h1v9l-7-2v-2h6l-1-3z"/><path fill="#8f989f" d="M1163.625 572.875 1166 573l-1 4h-4l-2 3c-.125-2.375-.125-2.375 0-5 2-2 2-2 4.625-2.125"/><path fill="#687c8d" d="M561 496h5v2h-3v7h-2z"/><path fill="#6e8294" d="M536 496h5v2h-3v7h-2z"/><path fill="#334149" d="M1151 345h1v9l-7-2v-2h6l-1-3z"/><path fill="#59666e" d="m1193 345 6 1-1 3h-5z"/><path fill="#1d4141" d="m51 288 5 1-1 4h-4z"/><path fill="#2c3940" d="m450 250 5 1v2l-4 1v4h-2l-2-5 3-1z"/><path fill="#778b9e" d="m456 203 3 1-1 5 3 2c-1.875.625-1.875.625-4 1-2-2-2-2-2.187-5.062C455 204 455 204 456 203"/><path fill="#1b2932" d="m86 192 2 4h5v2l-1.875.313c-2.49.562-2.49.562-4.125 3.687-1.607-3.215-1.057-6.436-1-10"/><path fill="#363636" d="M69 117h5l2 4h-7z"/><path fill="#55b190" d="m115 104 1 4h4l1-2-1 4h-3v3h-2z"/><path fill="#d5dee5" d="M1144 573v2l-2 1c-.658 3.03-.658 3.03-1 6h-2v-8c3-1 3-1 5-1"/><path fill="#192830" d="M484 498h3v6l-4-1z"/><path fill="#2b353d" d="m1773 494 1 3c-1.363 2.043-1.363 2.043-3.312 4.188l-1.926 2.167C1767 505 1767 505 1765 505c1.364-2.992 2.95-5.29 5.125-7.75l1.633-1.86z"/><path fill="#14222a" d="M452 498h4v5h-4z"/><path fill="#556777" d="M149 448c2.125.375 2.125.375 4 1v3h-4l-2 3c-.125-2.375-.125-2.375 0-5z"/><path fill="#5c6e7e" d="M135 396h1v8l-5-1v-3h4zm-15 0h1v8l-5-1v-3h4z"/><path fill="#556777" d="M158 395c2.125.375 2.125.375 4 1v3h-4l-2 3c-.125-2.375-.125-2.375 0-5z"/><path fill="#2b353d" d="m233 192 1 3c-1.363 2.043-1.363 2.043-3.312 4.188l-1.926 2.167C227 203 227 203 225 203c1.364-2.992 2.95-5.29 5.125-7.75l1.633-1.86z"/><path fill="#142129" d="M80 196h4v5h-4z"/><path fill="#cfd8df" d="M249 192h2c.222 1.456.427 2.915.625 4.375l.352 2.46L252 201l-2 2c-1-1-1-1-1.098-3.285l.036-2.778.027-2.785z"/><path fill="#353f47" d="M475 141h1v10l-1-2h-2v-6h2z"/><path fill="#f1e6c7" d="M170 136h2v10h-3z"/><path fill="#c5ced6" d="m413 134 3 1-6 7-2-1c1.25-3.653 1.671-4.78 5-7"/><path fill="#1b1b1b" d="m56 108 4 1c-.812 3.438-.812 3.438-2 7l-3 1z"/><path fill="#262e35" d="m46 105 2 3-1.937.75c-2.262 1.047-2.262 1.047-2.626 3.313L43 114l-3 1c1.208-4.43 2.517-6.981 6-10"/><path fill="#192c33" d="m140 105 4 1-1 5h-3z"/><path fill="#7f8b9b" d="M499 22h1v9l-3 1-1-7 2 2z"/><path fill="#aab3ba" d="M1098 571h3v2h2l-1 2-3-1v7h-1c-1.125-7.75-1.125-7.75 0-10"/><path fill="#b7c1c8" d="M1805 496h2l-2 9-1-3h-2v-2h2z"/><path fill="#778b9e" d="m529 496 5 1v6l-1-2-3-1h2v-2l-4 1z"/><path fill="#1c2a32" d="M513 497c2.688.313 2.688.313 5 1v2l-1.875.313c-2.49.562-2.49.562-4.125 3.687l-2-4c1.188-1.562 1.188-1.562 3-3"/><path fill="#122027" d="m554 498 4 1-1 5-3-1z"/><path fill="#111e26" d="M466 498h3v5h-4z"/><path fill="#778b9e" d="m523 494 1 2h2v2h-2v6l2 1h-3v-7h-2v-2h2z"/><path fill="#a7b1b8" d="M1817 494h3v2h2l-1 2-3-1v7h-1c-1.125-7.75-1.125-7.75 0-10"/><path fill="#5a6c7d" d="M122 448q2.514.428 5 1l-1 3h-5c0-3 0-3 1-4"/><path fill="#576979" d="m76 394 3 1 1 5h-5z"/><path fill="#23313d" d="M98 397h3v5h-4z"/><path fill="#e7d8ba" d="m439 296 2 3 3 2-3 1-2 3-1-3-3-2 3-1z"/><path fill="#132028" d="m71 196 4 1-1 5-3-1z"/><path fill="#c7d0d7" d="M470 143h3v6h2v2l-5-1z"/><path fill="#2b353d" d="m498 143 3 1v5l-4-1z"/><path fill="#5f5f5f" d="M63 132c2 1 2 1 3 3l-4 4-2-3 1-2h2z"/><path fill="#8e7334" d="M117 129c1.45 2.9.454 4.56-.437 7.625l-.872 3.04L115 142h-1c-.274-5.394-.36-8.52 3-13"/><path fill="#b9b9b9" d="M66 120h2l2 6h-5z"/><path fill="#8f9cad" d="M606 22h6l1 3-6-1v2h-2z"/><path fill="#909cad" d="M524 22h6l1 3-6-1v2h-2z"/><path fill="#a2abb2" d="M1108 577q2.514.428 5 1l-1 3c-2.062.688-2.062.688-4 1-.562-1.937-.562-1.937-1-4z"/><path fill="#dbe5ec" d="M1130 575h1c.75 3.663 1.238 6.424 0 10h-2q-.04-2.22-.062-4.437l-.036-2.497C1129 576 1129 576 1130 575"/><path fill="#c1cad1" d="M1081 573h5l1 3-5-1v3h-2z"/><path fill="#97a1a8" d="M1205 573q3.012.43 6 1l-1 2c-2.562.625-2.562.625-5 1l-1-3z"/><path fill="#d4dde4" d="m1818 497 3 1-.062 2.375c-.125 2.606-.125 2.606 1.062 4.625h-4z"/><path fill="#b5bfc6" d="m1774 494 2 4-6 5c0-3 0-3 1.438-4.5L1773 497z"/><path fill="#1d2830" d="M1820 498h8v2l-2.437.375L1823 501l-1 2h-2z"/><path fill="#88939c" d="M436 452h1v7l-6-1 1-3h3z"/><path fill="#2d3a44" d="M434 452v2l-4 1v4h-2l-2-5c5.75-2 5.75-2 8-2"/><path fill="#586a79" d="M441 411v5l-5-1 1-3c2-1 2-1 4-1"/><path fill="#627585" d="M413 406h2v9h-3z"/><path fill="#1d2b36" d="M46 394h2l2 4h-3l-1 4h-1c-.125-5.75-.125-5.75 1-8"/><path fill="#57646c" d="M1111 345c2.5.313 2.5.313 5 1l1 2-6 1-1-3z"/><path fill="#eadfc3" d="M495 296h2c1.125 5.625 1.125 5.625 0 9h-2z"/><path fill="#d7e2e9" d="m48 296 1 3 8 1v1h-9l-2-4z"/><path fill="#e2d1ad" d="m437 292 7 1-1 5h-2v-4l-4-1z"/><path fill="#bdcbd1" d="m92 288 1 2-2.375-.187L88 290l-2 3-1-5c2.698-1.349 4.152-.803 7 0"/><path fill="#778b9e" d="m445 206 1 4 6-1-1 3-7-1z"/><path fill="#b5bfc6" d="m234 192 2 4-6 5c0-3 0-3 1.438-4.5L233 195z"/><path fill="#3d3d3d" d="m61 142 10 2c-4 3-4 3-6.125 2.938C63 146 63 146 61 142"/><path fill="#7c632f" d="M206 126c2.494.998 3.787 1.686 5.313 3.938C212 132 212 132 211 135l-.25-1.875c-.563-2.31-.563-2.31-2.812-3.375L206 129z"/><path fill="#6f6f6f" d="m51 105 3 1c-1 3-1 3-3.062 4.188L49 111l-2-3c1.813-1.562 1.813-1.562 4-3"/><path fill="#676767" d="M81 103h2v3h2v3l-5 1v-4h2z"/><path fill="#5e8675" d="M410 35h5l1 4h4l1-3v4c-2.875.188-2.875.188-6 0l-2-3z"/><path fill="#d3dce3" d="M1091 573h4v2l-3 1h4v2h-6zm-18 0h4v2l-3 1h4v2h-6z"/><path fill="#465865" d="M502 498h1v7l-5-1v-3h3zm-23 0h1v7l-5-1v-3h3z"/><path fill="#455563" d="m587 501-1 3c-2.062.688-2.062.688-4 1l-1-4c2.49-1.245 3.41-.777 6 0"/><path fill="#1f2d36" d="M471 498h7v2l-1.875.313c-2.49.562-2.49.562-4.125 3.687z"/><path fill="#959fa7" d="m1791 494 1 2h2l1 5h-3v-2h-2z"/><path fill="#7a8ea1" d="m129 448 3 1-1 8h-2z"/><path fill="#788da0" d="m158 448 5 1-1 2-3-1v2l2 1h-4z"/><path fill="#212d37" d="M594 409h1v7l-7-2v-1h5z"/><path fill="#7a8ea1" d="m138 395 3 1-1 8h-2z"/><path fill="#57646c" d="M1099 345c2.063.438 2.063.438 4 1-1.372 2.954-2.989 5.44-5 8-.098-6.152-.098-6.152 0-8z"/><path fill="#778b9e" d="m44 343 6 1-1 3h-6z"/><path fill="#708496" d="m55 339 2 3c2.563.73 2.563.73 5 1l-1 3c-2.937-.812-2.937-.812-6-2l-1-3z"/><path fill="#a9babf" d="M58 283c1.938.813 1.938.813 4 2 1.16 3.478.708 5.459 0 9h-1l-.375-3.25c-.521-3.129-1.026-5.085-2.625-7.75"/><path fill="#465865" d="M94 196h1v7l-5-1v-3h3z"/><path fill="#444f56" d="M282 196h7v2l-1.875.313c-2.49.562-2.49.562-4.125 3.687-1-1-1-1-1.062-3.562z"/><path fill="#cdc7c2" d="M201 137h5v4l-5-1z"/><path fill="#84734c" d="m119 126 4 2-6 5z"/><path fill="#a2a2a2" d="m68 122 6 1v3l-8 1 4-1z"/><path fill="#101d23" d="m410 49 5 1-1 3-5-1z"/><path fill="#8e989f" d="M1146 573h5l-1 4-5-1z"/><path fill="#24323e" d="M81 530h3v5l-4-1z"/><path fill="#778c9f" d="M118 529h2l1 8h-3z"/><path fill="#39434b" d="m1807 496 1 3 5-1v2l-1.875.313c-2.49.562-2.49.562-4.125 3.687-.8-3.287-1.097-4.71 0-8"/><path fill="#8095a8" d="M439 494h1l.25 3.813c.416 3.525.416 3.525 2.813 6.187l1.937 1c-1.666.043-3.334.04-5 0-1-1-1-1-1.098-3.285l.036-2.777.027-2.786z"/><path fill="#303f4c" d="M97 450h1v6h-5l-1-3h5z"/><path fill="#526474" d="M92 448q2.514.428 5 1l-1 3h-4l-1-3z"/><path fill="#7a8fa2" d="m51 442 5 1 1 3-2 1-3-3-1 2z"/><path fill="#303f4c" d="M124 343h1v6h-5l-1-3h5z"/><path fill="#526474" d="M119 341q2.514.428 5 1l-1 3h-4l-1-3z"/><path fill="#768b9e" d="M60 335h2v2h2v2c-3.75 1.125-3.75 1.125-6 0v-2h2z"/><path fill="#2a4c4d" d="m106 289 3 1v4h-4z"/><path fill="#212e3a" d="m22 272 2 2c-1.112 3.335-2.474 4.637-5 7 .498-3.735.875-5.812 3-9"/><path fill="#1b2932" d="M99 196h3v6h-3z"/><path fill="#d1dae1" d="m299 192 1 4-1.875.313c-2.49.562-2.49.562-4.125 3.687v-5l1.938-.375L298 194z"/><path fill="#19252c" d="m530 143 1.25 1.438c1.932 1.725 3.232 2.128 5.75 2.562v2h-7z"/><path fill="#707070" d="M50 112v6l-4-1c.375-1.937.375-1.937 1-4 2-1 2-1 3-1"/><path fill="#1f2c37" d="M29 83c-1.491 3.795-3.757 5.61-7 8 2.81-8 2.81-8 7-8"/><path fill="#e3ecf3" d="m483 55 1 3h6l1-2v3l-9 1z"/><path fill="#909dad" d="M515 26h2l-1 7-3 1z"/><path fill="#46515d" d="M442 28v5l-6-1v-3c4.875-1 4.875-1 6-1"/><path fill="#525b62" d="M1083 575h6v5l-2 1v-4h-4z"/><path fill="#23313c" d="m91 530 3 1-1 4h-3z"/><path fill="#1e2a33" d="M419 410h3l-1 5-3-1z"/><path fill="#1e2932" d="m604 410 4 1-1 4-3-1z"/><path fill="#1d2932" d="M557 410h3l-1 5-3-1z"/><path fill="#222e37" d="M537 410h3l-1 5-3-1z"/><path fill="#1b272f" d="M483 410h3l-1 5-3-1z"/><path fill="#1e2932" d="M470 410h3l-1 5-3-1z"/><path fill="#4e5f6d" d="M589 408c2.125.938 2.125.938 4 2l-1 2-5-1v-2z"/><path fill="#67737b" d="M1135 345h5l1 3-6-1-1 3z"/><path fill="#627687" d="M579 202c2 2 2 2 2.195 3.945L581 212c-1.76-2.641-2.527-3.974-3-7z"/><path fill="#3a3e42" d="m85 147 7 1-4 4v-2l-2-1z"/><path fill="#393939" d="M79 133h1v8h2l-1 4c-2-2-2-2-2.195-4.383l.07-2.742.055-2.758z"/><path fill="#d0c2a7" d="m168 136-2 3-4-1v-2c2.49-1.245 3.41-.777 6 0"/><path fill="#376f62" d="M122 104v5l-5-1v-3c2-1 2-1 5-1"/><path fill="#1c1d1d" d="M83 104h6v3l-4 1v-2h-2z"/><path fill="#8c8c8c" d="M62 103h9v3c-6.152-.586-6.152-.586-8-1z"/><path fill="#070809" d="M79 100c2.875.313 2.875.313 6 1l2 3-2 1-2-1v-2l-4-1z"/><path fill="#434e55" d="M484 59h8c-1.75 1.563-1.75 1.563-4 3-2.25-.312-2.25-.312-4-1z"/><path fill="#828e9e" d="M594 28h5v4c-1.937-.312-1.937-.312-4-1z"/></svg>