<svg xmlns="http://www.w3.org/2000/svg" width="1159" height="798"><path fill="#081322" d="M0 0h1159v798H0z"/><path fill="#0d1d2c" d="M0 0h233c-6.75 7.875-6.75 7.875-9.683 10.803l-2.014 2.018-2.144 2.134-2.308 2.308q-3.748 3.745-7.5 7.483l-5.22 5.216q-6.848 6.842-13.7 13.676-7.002 6.988-13.997 13.977A67042 67042 0 0 1 149 85l2.023.002c72.65.06 145.3.123 217.951.2l3.287.003 105.389.112 3.485.004q55.958.06 111.914.104a299063 299063 0 0 1 131.202.133l3.226.004q25.74.029 51.48.043 25.856.016 51.713.054 15.375.023 30.75.026 10.26.002 20.52.024 5.853.013 11.705.01c4.198-.005 8.394.006 12.591.02l3.696-.012 3.386.018 2.908.003c3.155.287 5.813 1.15 8.774 2.252-2.156.693-3.566 1.113-5.786.535-2.687-.65-5.115-.661-7.88-.663l-3.53-.009-3.887.006-4.139-.007q-5.718-.007-11.436-.003-6.21-.001-12.418-.008-12.33-.011-24.658-.01-14.761-.004-29.524-.015c-23.788-.016-47.576-.022-71.365-.027q-16.875-.003-33.749-.01a473490 473490 0 0 0-144.595-.03h-3.653c-39.093-.003-78.186-.02-117.278-.042a218939 218939 0 0 0-137.546-.04h-3.383q-26.97-.005-53.942-.027-27.1-.022-54.2-.01-16.106.007-32.213-.015-10.755-.014-21.511.001-6.13.01-12.261-.006-5.58-.018-11.16.004c-1.965.004-3.929-.007-5.893-.019-7.19.043-13.25.89-19.993 3.395l-3 1-.875 1.75C93.604 96.792 91.513 98.738 89 101h-2c-3.162 7.228-4.299 13.937-4.254 21.734l-.01 2.567c-.008 2.833-.003 5.666.003 8.5l-.011 6.162c-.01 5.64-.008 11.28-.004 16.921.002 6.085-.007 12.17-.014 18.254q-.018 17.88-.012 35.757a45923 45923 0 0 1-.01 39.53 90547 90547 0 0 0-.008 58.507v2.228l.005 17.908q.007 34.924-.021 69.849a83014 83014 0 0 0-.027 86.86v2.08q.002 15.551-.015 31.103-.019 17.686-.002 35.374.011 9.024-.005 18.049-.014 8.262.007 16.525.003 2.987-.008 5.975C82.399 614.01 82.399 614.01 92 630c9.458 7.882 18.673 8.296 30.57 8.257l4.15.01c3.805.01 7.61.007 11.415.002 4.138-.003 8.276.005 12.415.012q10.881.014 21.761.011c10.787-.003 21.574.006 32.361.016 20.386.02 40.772.025 61.158.026a136426 136426 0 0 1 60.813.017l3.412.001q47.516.02 95.03.02h3.62l18.164-.001h10.939q56.755-.002 113.511.04a166354 166354 0 0 0 141.09.046h3.382c17.961 0 35.923.013 53.884.03q27.072.026 54.144.006 16.087-.012 32.173.016 10.746.018 21.49-.005c4.082-.008 8.164-.01 12.245.007q5.576.02 11.153-.008c1.957-.005 3.915.01 5.873.025 10.779-.087 20.694-1.925 28.63-9.68 6.736-7.697 7.93-16.793 7.866-26.695l.008-2.567c.006-2.828-.002-5.655-.01-8.482q.003-3.08.008-6.157c.006-5.63 0-11.261-.008-16.892-.007-6.076-.002-12.152.002-18.227q.005-15.79-.007-31.577a41540 41540 0 0 1-.013-33.128v-10.452q-.001-39.246-.025-78.492a113360 113360 0 0 1-.019-74.206v-15.6q.001-29.14-.01-58.277v-2.094l-.003-8.336q-.005-14.498-.005-28.996 0-18.682-.014-37.364-.008-9.009-.007-18.018.002-8.244-.01-16.49v-5.968q.002-4.054-.007-8.109l.006-2.345c-.019-4.872-.448-9.55-1.135-14.376 3.855 3.855 3.17 8.487 3.205 13.602l.03 2.662q.047 4.357.081 8.716l.063 6.041q.083 7.953.153 15.906.077 8.113.161 16.227.162 15.922.307 31.846l1.275-1.289a37040 37040 0 0 1 83.942-84.587l1.812-1.822c9.68-9.732 19.338-19.484 28.988-29.245a9576 9576 0 0 1 29.778-29.981 3953 3953 0 0 0 18.352-18.518 1907 1907 0 0 1 12.611-12.678 696 696 0 0 0 7.26-7.328 639 639 0 0 1 7.908-7.921l2.264-2.37C1146.915-1.243 1148.331 0 1159 0v798H0z"/><path fill="#121829" d="m137.895 185.617 2.038-.015c2.252-.013 4.503-.005 6.755.004q2.447-.007 4.894-.019c4.483-.016 8.965-.014 13.447-.008 4.834.002 9.669-.012 14.503-.025q14.208-.028 28.415-.023a20351 20351 0 0 0 29.748-.017l3.344-.003c20.875-.019 41.75-.018 62.624-.01 19.095.005 38.19-.016 57.285-.05q29.409-.05 58.818-.043c11.008.002 22.015-.003 33.023-.028q14.058-.033 28.116-.006c4.781.01 9.562.01 14.343-.01q6.57-.028 13.139.008 2.372.006 4.744-.013c9.555-.077 18.039.386 25.47 7.084 4.662 5.213 6.773 10.362 6.782 17.296l.015 1.986a657 657 0 0 1-.004 6.583q.007 2.385.019 4.771c.016 4.368.014 8.736.008 13.104-.002 4.712.012 9.424.025 14.136.02 9.23.025 18.461.023 27.692a19331 19331 0 0 0 .017 28.994l.003 3.259c.019 20.345.018 40.69.01 61.036-.005 18.61.016 37.22.05 55.83q.05 28.664.043 57.326c-.002 10.728.003 21.456.028 32.184q.033 13.703.006 27.404c-.01 4.66-.01 9.318.01 13.978q.028 6.403-.008 12.806-.006 2.31.013 4.623c.078 9.479-.524 17.724-7.048 25.151-5.387 4.901-11.47 6.772-18.614 6.781l-2.042.015c-2.25.013-4.501.005-6.752-.004q-2.45.007-4.9.019c-4.48.016-8.963.014-13.445.008-4.835-.002-9.671.012-14.507.025-9.472.02-18.943.025-28.415.023a20351 20351 0 0 0-29.748.017l-3.344.003c-20.873.019-41.746.018-62.619.01-19.095-.005-38.19.016-57.287.05q-29.41.05-58.82.043c-11.009-.002-22.017.003-33.025.028q-14.057.033-28.113.006c-4.781-.01-9.562-.01-14.343.01q-6.567.028-13.135-.008-2.373-.006-4.746.013c-9.46.076-17.025-.402-24.272-7.048-4.894-5.357-6.84-11.322-6.85-18.458l-.014-1.99c-.013-2.194-.005-4.387.004-6.58q-.007-2.388-.019-4.776c-.016-4.368-.014-8.735-.008-13.103.002-4.713-.012-9.426-.025-14.14q-.028-13.846-.023-27.693a19332 19332 0 0 0-.017-28.992l-.003-3.26a48266 48266 0 0 1-.01-61.03c.005-18.611-.016-37.222-.05-55.832q-.05-28.665-.043-57.33c.002-10.729-.003-21.457-.028-32.186q-.033-13.7-.006-27.4c.01-4.659.01-9.318-.01-13.977q-.028-6.402.008-12.802.006-2.313-.013-4.625c-.077-9.32.435-16.877 7.084-23.955 5.312-4.759 10.376-6.838 17.452-6.847"/><path fill="#10313f" d="M1159 0v798H758c4.033-4.705 8.04-9.183 12.416-13.536l1.872-1.875q3.079-3.079 6.163-6.153l4.436-4.437q6.003-6.001 12.01-11.998 6.285-6.277 12.565-12.556 11.886-11.881 23.778-23.757 13.54-13.525 27.076-27.054Q886.154 668.812 914 641l-2.123-.002c-76.254-.06-152.508-.123-228.762-.2l-3.45-.003-110.605-.112-3.658-.004q-58.733-.06-117.464-.104a329228 329228 0 0 1-137.7-.133l-3.386-.004q-27.018-.029-54.035-.043-27.137-.017-54.275-.054-16.139-.023-32.277-.026-10.767-.002-21.534-.024-6.143-.013-12.287-.01-5.583.005-11.167-.015c-1.977-.004-3.954.001-5.931.007l-3.544-.018-3.053-.003c-2.918-.267-5.1-1.032-7.749-2.252 2.156-.693 3.566-1.113 5.787-.535 2.685.65 5.113.662 7.877.664l3.528.01 3.886-.005 4.137.007q5.715.009 11.43.006 6.207.002 12.413.011 12.324.014 24.648.016 14.756.005 29.511.02 35.67.03 71.339.04l33.739.015a424883 424883 0 0 0 122.713.042h3.632l18.217.004h3.652q58.62.015 117.237.065a165124 165124 0 0 0 140.89.059c17.974.002 35.946.018 53.92.038q27.092.03 54.185.017 16.1-.01 32.2.022 10.754.02 21.509 0c4.085-.007 8.17-.008 12.255.01q5.58.021 11.162-.006c1.96-.005 3.919.01 5.878.026 10.783-.084 20.699-1.92 28.638-9.678 6.736-7.697 7.93-16.793 7.866-26.695l.008-2.567c.006-2.828-.002-5.655-.01-8.482q.003-3.08.008-6.157c.006-5.63 0-11.261-.008-16.892-.007-6.076-.002-12.152.002-18.227q.005-15.79-.007-31.577a41540 41540 0 0 1-.013-33.128v-10.452q-.001-39.246-.025-78.492a113360 113360 0 0 1-.019-74.206v-15.6q.001-29.14-.01-58.277v-2.094l-.003-8.336q-.005-14.498-.005-28.996 0-18.682-.014-37.364-.008-9.009-.007-18.018.002-8.244-.01-16.49v-5.968q.002-4.054-.007-8.109l.006-2.345c-.019-4.872-.448-9.55-1.135-14.376 3.855 3.855 3.17 8.487 3.205 13.602l.03 2.662q.047 4.357.081 8.716l.063 6.041q.083 7.953.153 15.906.077 8.113.161 16.227.162 15.922.307 31.846l1.275-1.289a37040 37040 0 0 1 83.942-84.587l1.812-1.822c9.68-9.732 19.338-19.484 28.988-29.245a9576 9576 0 0 1 29.778-29.981 3953 3953 0 0 0 18.352-18.518 1907 1907 0 0 1 12.611-12.678 696 696 0 0 0 7.26-7.328 639 639 0 0 1 7.908-7.921l2.264-2.37C1146.915-1.243 1148.331 0 1159 0"/><path fill="#131c2c" d="m596.461 185.606 3.843-.019c3.513-.016 7.026-.014 10.539-.008 3.791.002 7.583-.012 11.374-.025q11.139-.028 22.279-.023a12520 12520 0 0 0 23.331-.017l2.624-.003c16.375-.019 32.75-.018 49.126-.01 14.973.005 29.945-.016 44.918-.05q23.07-.05 46.139-.043c8.632.002 17.264-.003 25.896-.028q11.025-.033 22.05-.006c3.75.01 7.497.01 11.245-.01 4.069-.023 8.137-.006 12.206.015l3.566-.038c8.027.086 14.88 1.613 21.016 7.102 4.647 5.244 6.76 10.363 6.77 17.314l.015 1.993c.013 2.201.005 4.402-.004 6.603q.007 2.392.019 4.785c.016 4.382.014 8.763.008 13.145-.002 4.726.012 9.452.025 14.178.02 9.258.025 18.517.023 27.776a19444 19444 0 0 0 .017 29.077l.003 3.269c.019 20.403.018 40.806.01 61.21-.005 18.665.016 37.33.05 55.996q.05 28.746.043 57.492a12801 12801 0 0 0 .028 32.28q.033 13.74.006 27.482c-.01 4.674-.01 9.347.01 14.02q.028 6.42-.008 12.841-.006 2.32.013 4.64c.077 9.331-.425 16.903-7.084 23.992-7.259 6.503-13.737 6.9-23.063 6.858l-3.857.019c-3.526.016-7.052.014-10.579.008-3.806-.002-7.612.012-11.417.025q-11.181.028-22.362.023a12610 12610 0 0 0-23.416.017l-2.633.003c-16.433.019-32.866.018-49.3.01-15.027-.005-30.055.016-45.084.05q-23.152.05-46.305.043c-8.664-.002-17.328.003-25.992.028q-11.064.033-22.13.006c-3.762-.01-7.524-.01-11.286.01-4.082.023-8.164.006-12.246-.015l-3.587.038c-7.96-.085-13.864-1.623-19.847-7.066-4.87-5.382-6.826-11.313-6.836-18.458l-.015-1.99c-.013-2.194-.005-4.387.004-6.58q-.007-2.388-.019-4.776c-.016-4.368-.014-8.735-.008-13.103.002-4.713-.012-9.426-.025-14.14q-.028-13.846-.023-27.693a19331 19331 0 0 0-.017-28.992l-.003-3.26a48266 48266 0 0 1-.01-61.03c.005-18.611-.016-37.222-.05-55.832q-.05-28.665-.043-57.33c.002-10.729-.003-21.457-.028-32.186q-.033-13.7-.006-27.4c.01-4.659.01-9.318-.01-13.977q-.028-6.402.008-12.802.006-2.313-.013-4.625c-.077-9.32.435-16.877 7.084-23.955 7.246-6.492 13.71-6.9 23.018-6.858"/><path fill="#123c4a" d="m1147 0 3 1-3.186 2.057c-34.122 22.162-66.127 46.597-96.969 73.108q-2.758 2.369-5.522 4.73c-63.891 54.792-103.52 111.143-110.236 196.745-3.348 46.148-2.74 92.402-.971 138.6q.201 5.28.396 10.561A2954 2954 0 0 0 946 609l1.358-1.36a499847 499847 0 0 1 91.084-91.137q15.413-15.42 30.824-30.846a129046 129046 0 0 1 31.605-31.622q9.76-9.764 19.517-19.531 6.682-6.689 13.366-13.372 3.864-3.862 7.723-7.728 4.174-4.181 8.354-8.356l2.491-2.5 2.244-2.237 1.95-1.952C1158 397 1158 397 1159 397v401H758c4.033-4.705 8.04-9.183 12.416-13.536l1.872-1.875q3.079-3.079 6.163-6.153l4.436-4.437q6.003-6.001 12.01-11.998 6.285-6.277 12.565-12.556 11.886-11.881 23.778-23.757 13.54-13.525 27.076-27.054Q886.154 668.812 914 641l-2.123-.002c-76.254-.06-152.508-.123-228.762-.2l-3.45-.003-110.605-.112-3.658-.004q-58.733-.06-117.464-.104a329228 329228 0 0 1-137.7-.133l-3.386-.004q-27.018-.029-54.035-.043-27.137-.017-54.275-.054-16.139-.023-32.277-.026-10.767-.002-21.534-.024-6.143-.013-12.287-.01-5.583.005-11.167-.015c-1.977-.004-3.954.001-5.931.007l-3.544-.018-3.053-.003c-2.918-.267-5.1-1.032-7.749-2.252 2.156-.693 3.566-1.113 5.787-.535 2.685.65 5.113.662 7.877.664l3.528.01 3.886-.005 4.137.007q5.715.009 11.43.006 6.207.002 12.413.011 12.324.014 24.648.016 14.756.005 29.511.02 35.67.03 71.339.04l33.739.015a424883 424883 0 0 0 122.713.042h3.632l18.217.004h3.652q58.62.015 117.237.065a165124 165124 0 0 0 140.89.059c17.974.002 35.946.018 53.92.038q27.092.03 54.185.017 16.1-.01 32.2.022 10.754.02 21.509 0c4.085-.007 8.17-.008 12.255.01q5.58.021 11.162-.006c1.96-.005 3.919.01 5.878.026 10.783-.084 20.699-1.92 28.638-9.678 6.736-7.697 7.93-16.793 7.866-26.695l.008-2.567c.006-2.828-.002-5.655-.01-8.482q.003-3.08.008-6.157c.006-5.63 0-11.261-.008-16.892-.007-6.076-.002-12.152.002-18.227q.005-15.79-.007-31.577a41540 41540 0 0 1-.013-33.128v-10.452q-.001-39.246-.025-78.492a113360 113360 0 0 1-.019-74.206v-15.6q.001-29.14-.01-58.277v-2.094l-.003-8.336q-.005-14.498-.005-28.996 0-18.682-.014-37.364-.008-9.009-.007-18.018.002-8.244-.01-16.49v-5.968q.002-4.054-.007-8.109l.006-2.345c-.019-4.872-.448-9.55-1.135-14.376 22.412 22.412 3.648 63.307 4 95z"/><path fill="#0c1926" d="m338.438 630.563 6.25.193C398.886 632.449 452.96 635.548 507 640l-1.168 1.3c-3.427 3.892-6.286 7.793-8.93 12.274q-1.169 1.942-2.34 3.88l-1.248 2.064c-13.688 22.465-29.464 43.245-46.314 63.42l-2.248 2.705c-39.38 47.161-80.804 74.253-141.843 80.024-45.645 4.06-91.602 3.248-137.346 1.77l-6.143-.193C106.184 805.551 53.075 802.454 0 798c-.379-5.611.498-8.748 3.337-13.574l1.106-1.887a395 395 0 0 1 3.769-6.195l1.353-2.202c12.942-20.914 27.894-40.255 43.685-59.08l2.253-2.705c71.003-84.885 157.4-85.11 282.935-81.794"/><path fill="#0d2332" d="M1159 0c6.751 27.45 10.919 55.026 13.313 83.188l.28 3.198c4.739 55.681-4.71 101.285-40.72 144.228-23.892 28.165-50.43 53.964-77.39 79.154q-2.889 2.7-5.773 5.402c-30.797 28.821-62.243 56.869-94.503 84.042l-2.503 2.113-2.254 1.888-1.96 1.643C946 406 946 406 945 406c-6.468-28.987-10.51-58.08-12.812-87.687l-.268-3.354c-4.606-59.382 4.944-107.064 43.673-152.511 21.628-25.085 45.313-48.214 69.506-70.793q2.764-2.583 5.523-5.17c24.965-23.392 50.343-46.345 76.549-68.344q2.955-2.483 5.894-4.986c2.671-2.266 5.365-4.5 8.07-6.725l2.338-2.002C1148.835.105 1152.129-.7 1159 0"/><path fill="#0c2434" d="M0 0h233c-6.75 7.875-6.75 7.875-9.683 10.803l-2.014 2.018-2.144 2.134-2.308 2.308q-3.748 3.745-7.5 7.483l-5.22 5.216q-6.848 6.842-13.7 13.676-7.002 6.988-13.997 13.977A67042 67042 0 0 1 149 85l2.023.002c72.65.06 145.3.123 217.951.2l3.287.003 105.389.112 3.485.004q55.958.06 111.914.104a299063 299063 0 0 1 131.202.133l3.226.004q25.74.029 51.48.043 25.856.016 51.713.054 15.375.023 30.75.026 10.26.002 20.52.024 5.853.013 11.705.01c4.198-.005 8.394.006 12.591.02l3.696-.012 3.386.018 2.908.003c3.155.287 5.813 1.15 8.774 2.252-2.156.693-3.566 1.113-5.786.535-2.687-.65-5.115-.661-7.88-.663l-3.53-.009-3.887.006-4.139-.007q-5.718-.007-11.436-.003-6.21-.001-12.418-.008-12.33-.011-24.658-.01-14.761-.004-29.524-.015c-23.788-.016-47.576-.022-71.365-.027q-16.875-.003-33.749-.01a473490 473490 0 0 0-144.595-.03h-3.653c-39.093-.003-78.186-.02-117.278-.042a218939 218939 0 0 0-137.546-.04h-3.383q-26.97-.005-53.942-.027-27.1-.022-54.2-.01-16.106.007-32.213-.015-10.755-.014-21.511.001-6.13.01-12.261-.006-5.58-.018-11.16.004c-1.965.004-3.929-.007-5.893-.019-7.19.043-13.25.89-19.993 3.395l-3 1-.875 1.75C93.604 96.792 91.513 98.738 89 101h-2c-3.164 7.232-4.299 13.94-4.249 21.74l-.008 2.568c-.006 2.836.002 5.67.01 8.506q-.002 3.083-.008 6.166c-.006 5.645 0 11.29.008 16.934.007 6.088.002 12.177-.002 18.266q-.006 15.825.007 31.649.013 16.603.013 33.205v10.474q.001 39.335.025 78.67a113893 113893 0 0 1 .019 74.377v15.635a173107 173107 0 0 0 .013 68.858q.005 14.53.005 29.061 0 18.726.014 37.452.008 9.03.007 18.06-.002 8.265.01 16.528v5.984q-.002 4.064.007 8.128l-.006 2.35c.019 4.877.447 9.56 1.135 14.389-3.688-3.688-3.128-7.857-3.139-12.88l-.008-2.106q-.012-3.511-.011-7.022l-.015-5.072q-.02-6.981-.028-13.962-.013-7.524-.034-15.047-.032-13.04-.056-26.08-.035-18.852-.08-37.705-.071-30.585-.132-61.171a241475 241475 0 0 0-.174-81.5Q80.153 281.228 80 205c-.61.61-.61.61-1.231 1.234Q63.964 221.07 49.151 235.9q-7.164 7.17-14.323 14.347-6.902 6.918-13.81 13.83l-5.282 5.292q-3.682 3.691-7.37 7.378l-2.228 2.239L4.119 281l-1.762 1.765C1 284 1 284 0 284z"/><path fill="#1f4250" d="m1147 0 3 1-3.186 2.057c-34.122 22.162-66.127 46.597-96.969 73.108q-2.758 2.369-5.522 4.73c-63.891 54.792-103.52 111.143-110.236 196.745-3.348 46.148-2.74 92.402-.971 138.6q.201 5.28.396 10.561A2954 2954 0 0 0 946 609l1.358-1.36a499847 499847 0 0 1 91.084-91.137q15.413-15.42 30.824-30.846a129046 129046 0 0 1 31.605-31.622q9.76-9.764 19.517-19.531 6.682-6.689 13.366-13.372 3.864-3.862 7.723-7.728 4.174-4.181 8.354-8.356l2.491-2.5 2.244-2.237 1.95-1.952C1158 397 1158 397 1159 397c4.403 17.924 7.635 40.064-2.084 56.846-13.11 20.63-32.911 37.583-50.496 54.285-7.71 7.334-15.266 14.821-22.818 22.318-13.465 13.36-27.045 26.597-40.703 39.76a5245 5245 0 0 0-39.537 38.491l-2.459 2.42-12.21 12.025c-24.745 24.37-49.562 48.665-74.521 72.814a6873 6873 0 0 0-5.887 5.708 4039 4039 0 0 1-9.057 8.76q-1.646 1.589-3.287 3.182a1264 1264 0 0 1-4.447 4.291l-2.502 2.417C887 722 887 722 885 722l-2 4h-2l-2 4h-2v2h-2v2h-2v2h-2v2h-2v2h-2v2h-2v2h-2v2h-2v2h-2v2h-2v2h-2v2l-5 3c-1.862 1.906-1.862 1.906-3.522 4.104-29.434 36.716-29.434 36.716-47.962 39.326-13.546 1.064-27.137-.253-40.516-2.43a199 199 0 0 1 12.416-13.536l1.872-1.875q3.079-3.079 6.163-6.153l4.436-4.437q6.003-6.001 12.01-11.998 6.285-6.277 12.565-12.556 11.886-11.881 23.778-23.757 13.54-13.525 27.076-27.054Q886.154 668.812 914 641l-2.123-.002c-76.254-.06-152.508-.123-228.762-.2l-3.45-.003-110.605-.112-3.658-.004q-58.733-.06-117.464-.104a329228 329228 0 0 1-137.7-.133l-3.386-.004q-27.018-.029-54.035-.043-27.137-.017-54.275-.054-16.139-.023-32.277-.026-10.767-.002-21.534-.024-6.143-.013-12.287-.01-5.583.005-11.167-.015c-1.977-.004-3.954.001-5.931.007l-3.544-.018-3.053-.003c-2.918-.267-5.1-1.032-7.749-2.252 2.156-.693 3.566-1.113 5.787-.535 2.685.65 5.113.662 7.877.664l3.528.01 3.886-.005 4.137.007q5.715.009 11.43.006 6.207.002 12.413.011 12.324.014 24.648.016 14.756.005 29.511.02 35.67.03 71.339.04l33.739.015a424883 424883 0 0 0 122.713.042h3.632l18.217.004h3.652q58.62.015 117.237.065a165124 165124 0 0 0 140.89.059c17.974.002 35.946.018 53.92.038q27.092.03 54.185.017 16.1-.01 32.2.022 10.754.02 21.509 0c4.085-.007 8.17-.008 12.255.01q5.58.021 11.162-.006c1.96-.005 3.919.01 5.878.026 10.783-.084 20.699-1.92 28.638-9.678 6.736-7.697 7.93-16.793 7.866-26.695l.008-2.567c.006-2.828-.002-5.655-.01-8.482q.003-3.08.008-6.157c.006-5.63 0-11.261-.008-16.892-.007-6.076-.002-12.152.002-18.227q.005-15.79-.007-31.577a41540 41540 0 0 1-.013-33.128v-10.452q-.001-39.246-.025-78.492a113360 113360 0 0 1-.019-74.206v-15.6q.001-29.14-.01-58.277v-2.094l-.003-8.336q-.005-14.498-.005-28.996 0-18.682-.014-37.364-.008-9.009-.007-18.018.002-8.244-.01-16.49v-5.968q.002-4.054-.007-8.109l.006-2.345c-.019-4.872-.448-9.55-1.135-14.376 22.412 22.412 3.648 63.307 4 95z"/><path fill="#102d3c" d="M915 640c-19.45 22.787-39.702 44.862-60.272 66.639-8.439 8.948-16.76 17.965-24.849 27.231-57.747 65.978-57.747 65.978-99.73 68.818-24.773 1.346-49.666-.968-74.149-4.688 19.45-22.787 39.702-44.862 60.272-66.639 8.439-8.948 16.76-17.965 24.849-27.231C794.042 643.665 834.96 627.837 915 640"/><path fill="#121d2d" d="m607.493 303.869 2.882-.012 3.19.003 3.37-.01q5.628-.01 11.257-.011l8.04-.015q10.95-.02 21.9-.024l13.67-.012q18.918-.019 37.836-.026h4.9l4.921-.002h2.466q19.777-.009 39.553-.046 20.297-.035 40.593-.037 11.399.001 22.797-.025 9.708-.023 19.414-.012 4.953.007 9.906-.011c3.58-.013 7.16-.007 10.74.004l3.162-.025c6.319.043 10.937.65 15.773 5.11l1.45 1.782 1.488 1.781c3.327 4.768 2.501 10.844 2.574 16.406l.113 3.225c.079 7.072-.689 11.772-5.488 17.088-6.012 5.178-11.521 5.718-19.234 5.635l-3.37.024c-3.716.02-7.43.004-11.146-.012q-4.002.01-8.004.027c-6.488.022-12.976.017-19.464.002a4985 4985 0 0 0-15.823-.007l-2.277.002-4.58.005c-14.308.015-28.615-.002-42.922-.029a9948 9948 0 0 0-36.805.005 14478 14478 0 0 1-47.334.017l-2.268-.002a5171 5171 0 0 0-15.798.014q-9.63.023-19.261-.016-4.911-.021-9.822-.002c-3.553.014-7.105-.003-10.658-.028l-3.12.034c-6.569-.09-11.08-1.325-16.114-5.669-5.497-6.137-5.745-12.057-5.562-20.063l-.034-3.181c.07-7.363 1.08-12.005 6.229-17.498 3.934-2.987 5.958-4.382 10.86-4.39"/><path fill="#0bb7aa" d="m615.234 240.365 3.37-.024c3.716-.02 7.43-.004 11.146.012q4.002-.01 8.004-.027a3440 3440 0 0 1 19.464-.002q7.911.015 15.823.007l2.277-.002 4.58-.005c14.308-.015 28.615.002 42.922.029q18.403.031 36.805-.005a14478 14478 0 0 1 47.334-.017l2.268.002a5171 5171 0 0 0 15.798-.014q9.63-.023 19.261.016 4.911.021 9.822.002c3.553-.014 7.105.003 10.658.028l3.12-.034c6.568.09 11.08 1.324 16.114 5.669 5.464 6.115 5.773 12.025 5.625 20l.059 3.156c-.044 6.922-1.026 11.632-5.684 16.844-6 5.177-11.502 5.715-19.203 5.621l-3.36.02c-3.704.015-7.407-.005-11.111-.026q-3.99.006-7.98.017c-6.467.015-12.934.002-19.402-.02-7.536-.023-15.071-.021-22.607-.019-13.446.004-26.893-.017-40.34-.051q-19.562-.05-39.125-.041-21.315.012-42.63-.015l-2.279-.004-4.529-.006q-7.875-.009-15.75-.006-9.599.003-19.198-.032-4.895-.018-9.79-.013c-3.54.004-7.08-.011-10.62-.03l-3.117.016c-7.329-.07-12.394-.846-17.771-6.224-4.415-6.433-4.58-12.492-4.625-20.062l-.1-2.895c-.05-6.738 1.043-11.143 5.537-16.23 5.994-5.19 11.533-5.718 19.234-5.635"/><path fill="#213543" d="M233 0c-4.384 5.245-8.997 10.135-13.841 14.955l-2.308 2.308q-3.748 3.745-7.5 7.483l-5.22 5.216q-6.848 6.842-13.7 13.676-7.002 6.988-13.997 13.977A67042 67042 0 0 1 149 85l2.023.002c72.65.06 145.3.123 217.951.2l3.287.003 105.389.112 3.485.004q55.958.06 111.914.104a299063 299063 0 0 1 131.202.133l3.226.004q25.74.029 51.48.043 25.856.016 51.713.054 15.375.023 30.75.026 10.26.002 20.52.024 5.853.013 11.705.01c4.198-.005 8.394.006 12.591.02l3.696-.012 3.386.018 2.908.003c3.155.287 5.813 1.15 8.774 2.252-2.156.693-3.566 1.113-5.786.535-2.687-.65-5.115-.661-7.88-.663l-3.53-.009-3.887.006-4.139-.007q-5.718-.007-11.436-.003-6.21-.001-12.418-.008-12.33-.011-24.658-.01-14.761-.004-29.524-.015c-23.788-.016-47.576-.022-71.365-.027q-16.875-.003-33.749-.01a473490 473490 0 0 0-144.595-.03h-3.653c-39.093-.003-78.186-.02-117.278-.042a218939 218939 0 0 0-137.546-.04h-3.383q-26.97-.005-53.942-.027-27.1-.022-54.2-.01-16.106.007-32.213-.015-10.755-.014-21.511.001-6.13.01-12.261-.006-5.58-.018-11.16.004c-1.965.004-3.929-.007-5.893-.019-7.19.043-13.25.89-19.993 3.395l-3 1-.875 1.75C93.604 96.792 91.513 98.738 89 101h-2c-3.164 7.232-4.299 13.94-4.249 21.74l-.008 2.568c-.006 2.836.002 5.67.01 8.506q-.002 3.083-.008 6.166c-.006 5.645 0 11.29.008 16.934.007 6.088.002 12.177-.002 18.266q-.006 15.825.007 31.649.013 16.603.013 33.205v10.474q.001 39.335.025 78.67a113893 113893 0 0 1 .019 74.377v15.635a173107 173107 0 0 0 .013 68.858q.005 14.53.005 29.061 0 18.726.014 37.452.008 9.03.007 18.06-.002 8.265.01 16.528v5.984q-.002 4.064.007 8.128l-.006 2.35c.019 4.877.447 9.56 1.135 14.389-3.688-3.688-3.128-7.857-3.139-12.88l-.008-2.106q-.012-3.511-.011-7.022l-.015-5.072q-.02-6.981-.028-13.962-.013-7.524-.034-15.047-.032-13.04-.056-26.08-.035-18.852-.08-37.705-.071-30.585-.132-61.171a241475 241475 0 0 0-.174-81.5Q80.153 281.228 80 205c-.61.61-.61.61-1.231 1.234Q63.964 221.07 49.151 235.9q-7.164 7.17-14.323 14.347-6.902 6.918-13.81 13.83l-5.282 5.292q-3.682 3.691-7.37 7.378l-2.228 2.239L4.119 281l-1.762 1.765C1 284 1 284 0 284c-6.986-38.033-13.543-84.428 9.227-118.176C28.16 139.389 52.698 116.96 76.566 95.07c8.129-7.46 16.042-15.098 23.828-22.915l1.56-1.566 1.558-1.565c9.617-9.653 19.395-19.128 29.255-28.533a746 746 0 0 0 10.135-9.904C171.423 2.456 192.972-5.845 233 0"/><path fill="#0c202f" d="M81 204c2.455 23.795 4.08 47.597 5 71.5l.105 2.653c1.638 42.515 1.962 80.07-28.186 112.687-5.366 5.537-11.022 10.685-16.856 15.723l-2.893 2.501C5.514 437 5.514 437 0 437c-2.455-23.795-4.08-47.597-5-71.5l-.105-2.653c-1.638-42.515-1.962-80.07 28.186-112.687 5.366-5.537 11.022-10.685 16.857-15.722l2.892-2.502C75.486 204 75.486 204 81 204"/><path fill="#2f3341" d="m154.837 552.853 2.156-.011q3.594-.015 7.187-.019l5.14-.02q6.994-.025 13.99-.036l8.739-.018q13.669-.029 27.338-.041 15.782-.015 31.565-.077 12.195-.044 24.39-.048c4.857-.002 9.713-.011 14.57-.036q6.855-.034 13.713-.018 2.513 0 5.027-.02a525 525 0 0 1 6.876.003l3.883-.007c4.793.661 8.732 2.293 11.95 6.11 2.6 3.8 3.314 7.548 3.088 12.108-.794 4.026-2.593 7.341-5.449 10.277-4.595 2.749-7.994 3.378-13.318 3.388l-2.166.016a797 797 0 0 1-7.15 0l-5.141.02c-4.647.019-9.294.018-13.94.012-3.882-.003-7.764.003-11.646.009q-13.738.02-27.475.001c-9.443-.011-18.886.003-28.33.03q-12.168.032-24.339.022-7.264-.007-14.529.017-6.832.021-13.664-.008-2.503-.005-5.008.01c-2.283.013-4.565.002-6.849-.016h-3.867c-4.784-.67-8.728-2.306-11.94-6.116-3.047-4.453-3.587-9.13-2.638-14.385 4.075-8 9.163-11.118 17.837-11.147"/><path fill="#2e3341" d="m305.939 513.612 2.079-.016c2.292-.014 4.584-.007 6.876 0l4.939-.02c4.467-.019 8.933-.018 13.4-.012 3.73.003 7.46-.003 11.191-.009q13.2-.02 26.401-.001c9.077.011 18.153-.003 27.23-.03q11.692-.032 23.386-.022 6.982.007 13.965-.017 6.566-.021 13.131.008 2.408.005 4.816-.01c2.194-.013 4.387-.002 6.581.016h3.718c5.197.777 8.26 3.298 11.723 7.126 2.204 4.578 2.422 8.38 1.625 13.375-2.37 4.924-5.292 7.33-10 10-3.345.503-3.345.503-7.06.508l-2.08.019c-2.29.016-4.578.003-6.868-.01q-2.469.009-4.939.022c-4.463.018-8.925.011-13.388-.002-4.674-.01-9.347 0-14.021.006a7018 7018 0 0 1-23.544-.022c-9.07-.021-18.139-.014-27.208.008q-11.688.026-23.374.01c-4.651-.006-9.303-.007-13.954.006q-6.56.017-13.12-.02a547 547 0 0 0-4.81.006c-2.192.01-4.383-.003-6.575-.023l-3.714-.005c-5.193-.781-8.258-3.302-11.72-7.128-2.208-4.586-2.543-8.374-1.625-13.375 3.406-7.482 8.834-10.372 16.939-10.388"/><path fill="#2d3240" d="m152.23 513.612 3.131-.03 3.402.014 3.609-.02q4.887-.023 9.775-.012c2.723.003 5.447-.003 8.17-.009q9.642-.02 19.282-.001a3437 3437 0 0 0 19.868-.03 3468 3468 0 0 1 17.08-.022q5.097.007 10.192-.017c3.79-.014 7.579-.004 11.368.013l3.396-.029c6.157.058 9.827.39 14.497 4.531 3.937 4.352 4.63 7.915 4.39 13.598-.737 4.535-3.092 7.261-6.452 10.214-3.334 2.044-6.072 2.317-9.89 2.335l-3.097.022-3.396.008-3.578.02c-3.915.02-7.83.031-11.747.041l-4.047.013q-9.51.029-19.017.041-10.968.015-21.936.077-8.482.044-16.965.048c-3.377.002-6.752.011-10.128.036-3.769.025-7.536.024-11.304.017l-3.378.039c-6.149-.042-9.79-.375-14.455-4.509-3.895-4.305-4.69-7.892-4.453-13.531.92-5.009 3.609-8.196 7.725-11.037 2.962-1.555 4.646-1.81 7.958-1.82"/><path fill="#13202e" d="M194.352 214.727c4.98 2.294 8.167 5.31 10.648 10.273.04 2.333.043 4.667 0 7h-12l-2-5h-8v6l3.563 1.813 2.218 1.128c2.4 1.194 2.4 1.194 5.781 2.309 4.691 2.388 7.856 5.125 10.438 9.75 1.101 5.187.784 10.141-1.562 14.938-2.8 3.518-5.126 5.809-9.438 7.062-5.786.635-11.054.992-16.312-1.687L175 267l-3.387 1.406c-5.612 2.271-11.146 1.92-17.113 1.781l-3.36-.04A814 814 0 0 1 143 270c-.088-3.229-.14-6.458-.187-9.687l-.077-2.764c-.067-6.202.708-9.584 4.827-14.361C149 242 149 242 151 242l-1-3a60 60 0 0 1-.098-4.012l.01-2.295.025-2.38.014-2.417q.02-2.947.049-5.896 3.593-.08 7.188-.125l2.04-.05c4.06-.04 7.122.375 10.772 2.175l1.137-1.426c6.478-7.882 12.902-11.034 23.215-7.847"/><path fill="#17202f" d="M902.313 123.063C907.88 126.135 910.967 129.9 913 136c.719 7.909-.376 13.152-4.875 19.75-4.589 4.859-9.353 6.365-15.875 6.563-5.207-.092-9.155-.998-13.25-4.313-5.03-6.071-7.444-11.4-7.34-19.3.674-5.356 3.161-9.702 7.125-13.337 7.36-5.453 15.232-6.088 23.528-2.3"/><path fill="#162939" d="m1158 40 1 3-213 213-1-3z"/><path fill="#1a2c3b" d="m1147 0 3 1-204 204-1-3z"/><path fill="#1e4958" d="m1158 600 1 3-195 195-3-1z"/><path fill="#4e7d74" d="M194.363 214.719c4.967 2.32 8.155 5.317 10.637 10.281.04 2.333.043 4.667 0 7h-12l-2-5h-8v6l3.563 1.813 2.218 1.128c2.4 1.194 2.4 1.194 5.781 2.309 4.691 2.388 7.856 5.125 10.438 9.75 1.101 5.187.784 10.141-1.562 14.938-2.796 3.512-5.123 5.83-9.438 7.062-5.424.458-10.798.734-16-1l-1-3 3-1 2 1c5.338.532 9.696.64 14.563-1.75 3.742-3.455 4.299-5.023 4.875-10.125-.103-3.43-.565-4.33-2.5-7.437-3.987-3.648-7.913-5.12-13.063-6.563-3.712-1.453-5.501-2.913-7.875-6.125-.757-3.072-.518-4.736 0-8 2.105-2.632 3.59-3.753 6.938-4.34 4.475-.212 7.457.5 11.062 3.34l1 2c2.025.652 2.025.652 4 1-1.965-4.654-3.445-6.8-8-9-4.648-.75-9.577-.976-14.008.809-3.977 2.888-4.949 6.556-6.219 11.03-1.176 3.287-3.027 5.085-5.773 7.161h-4c1-3 1-3 3.375-5.125 2.57-2.814 3.062-3.823 4-7.312 1.475-5.107 4.296-7.642 8.625-10.563 4.474-2.237 10.676-1.707 15.363-.281"/><path fill="#0f1929" d="M848 130c3.563 2.199 5.446 4.147 7 8 .24 4.467-.461 8.095-2.75 11.938-3.273 3-5.819 3.88-10.187 4.437-4.017-.492-5.982-1.773-9.063-4.375-2.642-4.051-3.702-7.184-3-12 4.296-8.115 9.292-10.339 18-8"/><path fill="#172736" d="m558 640 3 1-157 157-3-1z"/><path fill="#1b2a39" d="m507 640 3 1-157 157-3-1z"/><path fill="#242938" d="M366 344h4v5h4l1 2 1-2h5v20h-5l-1-2-1 2c-2.875.188-2.875.188-6 0-2.491-3.737-2.207-5.745-2.125-10.187l.055-3.856L366 352h-3v-3h3z"/><path fill="#e3e4e6" d="M396 349c2.753 1.796 4.526 3.053 6 6 .347 5.293.514 8.734-3 13-2.655 2.086-4.068 1.999-7.5 1.938-3.5-.938-3.5-.938-5.937-2.875-2.24-4.39-2.466-8.233-1.563-13.063 3.288-4.983 6.16-5.938 12-5m-148 0c2.753 1.796 4.526 3.053 6 6 .347 5.293.514 8.734-3 13-2.655 2.086-4.068 1.999-7.5 1.938-3.5-.938-3.5-.938-5.937-2.875-2.24-4.39-2.466-8.233-1.563-13.063 3.288-4.983 6.16-5.938 12-5"/><path fill="#0f4556" d="M172 247c.469 2.242.469 2.242.5 4.875.03.864.062 1.727.094 2.617C172 257 172 257 169.988 259.305c-3.937 2.233-6.868 2.151-11.3 1.945l-2.245-.055A329 329 0 0 1 151 261c-.344-4.387-.561-7.877 1.438-11.875 6.102-5.06 12.801-6.632 19.562-2.125"/><path fill="#131e2c" d="M150 222q3.563-.08 7.125-.125c.665-.017 1.33-.034 2.016-.05 4.354-.043 7.815.575 11.859 2.175-.455 4.896-1.41 7.59-5 11-4.745 2.607-9.834 4.41-15 6-1.655-3.31-1.1-6.991-1.062-10.625l.013-2.43q.02-2.972.049-5.945"/><path fill="#e3e3e5" d="M162 394c10.577-.126 10.577-.126 15 1l1-1c6.146-.58 6.146-.58 9.215 1.504 2.492 3.484 2.224 6.638 2.035 10.746l-.055 2.258A339 339 0 0 1 189 414h-4l-1-15-5-1c-1.996 1.996-1.41 5.817-1.562 8.563l-.131 2.154q-.159 2.64-.307 5.283h-4l-1-15-4-1c-1.996 1.996-1.41 5.817-1.562 8.563l-.131 2.154q-.159 2.64-.307 5.283h-4z"/><path fill="#e6e7e8" d="M358 349c2.242 1.504 2.242 1.504 4 4 .29 2.894.382 5.38.25 8.25l-.055 2.258A339 339 0 0 1 362 369c-10.824 1.588-10.824 1.588-15.25-.625C345 366 345 366 344.5 363.438c.58-2.83 1.2-3.734 3.5-5.438 3.473-1.158 6.36-1.069 10-1l-2-4h-6v2l-4-1c2.437-5.396 6.236-6.186 12-5"/><path fill="#182532" d="m638 0 3 1-85 85-3-1z"/><path fill="#131f2b" d="m587 0 3 1-85 85-3-1z"/><path fill="#e5e6e7" d="M203 394c2.761 1.017 3.68 1.362 5 4 .072 2.718.093 5.409.063 8.125l-.014 2.285q-.02 2.795-.049 5.59l-2.375-.625L203 413l-2 2c-3.403-.186-6.037-.379-8.937-2.25-1.478-2.433-1.482-3.953-1.063-6.75 1.879-2.505 2.961-2.987 6-4a195 195 0 0 1 7 0l-2-4h-6v2l-4-1c2.513-5.565 5.049-5.308 11-5"/><path fill="#b6bac1" d="M433 524h5v2l1.938.313L442 527l1 3 2-4 2.25.063c2.455-.056 4.411-.37 6.75-1.063 1.044 3.133.934 3.99 0 7l6 1v-2l-4-1 1-4 5 1v2h-3l3 1v4h-10v-6h-2v6h-10v-6h-2v6l-1.937-.562L434 533l-1 1c-3 .125-3 .125-6 0-1-1-1-1-1.098-2.848L426 525c2.48-1.24 4.254-1.069 7-1"/><path fill="#e5e6e8" d="M154.813 388.188c2.187 1.812 2.187 1.812 3 4.5L158 395h-4l-2-3c-3.584-.25-3.584-.25-7 0l-1 4 3.125 1.313c9.083 3.895 9.083 3.895 10.875 5.687.59 6.253.59 6.253-1.875 9.375-3.803 2.908-6.342 2.95-11.125 2.625-2.875-1.187-2.875-1.187-5-3-.812-2.687-.812-2.687-1-5h4l2 3c3.584.25 3.584.25 7 0l1-5-2.047-.734c-9.485-3.564-9.485-3.564-11.953-7.266-.5-2.5-.5-2.5 0-5 4.254-5.281 9.546-6.459 15.813-3.812m0-45c2.187 1.812 2.187 1.812 3 4.5L158 350h-4l-2-3c-3.584-.25-3.584-.25-7 0l-1 4 3.125 1.313c9.083 3.895 9.083 3.895 10.875 5.687.59 6.253.59 6.253-1.875 9.375-3.803 2.908-6.342 2.95-11.125 2.625-2.875-1.187-2.875-1.187-5-3-.812-2.687-.812-2.687-1-5h4l2 3c3.584.25 3.584.25 7 0l1-5-2.047-.734c-9.485-3.564-9.485-3.564-11.953-7.266-.5-2.5-.5-2.5 0-5 4.254-5.281 9.546-6.459 15.813-3.812"/><path fill="#1a2634" d="m80 558 1 3-80 80-1-3z"/><path fill="#14222f" d="m80 507 1 3-80 80-1-3z"/><path fill="#e4e4e6" d="M307 349c2.761 1.017 3.68 1.362 5 4 .04 2.333.043 4.667 0 7h-13l2 5c3.832.09 7.266-.121 11-1-.331 2.486-.613 3.675-2.562 5.313-3.664 1.033-6.805.804-10.438-.313-2.863-2.219-3.796-3.817-4.41-7.379-.262-4.498-.049-6.926 2.473-10.746 3.656-2.334 5.668-2.418 9.937-1.875m-114 0c2.761 1.017 3.68 1.362 5 4 .04 2.333.043 4.667 0 7h-13l2 5c3.832.09 7.266-.121 11-1-.331 2.486-.613 3.675-2.562 5.313-3.664 1.033-6.805.804-10.438-.313-2.863-2.219-3.796-3.817-4.41-7.379-.262-4.498-.049-6.926 2.472-10.746 3.657-2.334 5.67-2.418 9.938-1.875m-20 0c2.761 1.017 3.68 1.362 5 4 .04 2.333.043 4.667 0 7h-13l2 5c3.832.09 7.266-.121 11-1-.331 2.486-.613 3.675-2.562 5.313-3.664 1.033-6.805.804-10.438-.313-2.863-2.219-3.796-3.817-4.41-7.379-.262-4.498-.049-6.926 2.472-10.746 3.657-2.334 5.67-2.418 9.938-1.875"/><path fill="#f5f5f6" d="M247 394c2.938 1.563 2.938 1.563 5 4v7h-14l3 5c3.832.5 7.258-.12 11-1-1.37 3.161-1.99 3.993-5 6-3.897.508-5.506.33-8.812-1.875-3.072-2.984-3.4-4.757-3.563-8.937.05-3.84.247-4.994 2.438-8.313 3.705-2.365 5.613-2.57 9.937-1.875"/><path fill="#9399a3" d="M735.375 321.813C738 322 738 322 741 324v-2h3l2 4 1-1q3.5-.062 7 0 .079 2.687.125 5.375l.07 3.023C754 336 754 336 752 338c-3.125-.375-3.125-.375-6-1v-4l-2.375.5c-3.854.734-7.704.5-11.625.5l-1-4h3v2h3c-1.377-2.754-3.367-3.515-6-5 1.113-4.93 1.113-4.93 4.375-5.187"/><path fill="#e4e5e7" d="M225 389h4v5h4v3h-4v14h4v3c-2.875.188-2.875.188-6 0-2.491-3.737-2.207-5.745-2.125-10.187l.055-3.856L225 397c-4.342.185-4.342.185-8 2a200 200 0 0 0-.562 7.563l-.131 2.154q-.159 2.64-.307 5.283h-4v-20h13z"/><path fill="#edeeef" d="M228 343c3.063 2.375 3.063 2.375 5 5v3h-4l-1.312-2c-1.63-2.38-1.63-2.38-5.125-2.5-3.514.261-3.514.261-6 1.938-2.327 3.815-2.322 7.21-1.563 11.562 1.417 3.148 1.417 3.148 4 5 3 .75 3 .75 6 0a91 91 0 0 0 4-4h4c-.305 2.85-1.044 4.052-2.937 6.25-4.342 2.48-8.172 2.7-13.063 1.75-3.46-2.667-6.673-5.788-7.336-10.27-.088-5.762.308-9.267 4.336-13.73 4.289-3.799 8.725-3.583 14-2"/><path fill="#124852" d="m155.375 213.75 2.828-.062c5.39-.031 9.108.332 13.797 3.312l-1 3-2.383-.465c-4.496-.665-8.956-.889-13.492-1.097L146 218v24l-4 2-1-29c4.877-1.22 9.37-1.223 14.375-1.25"/><path fill="#434855" d="M165 521q2.01.981 4 2c.622 7.933.622 7.933-1.75 12-3.375 3-3.375 3-6.25 3-2.702-1.222-4.486-2.34-6.312-4.687-1.035-3.48-.809-6.69-.688-10.313 4.11-2.39 6.407-3.571 11-2"/><path fill="#d8d8db" d="m405 349 5 1 1-1c6.146-.58 6.146-.58 9.215 1.504 2.492 3.484 2.224 6.638 2.035 10.746l-.055 2.258A339 339 0 0 1 422 369h-4l-1-15-7-1-1 16h-4zm-148 0 5 1 1-1c6.146-.58 6.146-.58 9.215 1.504 2.492 3.484 2.224 6.638 2.035 10.746l-.055 2.258A339 339 0 0 1 274 369h-4l-1-15-7-1-1 16h-4z"/><path fill="#babec5" d="M176 563h7v2h-4v2h4v2h-4v2h4l1-6h13v-2h3v5h6v2h-6v3h-11v-6h-2v6h-11z"/><path fill="#5e9a89" d="M191 239c3.75 0 5.953.244 9.023 2.46 3.762 3.763 5.457 6.734 5.665 12.102-.377 5.23-1.419 8.33-4.688 12.438-6.054 5.024-12.378 4.628-20 4l-3-1-1-3 3-1 2 1c5.338.532 9.696.64 14.563-1.75 3.742-3.455 4.299-5.023 4.875-10.125-.083-3.177-.67-4.99-2.625-7.5-2.633-2.457-4.391-3.647-7.813-4.625z"/><path fill="#dcdde0" d="M436 349c2.438 1.375 2.438 1.375 4 3v2l-10-1v3l1.898.55 2.477.762 2.46.739C439 359 439 359 441 362c-.062 2.5-.062 2.5-1 5-3.047 2.688-4.54 3.024-8.625 2.813C428 369 428 369 425 367l1-4h3v3h7l-1-4-3.312-.812c-5.082-1.637-5.082-1.637-6.688-4.188-.437-2.5-.437-2.5 0-5 3.134-3.636 6.431-3.49 11-3m-97 0c2.438 1.375 2.438 1.375 4 3v2l-10-1v3l1.898.55 2.477.762 2.46.739C342 359 342 359 344 362c-.062 2.5-.062 2.5-1 5-3.047 2.688-4.54 3.024-8.625 2.813C331 369 331 369 328 367l1-4h3v3h7l-1-4-3.312-.812c-5.082-1.637-5.082-1.637-6.688-4.188-.437-2.5-.437-2.5 0-5 3.134-3.636 6.431-3.49 11-3"/><path fill="#4a847b" d="M184.063 243.5c5.359.68 9.173 2.587 12.937 6.5 1.087 2.92.955 5.056 0 8-2 3-2 3-5 5-4.285.792-7.307.462-11-2v-3l2.117.035c.91.01 1.82.018 2.758.027l2.742.036c2.4.064 2.4.064 4.383-1.098.418-2.373.418-2.373 0-5-3.56-3.036-6.424-3.32-11-3l-3 7h-1c.114-1.626.242-3.25.375-4.875.07-.905.14-1.81.21-2.742.65-3.734 1.808-4.284 5.477-4.883"/><path fill="#8594a8" d="M848 130c3.563 2.199 5.446 4.147 7 8 .24 4.467-.461 8.095-2.75 11.938-3.273 3-5.819 3.88-10.187 4.437-4.017-.492-5.982-1.773-9.063-4.375-2.642-4.051-3.702-7.184-3-12 4.296-8.115 9.292-10.339 18-8m-13 4.063c-2.42 3.555-3.076 5.633-3 9.937 1.6 3.142 3.05 5.247 5.813 7.438 3.405.875 5.8.453 9.187-.438 3.502-2.588 4.775-4.271 6.063-8.437-.078-4.395-1.282-6.226-4.063-9.563-4.708-2.354-9.77-1.845-14 1.063"/><path fill="#636a78" d="M289 450h2v2h2v2h-2v6l2 1-2.062-.562c-3.51-.523-6.46-.052-9.938.562l-2-4h-7v2h6l-1 2c-2.375.125-2.375.125-5 0l-2-2c.375-3.125.375-3.125 1-6 4.516-1.129 4.516-1.129 6.875-.5 3.156.743 5.958.028 9.125-.5h2z"/><path fill="#dfe0e2" d="M275 349h5l.84 2.371 1.098 3.067 1.09 3.058c.74 2.407.74 2.407 1.972 3.504l5-12h4c-.793 3.4-1.84 6.686-2.937 10l-1.028 3.125c-.869 2.413-1.826 4.619-3.035 6.875h-5a4299 4299 0 0 1-2.937-7.75l-.842-2.21-.81-2.15-.747-1.967c-.675-1.956-1.192-3.91-1.664-5.923"/><path fill="#9da1a9" d="M310.438 520.875C313 521 313 521 315 522l3-1c1 1 1 1 1.188 3.375C319 527 319 527 317 530h3c2 3 2 3 2 7h-2l-.375-1.937L319 533l-2-1v5h-2l-1-4-8-1-1 5h-1c-.25-2.312-.25-2.312 0-5 2-1.812 2-1.812 4-3l-2-2c.724-5.935.724-5.935 4.438-6.125"/><path fill="#eaf9f6" d="m678 257 2 2c-.224 2.015-.454 4.031-.809 6.027-.346 2.184-.346 2.184.809 4.973l-1.863-.324-2.45-.363-2.425-.387c-2.33-.144-2.33-.144-4.012 1.418-1.411 1.87-1.855 3.364-2.25 5.656h-2c-.25-2.187-.25-2.187 0-5l2.063-2.375c2.364-2.575 2.364-2.575 1.5-6.25L668 259c2.183-4.365 5.858-2.979 10-2"/><path fill="#a1a5ad" d="M399 526a176 176 0 0 1 5 1c2.232-.369 2.232-.369 4-1v6h2v-6q2.187-.079 4.375-.125l2.46-.07C419 526 419 526 421 528c.125 2.625.125 2.625 0 5l-2-1v-4h-3v5l3 1h-3v3h-3v-3h-13l2-1v-5l-2 1c-.652 2.025-.652 2.025-1 4h-2c-.125-2.375-.125-2.375 0-5z"/><path fill="#bcc0c7" d="M278 565h7l1 3h2v-3a196 196 0 0 1 4.375-.187l2.46-.106L297 565c2 3 2 3 1.625 5.688L298 573h-4v3h-3l-1-7-3 7h-4v-2h2l-1-7h-4v6h-2z"/><path fill="#101b2a" d="M168 248c1 1 1 1 1.25 3.875-.25 3.125-.25 3.125-1.383 4.773-2.625 1.9-4.784 1.901-7.992 2.102l-3.258.234L154 259c-1-1-1-1-1.375-3.312C153 253 153 253 155.25 250.75c4.345-2.765 7.616-2.978 12.75-2.75"/><path fill="#999da6" d="M257 524h3v2l1.938.438C264 527 264 527 265 528c.04 2 .043 4 0 6h-3v-6h-2v6h-8l-3.062.063C246 534 246 534 245 533q-.061-3.5 0-7h2v6h2v-6l3.438-.437c3.37-.175 3.37-.175 4.562-1.563"/><path fill="#5d6472" d="M138 449h6l2 2.063 2 1.937c3.2-.143 3.2-.143 6-1l1 5h-5l1 2h4v2c-2.812.313-2.812.313-6 0-1.875-2.5-1.875-2.5-3-5l1 5h-3l-1-4h-3v4h-2z"/><path fill="#cdd1d7" d="m160 560 4 1v5l6 1v3l-2.375.625c-2.934 1.182-2.934 1.182-3.937 4.5L163 578l-3-1-1-5-6-2 1-3 5-1z"/><path fill="#e2e3e5" d="M366 344h4v5h4v3h-4v14h4v3c-2.875.188-2.875.188-6 0-2.491-3.737-2.207-5.745-2.125-10.187l.055-3.856L366 352h-3v-3h3z"/><path fill="#e1f6f5" d="M756 259c1.922.34 1.922.34 4 1 1.25 2.563 1.25 2.563 2 5l1.688-1.562c2.312-1.438 2.312-1.438 5-1.25C771 263 771 263 772 265h-5l-1 4 6-1-1 3c-8 0-8 0-11.375-.562-3.093-.374-4.77-.466-7.625.562.66-2.846 1.517-5.523 2.563-8.25l.816-2.14z"/><path fill="#8b94a1" d="M389 450h2v2h8l1 3h-4l4 2-1 4h-5l-1-2 5 1v-2l-5-2v-2h-2l1 7h-3v-7h-2v7h-7c-.562-1.937-.562-1.937-1-4 1-1 1-1 3.563-1.062L385 456v-2l-5 1 1-3h8z"/><path fill="#6a7280" d="m171 479 3 1 1 3 2-4a365 365 0 0 1 4.875-.125l2.742-.07C187 479 187 479 189 481c.25 2.5.25 2.5 0 5-2 2-2 2-4.625 2.125L182 488v3h-2l-1-9-4 9-3-1h2z"/><path fill="#191e2e" d="M393.563 352.25C396 353 396 353 398 355c.266 2.094.266 2.094.25 4.5l.016 2.406C398 364 398 364 396 366c-3 .25-3 .25-6 0-2.52-2.52-2.297-3.515-2.312-7l-.051-2.687L388 354c3-2 3-2 5.563-1.75m-148 0C248 353 248 353 250 355c.266 2.094.266 2.094.25 4.5l.016 2.406C250 364 250 364 248 366c-3 .25-3 .25-6 0-2.52-2.52-2.297-3.515-2.312-7l-.051-2.687L240 354c3-2 3-2 5.563-1.75"/><path fill="#1d4b52" d="m150 222 7.313-.125 2.29-.055c3.711-.031 5.232.07 8.397 2.18v3l-14-1v11l-4 1z"/><path fill="#141d2c" d="M184.688 247.688c4.171.393 6.182 1.555 9.312 4.312.563 2.625.563 2.625 0 5-4.208 2.805-6.1 1.856-11 1l-2-1c-.098-6.152-.098-6.152 0-8 1-1 1-1 3.688-1.312"/><path fill="#689885" d="m185 215-1 1 2.152.148 2.786.227 2.777.21L194 217l1 2-2.852-.176c-7.81-.624-7.81-.624-14.835 2.113-2.49 3.296-3.428 5.987-4.54 9.903-1.176 3.286-3.027 5.084-5.773 7.16h-4c1-3 1-3 3.375-5.125 2.57-2.814 3.062-3.823 4-7.312 1.475-5.107 4.296-7.642 8.625-10.563 2.49-1.245 3.41-.777 6 0"/><path fill="#acb0b7" d="M386.688 523.75c3.728.281 6.758 1.113 10.312 2.25v2h-2v6l-1.937-.562L391 533l-1 1c-2.937.188-2.937.188-6 0-2-2-2-2-2.25-5 .326-3.906.99-4.883 4.938-5.25"/><path fill="#2ba87f" d="M193 297c2 2 2 2 2.266 3.875v4.25C195 307 195 307 193 309c-3.103.33-5.158.505-7.875-1.125-1.654-2.756-1.519-4.726-1.125-7.875 2.213-3.689 4.978-3.428 9-3"/><path fill="#bdc2c8" d="M328 524h12v10l-4-1-1 1q-3.5.062-7 0z"/><path fill="#e2e3e5" d="m196.48 403.145 2.708.668 2.73.644L204 405c-.75 7.75-.75 7.75-3 10-3.403-.186-6.037-.379-8.937-2.25-1.478-2.433-1.482-3.953-1.063-6.75 1.749-2.489 2.386-3.036 5.48-2.855"/><path fill="#88c1a0" d="M196.188 215.688c4.143 2.256 6.697 5.081 8.812 9.312.04 2 .043 4 0 6h-9v-3h5c-2.573-5.741-2.573-5.741-7-10-2.599-.425-5.127-.625-7.758-.727C184 217 184 217 182 215c5.103-1.701 9.319-1.565 14.188.688"/><path fill="#2caf83" d="M219 297c6.378-.361 6.378-.361 8.938 1.125 1.566 2.765 1.452 4.757 1.062 7.875-1.062 1.875-1.062 1.875-3 3-3.687.188-3.687.188-7 0z"/><path fill="#2db486" d="M138 297h8c.878 3.732 1.174 7.167 1 11-1 1-1 1-2.848 1.098L138 309z"/><path fill="#f9f9fa" d="m255 394 5 1 1-1a100 100 0 0 1 5 0v3l-2.437.938c-2.454.825-2.454.825-3.563 2.062-.235 2.35-.414 4.706-.562 7.063l-.254 3.91L259 414h-4z"/><path fill="#c3c7cd" d="M184 524h3v2h11l1 5-2 1h2v2c-2 .043-4 .04-6 0-1-1-1-1-1.062-3.562L192 528h-2v6h-6z"/><path fill="#e2e2e5" d="M316 349h11v3l-6 2-1 15h-4z"/><path fill="#0c3c50" d="M166 238c-2.186 2.186-3.539 2.683-6.437 3.625-.783.26-1.565.52-2.372.79C155 243 155 243 152 243v2a283 283 0 0 1-5 5c-1.741 3.482-1.406 7.503-1.621 11.348L145 264l-2 1c-.081-2.397-.14-4.79-.187-7.187l-.077-2.042c-.066-4.5.488-7.216 3.264-10.771 5.933-5.604 11.745-8.965 20-7"/><path fill="#dcdde0" d="M228 343c3.063 2.375 3.063 2.375 5 5v3h-4l-1.312-2c-1.628-2.386-1.628-2.386-5.125-2.437-3.668.45-4.88 1.052-7.563 3.437h-2l-2 11h-1c-.357-5.013-.563-8.853 1.688-13.437 4.974-5.513 9.194-6.7 16.312-4.563"/><path fill="#d4d9de" d="M201 524h2v2l1.875.313C207 527 207 527 209 530h4v-2l-4 1 1-3 5 1v7h-14z"/><path fill="#161c2c" d="M158 479c2.616.327 4.64.82 7 2v-2h5v2h-2v7l-1.937-.562L164 487l-1 1c-2.437.188-2.437.188-5 0-2-2-2-2-2.25-4.5.25-2.5.25-2.5 2.25-4.5"/><path fill="#7c8492" d="m435 449 3 1v5h6v2h-6v4c-6.152.098-6.152.098-8 0-1-1-1-1-1.187-3.937C429 454 429 454 431 452h3z"/><path fill="#dedee1" d="m358 357 1 6h-2l-1 3c-5.538.37-5.538.37-7.875-1.5L347 363l-2 3c-.366-4.512-.366-4.512 1.313-6.75 3.673-2.721 7.296-2.333 11.687-2.25"/><path fill="#2dae83" d="M266 297c6.152-.098 6.152-.098 8 0 1 1 1 1 1 4.875l-.062 2.117c-.027 2.217-.027 2.217 1.062 5.008-3.27-.564-4.826-1.5-7-4v4h-3z"/><path fill="#b2e8e4" d="M734 260h3c1.108 3.325.845 5.622 0 9h2l-.125-2.375C739 264 739 264 741 262c3.125.375 3.125.375 6 1v4h-5v2h5l-1 2h-11c-2.429-7.429-2.429-7.429-1-11"/><path fill="#474d59" d="M433 524h3v10h-3l-3.125.063C427 534 427 534 426 533c-.141-2.67-.042-5.324 0-8 2.488-1.244 4.24-1.067 7-1"/><path fill="#226366" d="M178 247c1.311 4.653 1.693 9.203 1 14-2.187 2.938-2.187 2.938-5 5l-2.062 1.617c-4.254 2.002-8.116 1.705-12.75 1.57l-2.678-.04c-2.17-.036-4.34-.09-6.51-.147v-1l3.254-.297 4.309-.453 2.134-.187c6.04-.668 11.042-2.412 15.115-7.188 1.721-4.166 2.456-8.44 3.188-12.875"/><path fill="#2f7876" d="M201 258c.976 3.038 1.455 5.09 0 8-6.081 4.976-12.397 4.627-20 4l-3-1-1-3 3-1 2 1c5.338.532 9.696.64 14.563-1.75 2.222-2.052 3.43-3.43 4.437-6.25"/><path fill="#929ca9" d="M177 136h4l2 4 2-4h3v10h-2l-1-3-1 3h-7z"/><path fill="#1c3445" d="m27 0 3 1L1 30l-1-3z"/><path fill="#caced4" d="M165 521q2.01.981 4 2c.622 7.933.622 7.933-1.75 12-3.375 3-3.375 3-6.25 3-2.702-1.222-4.486-2.34-6.312-4.687-1.035-3.48-.809-6.69-.688-10.313 4.11-2.39 6.407-3.571 11-2m-9 3c-.346 4.03-.346 4.03 0 8 2.338 2.54 2.338 2.54 5 4 3.25-1.088 3.25-1.088 6-3 .072-1.52.084-3.042.063-4.562l-.028-2.504L167 524c-4.324-2.386-6.676-2.386-11 0"/><path fill="#909aa7" d="M114 136c3 1 3 1 4 3l1-3h3l1 3 1-3h3c-.458 3.47-.891 6.674-2 10h-3l-2-2-1 2h-3z"/><path fill="#e5e6e8" d="m162 394 5 1 1 3-1 1a200 200 0 0 0-.562 7.563l-.131 2.154q-.159 2.64-.307 5.283h-4z"/><path fill="#dbdcde" d="M154.813 388.188c2.187 1.812 2.187 1.812 3 4.5L158 395h-4l-2-3c-3.458-.583-3.458-.583-7 0-1.982 1.861-1.982 1.861-3 4l-1-1-2 2c-.25-2.25-.25-2.25 0-5 4.254-5.281 9.546-6.459 15.813-3.812m0-45c2.187 1.812 2.187 1.812 3 4.5L158 350h-4l-2-3c-3.458-.583-3.458-.583-7 0-1.982 1.861-1.982 1.861-3 4l-1-1-2 2c-.25-2.25-.25-2.25 0-5 4.254-5.281 9.546-6.459 15.813-3.812"/><path fill="#289a76" d="M202 297c4 1 4 1 5.25 3.063L208 302l1-5h3v12c-4-1-4-1-5.75-3.562L205 303l-1 6h-2z"/><path fill="#2caa80" d="M291 297c4 1 4 1 5.75 3.563L298 303l1-6h2v12c-4-1-4-1-5.25-3.062L295 304l-1 5h-3z"/><path fill="#77818e" d="M701 214c5.625-.25 5.625-.25 9 2 .313 3 .313 3 0 6-2 2-2 2-5.625 2.125L701 224z"/><path fill="#939ba8" d="M318.125 451.875 321 452q.079 2.687.125 5.375l.07 3.023C321 463 321 463 319 465c-2.625-.375-2.625-.375-5-1v-2l5 1v-2l-2.437-.437C314 460 314 460 313 459c-.187-2.437-.187-2.437 0-5 2-2 2-2 5.125-2.125"/><path fill="#dfdfe2" d="M377 349h4v20h-4z"/><path fill="#87909d" d="M347 452c6 0 6 0 7.938 1.188C356 455 356 455 355.75 457.625 355 460 355 460 354 461c-1.666.04-3.334.043-5 0v3h-2z"/><path fill="#98a2af" d="M168.5 135.75c2.5.25 2.5.25 4.5 2.25.25 3 .25 3 0 6-2 2-2 2-4.5 2.25C166 146 166 146 164 144c-.25-3-.25-3 0-6 2-2 2-2 4.5-2.25"/><path fill="#e9eaeb" d="M389 349c4.14-.325 6.34-.43 9.875 1.875 3.328 3.328 3.26 5.495 3.355 10.152C402 363 402 363 400 366c-2.783-2.783-2.41-5.103-2.656-8.906-.17-2.31-.17-2.31-2.344-4.094-3.083-.167-3.083-.167-6 0zm-148 0c4.14-.325 6.34-.43 9.875 1.875 3.328 3.328 3.26 5.495 3.355 10.152C254 363 254 363 252 366c-2.783-2.783-2.41-5.103-2.656-8.906-.17-2.31-.17-2.31-2.344-4.094-3.083-.167-3.083-.167-6 0z"/><path fill="#ced3d9" d="M735.563 321.938 738 322l2 4h-5l5 3-1 5h-7l-1-4h3v2h3c-1.377-2.754-3.367-3.515-6-5 1.124-4.979 1.124-4.979 4.563-5.062"/><path fill="#448880" d="M146 215c3.583-.058 7.166-.094 10.75-.125l3.078-.05 2.969-.02 2.73-.032c2.612.24 4.23.904 6.473 2.227l-1 3-25-3z"/><path fill="#959eab" d="M210 476h2v12q-3.5.062-7 0c-1-1-1-1-1.187-3.937C204 481 204 481 206 479h3z"/><path fill="#9199a6" d="M257 449h2v12h-7c-.625-3.375-.625-3.375-1-7l2-2h4zm235 0h2v12h-7c-.625-3.375-.625-3.375-1-7l2-2h4z"/><path fill="#2daf83" d="M334 298v3h-3v-2h-3c1.392 2.784 3.156 2.979 6 4 .043 1.666.04 3.334 0 5-1 1-1 1-4.562 1.063L326 309l-1-4 6 2v-3l-5-1-1-5c3.069-1.534 5.7-.55 9 0"/><path fill="#2caa80" d="M240.125 296.875 243 297l1 3-6-1c1.507 3.013 4.032 3.61 7 5-.875 3.875-.875 3.875-2 5-5.53.235-5.53.235-8-1v-3h3v2l3-2-2.437-.75C236 303 236 303 235.063 301l-.063-2c2-2 2-2 5.125-2.125"/><path fill="#2ca980" d="M313 296.813c3 .187 3 .187 5 1.187v3l-6-1v6h3l1-2-2-1h4v5c-2.763 1.381-4.947 1.19-8 1-2-2-2-2-2.266-3.875l.016-2.125-.016-2.125c.493-3.48 1.961-3.856 5.266-4.062"/><path fill="#86909d" d="M895 142c2.625.375 2.625.375 5 1 .625 2.375.625 2.375 1 5l-2 2c-4.556-.556-4.556-.556-6-2a86 86 0 0 0-4.562-.562l-2.504-.254L884 147v-2l1.898-.148 2.477-.227c.812-.07 1.624-.14 2.46-.21 2.368-.244 2.368-.244 4.165-2.415"/><path fill="#c0cad6" d="M885 132c4.556.556 4.556.556 6 2 1.515.232 3.038.412 4.563.563l2.503.253L900 135v2l-1.898.148-2.477.227c-.812.07-1.624.14-2.46.21-2.368.244-2.368.244-4.165 2.415-2.625-.375-2.625-.375-5-1-.625-2.375-.625-2.375-1-5z"/><path fill="#bbebe4" d="M704.188 259.375 707 260l1 4h-3v-2h-4v7h4v-2h3l-2 4c-2.875.125-2.875.125-6 0-2.325-2.325-2.295-2.847-2.312-6l-.051-2.125L698 261c3-2 3-2 6.188-1.625"/><path fill="#e3e4e6" d="m237 405 1.625 2.5c2.145 2.785 2.145 2.785 5.313 2.875 2.733-.335 5.382-.744 8.062-1.375-1.37 3.161-1.99 3.993-5 6-3.995.521-5.523.332-8.875-2L236 411z"/><path fill="#161c2c" d="M289 450h2v2h2v2h-2v6l2 1-6-1v-2h-2v2l-3-1v-5l5 1v-3h2z"/><path fill="#c7cbd1" d="M341 526a365 365 0 0 1 4.875-.125l2.742-.07C351 526 351 526 353 528v3l-3 1 3 1c-1 1-1 1-3.5 1.125C347 534 347 534 346 533a100 100 0 0 1 0-5h-3v6h-2z"/><path fill="#9be1e2" d="M784 262c3.125.375 3.125.375 6 1q.062 3.5 0 7c-1 1-1 1-4 1.125-3-.125-3-.125-4-1.125-.187-2.937-.187-2.937 0-6z"/><path fill="#9098a6" d="M453 452c4.556.556 4.556.556 6 2 .125 3 .125 3 0 6-1 1-1 1-4 1.125-3-.125-3-.125-4-1.125-.187-2.937-.187-2.937 0-6z"/><path fill="#9098a5" d="M203 452c4.556.556 4.556.556 6 2 .125 3 .125 3 0 6-1 1-1 1-4 1.125-3-.125-3-.125-4-1.125-.187-2.937-.187-2.937 0-6z"/><path fill="#165961" d="m169 245 3 2c.398 2.277.398 2.277.375 4.938l.023 2.652c-.462 2.794-1.224 3.668-3.398 5.41l-3-1 2-2c.242-1.981.242-1.981.125-4.125L168 249l-7-2v-2c3.344-1.115 4.667-.917 8 0"/><path fill="#9099a6" d="M330 452c4.556.556 4.556.556 6 2 .125 3 .125 3 0 6-1 1-1 1-3.437 1.188C330 461 330 461 328 459c-.25-2.5-.25-2.5 0-5z"/><path fill="#e6ebef" d="M712 319q3.5-.062 7 0c1.522 1.522 1.13 2.882 1.133 5l.004 2.438-.012 2.562.012 2.563-.004 2.437-.004 2.25C720 338 720 338 719 339q-3.5.062-7 0v-2h6v-16h-6z"/><path fill="#6f9e89" d="M183 222c8.787-.447 8.787-.447 13 3l1 3-1 2 9 1v1h-12l-1-6-10-1z"/><path fill="#606876" d="M261 452h9v2h-3v7h-6z"/><path fill="#ced3d9" d="M750.563 324.938 754 325q.079 2.687.125 5.375l.07 3.023C754 336 754 336 752 338c-3.125-.375-3.125-.375-6-1v-2h6l-1-7h-2l-1 3h-2a100 100 0 0 1 0-5c1-1 1-1 4.563-1.062"/><path fill="#c1c6cc" d="m452 525 3 1-1 6 6 1v-2l-4-1 1-4 5 1v2h-3l3 1v4h-10c-1.125-6.75-1.125-6.75 0-9"/><path fill="#919ba8" d="M657 214h4l3 10h-3v-2h-4v2h-3z"/><path fill="#2fbc8b" d="M154 297h8v2h-6v3h5v2h-5v3h6v2h-8z"/><path fill="#8c9099" d="M317 563h2v10c-2 .043-4 .04-6 0-1-1-1-1-1.062-4.062L312 566l5-1z"/><path fill="#8b9099" d="M247 563h2v10c-2 .043-4 .04-6 0-1-1-1-1-1.062-4.062L242 566l5-1z"/><path fill="#d0d3d9" d="m238 524 4 1 2 9h-2v-2h-4v2h-3c.507-3.719 1.116-6.735 3-10"/><path fill="#c6cbd2" d="M773 325c3.375-.125 3.375-.125 7 0 2 2 2 2 2.125 5.625L782 334h-3v-7l-2 1c-.658 3.03-.658 3.03-1 6h-3z"/><path fill="#357f7c" d="M151 223h16l1 4-3.21-.035-4.165-.028-2.117-.025c-3.881-.096-3.881-.096-7.508 1.088z"/><path fill="#296264" d="M145 214h21v1h-20v2h8v1h-9v10l-2 1v-13h2z"/><path fill="#909aa6" d="M667 214c5.75-.125 5.75-.125 8 1v3h-2v-2h-3v3h3l2 5h-3l-1-2-1 2h-3z"/><path fill="#babfc5" d="M197 563h3v5h6v2h-6v3h-6l3-1v-5l-4 3 1-5h3z"/><path fill="#e2e6eb" d="M707 323c2.884 1.293 4.872 2.66 7 5-1.285 2.867-2.571 4.976-5 7h-2l2-4-9-1v-2l9-1z"/><path fill="#8a94a1" d="M604 214h7v2h-4v2h4v2h-4v2h5v2h-8z"/><path fill="#88929f" d="M192 136h7v2h-4v2h4v2h-4v2h5v2h-8z"/><path fill="#cbcfd6" d="M362 525c2.063.438 2.063.438 4 1v2h-2l1 6h-3l-1-5-5-1 2 4h2v2c-1.666.043-3.334.04-5 0-1-1-1-1-1.062-4.062L354 527l3.438-.437c3.37-.175 3.37-.175 4.562-1.563"/><path fill="#2cac81" d="M168 297c2.867.573 3.861.861 6 3l2-3 3 1-1.437 2.125c-1.65 3.036-2.167 5.467-2.563 8.875h-3l-.875-3.187c-.897-3.041-1.89-5.9-3.125-8.813"/><path fill="#bec3c9" d="M254 563h7v2h-4v2h4v2h-4v2h4v2h-7zm-28 0h7v2h-4v2h4v2h-4v2h4v2h-7zm-50 0h7v2h-4v2h4v2h-4v2h4v2h-7z"/><path fill="#f8f8f9" d="M406 350h2c1.254 3.763 1.107 7.272 1.063 11.188l-.014 2.271q-.02 2.77-.049 5.541h-3zm-148 0h2c1.254 3.763 1.107 7.272 1.063 11.188l-.014 2.271q-.02 2.77-.049 5.541h-3z"/><path fill="#e4f7f4" d="M717 262c3.125.375 3.125.375 6 1v4h-5v2h5l-1 2-7-1c-.125-2.875-.125-2.875 0-6z"/><path fill="#959eab" d="m599 214 1 4-5-1-1 5h4v-2l-2-1h5c-.875 3.875-.875 3.875-2 5-3 .125-3 .125-6 0-1-1-1-1-1.098-2.848L592 215c2.463-1.231 4.28-1.072 7-1"/><path fill="#e5e6e8" d="M290 349h4c-.724 3.167-1.718 6.152-2.875 9.188l-.992 2.667C289 363 289 363 286 364q.713-3.47 1.438-6.937l.808-3.903C289 350 289 350 290 349"/><path fill="#1abc9d" d="M672 258c2.625.375 2.625.375 5 1 .625 2.375.625 2.375 1 5l-2 2c-2.625-.375-2.625-.375-5-1-.625-2.375-.625-2.375-1-5z"/><path fill="#57877b" d="m181 223 2 1c1.537.225 3.08.408 4.625.563l2.477.253L192 225v3l-1-1c-1.525.09-3.047.245-4.562.438l-2.504.308L182 228v7l-4-1c-.37-7.508-.37-7.508 1.5-10z"/><path fill="#919ba8" d="M634 214h5l1 3-4-1v2l5 2-1 4h-6l-1-3 5 1v-2l-5-1z"/><path fill="#868f9c" d="M370 449h3v3l5 1v8h-2v-7h-4v7h-2z"/><path fill="#0b3147" d="m144 264 2 2c2.662.463 2.662.463 5.625.625l3.04.227L157 267v1l10 1v1h-24c0-5 0-5 1-6"/><path fill="#daf4f5" d="M801 262q3.5-.062 7 0c1 1 1 1 1.098 2.848L809 271h-2v-7l-2 1c-.658 3.03-.658 3.03-1 6h-3z"/><path fill="#6f7785" d="M197 479c2.625.375 2.625.375 5 1l1 4h-6l1 2h5l-1 2c-2 .043-4 .04-6 0-1-1-1-1-1.187-3.937C195 481 195 481 197 479"/><path fill="#949ca9" d="M181 453v8h-6l-1-4 5-1v-2l-5 1v-2c2.667-1.333 4.167-.671 7 0m-17 0v8h-6l-1-4 5-1v-2l-5 1v-2c2.667-1.333 4.167-.671 7 0"/><path fill="#ddf5f5" d="M792 262h2v7h3v-7h3v9q-3.5.062-7 0c-1-1-1-1-1.098-2.848z"/><path fill="#407b75" d="m171 223 3 3c-1.172 5.435-2.46 8.432-7 12h-4c1-3 1-3 3.438-5.25 3.096-3.323 3.621-5.389 4.562-9.75"/><path fill="#bcc1c7" d="M213 565c4.101.469 8.048 1.838 12 3v2c-7.429 2.143-7.429 2.143-11 3l2-1v-5c-2.51 1.255-2.871 2.5-4 5-.625-2.375-.625-2.375-1-5z"/><path fill="#78808e" d="M338 452h2l1 7h1l1-7h3v9q-3.5.062-7 0c-1-1-1-1-1.098-2.848z"/><path fill="#bfc0c5" d="m255 394 5 1 1-1a100 100 0 0 1 5 0v3l-2.375.938c-2.548.99-2.548.99-4.625 2.062l-1-5h-2v19h-1z"/><path fill="#858d9b" d="M420 452c2.875-.125 2.875-.125 6 0 2 2 2 2 2.125 5.625L428 461h-3v-7h-3v7h-2zm-200 0c2.875-.125 2.875-.125 6 0 2 2 2 2 2.125 5.625L228 461h-3v-7h-3v7h-2z"/><path fill="#ebeced" d="M436 349c2.438 1.375 2.438 1.375 4 3v2l-10-1-2 3-2-2c.25-2.062.25-2.062 1-4 3.057-1.528 5.63-1.232 9-1m-97 0c2.438 1.375 2.438 1.375 4 3v2l-10-1-2 3-2-2c.25-2.062.25-2.062 1-4 3.057-1.528 5.63-1.232 9-1"/><path fill="#d3d8de" d="M756 325c2.875-.125 2.875-.125 6 0 2 2 2 2 2.125 5.625L764 334h-3v-7l-2 1c-.658 3.03-.658 3.03-1 6h-2z"/><path fill="#939dab" d="M131 136h7v2h-5v2h4v2h-4v2h5v2h-7z"/><path fill="#9ca4b1" d="M145 480v4h-5l1 2h4v2c-2 .043-4 .04-6 0-1-1-1-1-1.062-4.562L138 480c2.667-1.333 4.167-.671 7 0"/><path fill="#9ca5b1" d="M475 453v4h-5l1 2h4v2c-2 .043-4 .04-6 0-1-1-1-1-1.062-4.562L468 453c2.667-1.333 4.167-.671 7 0"/><path fill="#98a1ae" d="M418 453v4h-6v2h6l-1 2c-2.375.125-2.375.125-5 0l-2-2c.25-3.062.25-3.062 1-6 2.667-1.333 4.167-.671 7 0"/><path fill="#7d8592" d="M210 452h3v8l2-1c.407-2.322.744-4.657 1-7h2v9h-7c-1.478-2.957-1.06-5.742-1-9"/><path fill="#909aa7" d="M160 137v2l-6-1v6l6-1-1 3c-2.875.125-2.875.125-6 0l-2-2c.25-3.562.25-3.562 1-7 2.862-1.43 4.934-.6 8 0"/><path fill="#bec2c8" d="M176 524h7v2h-4v2h4v2h-4v4h-3z"/><path fill="#222836" d="M204 405c-.875 4.875-.875 4.875-2 6-2 .04-4 .043-6 0l-1-4c3.435-2.29 4.985-2.178 9-2"/><path fill="#d1f1f1" d="M775 262c3.125.375 3.125.375 6 1v2l-5-1v5l5-1-1 3c-2 .043-4 .04-6 0-1-1-1-1-1.187-3.937C773 264 773 264 775 262"/><path fill="#c2c7cd" d="M258 524h2v2l1.938.438C264 527 264 527 265 528c.04 2 .043 4 0 6h-3v-6h-2v6h-2z"/><path fill="#87909d" d="M484 453c1 1 1 1 1.063 4.563L485 461h-3v-7h-3v7h-2v-8c3.136-1.045 3.995-1.002 7 0"/><path fill="#202534" d="M358 360c-.875 4.875-.875 4.875-2 6-2 .04-4 .043-6 0l-1-4c3.435-2.29 4.985-2.178 9-2"/><path fill="#dff5f1" d="m671 256 2 1-2 3 .625 3.375c.375 3.625.375 3.625-1.5 6.313L668 272c-.778 2.182-.778 2.182-1 4h-2c-.25-2.187-.25-2.187 0-5l2.063-2.375c2.364-2.575 2.364-2.575 1.5-6.25L668 259c1.438-1.937 1.438-1.937 3-3"/><path fill="#145960" d="M166 238c-2.5 2.5-4.648 3.037-8 4.125l-3.25 1.07C152 244 152 244 150 244c.674-2.443 1.489-3.71 3.703-4.969 4.442-1.83 7.538-2.34 12.297-1.031"/><path fill="#97a1ae" d="M691 214h6v2h-4v2h4v2h-4v2h4v2h-6z"/><path fill="#c4c8cf" d="m433 524 1 3-6-1v6l6-1-1 3c-2 .043-4 .04-6 0-1-1-1-1-1.098-2.848L426 525c2.463-1.231 4.28-1.072 7-1"/><path fill="#c5c9cf" d="m230 527 1 4-3 1 3 1c-1 1-1 1-3.5 1.125C225 534 225 534 224 533c-.04-2-.043-4 0-6 2.49-1.245 3.41-.777 6 0"/><path fill="#d0d1d4" d="M286 358c1.125 3.75 1.125 3.75 0 6l3-1-2 6h-5c-1.033-2.788-1.045-3.868-.062-6.75L283 360l2 1z"/><path fill="#0e4959" d="m170 264 1 2 2 1c-2.991 1.722-5.107 2.242-8.547 2.195l-2.558-.02-2.645-.05-2.691-.027A807 807 0 0 1 150 269v-1l3.36-.367 4.39-.508 2.21-.238c3.708-.438 6.845-.886 10.04-2.887"/><path fill="#a0a4ac" d="M184 524h3v2h5l-4 1v7h-4z"/><path fill="#8b94a1" d="m171 479 3 1 1 3 2-4h2c-.543 4.565-1.795 7.973-4 12l-3-1h2z"/><path fill="#e7f8f8" d="M811 260h3v2h2v2h-2v5h2v2l-5-1c-1.125-7.75-1.125-7.75 0-10"/><path fill="#ddf5f4" d="m771 263 1 2h-5l-1 4 6-1-1 3c-2 .043-4 .04-6 0-1-1-1-1-1.062-4.562L764 263c2.698-1.349 4.152-.803 7 0"/><path fill="#e7f7f6" d="M726 262a100 100 0 0 1 5 0c1 1 1 1 1.098 2.848L732 271h-7l1-3 4 1v-2l-3-1h3v-2l-5 1z"/><path fill="#87919e" d="M678 214h9v2h-3v8h-3v-8h-3z"/><path fill="#c9cdd3" d="M306 565c2.125.375 2.125.375 4 1l1 4-2 1 2 1c-1 1-1 1-3.5 1.125C305 573 305 573 304 572c-.187-2.437-.187-2.437 0-5z"/><path fill="#64d1c6" d="M723 264h7v5c-4.316.762-7.744 1.16-12 0v-2h5z"/><path fill="#9099a6" d="M147 479c2.875-.125 2.875-.125 6 0 2 2 2 2 2.125 5.625L155 488h-2v-7h-4v7h-2z"/><path fill="#959daa" d="M138 449h6l2 2-1 3-1-2c-2.025-.652-2.025-.652-4-1v4l3 1h-3v5h-2z"/><path fill="#227862" d="M266 297h1v6h2v-4l4 1-2 4h-2v5h-3z"/><path fill="#16373a" d="M312 299c2.063.438 2.063.438 4 1v2h3l-1 4v-3l-2 1-1 3-4-1c-.043-2-.04-4 0-6z"/><path fill="#2fba8b" d="M250 297h10v2h-4v10h-2v-10h-4z"/><path fill="#cbcfd5" d="M436 524h2v2l4 1v7h-2v-6h-2v6h-2z"/><path fill="#609786" d="M191 239c6.4.37 6.4.37 9.438 3.563L202 245h-2l-1 2-1.187-1.375c-2.121-1.901-4.143-2.687-6.813-3.625z"/><path fill="#9ca6b2" d="M701 214c5.75-.125 5.75-.125 8 1v6l-.75-1.937c-1.066-2.25-1.066-2.25-3.375-2.813L703 216v7l3 1h-5z"/><path fill="#5b6271" d="m140 451 5 1 2 9h-3l-.312-1.937L143 457l-3-1z"/><path fill="#1a202f" d="m247 398 1 4h-9l1-4c2.667-1.333 4.167-.671 7 0"/><path fill="#535c69" d="M741 322h3v3h-2v9c-2-2-2-2-3-5-2.498-1.699-2.498-1.699-5-3 3-1 3-1 6 0z"/><path fill="#153137" d="m221 299 5 1v6l-5 1z"/><path fill="#d4f2f0" d="M734 260h3c1.176 3.674 1.074 7.17 1 11l-4-1c-1.125-7.75-1.125-7.75 0-10"/><path fill="#c7cbd2" d="M262 565c2-.043 4-.04 6 0 1 1 1 1 1.063 4.563L269 573h-2v-6h-3v6h-2z"/><path fill="#8f97a4" d="m236 452 5 1v2h-4l4 2-1 4h-5l-1-2 5 1v-2l-5-2z"/><path fill="#c9cace" d="m240 394 2 1-3 7h9l1-2v3h-11l-1-3-2 3c.492-5.538.492-5.538 3.063-7.875z"/><path fill="#25886c" d="M139 297h7l1 5c-2.667 1.333-4.167.671-7 0z"/><path fill="#9ca6b2" d="M185 136h3v10h-2l-1-3-1 3h-2q.463-2.22.938-4.437l.527-2.497C184 137 184 137 185 136"/><path fill="#c9ced4" d="m234 565 7 1v7h-2v-6h-3v6h-2z"/><path fill="#b7bbc2" d="M278 565h7l1 3 2 1-4 2v-4h-4v6h-2z"/><path fill="#d7dbe1" d="M414 527c2-.043 4-.04 6 0 1 1 1 1 1.063 3.563L421 533l-2-1v-4h-3v5l3 1h-3v3h-2z"/><path fill="#8c94a2" d="M194 452c2.563.25 2.563.25 5 1l1 2-6-1 1 5 5-1-1 3c-2 .043-4 .04-6 0-1-1-1-1-1.187-3.937C192 454 192 454 194 452m-9 0c2.563.25 2.563.25 5 1l1 2-6-1 1 5 5-1-1 3c-2 .043-4 .04-6 0-1-1-1-1-1.187-3.937C183 454 183 454 185 452"/><path fill="#151b2b" d="M302 352q2.514.428 5 1l1 4h-9c2-4 2-4 3-5m-114 0q2.514.428 5 1l1 4h-9c2-4 2-4 3-5"/><path fill="#151b2c" d="M168 352q2.514.428 5 1l1 4h-9c2-4 2-4 3-5"/><path fill="#c3c9cf" d="M769 322h3v12h-3z"/><path fill="#121f2c" d="M188 299c2.063.438 2.063.438 4 1v6c-1.937.563-1.937.563-4 1-1-1-1-1-1.125-4 .125-3 .125-3 1.125-4"/><path fill="#858f9c" d="M124 136h3c-.458 3.47-.891 6.674-2 10h-3c-.687-1.625-.687-1.625-1-4 1.438-3.25 1.438-3.25 3-6"/><path fill="#8e97a4" d="M158 479c2.563.25 2.563.25 5 1l1 2h-5v4l5-1-1 3c-2.375.125-2.375.125-5 0-2-2-2-2-2.25-4.5.25-2.5.25-2.5 2.25-4.5m205-27c2.563.25 2.563.25 5 1l1 2h-5v4l5-1-1 3c-2.375.125-2.375.125-5 0-2-2-2-2-2.25-4.5.25-2.5.25-2.5 2.25-4.5"/><path fill="#c6cad0" d="M399 526c2.625.375 2.625.375 5 1v6l-4 1 2-1v-5l-2 1c-.652 2.025-.652 2.025-1 4h-2c-.125-2.375-.125-2.375 0-5z"/><path fill="#7e8693" d="m191 477 1 2h2v9l-4-1-1-8h2z"/><path fill="#7e8694" d="m447 450 1 2h2v9l-4-1-1-8h2z"/><path fill="#8c94a1" d="M287 453v2l-5-1c.344 2.473.344 2.473 1 5l2 1v-2h2l-1 3c-1.666.043-3.334.04-5 0-1-1-1-1-1.062-4.562L280 453c2.667-1.333 4.167-.671 7 0"/><path fill="#eaf9f7" d="M699 262h1l1 6 4 1v-2h3l-2 4c-2.875.125-2.875.125-6 0-2-2-2-2-2.187-5.062C698 263 698 263 699 262"/><path fill="#ccf0eb" d="M709 262h6v2l-2 1c-.658 3.03-.658 3.03-1 6h-3z"/><path fill="#2c6a69" d="M174 236h2l1 3 2 1v2c-2.312 1.125-2.312 1.125-5 2l-3-2z"/><path fill="#444955" d="m161 564 1.25 1.375c1.814 1.685 3.503 2.618 5.75 3.625l-2.375.75c-2.948 1.404-3.527 2.257-4.625 5.25l-.75-2.375c-1.404-2.948-2.257-3.527-5.25-4.625l5-1z"/><path fill="#808895" d="m230 450 1 2h2v9l-4-1-1-8h2z"/><path fill="#161c2c" d="M367.063 453.938 370 454v5l-6 1a88 88 0 0 1-1-5c1-1 1-1 4.063-1.062"/><path fill="#bfc5cc" d="M735.625 321.875 738 322l2 4-2.312-.125c-2.915-.096-2.915-.096-5.688 2.125-.625-1.875-.625-1.875-1-4 2-2 2-2 4.625-2.125"/><path fill="#97a1ae" d="M644 214h8v2h-3v8h-2v-8h-3z"/><path fill="#9aa4b1" d="M615 214h8v2h-3v8h-2v-8h-3z"/><path fill="#c0cad6" d="m894 143 3 1-2 5-2-1c-1.537-.225-3.08-.408-4.625-.562l-2.477-.254L884 147v-2c.957-.09.957-.09 1.934-.184l2.504-.254c.823-.08 1.647-.162 2.496-.246 2.053-.105 2.053-.105 3.066-1.316"/><path fill="#7b8592" d="M883 134c3 0 3 0 6 1v2l2 1-2 2c-2.625-.375-2.625-.375-5-1z"/><path fill="#c6cad0" d="M272 565c2.625.375 2.625.375 5 1v2h-4v3l4 1c-1 1-1 1-3.5 1.125C271 573 271 573 270 572c-.187-2.437-.187-2.437 0-5z"/><path fill="#ced2d8" d="m307.469 530.867 3.031.008 3.031-.008C316 531 316 531 317 532c.04 1.666.043 3.334 0 5h-2l-1-4-8-1-1 5h-1a100 100 0 0 1 0-5c1-1 1-1 3.469-1.133"/><path fill="#1a2030" d="m194 454 7 1v3l-6 2c-1-1-1-1-1.062-3.562zm-9 0 7 1v3l-6 2c-1-1-1-1-1.062-3.562z"/><path fill="#d4d5d8" d="m162 394 5 1 1 3h-3v-3h-2v19h-1z"/><path fill="#2fba8a" d="M220 297c5.75-.125 5.75-.125 8 1v7l-.687-1.875c-1.692-2.74-3.305-3.175-6.313-4.125v8h-1z"/><path fill="#7e8694" d="M165 479h5v2h-2v7h-3z"/><path fill="#363d4d" d="m476 452 4 1h-3v8l-7-2v-2h5z"/><path fill="#8d95a3" d="M289 450h2v2h2v2h-2v6l2 1h-4a491 491 0 0 1-.562-4.375l-.317-2.46C288 452 288 452 289 450"/><path fill="#2eb989" d="M210 297h2v12l-4-1z"/><path fill="#448178" d="M201 258c.971 3.022 1.192 5.019 0 8-3 2-3 2-6 2 0-3 0-3 2.438-5.562.845-.805 1.69-1.61 2.562-2.438z"/><path fill="#19686c" d="m169 245 2 3-1 3-1.125-1.437c-2.501-2.085-4.69-2.21-7.875-2.563v-2c3.328-1.11 4.7-1.016 8 0"/><path fill="#1c5d60" d="M153 226h1v11h-3a293 293 0 0 1-.125-4.375l-.07-2.46C151 228 151 228 153 226"/><path fill="#79879b" d="m843.625 129.438 2.477.308L848 130l-1 3h-10v-3c2.52-1.26 3.854-.919 6.625-.562"/><path fill="#323847" d="M419 452h1v9l-8-2v-2h6z"/><path fill="#232a39" d="M233 452c2 2 2 2 2 4l4 2v2q-2.988.57-6 1c-1-1-1-1-1.125-3.937C232 454 232 454 233 452"/><path fill="#29595b" d="m181 258 9 1v1h-5v2h7v1l-3.812.125-2.145.07C184 263 184 263 181 261z"/><path fill="#8b9099" d="m294 567 5 1-1 5h-4l-1 3z"/><path fill="#767b85" d="M191 567h6v5l-6 1z"/><path fill="#d4d8de" d="m383 527 .75 1.938c1.066 2.25 1.066 2.25 3.375 2.812L389 532v-2l-2-1h4l-1 5c-2 .043-4 .04-6 0-1-1-1-1-1.062-4.062z"/><path fill="#d3d8dd" d="m218 526 4 1-1 2-2-1v2l4 1-1 3h-5v-2l4 1v-2l-4-1z"/><path fill="#d1d5db" d="M245 526h2v6h3v-5h1v7c-1.666.043-3.334.04-5 0-1-1-1-1-1.062-4.562z"/><path fill="#393e4c" d="m385 526 7 1v2l-3 1v2h-4z"/><path fill="#b5b9c1" d="M387.125 523.875 390 524l1 3-6-1v5l-3 1c-.125-2.875-.125-2.875 0-6 2-2 2-2 5.125-2.125"/><path fill="#2db386" d="M187 297c2.875-.125 2.875-.125 6 0 2 2 2 2 2.125 5.125L195 305c-2.51-1.255-2.871-2.5-4-5h-4z"/><path fill="#f0faf9" d="M682 269h2v3h3v2h-3v3h-2v-3h-3v-2h3z"/><path fill="#1f6365" d="M178 265c2.195.254 4.382.578 6.563.938 1.796.291 1.796.291 3.628.59L191 267v1l-2.75.438c-3.095.476-3.095.476-5.437 1.187C181 270 181 270 178 269l-1-3z"/><path fill="#97a1ae" d="M142 136h2v8h4v2h-6z"/><path fill="#d4d8df" d="M318 566h1v7h-6l-1-5h2l2 3zm-70 0h1v7h-6l-1-5h2l2 3z"/><path fill="#c6cad1" d="M207 564c2.063.438 2.063.438 4 1v2h-2v5l2 1h-4c-.879-6.152-.879-6.152-1-8z"/><path fill="#888c96" d="m202 524 1 2c2.025.652 2.025.652 4 1l-1 5h-4z"/><path fill="#2fbc8c" d="M299 297h2v12h-3z"/><path fill="#151f2f" d="m167 138 4 1v5l-5-1z"/><path fill="#bdc1c8" d="M164 569c2.063.438 2.063.438 4 1l-3 2c-1.213 3.054-1.213 3.054-2 6l-3-1c2.875-6.875 2.875-6.875 4-8"/><path fill="#2fbc8b" d="M202 297h3v4h-2l1 2c.04 2 .043 4 0 6h-2z"/><path fill="#29c0bc" d="m767 264 6 1v3l-7 1z"/><path fill="#3d7571" d="M164 223c2.063.438 2.063.438 4 1v3l-14-1v-1c.957-.09.957-.09 1.934-.184l2.504-.254c.823-.08 1.647-.162 2.496-.246 2.053-.105 2.053-.105 3.066-1.316"/><path fill="#a4a8b0" d="m237 526 3 1 1 5h-3v2h-3c.875-5.75.875-5.75 2-8"/><path fill="#484d5a" d="M356 528h6v5h-5z"/><path fill="#98a1ae" d="M270 455h8v2h-6v2h6l-1 2c-2.375.125-2.375.125-5 0l-2-2z"/><path fill="#9ca4b1" d="m154 454 1 3h-5l1 2h4v2c-2 .043-4 .04-6 0-1-1-1-1-1.062-3.562L148 455l6 1z"/><path fill="#1d2433" d="M391 454c2 0 2 0 3.5 1.438L396 457l2 1v2q-2.988.57-6 1c-1-1-1-1-1.062-4.062z"/><path fill="#d6d7d9" d="M358 349v1l-7 1-1 4-4-1c2.72-6.021 5.9-5.098 12-5"/><path fill="#a3e4e1" d="M763 264h1l-1 7-8-1v-2l2.313-.312c2.882-.738 3.782-1.498 5.687-3.688"/><path fill="#e9f8f7" d="m741 262 6 1v4h-6l-1 2 1-4h3l-3-1z"/><path fill="#599082" d="m175 218 1 2 2 1a318 318 0 0 1-5 6h-1c-.37-5.538-.37-5.538 1.5-7.875z"/><path fill="#404551" d="M330 526h4v6h-4z"/><path fill="#8f97a5" d="M323 452h5v2h-3v7h-2zm-58 0h5v2h-3v7h-2z"/><path fill="#25bfbd" d="M776 264h6v5h-6z"/><path fill="#222938" d="M595 216c2 .313 2 .313 4 1l1 2-2 1v2h-4a100 100 0 0 1 0-5z"/><path fill="#7f8895" d="M657 214h4l-1 6-4-1z"/><path fill="#d4d8de" d="m300 564 3 1v8h-3c-.879-6.152-.879-6.152-1-8z"/><path fill="#c1c5cc" d="M341 526h5l1 2h-4v6h-2z"/><path fill="#727781" d="M258 524v10l-3-1v-8c2-1 2-1 3-1"/><path fill="#97a0ad" d="M195 483h7v1h-5l1 2h5l-1 2h-6z"/><path fill="#9098a6" d="M338 452h2l1 7 3 1v1c-1.666.043-3.334.04-5 0-1-1-1-1-1.098-2.848z"/><path fill="#206e5c" d="M147 303v5l-3 1v-2h-3v-3c4.875-1 4.875-1 6-1"/><path fill="#2aa37c" d="M334 298v3h-3v-2h-3l-1 2-2-1v-2c3.069-1.534 5.7-.55 9 0"/><path fill="#b1e8e2" d="m717 262 6 1-1 3h-5z"/><path fill="#145b61" d="m175 259 1 2 2 1c-1.812 2-1.812 2-4 4h-3a56.5 56.5 0 0 1 4-7"/><path fill="#52867d" d="m172 217-1 3-9-2v-1c3.695-.95 6.305-.95 10 0"/><path fill="#444956" d="M273 567q2.514.428 5 1v3l-5 1c-.562-1.937-.562-1.937-1-4z"/><path fill="#6e737d" d="M200 524h1v10l-7-2v-1h5z"/><path fill="#c8ccd3" d="M373 527h2v2h2v2h-2v2h-2v-2h-3v-2h3z"/><path fill="#3e424f" d="m297 515 3 1-1.68 1.46c-.724.633-1.449 1.264-2.195 1.915l-2.18 1.898A91 91 0 0 0 290 525c.473-4.255 2.964-6.192 6-9zm-152 0 3 1-1.68 1.46c-.724.633-1.449 1.264-2.195 1.915l-2.18 1.898A91 91 0 0 0 138 525c.473-4.255 2.964-6.192 6-9z"/><path fill="#1d2333" d="M206 481h4v5h-4z"/><path fill="#656c7b" d="m145 480-1 3h-5l-1-3c2.667-1.333 4.167-.671 7 0"/><path fill="#1b2132" d="M453 454h4v5h-4z"/><path fill="#1d2333" d="M431 454h4v5h-4z"/><path fill="#1b2131" d="M203 454h4v5h-4z"/><path fill="#656c7b" d="m475 453-1 3h-5l-1-3c2.667-1.333 4.167-.671 7 0"/><path fill="#69717f" d="m418 453-1 3h-5l-1-3c2.667-1.333 4.167-.671 7 0"/><path fill="#2eb789" d="M314 303h4v5l-7 1c1-2 1-2 4-3l1-2z"/><path fill="#e7f8f8" d="M788 265h2c.043 1.666.04 3.334 0 5-1 1-1 1-4.062 1.063L783 271l1-3 4 1z"/><path fill="#3d7c77" d="M193.375 258.875 195 260c-2 2-2 2-3.945 2.195L185 262v-2c5.415-2.215 5.415-2.215 8.375-1.125"/><path fill="#436b66" d="M182 227c1 2 1 2 1 6 1.417 1.751 1.417 1.751 3 3h-3v2h-2l-1-3 1-1v-3c0-3 0-3 1-4"/><path fill="#d4d8de" d="m433 524 1 3h-6l-2 4v-6c2.463-1.231 4.28-1.072 7-1"/><path fill="#454a56" d="m309 522 4 1-1 4-4-1z"/><path fill="#6b7280" d="M175 456c2.063.438 2.063.438 4 1l1 4h-5c-.562-1.937-.562-1.937-1-4zm-17 0c2.063.438 2.063.438 4 1l1 4h-5c-.562-1.937-.562-1.937-1-4z"/><path fill="#343a49" d="M155 454c2 3 2 3 2 6h-6l-1-3h5z"/><path fill="#1b2232" d="M489 454h3v5h-4z"/><path fill="#1a202f" d="M331 454h3v5h-4z"/><path fill="#1b2131" d="M254 454h3v5h-4z"/><path fill="#2db486" d="M237 297h6l1 3-6-1v2h-2z"/><path fill="#b9eaec" d="M811 260h3v2h2l-1 2-3-1v7h-1c-1.125-7.75-1.125-7.75 0-10"/><path fill="#6ca492" d="m200 245 4 1v6h-2c-1.46-2.647-2-3.894-2-7"/><path fill="#999ea6" d="M451 525v3l-6 2v-4c1.207.03 1.207.03 2.438.063 2.496.233 2.496.233 3.562-1.063"/><path fill="#5d6573" d="M380 456q2.514.428 5 1l-1 3c-2.062.688-2.062.688-4 1-.562-1.937-.562-1.937-1-4z"/><path fill="#949daa" d="M302 453h2v3l3 1h-3v3h-2v-3l-3-1h3z"/><path fill="#1d2332" d="M315 454h4v5h-4z"/><path fill="#919aa7" d="M216 452h2v9h-3z"/><path fill="#2eba8a" d="M267 297h6v2h-4v4h-2z"/><path fill="#d4d8dd" d="m254 525 1 2 2 1h-2v5l2 1-4-1c-.125-5.75-.125-5.75 1-8"/><path fill="#8f97a4" d="m204 481 2 1c.625 2.063.625 2.063 1 4l4 1v1c-2 .043-4 .04-6 0-1-1-1-1-1.062-4.062z"/><path fill="#8f97a5" d="m429 454 2 1c.625 2.063.625 2.063 1 4l4 1v1c-2 .043-4 .04-6 0-1-1-1-1-1.062-4.062z"/><path fill="#1d2332" d="M350 454h3v5h-4z"/><path fill="#a6e5e2" d="m755 260 1 2h2l1 5h-3v-2h-2z"/><path fill="#114e58" d="m157 246 10 1v1l-10 1z"/><path fill="#286a6d" d="m167 233 1 2 2 1c-3 2-3 2-7 2 1-3 1-3 4-5"/><path fill="#6d7b8f" d="m842 140 2 1v6h-3c-.043-2-.04-4 0-6z"/><path fill="#c2c7cd" d="M154 573h3v5l-4-1z"/><path fill="#636873" d="M215 528h2l1 2 3 1v2l-6 1z"/><path fill="#353b4a" d="M145 481h1v6h-5l-1-3h5z"/><path fill="#878e9c" d="m318 460 3 1-2 4-5-1v-2l5 1z"/><path fill="#e3e4e5" d="M377 342h4v4l-5-1z"/><path fill="#dff5f3" d="M735 263h2l1 8h-3z"/><path fill="#8e97a5" d="M596 219h5c-.312 1.938-.312 1.938-1 4l-3 1-2-2h3v-2z"/><path fill="#91cca7" d="M190 215c6.75.75 6.75.75 9 3-1.687.75-1.687.75-4 1-2.75-1.937-2.75-1.937-5-4"/><path fill="#151d2d" d="M704 216h3v6h-3z"/><path fill="#9da7b4" d="M691 214h6v2h-4v3h-2z"/><path fill="#656a75" d="M416 528h3l1 6-4-1z"/><path fill="#989ca5" d="m207 528 3 2 3 1v2c-3.75 1.125-3.75 1.125-6 0z"/><path fill="#414653" d="m455 526 .813 1.938c1.074 2.393 1.074 2.393 4.187 3.062v2l-6-1z"/><path fill="#dce0e5" d="m452 525 3 1v2h-2v5l2 1h-3c-1.125-6.75-1.125-6.75 0-9"/><path fill="#2d3242" d="m203 482 1 3-6 2-1-3h6z"/><path fill="#dcdddf" d="m194 395 3 1-1 4-4-1z"/><path fill="#d2d4d6" d="m406 349 1.813.5c2.3.611 2.3.611 5.187.5l-1 3h-2l-1 2-.375-2.437L408 350zm-148 0 1.813.5c2.3.611 2.3.611 5.187.5l-1 3h-2l-1 2-.375-2.437L260 350z"/><path fill="#dff5f5" d="m775 262 6 1v2l-2.375-.062c-2.606-.125-2.606-.125-4.625 1.062z"/><path fill="#2f7674" d="M179 246c2 3 2 3 1.75 6.125L180 255l-2 1z"/><path fill="#182b35" d="M179 240h2c-1.152 2.468-2.048 4.048-4 6h-3v-2l5-2z"/><path fill="#67727f" d="m179 140 1 2 4-2-2 6h-3z"/></svg>